*
G04 Mass Parameters ***
*
G04 Image ***
*
%IND:\UTENTI\00.LAVORI IN CORSO\METALTRONICA\23-326-0\23-326-0.IN1*%
%ICAS*%
%MOIN*%
%IPPOS*%
%ASAXBY*%
G74*%FSLAN2X34Y34*%
*
G04 Aperture Definitions ***
*
%AMTHERMAL48*
1,1,0.1211,0,0,*
1,0,0.0972,0,0,*
21,0,0.1212,0.0100,0,0,45.0*
21,0,0.1212,0.0100,0,0,135.0*%
%AMTHERMAL52*
1,1,0.1093,0,0,*
1,0,0.0854,0,0,*
21,0,0.1094,0.0100,0,0,45.0*
21,0,0.1094,0.0100,0,0,135.0*%
%AMTHERMAL56*
1,1,0.1172,0,0,*
1,0,0.0933,0,0,*
21,0,0.1173,0.0100,0,0,315.0*
21,0,0.1173,0.0100,0,0,45.0*%
%AMTHERMAL60*
1,1,0.1172,0,0,*
1,0,0.0933,0,0,*
21,0,0.1173,0.0100,0,0,135.0*
21,0,0.1173,0.0100,0,0,225.0*%
%ADD10C,0.1850*%
%ADD11C,0.0394*%
%ADD12R,0.0380X0.0320*%
%ADD13R,0.0886X0.0905*%
%ADD14R,0.0501X0.0404*%
%ADD15R,0.0710X0.0400*%
%ADD16O,0.0787X0.1181*%
%ADD17C,0.0669*%
%ADD18R,0.0669X0.0669*%
%ADD19C,0.0590*%
%ADD20R,0.0590X0.0590*%
%ADD21C,0.0787*%
%ADD22R,0.0787X0.0787*%
%ADD23R,0.0413X0.0236*%
%ADD24C,0.0187*%
%ADD25O,0.0650X0.0256*%
%ADD26C,0.0800*%
%ADD27R,0.1580X0.0680*%
%ADD28R,0.0550X0.0680*%
%ADD29C,0.0118*%
%ADD30R,0.0984X0.0984*%
%ADD31O,0.0394X0.0110*%
%ADD32O,0.0110X0.0394*%
%ADD33O,0.0700X0.0110*%
%ADD34R,0.0700X0.0110*%
%ADD35O,0.0110X0.0700*%
%ADD36R,0.0110X0.0700*%
%ADD37R,0.0236X0.0512*%
%ADD38C,0.0050*%
%ADD39C,0.0100*%
%ADD40C,0.0080*%
%ADD41C,0.0250*%
%ADD42C,0.0276*%
%ADD43C,0.0500*%
%ADD44C,0.0197*%
%ADD45C,0.0276*%
%ADD46C,0.2047*%
%ADD47O,0.0984X0.1378*%
%ADD48THERMAL48*%
%ADD49R,0.0866X0.0866*%
%ADD50O,0.0984X0.1378*%
%ADD51C,0.0866*%
%ADD52THERMAL52*%
%ADD53C,0.0708*%
%ADD54R,0.0708X0.0708*%
%ADD55C,0.1027*%
%ADD56THERMAL56*%
%ADD57R,0.0984X0.0984*%
%ADD58C,0.0748*%
%ADD59C,0.1100*%
%ADD60THERMAL60*%
%ADD61R,0.0984X0.0984*%
%ADD62C,0.0050*%
%ADD63C,0.0394*%
%ADD64C,0.0050*%
%ADD65C,0.0748*%
*
G04 Plot Data ***
*
G54D39*
G01X0019042Y0001658D02*
X0019208D01*
X0019125D02*
Y0002158D01*
X0019208Y0002075D01*
X0019533Y0002158D02*
Y0001658D01*
X0019617Y0001742D01*
X0019783Y0002075D01*
X0019867Y0002158D01*
Y0001658D01*
X0020108D02*
X0020275D01*
X0020192D02*
Y0002158D01*
X0020108D02*
X0020275D01*
X0020286Y0011330D02*
X0020277D01*
X0020339Y0011240D02*
X0020224D01*
X0020434Y0011150D02*
X0020129D01*
X0019890Y0012350D02*
Y0011925D01*
X0019800Y0012350D02*
Y0011916D01*
X0020970Y0012350D02*
Y0011806D01*
X0020880Y0012350D02*
Y0011872D01*
X0020790Y0012350D02*
Y0011909D01*
X0020700Y0012350D02*
Y0011924D01*
X0020610Y0012350D02*
Y0011920D01*
X0020520Y0012350D02*
Y0011895D01*
X0021253Y0011870D02*
X0020884D01*
X0021143Y0011780D02*
X0020995D01*
X0021082Y0011690D02*
X0021055D01*
X0021073Y0011330D02*
X0021065D01*
X0021126Y0011240D02*
X0021011D01*
X0021221Y0011150D02*
X0020916D01*
X0020430Y0012350D02*
Y0011847D01*
X0020340Y0012350D02*
Y0011761D01*
X0021780Y0012350D02*
Y0011783D01*
X0021690Y0012350D02*
Y0011859D01*
X0021600Y0012350D02*
Y0011902D01*
X0021510Y0012350D02*
Y0011922D01*
X0021420Y0012350D02*
Y0011923D01*
X0021330Y0012350D02*
Y0011904D01*
X0019470Y0011420D02*
X0019400D01*
X0021825Y0011870D02*
X0021672D01*
X0021825Y0011780D02*
X0021782D01*
X0021825Y0011240D02*
X0021799D01*
X0021825Y0011150D02*
X0021704D01*
X0021825Y0011925D02*
Y0011722D01*
X0021150Y0012350D02*
Y0011788D01*
X0021060Y0012350D02*
Y0011681D01*
X0022590Y0012350D02*
Y0011925D01*
X0022500Y0012350D02*
Y0011925D01*
X0022410Y0012350D02*
Y0011925D01*
X0022320Y0012350D02*
Y0011925D01*
X0022230Y0012350D02*
Y0011925D01*
X0022140Y0012350D02*
Y0011925D01*
X0022050Y0012350D02*
Y0011925D01*
X0021870Y0012350D02*
Y0011925D01*
X0023250Y0011870D02*
X0022675D01*
X0023250Y0011780D02*
X0022675D01*
X0023250Y0011690D02*
X0022675D01*
X0023250Y0011600D02*
X0022675D01*
X0023250Y0011510D02*
X0022675D01*
X0023250Y0011420D02*
X0022675D01*
X0023250Y0011330D02*
X0022675D01*
X0023250Y0011240D02*
X0022675D01*
X0019587Y0005050D02*
X0019888Y0004750D01*
X0020188Y0004449D02*
X0019888Y0004750D01*
X0019587Y0004449D02*
X0019888Y0004750D01*
X0020188Y0005050D02*
X0019888Y0004750D01*
X0021162Y0005050D02*
X0021463Y0004750D01*
X0021763Y0004449D02*
X0021463Y0004750D01*
X0021162Y0004449D02*
X0021463Y0004750D01*
X0021763Y0005050D02*
X0021463Y0004750D01*
X0019587Y0007300D02*
X0019888Y0007000D01*
X0020188Y0006699D02*
X0019888Y0007000D01*
X0019587Y0006699D02*
X0019888Y0007000D01*
X0020188Y0007300D02*
X0019888Y0007000D01*
X0021162Y0007300D02*
X0021463Y0007000D01*
X0021763Y0006699D02*
X0021463Y0007000D01*
X0021162Y0006699D02*
X0021463Y0007000D01*
X0021763Y0007300D02*
X0021463Y0007000D01*
X0019587Y0009550D02*
X0019888Y0009250D01*
X0020188Y0008949D02*
X0019888Y0009250D01*
X0019587Y0008949D02*
X0019888Y0009250D01*
X0020188Y0009550D02*
X0019888Y0009250D01*
X0021162Y0009550D02*
X0021463Y0009250D01*
X0021763Y0008949D02*
X0021463Y0009250D01*
X0021162Y0008949D02*
X0021463Y0009250D01*
X0021763Y0009550D02*
X0021463Y0009250D01*
X0019587Y0011800D02*
X0019888Y0011500D01*
X0020188Y0011199D02*
X0019888Y0011500D01*
X0019587Y0011199D02*
X0019888Y0011500D01*
X0020188Y0011800D02*
X0019888Y0011500D01*
X0021162Y0011800D02*
X0021463Y0011500D01*
X0021763Y0011199D02*
X0021463Y0011500D01*
X0021162Y0011199D02*
X0021463Y0011500D01*
X0016470Y0008300D02*
Y0005250D01*
X0022230Y0004325D02*
Y0003050D01*
X0023250Y0003230D02*
X0018000D01*
X0023250Y0011150D02*
X0022675D01*
X0019474Y0011600D02*
X0019400D01*
X0018810Y0010800D02*
Y0010461D01*
X0019620Y0004420D02*
Y0003050D01*
X0016230Y0008300D02*
Y0005250D01*
X0019530Y0012350D02*
Y0011729D01*
X0018522Y0010340D02*
X0017650D01*
X0017820Y0009466D02*
Y0005250D01*
X0018720Y0009934D02*
Y0003050D01*
X0023250Y0009800D02*
X0018663D01*
X0021060Y0004569D02*
Y0003050D01*
X0019980Y0004335D02*
Y0003050D01*
X0021690Y0004391D02*
Y0003050D01*
X0022500Y0004325D02*
Y0003050D01*
X0022675Y0005175D02*
X0021825D01*
X0022675Y0004325D02*
X0021825D01*
X0022675Y0005175D02*
Y0004325D01*
X0019498Y0006830D02*
X0016230D01*
X0021960Y0004325D02*
Y0003050D01*
X0019470Y0006920D02*
X0016230D01*
X0019463Y0007010D02*
X0016230D01*
X0022675Y0007425D02*
X0021825D01*
X0022675Y0006575D02*
X0021825D01*
X0022675Y0007425D02*
Y0006575D01*
X0021060Y0011319D02*
Y0009431D01*
X0020070Y0004366D02*
Y0003050D01*
X0019474Y0009350D02*
X0017650D01*
X0018613Y0010430D02*
X0017650D01*
X0022675Y0009675D02*
X0021825D01*
X0022675Y0008825D02*
X0021825D01*
X0022675Y0009675D02*
Y0008825D01*
X0021240Y0012350D02*
Y0011862D01*
X0020160Y0004424D02*
Y0003050D01*
X0023250Y0011960D02*
X0019400D01*
X0022675Y0011925D02*
X0021825D01*
X0022675Y0011075D02*
X0021825D01*
X0022675Y0011925D02*
Y0011075D01*
X0023250Y0007820D02*
X0016230D01*
X0018000Y0005250D02*
Y0003050D01*
X0023250D02*
X0018000D01*
X0023250Y0012350D02*
Y0003050D01*
Y0012350D02*
X0019400D01*
Y0010800D01*
X0017650D01*
Y0008300D01*
X0017682Y0009710D02*
X0017650D01*
X0018000Y0005250D02*
X0016230D01*
X0021330Y0004346D02*
Y0003050D01*
X0023220Y0012350D02*
Y0003050D01*
X0023130Y0012350D02*
Y0003050D01*
X0023040Y0012350D02*
Y0003050D01*
X0022950Y0012350D02*
Y0003050D01*
X0022860Y0012350D02*
Y0003050D01*
X0021825Y0011278D02*
Y0011075D01*
Y0009028D02*
Y0008825D01*
X0019474Y0004850D02*
X0018000D01*
X0023250Y0004400D02*
X0022675D01*
X0022590Y0004325D02*
Y0003050D01*
X0023250Y0006650D02*
X0022675D01*
X0022320Y0004325D02*
Y0003050D01*
X0021825Y0006778D02*
Y0006575D01*
X0021060Y0006819D02*
Y0004931D01*
X0020880Y0004377D02*
Y0003050D01*
X0021780Y0004467D02*
Y0003050D01*
X0021825Y0004528D02*
Y0004325D01*
X0019800Y0004334D02*
Y0003050D01*
X0020790Y0004341D02*
Y0003050D01*
X0020610Y0004330D02*
Y0003050D01*
X0021870Y0004325D02*
Y0003050D01*
X0019463Y0004760D02*
X0018000D01*
X0019890Y0004325D02*
Y0003050D01*
X0020970Y0004444D02*
Y0003050D01*
X0021420Y0004327D02*
Y0003050D01*
X0022050Y0004325D02*
Y0003050D01*
X0018487Y0010250D02*
X0017650D01*
X0023250Y0007730D02*
X0016230D01*
X0020250Y0004528D02*
Y0003050D01*
X0021960Y0012350D02*
Y0011925D01*
X0019530Y0004520D02*
Y0003050D01*
X0019440Y0012350D02*
Y0003050D01*
X0019350Y0010800D02*
Y0003050D01*
X0019260Y0010800D02*
Y0003050D01*
X0017694Y0009620D02*
X0017650D01*
X0019080Y0010800D02*
Y0003050D01*
X0018990Y0010081D02*
Y0003050D01*
X0018900Y0009978D02*
Y0003050D01*
X0018810Y0009939D02*
Y0003050D01*
X0019646Y0008900D02*
X0017650D01*
X0018630Y0009713D02*
Y0003050D01*
X0018540Y0009622D02*
Y0003050D01*
X0018450Y0009587D02*
Y0003050D01*
X0018263Y0009620D02*
X0018205D01*
X0018270Y0009616D02*
Y0003050D01*
X0021763Y0011800D02*
X0021463Y0011500D01*
X0018180Y0009563D02*
Y0003050D01*
X0018090Y0009472D02*
Y0003050D01*
X0017910Y0009435D02*
Y0005250D01*
X0023250Y0003140D02*
X0018000D01*
X0017730Y0009547D02*
Y0005250D01*
X0017550Y0008300D02*
Y0005250D01*
X0017460Y0008300D02*
Y0005250D01*
X0017370Y0008300D02*
Y0005250D01*
X0017280Y0008300D02*
Y0005250D01*
X0017190Y0008300D02*
Y0005250D01*
X0017100Y0008300D02*
Y0005250D01*
X0017010Y0008300D02*
Y0005250D01*
X0016920Y0008300D02*
Y0005250D01*
X0016830Y0008300D02*
Y0005250D01*
X0016740Y0008300D02*
Y0005250D01*
X0019678Y0011870D02*
X0019400D01*
X0016650Y0008300D02*
Y0005250D01*
X0016560Y0008300D02*
Y0005250D01*
X0017650Y0008300D02*
X0016230D01*
X0023250Y0012320D02*
X0019400D01*
X0023250Y0012230D02*
X0019400D01*
X0020700Y0004326D02*
Y0003050D01*
X0022140Y0004325D02*
Y0003050D01*
X0022410Y0004325D02*
Y0003050D01*
X0023250Y0012140D02*
X0019400D01*
X0023250Y0010970D02*
X0019400D01*
X0019498Y0011330D02*
X0019400D01*
X0019551Y0011240D02*
X0019400D01*
X0019646Y0011150D02*
X0019400D01*
X0023250Y0011060D02*
X0019400D01*
X0023250Y0010880D02*
X0019400D01*
X0023250Y0010790D02*
X0017650D01*
X0023250Y0010700D02*
X0017650D01*
X0017761Y0009890D02*
X0017650D01*
X0017702Y0009800D02*
X0017650D01*
X0023250Y0010610D02*
X0017650D01*
X0019710Y0012350D02*
Y0011886D01*
X0022680Y0012350D02*
Y0003050D01*
X0019470Y0009170D02*
X0017650D01*
X0021150Y0004462D02*
Y0003050D01*
X0020340Y0004489D02*
Y0003050D01*
X0023250Y0010070D02*
X0018984D01*
X0023250Y0009980D02*
X0018902D01*
X0017743Y0009530D02*
X0017650D01*
X0017886Y0009440D02*
X0017650D01*
X0019498Y0009080D02*
X0017650D01*
X0019551Y0008990D02*
X0017650D01*
X0023250Y0008810D02*
X0017650D01*
X0023250Y0008720D02*
X0017650D01*
X0023250Y0008630D02*
X0017650D01*
X0023250Y0008540D02*
X0017650D01*
X0023250Y0008450D02*
X0017650D01*
X0023250Y0008360D02*
X0017650D01*
X0023250Y0008270D02*
X0016230D01*
X0023250Y0008180D02*
X0016230D01*
X0023250Y0008090D02*
X0016230D01*
X0023250Y0008000D02*
X0016230D01*
X0023250Y0007910D02*
X0016230D01*
X0016290Y0008300D02*
Y0005250D01*
X0023250Y0007640D02*
X0016230D01*
X0021060Y0009069D02*
Y0007181D01*
X0020520Y0004354D02*
Y0003050D01*
X0019551Y0006740D02*
X0016230D01*
X0019710Y0004364D02*
Y0003050D01*
X0023250Y0007550D02*
X0016230D01*
X0019678Y0007370D02*
X0016230D01*
X0019568Y0007280D02*
X0016230D01*
X0019507Y0007190D02*
X0016230D01*
X0019474Y0007100D02*
X0016230D01*
X0019646Y0006650D02*
X0016230D01*
X0023250Y0007460D02*
X0016230D01*
X0023250Y0006560D02*
X0016230D01*
X0023250Y0006470D02*
X0016230D01*
X0023250Y0006380D02*
X0016230D01*
X0023250Y0006290D02*
X0016230D01*
X0023250Y0006200D02*
X0016230D01*
X0023250Y0006110D02*
X0016230D01*
X0023250Y0006020D02*
X0016230D01*
X0023250Y0005930D02*
X0016230D01*
X0023250Y0005840D02*
X0016230D01*
X0023250Y0005750D02*
X0016230D01*
X0023250Y0005660D02*
X0016230D01*
X0023250Y0005570D02*
X0016230D01*
X0023250Y0005480D02*
X0016230D01*
X0023250Y0005390D02*
X0016230D01*
X0021240Y0004388D02*
Y0003050D01*
X0020430Y0004403D02*
Y0003050D01*
X0019498Y0004580D02*
X0018000D01*
X0023250Y0005300D02*
X0016230D01*
X0023250Y0005210D02*
X0018000D01*
X0019678Y0005120D02*
X0018000D01*
X0019568Y0005030D02*
X0018000D01*
X0019507Y0004940D02*
X0018000D01*
X0019551Y0004490D02*
X0018000D01*
X0019646Y0004400D02*
X0018000D01*
X0023250Y0004310D02*
X0018000D01*
X0023250Y0004220D02*
X0018000D01*
X0023250Y0004130D02*
X0018000D01*
X0023250Y0004040D02*
X0018000D01*
X0023250Y0003950D02*
X0018000D01*
X0023250Y0003860D02*
X0018000D01*
X0023250Y0003770D02*
X0018000D01*
X0023250Y0003680D02*
X0018000D01*
X0023250Y0003590D02*
X0018000D01*
X0023250Y0003500D02*
X0018000D01*
X0023250Y0003410D02*
X0018000D01*
X0023250Y0003320D02*
X0018000D01*
X0016380Y0008300D02*
Y0005250D01*
X0017640Y0008300D02*
Y0005250D01*
X0018000Y0009437D02*
Y0005250D01*
X0023250Y0009710D02*
X0018628D01*
X0017910Y0010800D02*
Y0009964D01*
X0017820Y0010800D02*
Y0009934D01*
X0017730Y0010800D02*
Y0009852D01*
X0018180Y0010800D02*
Y0010002D01*
X0018090Y0010800D02*
Y0009928D01*
X0023250Y0012050D02*
X0019400D01*
X0019463Y0011510D02*
X0019400D01*
X0019620Y0012350D02*
Y0011830D01*
X0018000Y0010800D02*
Y0009963D01*
X0019568Y0011780D02*
X0019400D01*
X0023250Y0010430D02*
X0018887D01*
X0019678Y0009620D02*
X0018537D01*
X0018360Y0009585D02*
Y0003050D01*
X0023250Y0010250D02*
X0019013D01*
X0019170Y0010800D02*
Y0003050D01*
X0023250Y0010340D02*
X0018978D01*
X0023250Y0009890D02*
X0018664D01*
X0023250Y0010160D02*
X0019014D01*
X0019568Y0009530D02*
X0018157D01*
X0019507Y0009440D02*
X0018013D01*
X0019507Y0011690D02*
X0019400D01*
X0018990Y0010800D02*
Y0010318D01*
X0018900Y0010800D02*
Y0010422D01*
X0018720Y0010800D02*
Y0010466D01*
X0018450Y0010800D02*
Y0010113D01*
X0018360Y0010800D02*
Y0010114D01*
X0018270Y0010800D02*
Y0010084D01*
X0023250Y0010520D02*
X0017650D01*
X0018485Y0010160D02*
X0017650D01*
X0018166Y0009980D02*
X0017650D01*
X0020250Y0006778D02*
Y0004972D01*
X0020160Y0006674D02*
Y0005076D01*
X0020070Y0006616D02*
Y0005134D01*
X0019980Y0006585D02*
Y0005165D01*
X0019890Y0006575D02*
Y0005175D01*
X0019800Y0006584D02*
Y0005166D01*
X0019710Y0006614D02*
Y0005136D01*
X0019620Y0006670D02*
Y0005080D01*
X0019530Y0006770D02*
Y0004979D01*
X0020466Y0005120D02*
X0020097D01*
X0020355Y0005030D02*
X0020207D01*
X0020295Y0004940D02*
X0020268D01*
X0020286Y0004580D02*
X0020277D01*
X0020339Y0004490D02*
X0020224D01*
X0020434Y0004400D02*
X0020129D01*
X0021253Y0005120D02*
X0020884D01*
X0021143Y0005030D02*
X0020995D01*
X0021082Y0004940D02*
X0021055D01*
X0021073Y0004580D02*
X0021065D01*
X0021126Y0004490D02*
X0021011D01*
X0021221Y0004400D02*
X0020916D01*
X0020970Y0006694D02*
Y0005056D01*
X0020880Y0006627D02*
Y0005122D01*
X0020790Y0006591D02*
Y0005159D01*
X0020700Y0006576D02*
Y0005174D01*
X0020610Y0006580D02*
Y0005170D01*
X0020520Y0006604D02*
Y0005145D01*
X0020430Y0006653D02*
Y0005097D01*
X0020340Y0006739D02*
Y0005011D01*
X0021825Y0005120D02*
X0021672D01*
X0021825Y0005030D02*
X0021782D01*
X0021825Y0004490D02*
X0021799D01*
X0021825Y0004400D02*
X0021704D01*
X0019470Y0004670D02*
X0018000D01*
X0021780Y0006717D02*
Y0005033D01*
X0021690Y0006641D02*
Y0005109D01*
X0021600Y0006598D02*
Y0005152D01*
X0021825Y0005175D02*
Y0004972D01*
X0021510Y0006577D02*
Y0005172D01*
X0021420Y0006577D02*
Y0005173D01*
X0021330Y0006596D02*
Y0005154D01*
X0021240Y0006638D02*
Y0005112D01*
X0021150Y0006712D02*
Y0005038D01*
X0021600Y0004348D02*
Y0003050D01*
X0023250Y0005120D02*
X0022675D01*
X0023250Y0005030D02*
X0022675D01*
X0023250Y0004940D02*
X0022675D01*
X0023250Y0004850D02*
X0022675D01*
X0023250Y0004760D02*
X0022675D01*
X0023250Y0004670D02*
X0022675D01*
X0023250Y0004580D02*
X0022675D01*
X0023250Y0004490D02*
X0022675D01*
X0022590Y0006575D02*
Y0005175D01*
X0022500Y0006575D02*
Y0005175D01*
X0022410Y0006575D02*
Y0005175D01*
X0022320Y0006575D02*
Y0005175D01*
X0022230Y0006575D02*
Y0005175D01*
X0022140Y0006575D02*
Y0005175D01*
X0022050Y0006575D02*
Y0005175D01*
X0021960Y0006575D02*
Y0005175D01*
X0021870Y0006575D02*
Y0005175D01*
X0020250Y0009028D02*
Y0007222D01*
X0020160Y0008924D02*
Y0007326D01*
X0020070Y0008866D02*
Y0007384D01*
X0019980Y0008835D02*
Y0007415D01*
X0019890Y0008825D02*
Y0007425D01*
X0019800Y0008834D02*
Y0007416D01*
X0019710Y0008864D02*
Y0007386D01*
X0019620Y0008920D02*
Y0007330D01*
X0019530Y0009020D02*
Y0007229D01*
X0020466Y0007370D02*
X0020097D01*
X0020355Y0007280D02*
X0020207D01*
X0020295Y0007190D02*
X0020268D01*
X0020286Y0006830D02*
X0020277D01*
X0020339Y0006740D02*
X0020224D01*
X0020434Y0006650D02*
X0020129D01*
X0021253Y0007370D02*
X0020884D01*
X0021143Y0007280D02*
X0020995D01*
X0021082Y0007190D02*
X0021055D01*
X0021073Y0006830D02*
X0021065D01*
X0021126Y0006740D02*
X0021011D01*
X0021221Y0006650D02*
X0020916D01*
X0020970Y0008944D02*
Y0007306D01*
X0020880Y0008877D02*
Y0007372D01*
X0020790Y0008841D02*
Y0007409D01*
X0020700Y0008826D02*
Y0007424D01*
X0020610Y0008830D02*
Y0007420D01*
X0020520Y0008854D02*
Y0007395D01*
X0020430Y0008903D02*
Y0007347D01*
X0020340Y0008989D02*
Y0007261D01*
X0021825Y0007370D02*
X0021672D01*
X0021825Y0007280D02*
X0021782D01*
X0021825Y0006740D02*
X0021799D01*
X0021825Y0006650D02*
X0021704D01*
X0021825Y0007425D02*
Y0007222D01*
X0021780Y0008967D02*
Y0007283D01*
X0021690Y0008891D02*
Y0007359D01*
X0021600Y0008848D02*
Y0007402D01*
X0021510Y0008827D02*
Y0007422D01*
X0021420Y0008827D02*
Y0007423D01*
X0021330Y0008846D02*
Y0007404D01*
X0021240Y0008888D02*
Y0007362D01*
X0021150Y0008962D02*
Y0007288D01*
X0021510Y0004327D02*
Y0003050D01*
X0023250Y0007370D02*
X0022675D01*
X0023250Y0007280D02*
X0022675D01*
X0023250Y0007190D02*
X0022675D01*
X0023250Y0007100D02*
X0022675D01*
X0023250Y0007010D02*
X0022675D01*
X0023250Y0006920D02*
X0022675D01*
X0023250Y0006830D02*
X0022675D01*
X0023250Y0006740D02*
X0022675D01*
X0022590Y0008825D02*
Y0007425D01*
X0022500Y0008825D02*
Y0007425D01*
X0022410Y0008825D02*
Y0007425D01*
X0022320Y0008825D02*
Y0007425D01*
X0022230Y0008825D02*
Y0007425D01*
X0022140Y0008825D02*
Y0007425D01*
X0022050Y0008825D02*
Y0007425D01*
X0021960Y0008825D02*
Y0007425D01*
X0021870Y0008825D02*
Y0007425D01*
X0020250Y0011278D02*
Y0009472D01*
X0020160Y0011174D02*
Y0009576D01*
X0020070Y0011116D02*
Y0009634D01*
X0019980Y0011085D02*
Y0009665D01*
X0019890Y0011075D02*
Y0009675D01*
X0019800Y0011084D02*
Y0009666D01*
X0019710Y0011114D02*
Y0009636D01*
X0019620Y0011170D02*
Y0009580D01*
X0019530Y0011270D02*
Y0009479D01*
X0020466Y0009620D02*
X0020097D01*
X0020355Y0009530D02*
X0020207D01*
X0020295Y0009440D02*
X0020268D01*
X0020286Y0009080D02*
X0020277D01*
X0020339Y0008990D02*
X0020224D01*
X0020434Y0008900D02*
X0020129D01*
X0020970Y0011194D02*
Y0009556D01*
X0020880Y0011127D02*
Y0009622D01*
X0020790Y0011091D02*
Y0009659D01*
X0020700Y0011076D02*
Y0009674D01*
X0020610Y0011080D02*
Y0009670D01*
X0020520Y0011104D02*
Y0009645D01*
X0020430Y0011153D02*
Y0009597D01*
X0020340Y0011239D02*
Y0009511D01*
X0021253Y0009620D02*
X0020884D01*
X0021143Y0009530D02*
X0020995D01*
X0021082Y0009440D02*
X0021055D01*
X0021073Y0009080D02*
X0021065D01*
X0021126Y0008990D02*
X0021011D01*
X0021221Y0008900D02*
X0020916D01*
X0021780Y0011217D02*
Y0009533D01*
X0021690Y0011141D02*
Y0009609D01*
X0021600Y0011098D02*
Y0009652D01*
X0021510Y0011077D02*
Y0009672D01*
X0021420Y0011077D02*
Y0009673D01*
X0021330Y0011096D02*
Y0009654D01*
X0021240Y0011138D02*
Y0009612D01*
X0021150Y0011212D02*
Y0009538D01*
X0019463Y0009260D02*
X0017650D01*
X0021825Y0009620D02*
X0021672D01*
X0021825Y0009530D02*
X0021782D01*
X0021825Y0008990D02*
X0021799D01*
X0021825Y0008900D02*
X0021704D01*
X0021825Y0009675D02*
Y0009472D01*
X0022590Y0011075D02*
Y0009675D01*
X0022500Y0011075D02*
Y0009675D01*
X0022410Y0011075D02*
Y0009675D01*
X0022320Y0011075D02*
Y0009675D01*
X0022230Y0011075D02*
Y0009675D01*
X0022140Y0011075D02*
Y0009675D01*
X0022050Y0011075D02*
Y0009675D01*
X0021960Y0011075D02*
Y0009675D01*
X0021870Y0011075D02*
Y0009675D01*
X0023250Y0009620D02*
X0022675D01*
X0023250Y0009530D02*
X0022675D01*
X0023250Y0009440D02*
X0022675D01*
X0023250Y0009350D02*
X0022675D01*
X0023250Y0009260D02*
X0022675D01*
X0023250Y0009170D02*
X0022675D01*
X0023250Y0009080D02*
X0022675D01*
X0023250Y0008990D02*
X0022675D01*
X0022770Y0012350D02*
Y0003050D01*
X0023250Y0008900D02*
X0022675D01*
X0020250Y0012350D02*
Y0011722D01*
X0020160Y0012350D02*
Y0011826D01*
X0020070Y0012350D02*
Y0011884D01*
X0019980Y0012350D02*
Y0011915D01*
X0018630Y0010800D02*
Y0010439D01*
X0018540Y0010800D02*
Y0010366D01*
X0018247Y0010070D02*
X0017650D01*
X0020466Y0011870D02*
X0020097D01*
X0020355Y0011780D02*
X0020207D01*
X0020295Y0011690D02*
X0020268D01*
X0002277Y0010610D02*
X0002207D01*
X0002277Y0010520D02*
X0002221D01*
X0002277Y0010430D02*
X0002218D01*
X0002277Y0010340D02*
X0002197D01*
X0002277Y0010250D02*
X0002154D01*
X0002277Y0010160D02*
X0002083D01*
X0002277Y0010070D02*
X0001952D01*
X0001440Y0011750D02*
Y0010831D01*
X0003060Y0011750D02*
Y0010957D01*
X0002970Y0011750D02*
Y0010957D01*
X0005650Y0011330D02*
X0000450D01*
X0005650Y0011240D02*
X0000450D01*
X0002700Y0011750D02*
Y0010957D01*
X0002610Y0011750D02*
Y0010957D01*
X0002520Y0011750D02*
Y0010957D01*
X0002880Y0011750D02*
Y0010957D01*
X0004050Y0011750D02*
Y0010836D01*
X0003960Y0011750D02*
Y0010951D01*
X0003870Y0011750D02*
Y0011021D01*
X0003780Y0011750D02*
Y0011065D01*
X0003690Y0011750D02*
Y0011090D01*
X0003600Y0011750D02*
Y0011098D01*
X0003510Y0011750D02*
Y0011091D01*
X0003420Y0011750D02*
Y0011068D01*
X0003330Y0011750D02*
Y0011025D01*
X0000630Y0011750D02*
Y0011021D01*
X0003240Y0011750D02*
Y0010958D01*
X0008550Y0009890D02*
X0004031D01*
X0008550Y0009800D02*
X0003955D01*
X0002340Y0011750D02*
Y0010957D01*
X0005650Y0011150D02*
X0000450D01*
X0000544Y0009800D02*
X0000450D01*
X0005650Y0011600D02*
X0000450D01*
X0005650Y0010880D02*
X0004022D01*
X0005650Y0010790D02*
X0004074D01*
X0005650Y0010700D02*
X0004105D01*
X0005650Y0010520D02*
X0004120D01*
X0005650Y0010430D02*
X0004120D01*
X0005650Y0010340D02*
X0004120D01*
X0005650Y0010250D02*
X0004120D01*
X0005650Y0010160D02*
X0004119D01*
X0008550Y0010070D02*
X0004108D01*
X0003420Y0005188D02*
Y0003500D01*
X0000720Y0005191D02*
Y0003500D01*
X0003060Y0010027D02*
Y0009846D01*
X0002970Y0010027D02*
Y0009912D01*
X0002880Y0010027D02*
Y0009951D01*
X0002790Y0010027D02*
Y0009970D01*
X0002700Y0010027D02*
Y0009970D01*
X0002610Y0010027D02*
Y0009953D01*
X0002520Y0010027D02*
Y0009916D01*
X0002430Y0010027D02*
Y0009852D01*
X0003150Y0009907D02*
Y0009730D01*
X0003161Y0009890D02*
X0003006D01*
X0003237Y0009800D02*
X0003103D01*
X0005650Y0011060D02*
X0003793D01*
X0008550Y0009620D02*
X0003193D01*
X0000560Y0010970D02*
X0000450D01*
X0001350Y0011750D02*
Y0010848D01*
X0001307Y0009620D02*
X0000450D01*
X0001298Y0009440D02*
X0000450D01*
X0001364Y0009260D02*
X0000450D01*
X0005650Y0011510D02*
X0000450D01*
X0002160Y0010259D02*
Y0009740D01*
X0002070Y0010148D02*
Y0009852D01*
X0001980Y0010084D02*
Y0009916D01*
X0001890Y0010046D02*
Y0009953D01*
X0001800Y0010029D02*
Y0009970D01*
X0001710Y0010030D02*
Y0009970D01*
X0001620Y0010048D02*
Y0009951D01*
X0001530Y0010087D02*
Y0009913D01*
X0001440Y0010153D02*
Y0009847D01*
X0002520Y0004599D02*
Y0003500D01*
X0002478Y0009890D02*
X0002022D01*
X0002381Y0009800D02*
X0002119D01*
X0002324Y0009710D02*
X0002176D01*
X0002291Y0009620D02*
X0002208D01*
X0002278Y0009530D02*
X0002222D01*
X0002282Y0009440D02*
X0002217D01*
X0002305Y0009350D02*
X0002195D01*
X0002349Y0009260D02*
X0002151D01*
X0002423Y0009170D02*
X0002077D01*
X0001438D02*
X0000450D01*
X0001429Y0005336D02*
X0001758Y0005008D01*
X0002086Y0004679D02*
X0001758Y0005008D01*
X0001429Y0004679D02*
X0001758Y0005008D01*
X0002086Y0005336D02*
X0001758Y0005008D01*
X0001429Y0009836D02*
X0001758Y0009508D01*
X0002086Y0009179D02*
X0001758Y0009508D01*
X0005650Y0010610D02*
X0004119D01*
X0001350Y0009285D02*
Y0006348D01*
X0000468Y0005390D02*
X0000450D01*
X0003207Y0006457D02*
X0002277D01*
Y0005527D01*
X0003150Y0005407D02*
Y0005230D01*
X0003096Y0005527D02*
X0002277D01*
X0002340D02*
Y0005241D01*
Y0009274D02*
Y0006457D01*
X0004120Y0006075D02*
Y0005681D01*
X0008550Y0009440D02*
X0003202D01*
X0000468Y0009890D02*
X0000450D01*
X0001396Y0009800D02*
X0001262D01*
X0003207Y0010957D02*
X0002277D01*
Y0010027D01*
X0003368Y0009710D02*
X0003160D01*
X0003096Y0010027D02*
X0002277D01*
X0001350Y0009908D02*
Y0009730D01*
X0002430Y0011750D02*
Y0010957D01*
X0004120Y0010575D02*
Y0010181D01*
X0001438Y0004670D02*
X0000450D01*
X0005650Y0011750D02*
X0000450D01*
X0005650D02*
Y0010100D01*
X0008550D02*
X0005650D01*
X0008550D02*
Y0003500D01*
X0000450D01*
Y0003550D02*
Y0003500D01*
X0001429Y0009179D02*
X0001758Y0009508D01*
X0008550Y0005480D02*
X0008402D01*
X0008550Y0006290D02*
X0007813D01*
X0008460Y0005534D02*
Y0003500D01*
X0005130Y0011750D02*
Y0006767D01*
X0004766Y0005570D02*
X0004108D01*
X0005005Y0006470D02*
X0003940D01*
X0008550Y0003590D02*
X0000450D01*
X0008370Y0010100D02*
Y0005939D01*
X0008010Y0010100D02*
Y0006613D01*
X0007740Y0010100D02*
Y0006817D01*
X0007650Y0010100D02*
Y0006798D01*
X0007560Y0006361D02*
Y0003500D01*
X0007470Y0010100D02*
Y0003500D01*
X0007380Y0010100D02*
Y0003500D01*
X0007290Y0010100D02*
Y0003500D01*
X0007200Y0010100D02*
Y0003500D01*
X0007110Y0010100D02*
Y0003500D01*
X0007020Y0010100D02*
Y0003500D01*
X0006930Y0010100D02*
Y0003500D01*
X0006840Y0010100D02*
Y0003500D01*
X0006750Y0010100D02*
Y0003500D01*
X0006660Y0010100D02*
Y0003500D01*
X0006570Y0010100D02*
Y0003500D01*
X0006480Y0010100D02*
Y0003500D01*
X0006390Y0010100D02*
Y0003500D01*
X0006300Y0010100D02*
Y0003500D01*
X0006210Y0010100D02*
Y0003500D01*
X0006030Y0010100D02*
Y0003500D01*
X0005940Y0010100D02*
Y0003500D01*
X0005850Y0010100D02*
Y0003500D01*
X0005760Y0010100D02*
Y0003500D01*
X0005670Y0010100D02*
Y0003500D01*
X0005046Y0006380D02*
X0004022D01*
X0008100Y0005478D02*
Y0003500D01*
X0005490Y0006391D02*
Y0003500D01*
X0005400Y0006304D02*
Y0003500D01*
X0005580Y0011750D02*
Y0003500D01*
X0005130Y0005466D02*
Y0003500D01*
X0004847Y0005480D02*
X0004080D01*
X0008550Y0007640D02*
X0000450D01*
X0004950Y0005437D02*
Y0003500D01*
X0004770Y0011750D02*
Y0007517D01*
X0004680Y0006991D02*
Y0003500D01*
X0000675Y0005210D02*
X0000450D01*
X0004410Y0011750D02*
Y0003500D01*
X0004320Y0011750D02*
Y0003500D01*
X0004230Y0011750D02*
Y0003500D01*
X0001502Y0010880D02*
X0001329D01*
X0003207Y0006457D02*
Y0006424D01*
X0000478Y0006380D02*
X0000450D01*
X0004050Y0005420D02*
Y0003500D01*
X0003960Y0005304D02*
Y0003500D01*
X0003870Y0005235D02*
Y0003500D01*
X0003780Y0005191D02*
Y0003500D01*
X0003690Y0005166D02*
Y0003500D01*
X0003600Y0005158D02*
Y0003500D01*
X0003510Y0005165D02*
Y0003500D01*
X0001563Y0010070D02*
X0001415D01*
X0001563Y0005570D02*
X0001415D01*
X0008550Y0005300D02*
X0003955D01*
X0003150Y0004785D02*
Y0003500D01*
X0003060Y0004669D02*
Y0003500D01*
X0002970Y0004603D02*
Y0003500D01*
X0002880Y0004564D02*
Y0003500D01*
X0002790Y0004545D02*
Y0003500D01*
X0002700Y0004545D02*
Y0003500D01*
X0002610Y0004562D02*
Y0003500D01*
X0008550Y0005030D02*
X0003206D01*
X0002560Y0009080D02*
X0001939D01*
X0002560Y0004580D02*
X0001939D01*
X0000706Y0006560D02*
X0000450D01*
X0002160Y0004775D02*
Y0003500D01*
X0002070Y0004663D02*
Y0003500D01*
X0001980Y0004599D02*
Y0003500D01*
X0001890Y0004562D02*
Y0003500D01*
X0001800Y0004545D02*
Y0003500D01*
X0000560Y0006470D02*
X0000450D01*
X0001620Y0004564D02*
Y0003500D01*
X0008550Y0005210D02*
X0003824D01*
X0005022Y0006650D02*
X0000450D01*
X0008550Y0006110D02*
X0004119D01*
X0008550Y0004940D02*
X0003202D01*
X0001293Y0005030D02*
X0000450D01*
X0000990Y0005165D02*
Y0003500D01*
X0000900Y0005158D02*
Y0003500D01*
X0000810Y0005166D02*
Y0003500D01*
X0001293Y0009530D02*
X0000450D01*
X0007560Y0010100D02*
Y0006738D01*
X0000675Y0009710D02*
X0000450D01*
X0006120Y0010100D02*
Y0003500D01*
X0008550Y0009710D02*
X0003824D01*
X0000478Y0010880D02*
X0000450D01*
X0005650Y0011420D02*
X0000450D01*
X0002790Y0011750D02*
Y0010957D01*
X0003207D02*
Y0010924D01*
X0001401Y0010790D02*
X0001381D01*
X0008550Y0009530D02*
X0003206D01*
X0001530Y0011750D02*
Y0010897D01*
X0003113Y0009980D02*
X0001387D01*
X0002340Y0010027D02*
Y0009741D01*
X0000706Y0011060D02*
X0000450D01*
X0003253Y0010970D02*
X0001247D01*
X0005650D02*
X0003940D01*
X0001339Y0009710D02*
X0001131D01*
X0001493Y0009890D02*
X0001338D01*
X0001530Y0004602D02*
Y0003500D01*
X0003399Y0011060D02*
X0001100D01*
X0008550Y0009350D02*
X0003179D01*
X0008550Y0009260D02*
X0003135D01*
X0008550Y0009980D02*
X0004080D01*
X0008550Y0009170D02*
X0003061D01*
X0001320Y0009350D02*
X0000450D01*
X0008550Y0009080D02*
X0002924D01*
X0001576D02*
X0000450D01*
X0008550Y0008990D02*
X0000450D01*
X0008550Y0008900D02*
X0000450D01*
X0008550Y0008810D02*
X0000450D01*
X0008550Y0008720D02*
X0000450D01*
X0008550Y0008630D02*
X0000450D01*
X0008550Y0008540D02*
X0000450D01*
X0008550Y0008450D02*
X0000450D01*
X0008550Y0008360D02*
X0000450D01*
X0008550Y0008270D02*
X0000450D01*
X0008550Y0008180D02*
X0000450D01*
X0008550Y0008090D02*
X0000450D01*
X0008550Y0008000D02*
X0000450D01*
X0008550Y0007910D02*
X0000450D01*
X0008550Y0007820D02*
X0000450D01*
X0008550Y0007730D02*
X0000450D01*
X0000630Y0005234D02*
Y0003500D01*
X0004590Y0007035D02*
Y0003500D01*
X0008550Y0007100D02*
X0004972D01*
X0008550Y0007550D02*
X0000450D01*
X0004584Y0007460D02*
X0000450D01*
X0004511Y0007370D02*
X0000450D01*
X0004484Y0007280D02*
X0000450D01*
X0004631Y0007010D02*
X0000450D01*
X0008550Y0006920D02*
X0000450D01*
X0004489Y0007190D02*
X0000450D01*
X0008370Y0005461D02*
Y0003500D01*
X0003368Y0005210D02*
X0003160D01*
X0000450Y0005419D02*
Y0003550D01*
X0002340Y0004774D02*
Y0003500D01*
X0001350Y0005408D02*
Y0005230D01*
X0008550Y0007010D02*
X0004868D01*
X0001401Y0006290D02*
X0001381D01*
X0001502Y0006380D02*
X0001329D01*
X0001710Y0004545D02*
Y0003500D01*
X0003253Y0006470D02*
X0001247D01*
X0008550Y0006830D02*
X0000450D01*
X0001440Y0004668D02*
Y0003500D01*
X0003399Y0006560D02*
X0001100D01*
X0001350Y0004785D02*
Y0003500D01*
X0008550Y0004850D02*
X0003179D01*
X0008550Y0004760D02*
X0003135D01*
X0000540Y0005304D02*
Y0003500D01*
X0008550Y0004670D02*
X0003061D01*
X0001320Y0004850D02*
X0000450D01*
X0008550Y0004580D02*
X0002924D01*
X0001576D02*
X0000450D01*
X0008550Y0004490D02*
X0000450D01*
X0008550Y0004400D02*
X0000450D01*
X0008550Y0004310D02*
X0000450D01*
X0008550Y0004220D02*
X0000450D01*
X0008550Y0004130D02*
X0000450D01*
X0008550Y0004040D02*
X0000450D01*
X0008550Y0003950D02*
X0000450D01*
X0008550Y0003860D02*
X0000450D01*
X0008550Y0003770D02*
X0000450D01*
X0008550Y0003680D02*
X0000450D01*
X0002086Y0009836D02*
X0001758Y0009508D01*
X0004528Y0007100D02*
X0000450D01*
X0008113Y0005930D02*
X0005137D01*
X0008022Y0005840D02*
X0005228D01*
X0007987Y0005750D02*
X0005263D01*
X0007985Y0005660D02*
X0005264D01*
X0008016Y0005570D02*
X0005234D01*
X0004950Y0007072D02*
Y0005963D01*
X0004860Y0007006D02*
Y0005928D01*
X0005220Y0006271D02*
Y0005852D01*
X0005130Y0006304D02*
Y0005934D01*
X0005040Y0006389D02*
Y0005964D01*
X0008097Y0005480D02*
X0005152D01*
X0004770Y0005563D02*
Y0003500D01*
X0008550Y0005930D02*
X0008387D01*
X0008550Y0005840D02*
X0008478D01*
X0008550Y0005750D02*
X0008513D01*
X0008550Y0005660D02*
X0008514D01*
X0008550Y0005570D02*
X0008484D01*
X0008190Y0010100D02*
Y0005961D01*
Y0005439D02*
Y0003500D01*
X0008100Y0010100D02*
Y0005922D01*
X0008460Y0010100D02*
Y0005866D01*
X0007830Y0006294D02*
Y0003500D01*
X0005157Y0006290D02*
X0004074D01*
X0007561Y0006740D02*
X0005437D01*
X0007502Y0006650D02*
X0005506D01*
X0007482Y0006560D02*
X0005531D01*
X0007494Y0006470D02*
X0005524D01*
X0007543Y0006380D02*
X0005482D01*
X0007686Y0006290D02*
X0005371D01*
X0005490Y0011750D02*
Y0006679D01*
X0005400Y0011750D02*
Y0006766D01*
X0005310Y0011750D02*
Y0006799D01*
X0004860Y0005472D02*
Y0003500D01*
Y0011750D02*
Y0007494D01*
X0007830Y0010100D02*
Y0006805D01*
X0004770Y0006983D02*
Y0005837D01*
X0005310Y0006271D02*
Y0003500D01*
X0004950Y0011750D02*
Y0007428D01*
X0005220Y0005547D02*
Y0003500D01*
X0004680Y0011750D02*
Y0007508D01*
X0004590Y0011750D02*
Y0007464D01*
X0004500Y0011750D02*
Y0007345D01*
X0005040Y0005435D02*
Y0003500D01*
X0008550Y0007460D02*
X0004916D01*
X0008550Y0007370D02*
X0004989D01*
X0008550Y0007280D02*
X0005016D01*
X0008550Y0007190D02*
X0005011D01*
X0004500Y0007154D02*
Y0003500D01*
X0008550Y0006740D02*
X0007938D01*
X0008550Y0006650D02*
X0007998D01*
X0008550Y0006560D02*
X0008017D01*
X0008550Y0006470D02*
X0008005D01*
X0008550Y0006380D02*
X0007957D01*
X0008010Y0006486D02*
Y0005818D01*
Y0005581D02*
Y0003500D01*
X0007920Y0006343D02*
Y0003500D01*
X0008280Y0005434D02*
Y0003500D01*
X0005650Y0011690D02*
X0000450D01*
X0007920Y0010100D02*
Y0006757D01*
X0007650Y0006302D02*
Y0003500D01*
X0007740Y0006282D02*
Y0003500D01*
X0000450Y0009919D02*
Y0006337D01*
X0001493Y0005390D02*
X0001338D01*
X0001396Y0005300D02*
X0001262D01*
X0001339Y0005210D02*
X0001131D01*
X0001260Y0009798D02*
Y0006458D01*
X0001170Y0009730D02*
Y0006525D01*
X0001080Y0009688D02*
Y0006567D01*
X0000990Y0009665D02*
Y0006591D01*
X0000900Y0009658D02*
Y0006598D01*
X0000810Y0009666D02*
Y0006590D01*
X0000720Y0009691D02*
Y0006565D01*
X0002160Y0009275D02*
Y0006224D01*
X0002070Y0009163D02*
Y0006336D01*
X0001980Y0009099D02*
Y0006400D01*
X0001890Y0009062D02*
Y0006437D01*
X0001800Y0009045D02*
Y0006455D01*
X0001710Y0009045D02*
Y0006454D01*
X0001620Y0009064D02*
Y0006436D01*
X0001530Y0009102D02*
Y0006397D01*
X0001440Y0009168D02*
Y0006331D01*
X0002277Y0006380D02*
X0002013D01*
X0002277Y0006290D02*
X0002114D01*
X0002277Y0006200D02*
X0002173D01*
X0002277Y0006110D02*
X0002207D01*
X0002277Y0006020D02*
X0002221D01*
X0002277Y0005930D02*
X0002218D01*
X0002277Y0005840D02*
X0002197D01*
X0002277Y0005750D02*
X0002154D01*
X0002277Y0005660D02*
X0002083D01*
X0002277Y0005570D02*
X0001952D01*
X0003060Y0009169D02*
Y0006457D01*
X0002970Y0009103D02*
Y0006457D01*
X0002880Y0009064D02*
Y0006457D01*
X0002790Y0009045D02*
Y0006457D01*
X0002700Y0009045D02*
Y0006457D01*
X0002610Y0009062D02*
Y0006457D01*
X0002520Y0009099D02*
Y0006457D01*
X0002430Y0009163D02*
Y0006457D01*
X0000630Y0009734D02*
Y0006521D01*
X0004050Y0009920D02*
Y0006336D01*
X0003960Y0009804D02*
Y0006451D01*
X0003870Y0009735D02*
Y0006521D01*
X0003780Y0009691D02*
Y0006565D01*
X0003690Y0009666D02*
Y0006590D01*
X0003600Y0009658D02*
Y0006598D01*
X0003510Y0009665D02*
Y0006591D01*
X0003420Y0009688D02*
Y0006568D01*
X0003330Y0009730D02*
Y0006525D01*
X0003240Y0009797D02*
Y0006458D01*
Y0005297D02*
Y0003500D01*
X0008550Y0005390D02*
X0004031D01*
X0000544Y0005300D02*
X0000450D01*
X0005040Y0011750D02*
Y0006681D01*
X0004140Y0011750D02*
Y0003500D01*
X0005092Y0006740D02*
X0000450D01*
X0004998Y0006560D02*
X0003793D01*
X0001260Y0005298D02*
Y0003500D01*
X0008550Y0006200D02*
X0004105D01*
X0001170Y0005230D02*
Y0003500D01*
X0005220Y0011750D02*
Y0006799D01*
X0008280Y0010100D02*
Y0005966D01*
X0004863Y0005930D02*
X0004120D01*
X0004772Y0005840D02*
X0004120D01*
X0004737Y0005750D02*
X0004120D01*
X0004735Y0005660D02*
X0004119D01*
X0000540Y0009804D02*
Y0006452D01*
X0003150Y0009285D02*
Y0006457D01*
X0003060Y0005527D02*
Y0005346D01*
X0002970Y0005527D02*
Y0005412D01*
X0002880Y0005527D02*
Y0005451D01*
X0002790Y0005527D02*
Y0005470D01*
X0002700Y0005527D02*
Y0005470D01*
X0002610Y0005527D02*
Y0005453D01*
X0002520Y0005527D02*
Y0005416D01*
X0002430Y0005527D02*
Y0005352D01*
X0003330Y0005230D02*
Y0003500D01*
X0003161Y0005390D02*
X0003006D01*
X0003237Y0005300D02*
X0003103D01*
X0008550Y0006020D02*
X0004120D01*
X0008550Y0005120D02*
X0003193D01*
X0002250Y0011750D02*
Y0003500D01*
X0001080Y0005188D02*
Y0003500D01*
X0001307Y0005120D02*
X0000450D01*
X0001298Y0004940D02*
X0000450D01*
X0001364Y0004760D02*
X0000450D01*
X0003113Y0005480D02*
X0001387D01*
X0002160Y0005759D02*
Y0005240D01*
X0002070Y0005648D02*
Y0005352D01*
X0001980Y0005584D02*
Y0005416D01*
X0001890Y0005546D02*
Y0005453D01*
X0001800Y0005529D02*
Y0005470D01*
X0001710Y0005530D02*
Y0005470D01*
X0001620Y0005548D02*
Y0005451D01*
X0001530Y0005587D02*
Y0005413D01*
X0001440Y0005653D02*
Y0005347D01*
X0002430Y0004663D02*
Y0003500D01*
X0002478Y0005390D02*
X0002022D01*
X0002381Y0005300D02*
X0002119D01*
X0002324Y0005210D02*
X0002176D01*
X0002291Y0005120D02*
X0002208D01*
X0002278Y0005030D02*
X0002222D01*
X0002282Y0004940D02*
X0002217D01*
X0002305Y0004850D02*
X0002195D01*
X0002349Y0004760D02*
X0002151D01*
X0002423Y0004670D02*
X0002077D01*
X0000450Y0011750D02*
Y0010837D01*
X0001260Y0011750D02*
Y0010958D01*
X0001170Y0011750D02*
Y0011025D01*
X0001080Y0011750D02*
Y0011067D01*
X0000990Y0011750D02*
Y0011091D01*
X0000900Y0011750D02*
Y0011098D01*
X0000810Y0011750D02*
Y0011090D01*
X0000720Y0011750D02*
Y0011065D01*
X0002277Y0010880D02*
X0002013D01*
X0002277Y0010790D02*
X0002114D01*
X0000540Y0011750D02*
Y0010952D01*
X0002160Y0011750D02*
Y0010724D01*
X0002070Y0011750D02*
Y0010836D01*
X0001980Y0011750D02*
Y0010900D01*
X0001890Y0011750D02*
Y0010937D01*
X0001800Y0011750D02*
Y0010955D01*
X0001710Y0011750D02*
Y0010954D01*
X0001620Y0011750D02*
Y0010936D01*
X0003150Y0011750D02*
Y0010957D01*
X0002277Y0010700D02*
X0002173D01*
X0017040Y0017850D02*
Y0016188D01*
X0013350Y0014778D02*
Y0014200D01*
X0016950Y0017850D02*
Y0016242D01*
X0016860Y0017850D02*
Y0016258D01*
X0016590Y0017850D02*
Y0016252D01*
X0016500Y0017850D02*
Y0016268D01*
X0016723Y0016220D02*
X0016652D01*
X0016707Y0015770D02*
X0016637D01*
X0016320Y0017850D02*
Y0016198D01*
X0017310Y0017850D02*
Y0014200D01*
X0013267Y0017480D02*
X0012930D01*
X0020833Y0018380D02*
X0017700D01*
X0015510Y0017850D02*
Y0017063D01*
X0015028Y0016850D02*
X0012930D01*
X0013710Y0017332D02*
Y0015166D01*
X0013620Y0017278D02*
Y0015239D01*
X0013302Y0017390D02*
X0012930D01*
X0013440Y0017278D02*
Y0015261D01*
X0014610Y0017850D02*
Y0014200D01*
X0014520Y0017850D02*
Y0014200D01*
X0013800Y0017850D02*
Y0014200D01*
X0023250Y0012710D02*
X0017550D01*
X0013530Y0017850D02*
Y0017798D01*
X0023250Y0015320D02*
X0012930D01*
X0015060Y0017850D02*
Y0017188D01*
X0023250Y0016220D02*
X0016997D01*
X0016410Y0017850D02*
Y0016252D01*
X0023250Y0016310D02*
X0012930D01*
X0023250Y0015950D02*
X0017124D01*
X0023250Y0015860D02*
X0017094D01*
X0021450Y0013752D02*
Y0012550D01*
X0019200Y0019250D02*
Y0019013D01*
X0020100Y0019250D02*
Y0012550D01*
X0019920Y0019250D02*
Y0012550D01*
X0020910Y0016968D02*
Y0012550D01*
X0021084Y0013970D02*
X0017550D01*
X0021540Y0013811D02*
Y0012550D01*
X0019110Y0019250D02*
Y0018978D01*
X0022620Y0019250D02*
Y0018139D01*
X0022530Y0019250D02*
Y0018303D01*
X0022440Y0019250D02*
Y0018419D01*
X0022350Y0019250D02*
Y0018508D01*
X0022260Y0019250D02*
Y0018579D01*
X0022170Y0019250D02*
Y0018636D01*
X0022080Y0019250D02*
Y0018681D01*
X0021990Y0019250D02*
Y0018716D01*
X0021900Y0019250D02*
Y0018742D01*
X0021810Y0019250D02*
Y0018759D01*
X0021720Y0019250D02*
Y0018769D01*
X0021630Y0019250D02*
Y0018771D01*
X0021540Y0019250D02*
Y0018765D01*
X0021450Y0019250D02*
Y0018751D01*
X0021360Y0019250D02*
Y0018730D01*
X0021270Y0019250D02*
Y0018699D01*
X0021180Y0019250D02*
Y0018659D01*
X0021090Y0019250D02*
Y0018608D01*
X0021000Y0019250D02*
Y0018545D01*
X0020910Y0019250D02*
Y0018465D01*
X0020820Y0019250D02*
Y0018363D01*
X0020730Y0019250D02*
Y0018227D01*
X0020640Y0019250D02*
Y0018010D01*
X0023250Y0018740D02*
X0021908D01*
X0023250Y0018650D02*
X0022144D01*
X0023250Y0018560D02*
X0022287D01*
X0023250Y0018470D02*
X0022391D01*
X0023250Y0018380D02*
X0022473D01*
X0023250Y0018290D02*
X0022539D01*
X0023250Y0018200D02*
X0022591D01*
X0023250Y0018110D02*
X0022632D01*
X0023250Y0018020D02*
X0022664D01*
X0023250Y0017930D02*
X0022686D01*
X0023250Y0017840D02*
X0022701D01*
X0023250Y0017750D02*
X0022708D01*
X0023250Y0017660D02*
X0022707D01*
X0023250Y0017570D02*
X0022698D01*
X0023250Y0017480D02*
X0022681D01*
X0023250Y0017390D02*
X0022656D01*
X0023250Y0017300D02*
X0022623D01*
X0023250Y0017210D02*
X0022579D01*
X0023250Y0017120D02*
X0022523D01*
X0023250Y0017030D02*
X0022454D01*
X0023250Y0016940D02*
X0022368D01*
X0023250Y0016850D02*
X0022255D01*
X0023250Y0016760D02*
X0022099D01*
X0023250Y0016670D02*
X0021788D01*
X0016235Y0016040D02*
X0012930D01*
X0023250Y0013790D02*
X0021516D01*
X0020768Y0018290D02*
X0017700D01*
X0018120Y0019250D02*
Y0011000D01*
X0012930Y0017850D02*
Y0014200D01*
X0013440Y0014739D02*
Y0014200D01*
X0023250Y0019100D02*
X0017928D01*
X0016860Y0015722D02*
Y0014200D01*
X0016266Y0016130D02*
X0012930D01*
X0022350Y0016924D02*
Y0012550D01*
X0014880Y0017850D02*
Y0014200D01*
X0015960Y0017850D02*
Y0014200D01*
X0019150Y0011990D02*
X0017550D01*
X0022260Y0016853D02*
Y0012550D01*
X0020640Y0017423D02*
Y0012550D01*
X0016237Y0015950D02*
X0012930D01*
X0015240Y0017850D02*
Y0017267D01*
X0023250Y0019250D02*
X0017700D01*
X0023250D02*
Y0012550D01*
X0019150D01*
Y0011000D01*
X0017550D01*
Y0014200D02*
Y0011000D01*
X0014989Y0016940D02*
X0012930D01*
X0021270Y0013744D02*
Y0012550D01*
X0023160Y0019250D02*
Y0012550D01*
X0023070Y0019250D02*
Y0012550D01*
X0022980Y0019250D02*
Y0012550D01*
X0022890Y0019250D02*
Y0012550D01*
X0021990Y0016716D02*
Y0012550D01*
X0021630Y0016661D02*
Y0012550D01*
X0022620Y0017294D02*
Y0012550D01*
X0022530Y0017129D02*
Y0012550D01*
X0022800Y0019250D02*
Y0012550D01*
X0022710Y0019250D02*
Y0012550D01*
X0022170Y0016796D02*
Y0012550D01*
X0022080Y0016751D02*
Y0012550D01*
X0020820Y0017069D02*
Y0012550D01*
X0021810Y0016673D02*
Y0012550D01*
X0021720Y0016663D02*
Y0012550D01*
X0021900Y0016690D02*
Y0012550D01*
X0020010Y0019250D02*
Y0012550D01*
X0021000Y0016888D02*
Y0012550D01*
X0021090Y0013936D02*
Y0012550D01*
X0020550Y0019250D02*
Y0012550D01*
X0020460Y0019250D02*
Y0012550D01*
X0021360Y0013732D02*
Y0012550D01*
X0020280Y0019250D02*
Y0012550D01*
X0020190Y0019250D02*
Y0012550D01*
X0020370Y0019250D02*
Y0012550D01*
X0019830Y0019250D02*
Y0012550D01*
X0019740Y0019250D02*
Y0012550D01*
X0019650Y0019250D02*
Y0012550D01*
X0019470Y0016611D02*
Y0012550D01*
X0019290Y0016589D02*
Y0012550D01*
X0019110Y0018522D02*
Y0016968D01*
X0019020Y0018613D02*
Y0011000D01*
X0018930Y0019250D02*
Y0011000D01*
X0013350Y0017332D02*
Y0015222D01*
X0018840Y0019250D02*
Y0011000D01*
X0018750Y0018654D02*
Y0011000D01*
X0018660Y0018535D02*
Y0011000D01*
X0018570Y0018491D02*
Y0011000D01*
X0018480Y0018483D02*
Y0011000D01*
X0018300Y0018572D02*
Y0011000D01*
X0018210Y0019250D02*
Y0011000D01*
X0015240Y0016732D02*
Y0014200D01*
X0019150Y0011090D02*
X0017550D01*
X0018030Y0019250D02*
Y0011000D01*
X0017940Y0018711D02*
Y0011000D01*
X0017850Y0018652D02*
Y0011000D01*
X0017760Y0018632D02*
Y0011000D01*
X0017550Y0014200D02*
X0012930D01*
X0017580Y0017850D02*
Y0011000D01*
X0017490Y0017850D02*
Y0014200D01*
X0017400Y0017850D02*
Y0014200D01*
X0013266Y0014870D02*
X0012930D01*
X0017220Y0017850D02*
Y0014200D01*
X0017130Y0017850D02*
Y0014200D01*
X0017040Y0015792D02*
Y0014200D01*
X0016950Y0015738D02*
Y0014200D01*
X0016770Y0015738D02*
Y0014200D01*
X0016272Y0015860D02*
X0012930D01*
X0016680Y0015792D02*
Y0014200D01*
X0019150Y0011450D02*
X0017550D01*
X0016410Y0015748D02*
Y0014200D01*
X0016320Y0015802D02*
Y0014200D01*
X0019150Y0011180D02*
X0017550D01*
X0015870Y0017850D02*
Y0014200D01*
X0015780Y0017850D02*
Y0014200D01*
X0020674Y0018110D02*
X0017700D01*
X0015690Y0017850D02*
Y0014200D01*
X0015600Y0017850D02*
Y0014200D01*
X0015510Y0016936D02*
Y0014200D01*
X0016230Y0017850D02*
Y0014200D01*
X0019150Y0011540D02*
X0017550D01*
X0014700Y0017850D02*
Y0014200D01*
X0023250Y0015050D02*
X0013763D01*
X0023250Y0014960D02*
X0013764D01*
X0014430Y0017850D02*
Y0014200D01*
X0014340Y0017850D02*
Y0014200D01*
X0013620Y0014761D02*
Y0014200D01*
X0013363Y0015230D02*
X0012930D01*
X0015131Y0016760D02*
X0012930D01*
X0023250Y0012890D02*
X0017550D01*
X0023250Y0012800D02*
X0017550D01*
X0013235Y0014960D02*
X0012930D01*
X0013260Y0014881D02*
Y0014200D01*
X0013170Y0017850D02*
Y0014200D01*
X0022440Y0017013D02*
Y0012550D01*
X0017700Y0017850D02*
X0012930D01*
X0017700Y0018637D02*
Y0017850D01*
X0016590Y0015748D02*
Y0014200D01*
X0020730Y0017206D02*
Y0012550D01*
X0016680Y0017850D02*
Y0016198D01*
X0023250Y0019190D02*
X0017700D01*
X0013620Y0017850D02*
Y0017782D01*
X0023250Y0016130D02*
X0017088D01*
X0020915Y0018470D02*
X0017700D01*
X0020716Y0018200D02*
X0017700D01*
X0020643Y0018020D02*
X0017700D01*
X0013530Y0017262D02*
Y0015266D01*
X0013377Y0017750D02*
X0012930D01*
X0013272Y0015140D02*
X0012930D01*
X0013265Y0017570D02*
X0012930D01*
X0020605Y0017840D02*
X0012930D01*
X0015150Y0017850D02*
Y0017248D01*
X0019200Y0016628D02*
Y0012550D01*
X0015084Y0017210D02*
X0012930D01*
X0015011Y0017120D02*
X0012930D01*
X0020620Y0017930D02*
X0017700D01*
X0019152Y0016670D02*
X0012930D01*
X0013440Y0017850D02*
Y0017782D01*
X0023250Y0016580D02*
X0012930D01*
X0023250Y0016490D02*
X0012930D01*
X0023250Y0016040D02*
X0017123D01*
X0016347Y0016220D02*
X0012930D01*
X0016363Y0015770D02*
X0012930D01*
X0023250D02*
X0017012D01*
X0023250Y0015680D02*
X0012930D01*
X0023250Y0015590D02*
X0012930D01*
X0023250Y0015500D02*
X0012930D01*
X0018311Y0018560D02*
X0017700D01*
X0023250Y0014780D02*
X0013652D01*
X0013260Y0017850D02*
Y0015118D01*
X0013237Y0015050D02*
X0012930D01*
X0013347Y0014780D02*
X0012930D01*
X0012990Y0017850D02*
Y0014200D01*
X0023250Y0014690D02*
X0012930D01*
X0023250Y0014600D02*
X0012930D01*
X0023250Y0014510D02*
X0012930D01*
X0019150Y0011630D02*
X0017550D01*
X0023250Y0014420D02*
X0012930D01*
X0021231Y0014240D02*
X0012930D01*
X0023250Y0014330D02*
X0012930D01*
X0021128Y0014150D02*
X0017550D01*
X0021089Y0014060D02*
X0017550D01*
X0021111Y0013880D02*
X0017550D01*
X0021184Y0013790D02*
X0017550D01*
X0023250Y0013700D02*
X0017550D01*
X0023250Y0013610D02*
X0017550D01*
X0023250Y0013520D02*
X0017550D01*
X0023250Y0013430D02*
X0017550D01*
X0023250Y0013340D02*
X0017550D01*
X0023250Y0013250D02*
X0017550D01*
X0023250Y0013160D02*
X0017550D01*
X0014250Y0017850D02*
Y0014200D01*
X0023250Y0013070D02*
X0017550D01*
X0019150Y0012530D02*
X0017550D01*
X0019150Y0012440D02*
X0017550D01*
X0019150Y0012350D02*
X0017550D01*
X0019150Y0012260D02*
X0017550D01*
X0021180Y0013793D02*
Y0012550D01*
X0019560Y0016684D02*
Y0012550D01*
X0023250Y0016400D02*
X0012930D01*
X0019150Y0012170D02*
X0017550D01*
X0019150Y0012080D02*
X0017550D01*
X0015420Y0016793D02*
Y0014200D01*
X0013080Y0017850D02*
Y0014200D01*
X0016050Y0017850D02*
Y0014200D01*
X0017940Y0019250D02*
Y0019088D01*
X0017850Y0019250D02*
Y0019148D01*
X0017760Y0019250D02*
Y0019167D01*
X0019150Y0011360D02*
X0017550D01*
X0018436Y0019010D02*
X0017994D01*
X0018293Y0018920D02*
X0018017D01*
X0018244Y0018830D02*
X0018008D01*
X0018232Y0018740D02*
X0017964D01*
X0018252Y0018650D02*
X0017845D01*
X0017700Y0019250D02*
Y0019163D01*
X0016770Y0017850D02*
Y0016242D01*
X0016140Y0017850D02*
Y0014200D01*
X0017670Y0017850D02*
Y0011000D01*
X0015150Y0016752D02*
Y0014200D01*
X0015060Y0016811D02*
Y0014200D01*
X0014970Y0017850D02*
Y0014200D01*
X0019380Y0016584D02*
Y0012550D01*
X0019150Y0011270D02*
X0017550D01*
X0015330Y0016744D02*
Y0014200D01*
X0019150Y0011720D02*
X0017550D01*
X0019150Y0011900D02*
X0017550D01*
X0016500Y0015732D02*
Y0014200D01*
X0013350Y0017850D02*
Y0017728D01*
X0023250Y0014240D02*
X0021468D01*
X0023250Y0014150D02*
X0021572D01*
X0023250Y0014060D02*
X0021611D01*
X0023250Y0013970D02*
X0021616D01*
X0023250Y0013880D02*
X0021589D01*
X0021540Y0016667D02*
Y0014188D01*
X0021450Y0016681D02*
Y0014248D01*
X0021360Y0016703D02*
Y0014267D01*
X0021270Y0016733D02*
Y0014255D01*
X0021180Y0016773D02*
Y0014207D01*
X0021090Y0016824D02*
Y0014063D01*
X0013710Y0017850D02*
Y0017728D01*
X0014984Y0017030D02*
X0012930D01*
X0023250Y0015230D02*
X0013637D01*
X0023250Y0015140D02*
X0013728D01*
X0015420Y0017850D02*
Y0017207D01*
X0015330Y0017850D02*
Y0017255D01*
X0020728Y0017210D02*
X0015416D01*
X0020783Y0017120D02*
X0015489D01*
X0019152Y0017030D02*
X0015516D01*
X0019098Y0016940D02*
X0015511D01*
X0019082Y0016850D02*
X0015472D01*
X0019098Y0016760D02*
X0015368D01*
X0020599Y0017750D02*
X0013682D01*
X0020600Y0017660D02*
X0013764D01*
X0020608Y0017570D02*
X0013794D01*
X0020625Y0017480D02*
X0013793D01*
X0020650Y0017390D02*
X0013758D01*
X0020684Y0017300D02*
X0013667D01*
X0013393D02*
X0012930D01*
X0023250Y0015410D02*
X0012930D01*
X0018750Y0019250D02*
Y0018845D01*
X0018660Y0019250D02*
Y0018964D01*
X0018570Y0019250D02*
Y0019008D01*
X0018480Y0019250D02*
Y0019017D01*
X0018390Y0019250D02*
Y0018994D01*
X0019186Y0019010D02*
X0018563D01*
X0019043Y0018920D02*
X0018707D01*
X0018994Y0018830D02*
X0018755D01*
X0018982Y0018740D02*
X0018767D01*
X0019002Y0018650D02*
X0018748D01*
X0019061Y0018560D02*
X0018688D01*
X0018300Y0019250D02*
Y0018928D01*
X0019020Y0019250D02*
Y0018887D01*
X0023250Y0019010D02*
X0019313D01*
X0023250Y0018920D02*
X0019457D01*
X0021398Y0018740D02*
X0019517D01*
X0021162Y0018650D02*
X0019498D01*
X0021020Y0018560D02*
X0019438D01*
X0019470Y0018597D02*
Y0017089D01*
X0019380Y0018516D02*
Y0017116D01*
X0019290Y0018485D02*
Y0017111D01*
X0019200Y0018487D02*
Y0017072D01*
X0019290Y0019250D02*
Y0019014D01*
X0023250Y0018830D02*
X0019505D01*
X0019470Y0019250D02*
Y0018902D01*
X0019380Y0019250D02*
Y0018984D01*
X0019560Y0019250D02*
Y0017016D01*
X0020852Y0017030D02*
X0019548D01*
X0020939Y0016940D02*
X0019602D01*
X0021051Y0016850D02*
X0019618D01*
X0021208Y0016760D02*
X0019602D01*
X0021518Y0016670D02*
X0019548D01*
X0019150Y0011810D02*
X0017550D01*
X0014790Y0017850D02*
Y0014200D01*
X0013710Y0014834D02*
Y0014200D01*
X0013530Y0014734D02*
Y0014200D01*
X0014070Y0017850D02*
Y0014200D01*
X0013980Y0017850D02*
Y0014200D01*
X0013890Y0017850D02*
Y0014200D01*
X0014160Y0017850D02*
Y0014200D01*
X0023250Y0014870D02*
X0013734D01*
X0023250Y0012980D02*
X0017550D01*
X0023250Y0012620D02*
X0017550D01*
X0013296Y0017660D02*
X0012930D01*
X0019110Y0016731D02*
Y0011000D01*
X0018390Y0018506D02*
Y0011000D01*
X0016020Y0006040D02*
X0011344D01*
X0009756Y0005590D02*
X0008900D01*
X0009440Y0019350D02*
Y0006618D01*
X0009350Y0019350D02*
Y0006722D01*
X0009260Y0019350D02*
Y0006761D01*
X0009170Y0019350D02*
Y0006766D01*
X0009080Y0019350D02*
Y0006739D01*
X0011336Y0006760D02*
X0009263D01*
X0011193Y0006670D02*
X0009407D01*
X0011144Y0006580D02*
X0009455D01*
X0011132Y0006490D02*
X0009467D01*
X0011004Y0006400D02*
X0009448D01*
X0011600Y0014252D02*
Y0006678D01*
X0011510Y0014232D02*
Y0006744D01*
X0011420Y0014244D02*
Y0006767D01*
X0011330Y0014293D02*
Y0006758D01*
X0011240Y0014436D02*
Y0006714D01*
X0011150Y0014748D02*
Y0006595D01*
X0012244Y0007030D02*
X0008900D01*
X0012232Y0006940D02*
X0008900D01*
X0016020Y0006670D02*
X0013387D01*
X0016020Y0006580D02*
X0011655D01*
X0016020Y0006490D02*
X0011667D01*
X0016020Y0006400D02*
X0011648D01*
X0012720Y0014770D02*
X0011209D01*
X0012750Y0014100D02*
Y0013950D01*
X0012590Y0019350D02*
Y0011788D01*
X0011690Y0019350D02*
Y0014688D01*
X0011510Y0015131D02*
Y0014767D01*
X0011420Y0014937D02*
Y0014755D01*
X0011330Y0014843D02*
Y0014707D01*
X0011240Y0014784D02*
Y0014563D01*
X0013580Y0013950D02*
Y0012907D01*
X0011600Y0019350D02*
Y0014748D01*
X0012720Y0014680D02*
X0011698D01*
X0012720Y0014590D02*
X0011752D01*
X0012720Y0014500D02*
X0011768D01*
X0017350Y0011800D02*
X0012578D01*
X0012500Y0019350D02*
Y0013798D01*
X0012410Y0019350D02*
Y0013902D01*
X0012320Y0019350D02*
Y0013941D01*
X0012230Y0019350D02*
Y0013946D01*
X0012140Y0019350D02*
Y0013919D01*
X0012720Y0014320D02*
X0011698D01*
X0012050Y0019350D02*
Y0013846D01*
X0017350Y0013870D02*
X0012448D01*
X0017350Y0013780D02*
X0012508D01*
X0017350Y0013600D02*
X0012515D01*
X0013310Y0013950D02*
Y0007161D01*
X0016280Y0019350D02*
Y0018100D01*
X0017090Y0019350D02*
Y0018100D01*
X0017000Y0019350D02*
Y0018100D01*
Y0005000D02*
Y0001000D01*
X0012053Y0013510D02*
X0008900D01*
X0012950Y0019350D02*
Y0018100D01*
X0017350Y0009460D02*
X0016502D01*
X0017450Y0005000D02*
Y0001000D01*
X0017180Y0013950D02*
Y0008550D01*
X0017090Y0005000D02*
Y0001000D01*
X0017270Y0013950D02*
Y0008550D01*
X0017090Y0013950D02*
Y0008550D01*
X0017000Y0013950D02*
Y0008550D01*
X0016910Y0013950D02*
Y0008550D01*
X0016820Y0013950D02*
Y0008550D01*
X0017180Y0005000D02*
Y0001000D01*
X0017350Y0009550D02*
X0016518D01*
X0017350Y0009370D02*
X0016448D01*
X0016640Y0013950D02*
Y0008550D01*
X0017600Y0001900D02*
X0010550D01*
X0010250Y0005604D02*
Y0003450D01*
X0009530Y0015019D02*
Y0003450D01*
X0017600Y0001180D02*
X0010550D01*
X0017350Y0012520D02*
X0013948D01*
X0011510Y0019350D02*
Y0017369D01*
X0011420Y0019350D02*
Y0017563D01*
X0011330Y0019350D02*
Y0017656D01*
X0009476Y0017740D02*
X0008900D01*
X0012720Y0016750D02*
X0011155D01*
X0012720Y0017740D02*
X0011185D01*
X0010524Y0017774D02*
Y0017467D01*
X0012720Y0017110D02*
X0011504D01*
X0012720Y0017020D02*
X0011470D01*
X0009476Y0017110D02*
X0008900D01*
X0009476Y0016930D02*
X0008900D01*
X0009578Y0015940D02*
X0008900D01*
X0017600Y0001090D02*
X0010550D01*
X0011510Y0017131D02*
Y0016369D01*
X0011420Y0016937D02*
Y0016563D01*
X0011330Y0016843D02*
Y0016656D01*
X0012720Y0016930D02*
X0011414D01*
X0012720Y0016660D02*
X0011326D01*
X0012720Y0016570D02*
X0011414D01*
X0011240Y0019350D02*
Y0017715D01*
X0012720Y0014860D02*
X0011349D01*
X0012720Y0016840D02*
X0011326D01*
X0012720Y0016120D02*
X0011507D01*
X0010674Y0016840D02*
X0010524D01*
X0010790Y0016770D02*
Y0016730D01*
X0010700Y0016821D02*
Y0016679D01*
X0012720Y0017380D02*
X0011507D01*
X0012720Y0016300D02*
X0011521D01*
X0012720Y0015670D02*
X0011313D01*
X0012720Y0015220D02*
X0011523D01*
X0012720Y0015130D02*
X0011510D01*
X0012720Y0015040D02*
X0011480D01*
X0010610Y0016900D02*
Y0016599D01*
X0012720Y0014950D02*
X0011429D01*
X0009781Y0010450D02*
X0008900D01*
X0011510Y0016131D02*
Y0015369D01*
X0011420Y0015937D02*
Y0015563D01*
X0011330Y0015843D02*
Y0015656D01*
X0011240Y0015784D02*
Y0015715D01*
X0012720Y0016480D02*
X0011470D01*
X0012720Y0016390D02*
X0011504D01*
X0012720Y0015580D02*
X0011406D01*
X0012720Y0015400D02*
X0011502D01*
X0014570Y0019350D02*
Y0018100D01*
X0012720Y0015310D02*
X0011520D01*
X0010571Y0014950D02*
X0010429D01*
X0010790Y0014770D02*
X0010209D01*
X0009800Y0015766D02*
Y0015734D01*
X0009710Y0015814D02*
Y0015686D01*
X0009620Y0015890D02*
Y0015610D01*
X0009530Y0016019D02*
Y0015481D01*
X0010430Y0016726D02*
Y0016549D01*
X0010340Y0016726D02*
Y0016648D01*
X0010250Y0016726D02*
Y0016710D01*
X0009710Y0016726D02*
Y0016686D01*
X0009620Y0016726D02*
Y0016610D01*
X0009530Y0016726D02*
Y0016481D01*
X0010524Y0016726D02*
X0010217D01*
X0010674Y0016660D02*
X0010326D01*
X0010585Y0016570D02*
X0010414D01*
X0009495Y0016390D02*
X0008900D01*
X0011060Y0019350D02*
Y0017770D01*
X0010970Y0019350D02*
Y0017773D01*
X0010650Y0014860D02*
X0010349D01*
X0009529Y0016480D02*
X0008900D01*
X0010430Y0019350D02*
Y0017774D01*
X0010340Y0019350D02*
Y0017774D01*
X0010250Y0019350D02*
Y0017774D01*
X0010160Y0019350D02*
Y0017774D01*
X0010070Y0019350D02*
Y0017774D01*
X0009980Y0019350D02*
Y0017774D01*
X0009890Y0019350D02*
Y0017774D01*
X0009800Y0019350D02*
Y0017774D01*
X0009710Y0019350D02*
Y0017774D01*
X0009620Y0019350D02*
Y0017774D01*
X0010520Y0017040D02*
Y0016459D01*
X0010815Y0017740D02*
X0010524D01*
X0010662Y0017650D02*
X0010524D01*
X0010578Y0017560D02*
X0010524D01*
X0012720Y0017650D02*
X0011338D01*
X0010844Y0016750D02*
X0010524D01*
Y0017032D02*
Y0016726D01*
X0017400Y0018730D02*
X0008900D01*
X0012720Y0017290D02*
X0011522D01*
X0012720Y0017200D02*
X0011521D01*
X0010585Y0016930D02*
X0010524D01*
X0016550Y0005000D02*
Y0001000D01*
X0009476Y0016840D02*
X0008900D01*
X0011370Y0017620D02*
X0011000Y0017250D01*
X0010630Y0016880D02*
X0011000Y0017250D01*
X0010630Y0017620D02*
X0011000Y0017250D01*
X0013564Y0018190D02*
X0008900D01*
X0016460Y0013950D02*
Y0009716D01*
X0016020Y0008300D02*
Y0005150D01*
X0013130Y0019350D02*
Y0018100D01*
X0017350Y0011440D02*
X0015261D01*
X0012720Y0017850D02*
Y0014200D01*
X0017350Y0010990D02*
X0016434D01*
X0017350Y0010810D02*
X0016322D01*
X0017350Y0013690D02*
X0012527D01*
X0012720Y0015850D02*
X0011338D01*
X0016190Y0019350D02*
Y0018100D01*
X0017350Y0013510D02*
X0012467D01*
X0017350Y0012610D02*
X0014002D01*
X0013490Y0006781D02*
Y0001000D01*
X0012720Y0016210D02*
X0011522D01*
X0017350Y0010900D02*
X0016404D01*
X0016010Y0019350D02*
Y0018100D01*
X0016640Y0019350D02*
Y0018100D01*
X0013310Y0019350D02*
Y0018100D01*
X0015560Y0019350D02*
Y0018100D01*
X0015830Y0019350D02*
Y0018100D01*
X0012720Y0016030D02*
X0011475D01*
X0008932Y0006490D02*
X0008900D01*
X0011330Y0002963D02*
Y0001000D01*
X0012720Y0014410D02*
X0011752D01*
X0013670Y0013950D02*
Y0012955D01*
X0017180Y0019350D02*
Y0018100D01*
X0016820Y0019350D02*
Y0018100D01*
X0013130Y0006661D02*
Y0001000D01*
X0016550Y0013950D02*
Y0008550D01*
X0016020Y0007660D02*
X0008900D01*
X0016730Y0019350D02*
Y0018100D01*
X0012720Y0015490D02*
X0011465D01*
X0016910Y0019350D02*
Y0018100D01*
X0016020Y0005410D02*
X0008900D01*
X0010529Y0016480D02*
X0010470D01*
X0009710Y0014814D02*
Y0003450D01*
X0012720Y0017560D02*
X0011422D01*
X0010520Y0015040D02*
X0010480D01*
X0009620Y0014890D02*
Y0003450D01*
X0010610Y0014900D02*
Y0001000D01*
X0015290Y0013950D02*
Y0001000D01*
X0011240Y0016784D02*
Y0016715D01*
X0009476Y0017774D02*
Y0016726D01*
X0012720Y0017470D02*
X0011475D01*
X0010524Y0017774D02*
X0009476D01*
X0010550Y0003450D02*
Y0001000D01*
Y0003450D02*
X0008900D01*
Y0019350D02*
Y0003450D01*
X0017400Y0019350D02*
X0008900D01*
X0017400D02*
Y0018100D01*
X0013040Y0019350D02*
Y0018100D01*
X0017350Y0013950D02*
X0012750D01*
X0017350D02*
Y0008550D01*
X0016050D01*
X0016020Y0005500D02*
X0010178D01*
X0016050Y0005050D02*
Y0005000D01*
X0017600D02*
Y0001000D01*
X0010550D01*
X0017540Y0005000D02*
Y0001000D01*
X0017360Y0005000D02*
Y0001000D01*
X0017270Y0005000D02*
Y0001000D01*
X0016910Y0005000D02*
Y0001000D01*
X0015998Y0009460D02*
X0008900D01*
X0015936Y0010900D02*
X0008900D01*
X0016460Y0005000D02*
Y0001000D01*
X0016370Y0005000D02*
Y0001000D01*
X0016280Y0004989D02*
Y0001000D01*
X0016010Y0010815D02*
Y0009668D01*
X0017350Y0010180D02*
X0008900D01*
X0015920Y0010934D02*
Y0001000D01*
X0015830Y0013950D02*
Y0001000D01*
X0015740Y0013950D02*
Y0001000D01*
X0015650Y0013950D02*
Y0001000D01*
X0016100Y0019350D02*
Y0018100D01*
X0015470Y0013950D02*
Y0001000D01*
X0017360Y0019350D02*
Y0018100D01*
X0017350Y0011530D02*
X0015266D01*
X0015020Y0011233D02*
Y0001000D01*
X0014930Y0006752D02*
Y0001000D01*
X0014840Y0006698D02*
Y0001000D01*
X0014750Y0006682D02*
Y0001000D01*
X0014660Y0013950D02*
Y0007202D01*
X0014570Y0006752D02*
Y0001000D01*
X0014480Y0013950D02*
Y0001000D01*
X0014390Y0013950D02*
Y0001000D01*
X0014300Y0013950D02*
Y0001000D01*
X0016020Y0005140D02*
X0008900D01*
X0012720Y0015760D02*
X0011185D01*
X0014778Y0011350D02*
X0012495D01*
X0014030Y0013950D02*
Y0001000D01*
X0013940Y0012511D02*
Y0001000D01*
X0013850Y0012452D02*
Y0001000D01*
X0012311Y0006760D02*
X0011463D01*
X0013580Y0012493D02*
Y0001000D01*
X0013400Y0006678D02*
Y0001000D01*
X0017600Y0003160D02*
X0011361D01*
X0013220Y0006634D02*
Y0001000D01*
X0013130Y0013950D02*
Y0007139D01*
X0013040Y0006734D02*
Y0001000D01*
X0012950Y0013950D02*
Y0001000D01*
X0014561Y0006760D02*
X0013478D01*
X0012770Y0013950D02*
Y0001000D01*
X0011248Y0014410D02*
X0008900D01*
X0012680Y0006752D02*
Y0001000D01*
X0012590Y0006698D02*
Y0001000D01*
X0012500Y0006682D02*
Y0001000D01*
X0012410Y0011332D02*
Y0007202D01*
X0012320Y0011344D02*
Y0007148D01*
X0012050Y0013514D02*
Y0001000D01*
X0011960Y0019350D02*
Y0001000D01*
X0011870Y0019350D02*
Y0001000D01*
X0012860Y0019350D02*
Y0018100D01*
X0011780Y0019350D02*
Y0001000D01*
X0008952Y0006400D02*
X0008900D01*
X0011690Y0014311D02*
Y0001000D01*
X0011600Y0006322D02*
Y0001000D01*
X0011510Y0006256D02*
Y0001000D01*
X0017350Y0010270D02*
X0010070D01*
X0011240Y0002872D02*
Y0001000D01*
X0017600Y0002890D02*
X0011266D01*
X0010880Y0002947D02*
Y0001000D01*
X0010790Y0014770D02*
Y0001000D01*
X0009662Y0015850D02*
X0008900D01*
X0009650Y0014860D02*
X0008900D01*
X0010700Y0014821D02*
Y0001000D01*
X0010520Y0015040D02*
Y0003450D01*
X0010430Y0014951D02*
Y0003450D01*
X0012141Y0011530D02*
X0008900D01*
X0016020Y0005680D02*
X0010267D01*
X0009890Y0010310D02*
Y0005944D01*
X0011060Y0002835D02*
Y0001000D01*
X0010340Y0014852D02*
Y0003450D01*
X0010160Y0005485D02*
Y0003450D01*
X0009440Y0006381D02*
Y0003450D01*
X0009350Y0006278D02*
Y0003450D01*
X0009260Y0006239D02*
Y0003450D01*
X0009170Y0006234D02*
Y0003450D01*
X0009080Y0006261D02*
Y0003450D01*
X0009476Y0017470D02*
X0008900D01*
X0009476Y0017290D02*
X0008900D01*
X0012750Y0018100D02*
X0008900D01*
X0012734Y0017920D02*
X0008900D01*
X0017400Y0018640D02*
X0008900D01*
X0017400Y0019000D02*
X0008900D01*
X0017400Y0018910D02*
X0008900D01*
X0017400Y0019270D02*
X0008900D01*
X0017400Y0019180D02*
X0008900D01*
X0013591Y0018100D02*
X0012750D01*
X0012720Y0017830D02*
X0008900D01*
X0013711Y0018460D02*
X0008900D01*
X0013608Y0018370D02*
X0008900D01*
X0011370Y0016880D02*
X0011000Y0017250D01*
X0013569Y0018280D02*
X0008900D01*
X0017400Y0018820D02*
X0008900D01*
X0017400Y0018550D02*
X0008900D01*
X0009530Y0019350D02*
Y0017774D01*
X0010520Y0019350D02*
Y0017459D01*
X0009476Y0017650D02*
X0008900D01*
X0009476Y0017560D02*
X0008900D01*
X0009571Y0014950D02*
X0008900D01*
X0012750Y0018010D02*
X0008900D01*
X0009476Y0017200D02*
X0008900D01*
X0010790Y0019350D02*
Y0017730D01*
X0009476Y0017020D02*
X0008900D01*
X0010700Y0019350D02*
Y0017679D01*
X0009782Y0016726D02*
X0009476D01*
X0009520Y0015040D02*
X0008900D01*
X0009674Y0016660D02*
X0008900D01*
X0009585Y0016570D02*
X0008900D01*
X0009476Y0017380D02*
X0008900D01*
X0010880Y0019350D02*
Y0017760D01*
X0009476Y0016750D02*
X0008900D01*
X0009478Y0016210D02*
X0008900D01*
X0009493Y0016120D02*
X0008900D01*
X0009525Y0016030D02*
X0008900D01*
X0010610Y0019350D02*
Y0017599D01*
X0012770Y0019350D02*
Y0018100D01*
X0009687Y0015670D02*
X0008900D01*
X0009593Y0015580D02*
X0008900D01*
X0009534Y0015490D02*
X0008900D01*
X0009498Y0015400D02*
X0008900D01*
X0009480Y0015310D02*
X0008900D01*
X0009477Y0015220D02*
X0008900D01*
X0009490Y0015130D02*
X0008900D01*
X0009479Y0016300D02*
X0008900D01*
X0009815Y0015760D02*
X0008900D01*
X0013113Y0006670D02*
X0011607D01*
X0009768Y0010540D02*
X0008900D01*
X0011302Y0014680D02*
X0008900D01*
X0011248Y0014590D02*
X0008900D01*
X0011232Y0014500D02*
X0008900D01*
X0012860Y0013950D02*
Y0001000D01*
X0011302Y0014320D02*
X0008900D01*
X0012720Y0014230D02*
X0008900D01*
X0012730Y0014140D02*
X0008900D01*
X0012140Y0011536D02*
Y0001000D01*
X0012750Y0013960D02*
X0008900D01*
X0012071Y0013870D02*
X0008900D01*
X0012012Y0013780D02*
X0008900D01*
X0011992Y0013690D02*
X0008900D01*
X0012004Y0013600D02*
X0008900D01*
X0012750Y0014050D02*
X0008900D01*
X0012196Y0013420D02*
X0008900D01*
X0017350Y0013330D02*
X0008900D01*
X0017350Y0013240D02*
X0008900D01*
X0017350Y0013150D02*
X0008900D01*
X0013670Y0012444D02*
Y0001000D01*
X0013490Y0012636D02*
Y0007018D01*
X0017350Y0012970D02*
X0008900D01*
X0013552Y0012880D02*
X0008900D01*
X0013498Y0012790D02*
X0008900D01*
X0017350Y0013060D02*
X0008900D01*
X0013552Y0012520D02*
X0008900D01*
X0017350Y0012430D02*
X0008900D01*
X0017350Y0012340D02*
X0008900D01*
X0017350Y0012250D02*
X0008900D01*
X0017350Y0012160D02*
X0008900D01*
X0017350Y0012070D02*
X0008900D01*
X0012320Y0006752D02*
Y0001000D01*
X0012230Y0011393D02*
Y0001000D01*
X0017350Y0011890D02*
X0008900D01*
X0012222Y0011800D02*
X0008900D01*
X0012156Y0011710D02*
X0008900D01*
X0012133Y0011620D02*
X0008900D01*
X0014739Y0011440D02*
X0012614D01*
X0017350Y0011620D02*
X0015239D01*
X0014881Y0011260D02*
X0008900D01*
X0015942Y0011170D02*
X0008900D01*
X0015907Y0011080D02*
X0008900D01*
X0015905Y0010990D02*
X0008900D01*
X0010070Y0005441D02*
Y0003450D01*
X0017350Y0013420D02*
X0012323D01*
X0009841Y0010720D02*
X0008900D01*
X0009785Y0010630D02*
X0008900D01*
X0016017Y0010810D02*
X0008900D01*
X0009833Y0010360D02*
X0008900D01*
X0009904Y0005950D02*
X0008900D01*
X0009785Y0005860D02*
X0008900D01*
X0009741Y0005770D02*
X0008900D01*
X0016100Y0005000D02*
Y0001000D01*
X0017350Y0009010D02*
X0008900D01*
X0016052Y0009730D02*
X0008900D01*
X0015998Y0009640D02*
X0008900D01*
X0015982Y0009550D02*
X0008900D01*
X0009733Y0005680D02*
X0008900D01*
X0008944Y0006580D02*
X0008900D01*
X0017350Y0009280D02*
X0008900D01*
X0017350Y0009190D02*
X0008900D01*
X0017350Y0009100D02*
X0008900D01*
X0016052Y0009370D02*
X0008900D01*
X0017350Y0008920D02*
X0008900D01*
X0017350Y0008830D02*
X0008900D01*
X0017350Y0008740D02*
X0008900D01*
X0017350Y0008650D02*
X0008900D01*
X0017350Y0008560D02*
X0008900D01*
X0016050Y0008470D02*
X0008900D01*
X0016039Y0008380D02*
X0008900D01*
X0016020Y0008290D02*
X0008900D01*
X0016020Y0008200D02*
X0008900D01*
X0016020Y0008110D02*
X0008900D01*
X0016020Y0008020D02*
X0008900D01*
X0016820Y0005000D02*
Y0001000D01*
X0016020Y0007930D02*
X0008900D01*
X0016020Y0007840D02*
X0008900D01*
X0016020Y0007750D02*
X0008900D01*
X0016730Y0005000D02*
Y0001000D01*
X0016020Y0007570D02*
X0008900D01*
X0016020Y0007480D02*
X0008900D01*
X0012410Y0006698D02*
Y0001000D01*
X0016640Y0005000D02*
Y0001000D01*
X0016020Y0007300D02*
X0008900D01*
X0012436Y0007210D02*
X0008900D01*
X0012293Y0007120D02*
X0008900D01*
X0010856Y0006040D02*
X0008900D01*
X0008990Y0019350D02*
Y0006666D01*
X0009136Y0006760D02*
X0008900D01*
X0008993Y0006670D02*
X0008900D01*
X0012252Y0006850D02*
X0008900D01*
X0010885Y0006310D02*
X0009388D01*
X0009011D02*
X0008900D01*
X0010841Y0006220D02*
X0008900D01*
X0010833Y0006130D02*
X0008900D01*
X0010922Y0005950D02*
X0010095D01*
X0016020D02*
X0011278D01*
X0016020Y0005860D02*
X0010214D01*
X0016020Y0005770D02*
X0010258D01*
X0009980Y0005433D02*
Y0003450D01*
X0009800Y0005522D02*
Y0003450D01*
X0009822Y0005500D02*
X0008900D01*
X0016020Y0005320D02*
X0008900D01*
X0016020Y0005230D02*
X0008900D01*
X0016050Y0005050D02*
X0008900D01*
X0017600Y0004960D02*
X0008900D01*
X0017600Y0004870D02*
X0008900D01*
X0017600Y0004780D02*
X0008900D01*
X0017600Y0004690D02*
X0008900D01*
X0017600Y0004600D02*
X0008900D01*
X0017600Y0004510D02*
X0008900D01*
X0017600Y0004420D02*
X0008900D01*
X0017600Y0004330D02*
X0008900D01*
X0017600Y0004240D02*
X0008900D01*
X0017600Y0004150D02*
X0008900D01*
X0017600Y0004060D02*
X0008900D01*
X0017600Y0003970D02*
X0008900D01*
X0017600Y0003880D02*
X0008900D01*
X0017600Y0003790D02*
X0008900D01*
X0017600Y0003700D02*
X0008900D01*
X0017600Y0003610D02*
X0008900D01*
X0017600Y0003520D02*
X0008900D01*
X0010970Y0002866D02*
Y0001000D01*
X0017600Y0003430D02*
X0010550D01*
X0010981Y0003340D02*
X0010550D01*
X0010878Y0003250D02*
X0010550D01*
X0010839Y0003160D02*
X0010550D01*
X0010834Y0003070D02*
X0010550D01*
X0010934Y0002890D02*
X0010550D01*
X0017600Y0002800D02*
X0010550D01*
X0017600Y0002710D02*
X0010550D01*
X0017600Y0002620D02*
X0010550D01*
X0017600Y0002530D02*
X0010550D01*
X0017600Y0002440D02*
X0010550D01*
X0017600Y0002350D02*
X0010550D01*
X0017600Y0002260D02*
X0010550D01*
X0017600Y0002170D02*
X0010550D01*
X0017600Y0002080D02*
X0010550D01*
X0017600Y0001990D02*
X0010550D01*
X0017600Y0001810D02*
X0010550D01*
X0017600Y0001720D02*
X0010550D01*
X0017600Y0001630D02*
X0010550D01*
X0017600Y0001540D02*
X0010550D01*
X0017600Y0001450D02*
X0010550D01*
X0017600Y0001360D02*
X0010550D01*
X0017600Y0001270D02*
X0010550D01*
X0008990Y0006334D02*
Y0003450D01*
X0011150Y0019350D02*
Y0017752D01*
X0013220Y0019350D02*
Y0018100D01*
X0012750D02*
Y0017949D01*
X0015020Y0019350D02*
Y0018100D01*
X0013580Y0018124D02*
Y0018100D01*
X0013490Y0019350D02*
Y0018100D01*
X0013400Y0019350D02*
Y0018100D01*
Y0013950D02*
Y0007122D01*
X0014120Y0019350D02*
Y0018100D01*
X0013940Y0013950D02*
Y0012888D01*
X0014840Y0019350D02*
Y0018100D01*
X0014930Y0019350D02*
Y0018100D01*
X0014660Y0019350D02*
Y0018100D01*
X0015560Y0013950D02*
Y0001000D01*
X0015650Y0019350D02*
Y0018100D01*
X0015740Y0019350D02*
Y0018100D01*
X0014750Y0019350D02*
Y0018100D01*
X0016370Y0013950D02*
Y0011208D01*
X0016280Y0013950D02*
Y0011274D01*
X0016190Y0013950D02*
Y0011297D01*
X0016100Y0013950D02*
Y0011288D01*
X0016010Y0013950D02*
Y0011244D01*
X0015920Y0013950D02*
Y0011125D01*
X0017350Y0011260D02*
X0016307D01*
X0017350Y0011170D02*
X0016398D01*
X0017350Y0011080D02*
X0016433D01*
X0010000Y0010270D02*
X0008900D01*
X0016033Y0011260D02*
X0015118D01*
X0016370Y0010852D02*
Y0009789D01*
X0016280Y0010786D02*
Y0009816D01*
X0016190Y0010763D02*
Y0009811D01*
X0016100Y0010771D02*
Y0009772D01*
X0016020Y0005590D02*
X0010244D01*
X0017350Y0009730D02*
X0016448D01*
X0017350Y0009640D02*
X0016502D01*
X0016730Y0013950D02*
Y0008550D01*
X0016190Y0004970D02*
Y0001000D01*
Y0009289D02*
Y0008550D01*
X0012304Y0011350D02*
X0008900D01*
X0014390Y0019350D02*
Y0018100D01*
X0013490Y0013950D02*
Y0012763D01*
X0015200Y0013950D02*
Y0011678D01*
X0015110Y0013950D02*
Y0011744D01*
X0015020Y0013950D02*
Y0011767D01*
X0014930Y0013950D02*
Y0011758D01*
X0016100Y0005000D02*
X0016050D01*
X0014840Y0013950D02*
Y0011714D01*
X0014750Y0013950D02*
Y0011595D01*
X0017350Y0011710D02*
X0015166D01*
X0016010Y0009431D02*
Y0001000D01*
X0011330Y0006013D02*
Y0003237D01*
X0011240Y0005922D02*
Y0003328D01*
X0011150Y0005887D02*
Y0003363D01*
X0011060Y0005885D02*
Y0003364D01*
X0010970Y0005916D02*
Y0003334D01*
X0010880Y0005997D02*
Y0003252D01*
X0011150Y0002837D02*
Y0001000D01*
X0017600Y0003340D02*
X0011218D01*
X0017600Y0003250D02*
X0011322D01*
X0011420Y0006233D02*
Y0001000D01*
X0017600Y0003070D02*
X0011366D01*
X0017600Y0002980D02*
X0011339D01*
X0010861D02*
X0010550D01*
X0013040Y0013950D02*
Y0007066D01*
X0017350Y0010090D02*
X0008900D01*
X0017350Y0010000D02*
X0008900D01*
X0017350Y0009910D02*
X0008900D01*
X0017350Y0009820D02*
X0008900D01*
X0014734Y0011530D02*
X0012658D01*
X0010250Y0010375D02*
Y0005795D01*
X0010160Y0010298D02*
Y0005914D01*
X0010070Y0010270D02*
Y0005958D01*
X0009980Y0010273D02*
Y0005967D01*
X0009890Y0005456D02*
Y0003450D01*
X0015920Y0019350D02*
Y0018100D01*
X0014030Y0019350D02*
Y0018398D01*
X0013940Y0019350D02*
Y0018464D01*
X0013850Y0019350D02*
Y0018487D01*
X0017400Y0018100D02*
X0014069D01*
X0013580Y0019350D02*
Y0018315D01*
X0017400Y0018460D02*
X0013948D01*
X0017400Y0018370D02*
X0014052D01*
X0017400Y0018280D02*
X0014091D01*
X0013760Y0019350D02*
Y0018478D01*
X0013670Y0019350D02*
Y0018434D01*
X0017400Y0018190D02*
X0014096D01*
X0015380Y0019350D02*
Y0018100D01*
X0015290Y0019350D02*
Y0018100D01*
X0015200Y0019350D02*
Y0018100D01*
X0015110Y0019350D02*
Y0018100D01*
X0016280Y0009284D02*
Y0008550D01*
X0016370Y0009311D02*
Y0008550D01*
X0016460Y0009384D02*
Y0008550D01*
X0017400Y0019090D02*
X0008900D01*
X0014210Y0013950D02*
Y0001000D01*
X0013498Y0012610D02*
X0008900D01*
X0017350Y0011350D02*
X0015222D01*
X0014570Y0013950D02*
Y0007148D01*
X0014210Y0019350D02*
Y0018100D01*
X0014300Y0019350D02*
Y0018100D01*
X0013760Y0013950D02*
Y0012967D01*
X0014480Y0019350D02*
Y0018100D01*
X0013850Y0013950D02*
Y0012948D01*
X0017350Y0012880D02*
X0013948D01*
X0017350Y0012790D02*
X0014002D01*
X0012185Y0011440D02*
X0008900D01*
X0009790Y0014770D02*
X0008900D01*
X0012500Y0013561D02*
Y0011848D01*
X0012410Y0013458D02*
Y0011867D01*
X0012320Y0013419D02*
Y0011855D01*
X0012230Y0013414D02*
Y0011807D01*
X0012140Y0013441D02*
Y0011663D01*
X0017350Y0011980D02*
X0008900D01*
X0014840Y0011285D02*
Y0007202D01*
X0014750Y0011404D02*
Y0007218D01*
X0014834Y0011710D02*
X0012644D01*
X0014761Y0011620D02*
X0012667D01*
X0009800Y0010408D02*
Y0005878D01*
X0010250Y0014790D02*
Y0010695D01*
X0010160Y0014751D02*
Y0010772D01*
X0010070Y0014731D02*
Y0010801D01*
X0009980Y0014727D02*
Y0010797D01*
X0009890Y0014738D02*
Y0010760D01*
X0009800Y0014766D02*
Y0010663D01*
X0017350Y0010720D02*
X0010229D01*
X0017350Y0010630D02*
X0010286D01*
X0017350Y0010540D02*
X0010303D01*
X0017350Y0010450D02*
X0010289D01*
X0017350Y0010360D02*
X0010237D01*
X0017600Y0005000D02*
X0016299D01*
X0015470Y0019350D02*
Y0018100D01*
X0016550Y0019350D02*
Y0018100D01*
X0016460Y0019350D02*
Y0018100D01*
X0016370Y0019350D02*
Y0018100D01*
X0016050Y0008550D02*
Y0008399D01*
X0015200Y0011322D02*
Y0001000D01*
X0015110Y0011256D02*
Y0001000D01*
X0014930Y0011241D02*
Y0007148D01*
X0015380Y0013950D02*
Y0001000D01*
X0016100Y0009328D02*
Y0008550D01*
X0016020Y0007390D02*
X0008900D01*
X0016020Y0007210D02*
X0014813D01*
X0016020Y0007120D02*
X0014957D01*
X0016020Y0007030D02*
X0015005D01*
X0016020Y0006940D02*
X0015017D01*
X0016020Y0006850D02*
X0014998D01*
X0013310Y0006639D02*
Y0001000D01*
X0013482Y0012700D02*
X0008900D01*
X0017350D02*
X0014018D01*
X0012590Y0011411D02*
Y0007202D01*
X0012500Y0011352D02*
Y0007218D01*
X0014660Y0006698D02*
Y0001000D01*
X0013097Y0007120D02*
X0012707D01*
X0013016Y0007030D02*
X0012755D01*
X0012985Y0006940D02*
X0012767D01*
X0012987Y0006850D02*
X0012748D01*
X0013022Y0006760D02*
X0012688D01*
X0013760Y0012432D02*
Y0001000D01*
X0012720Y0015940D02*
X0011422D01*
X0014120Y0013950D02*
Y0001000D01*
X0017270Y0019350D02*
Y0018100D01*
X0012680Y0019350D02*
Y0007148D01*
X0013220Y0013950D02*
Y0007166D01*
X0014686Y0007210D02*
X0012563D01*
X0014543Y0007120D02*
X0013402D01*
X0014494Y0007030D02*
X0013484D01*
X0014482Y0006940D02*
X0013514D01*
X0014502Y0006850D02*
X0013513D01*
X0016020Y0006760D02*
X0014938D01*
X0011060Y0014730D02*
Y0006414D01*
X0010970Y0014727D02*
Y0006384D01*
X0010880Y0014740D02*
Y0006302D01*
X0016020Y0006310D02*
X0011588D01*
X0016020Y0006220D02*
X0011358D01*
X0016020Y0006130D02*
X0011367D01*
G01X0021825Y0011722D02*
G03X0021463Y0011925I0000362J0000222D01*
G01X0018400Y0009582D02*
G03X0018668Y0009850I0000000J0000268D01*
G01X0018214Y0009657D02*
G03X0018400Y0009582I0000186J0000193D01*
G01X0017682Y0009700D02*
G03X0017950Y0009432I0000268J0000000D01*
G03X0018214Y0009657I0000000J0000268D01*
G01X0017950Y0009968D02*
G03X0017682Y0009700I0000000J0000268D01*
G01X0018136Y0009893D02*
G03X0017950Y0009968I0000186J0000193D01*
G01X0018750Y0009932D02*
G03X0019018Y0010200I0000000J0000268D01*
G03X0018750Y0010468I0000268J0000000D01*
G03X0018482Y0010200I0000000J0000268D01*
G01X0019463Y0004750D02*
G03X0019888Y0004325I0000425J0000000D01*
G03X0020281Y0004590I0000000J0000425D01*
G01X0019888Y0005175D02*
G03X0019463Y0004750I0000000J0000425D01*
G01X0020675Y0004325D02*
G03X0021069Y0004590I0000000J0000425D01*
G01X0020281D02*
G03X0020675Y0004325I0000394J0000160D01*
G01X0020281Y0004910D02*
G03X0019888Y0005174I0000393J0000160D01*
G01X0021463Y0004325D02*
G03X0021825Y0004528I0000000J0000425D01*
G01X0021069Y0004590D02*
G03X0021463Y0004325I0000394J0000160D01*
G01X0021069Y0004910D02*
G03X0020675Y0005175I0000394J0000160D01*
G01X0019463Y0007000D02*
G03X0019888Y0006575I0000425J0000000D01*
G03X0020281Y0006840I0000000J0000425D01*
G01X0019888Y0007425D02*
G03X0019463Y0007000I0000000J0000425D01*
G01X0020675Y0006575D02*
G03X0021069Y0006840I0000000J0000425D01*
G01X0020281D02*
G03X0020675Y0006575I0000394J0000160D01*
G01X0020281Y0007160D02*
G03X0019888Y0007424I0000393J0000160D01*
G01X0021463Y0006575D02*
G03X0021825Y0006778I0000000J0000425D01*
G01X0021069Y0006840D02*
G03X0021463Y0006575I0000394J0000160D01*
G01X0021069Y0007160D02*
G03X0020675Y0007425I0000394J0000160D01*
G01X0019463Y0009250D02*
G03X0019888Y0008825I0000425J0000000D01*
G03X0020281Y0009090I0000000J0000425D01*
G01X0019888Y0009675D02*
G03X0019463Y0009250I0000000J0000425D01*
G01X0020675Y0008825D02*
G03X0021069Y0009090I0000000J0000425D01*
G01X0020281D02*
G03X0020675Y0008825I0000394J0000160D01*
G01X0020281Y0009410D02*
G03X0019888Y0009674I0000393J0000160D01*
G01X0021463Y0008825D02*
G03X0021825Y0009028I0000000J0000425D01*
G01X0021069Y0009090D02*
G03X0021463Y0008825I0000394J0000160D01*
G01X0021069Y0009410D02*
G03X0020675Y0009675I0000394J0000160D01*
G01X0019463Y0011500D02*
G03X0019888Y0011075I0000425J0000000D01*
G03X0020281Y0011340I0000000J0000425D01*
G01X0019888Y0011925D02*
G03X0019463Y0011500I0000000J0000425D01*
G01X0020675Y0011075D02*
G03X0021069Y0011340I0000000J0000425D01*
G01X0020281D02*
G03X0020675Y0011075I0000394J0000160D01*
G01X0020281Y0011660D02*
G03X0019888Y0011924I0000393J0000160D01*
G01X0021463Y0011075D02*
G03X0021825Y0011278I0000000J0000425D01*
G01X0021069Y0011340D02*
G03X0021463Y0011075I0000394J0000160D01*
G01X0021069Y0011660D02*
G03X0020675Y0011925I0000394J0000160D01*
G01X0021825Y0007222D02*
G03X0021463Y0007425I0000362J0000222D01*
G01X0021825Y0004972D02*
G03X0021463Y0005175I0000362J0000222D01*
Y0011925D02*
G03X0021069Y0011660I0000000J0000425D01*
G01X0021463Y0009675D02*
G03X0021069Y0009410I0000000J0000425D01*
G01X0021463Y0005175D02*
G03X0021069Y0004910I0000000J0000425D01*
G01X0021825Y0009472D02*
G03X0021463Y0009675I0000362J0000222D01*
G01X0020675Y0007425D02*
G03X0020281Y0007160I0000000J0000425D01*
G01X0020675Y0011925D02*
G03X0020281Y0011660I0000000J0000425D01*
G01X0020675Y0009675D02*
G03X0020281Y0009410I0000000J0000425D01*
G01X0020675Y0005175D02*
G03X0020281Y0004910I0000000J0000425D01*
G01X0018668Y0009850D02*
G03X0018647Y0009953I0000268J0000000D01*
G03X0018750Y0009932I0000103J0000247D01*
G01X0018400Y0010118D02*
G03X0018136Y0009893I0000000J0000268D01*
G01X0018482Y0010200D02*
G03X0018503Y0010097I0000268J0000000D01*
G03X0018400Y0010118I0000103J0000247D01*
G01X0021463Y0007425D02*
G03X0021069Y0007160I0000000J0000425D01*
G01X0004482Y0007250D02*
G03X0004750Y0006982I0000268J0000000D01*
G03X0005018Y0007250I0000000J0000268D01*
G03X0004750Y0007518I0000268J0000000D01*
G03X0004482Y0007250I0000000J0000268D01*
G01X0007982Y0005700D02*
G03X0008250Y0005432I0000268J0000000D01*
G03X0008518Y0005700I0000000J0000268D01*
G03X0008250Y0005968I0000268J0000000D01*
G03X0007982Y0005700I0000000J0000268D01*
G01X0004732D02*
G03X0005000Y0005432I0000268J0000000D01*
G03X0005268Y0005700I0000000J0000268D01*
G03X0005000Y0005968I0000268J0000000D01*
G03X0004732Y0005700I0000000J0000268D01*
G01X0004997Y0006535D02*
G03X0005264Y0006268I0000267J0000000D01*
G03X0005531Y0006535I0000000J0000267D01*
G01X0005532D02*
G03X0005264Y0006803I0000268J0000000D01*
G03X0004996Y0006535I0000000J0000268D01*
G01X0007982Y0005700D02*
G03X0008250Y0005432I0000268J0000000D01*
G03X0008518Y0005700I0000000J0000268D01*
G03X0008250Y0005968I0000268J0000000D01*
G03X0007982Y0005700I0000000J0000268D01*
G01X0004997Y0006535D02*
G03X0005264Y0006268I0000267J0000000D01*
G03X0005531Y0006535I0000000J0000267D01*
G01X0005532D02*
G03X0005264Y0006803I0000268J0000000D01*
G03X0004996Y0006535I0000000J0000268D01*
G01X0004482Y0007250D02*
G03X0004750Y0006982I0000268J0000000D01*
G03X0005018Y0007250I0000000J0000268D01*
G03X0004750Y0007518I0000268J0000000D01*
G03X0004482Y0007250I0000000J0000268D01*
G01X0007482Y0006550D02*
G03X0007750Y0006282I0000268J0000000D01*
G03X0008018Y0006550I0000000J0000268D01*
G03X0007750Y0006818I0000268J0000000D01*
G03X0007482Y0006550I0000000J0000268D01*
G01X0000903Y0006598D02*
G03X0000450Y0006337I0000000J0000523D01*
G01X0001388Y0006273D02*
G03X0000903Y0006599I0000485J0000198D01*
Y0005158D02*
G03X0001427Y0005666I0000000J0000523D01*
G01X0001758Y0005527D02*
G03X0002223Y0005992I0000000J0000465D01*
G01X0002222D02*
G03X0001758Y0006456I0000464J0000000D01*
G01X0001427Y0005666D02*
G03X0001758Y0005527I0000331J0000326D01*
G01X0004120Y0006075D02*
G03X0003596Y0006599I0000524J0000000D01*
Y0006598D02*
G03X0003207Y0006424I0000000J0000523D01*
G01X0003596Y0005158D02*
G03X0004119Y0005681I0000000J0000523D01*
G01X0002277Y0005008D02*
G03X0002742Y0004543I0000465J0000000D01*
G03X0003207Y0005008I0000000J0000465D01*
G03X0002742Y0005473I0000465J0000000D01*
Y0005472D02*
G03X0002278Y0005008I0000000J0000464D01*
G01X0001293D02*
G03X0001758Y0004543I0000465J0000000D01*
G03X0002223Y0005008I0000000J0000465D01*
G01X0002222D02*
G03X0001758Y0005472I0000464J0000000D01*
G03X0001294Y0005008I0000000J0000464D01*
G01X0000903Y0011098D02*
G03X0000450Y0010837I0000000J0000523D01*
G01X0001388Y0010773D02*
G03X0000903Y0011099I0000485J0000198D01*
Y0009658D02*
G03X0001427Y0010166I0000000J0000523D01*
G01X0001758Y0010027D02*
G03X0002223Y0010492I0000000J0000465D01*
G01X0002222D02*
G03X0001758Y0010956I0000464J0000000D01*
G01X0001427Y0010166D02*
G03X0001758Y0010027I0000331J0000326D01*
G01X0004120Y0010575D02*
G03X0003596Y0011099I0000524J0000000D01*
Y0011098D02*
G03X0003207Y0010924I0000000J0000523D01*
G01X0003596Y0009658D02*
G03X0004119Y0010181I0000000J0000523D01*
G01X0002277Y0009508D02*
G03X0002742Y0009043I0000465J0000000D01*
G03X0003207Y0009508I0000000J0000465D01*
G03X0002742Y0009973I0000465J0000000D01*
Y0009972D02*
G03X0002278Y0009508I0000000J0000464D01*
G01X0001293D02*
G03X0001758Y0009043I0000465J0000000D01*
G03X0002223Y0009508I0000000J0000465D01*
G01X0002222D02*
G03X0001758Y0009972I0000464J0000000D01*
G03X0001294Y0009508I0000000J0000464D01*
G01X0001758Y0006457D02*
G03X0001388Y0006273I0000000J0000465D01*
G01X0003096Y0010027D02*
G03X0003596Y0009658I0000500J0000154D01*
G01X0001758Y0010957D02*
G03X0001388Y0010773I0000000J0000465D01*
G01X0000450Y0009919D02*
G03X0000903Y0009658I0000453J0000262D01*
G01X0003096Y0005527D02*
G03X0003596Y0005158I0000500J0000154D01*
G01X0000450Y0005419D02*
G03X0000903Y0005158I0000453J0000262D01*
G01X0017750Y0018632D02*
G03X0018018Y0018900I0000000J0000268D01*
G03X0017750Y0019168I0000268J0000000D01*
G01X0021082Y0014000D02*
G03X0021350Y0013732I0000268J0000000D01*
G03X0021618Y0014000I0000000J0000268D01*
G03X0021350Y0014268I0000268J0000000D01*
G03X0021082Y0014000I0000000J0000268D01*
G01X0017700Y0018637D02*
G03X0017750Y0018632I0000050J0000263D01*
G01X0014982Y0017000D02*
G03X0015250Y0016732I0000268J0000000D01*
G03X0015518Y0017000I0000000J0000268D01*
G03X0015250Y0017268I0000268J0000000D01*
G03X0014982Y0017000I0000000J0000268D01*
G01X0013262Y0017530D02*
G03X0013530Y0017262I0000268J0000000D01*
G03X0013798Y0017530I0000000J0000268D01*
G03X0013530Y0017798I0000268J0000000D01*
G03X0013262Y0017530I0000000J0000268D01*
G01X0018232Y0018750D02*
G03X0018500Y0018482I0000268J0000000D01*
G03X0018768Y0018750I0000000J0000268D01*
G03X0018500Y0019018I0000268J0000000D01*
G03X0018232Y0018750I0000000J0000268D01*
G01X0018982D02*
G03X0019250Y0018482I0000268J0000000D01*
G03X0019518Y0018750I0000000J0000268D01*
G03X0019250Y0019018I0000268J0000000D01*
G03X0018982Y0018750I0000000J0000268D01*
G03X0019250Y0018482I0000268J0000000D01*
G03X0019518Y0018750I0000000J0000268D01*
G03X0019250Y0019018I0000268J0000000D01*
G03X0018982Y0018750I0000000J0000268D01*
G01X0019082Y0016850D02*
G03X0019350Y0016582I0000268J0000000D01*
G03X0019618Y0016850I0000000J0000268D01*
G03X0019350Y0017118I0000268J0000000D01*
G03X0019082Y0016850I0000000J0000268D01*
G01X0016232Y0016000D02*
G03X0016500Y0015732I0000268J0000000D01*
G03X0016674Y0015797I0000000J0000268D01*
G01X0016500Y0016268D02*
G03X0016232Y0016000I0000000J0000268D01*
G01X0013232Y0015000D02*
G03X0013500Y0014732I0000268J0000000D01*
G03X0013768Y0015000I0000000J0000268D01*
G03X0013500Y0015268I0000268J0000000D01*
G03X0013232Y0015000I0000000J0000268D01*
G01X0016860Y0015722D02*
G03X0017128Y0015990I0000000J0000268D01*
G03X0016860Y0016258I0000268J0000000D01*
G01X0016674Y0015797D02*
G03X0016860Y0015722I0000186J0000193D01*
G01X0020598Y0017716D02*
G03X0021653Y0016661I0001055J0000000D01*
G03X0022708Y0017716I0000000J0001055D01*
G03X0021653Y0018771I0001055J0000000D01*
G03X0020598Y0017716I0000000J0001055D01*
G01X0017750Y0019168D02*
G03X0017700Y0019163I0000000J0000268D01*
G01X0016685Y0016193D02*
G03X0016500Y0016267I0000185J0000193D01*
G01X0016860Y0016258D02*
G03X0016685Y0016193I0000000J0000268D01*
G01X0011147Y0006413D02*
G03X0011100Y0006417I0000047J0000263D01*
G01X0011524Y0015250D02*
G03X0011155Y0015750I0000524J0000000D01*
G03X0011523Y0016250I0000155J0000500D01*
G01X0011155Y0016750D02*
G03X0011523Y0017250I0000155J0000500D01*
G01X0016100Y0005000D02*
G03X0016200Y0004970I0000100J0000150D01*
G01X0012720Y0014200D02*
G03X0012750Y0014100I0000180J0000000D01*
G01X0014732Y0011500D02*
G03X0015000Y0011232I0000268J0000000D01*
G03X0015268Y0011500I0000000J0000268D01*
G03X0015000Y0011768I0000268J0000000D01*
G03X0014732Y0011500I0000000J0000268D01*
G01X0015902Y0011030D02*
G03X0016170Y0010762I0000268J0000000D01*
G03X0016438Y0011030I0000000J0000268D01*
G03X0016170Y0011298I0000268J0000000D01*
G03X0015902Y0011030I0000000J0000268D01*
G01X0015982Y0009550D02*
G03X0016250Y0009282I0000268J0000000D01*
G03X0016518Y0009550I0000000J0000268D01*
G03X0016250Y0009818I0000268J0000000D01*
G03X0015982Y0009550I0000000J0000268D01*
G01X0014732Y0011500D02*
G03X0015000Y0011232I0000268J0000000D01*
G03X0015268Y0011500I0000000J0000268D01*
G03X0015000Y0011768I0000268J0000000D01*
G03X0014732Y0011500I0000000J0000268D01*
G01X0013482Y0012700D02*
G03X0013750Y0012432I0000268J0000000D01*
G03X0014018Y0012700I0000000J0000268D01*
G03X0013750Y0012968I0000268J0000000D01*
G03X0013482Y0012700I0000000J0000268D01*
G01X0012132Y0011600D02*
G03X0012400Y0011332I0000268J0000000D01*
G03X0012668Y0011600I0000000J0000268D01*
G03X0012400Y0011868I0000268J0000000D01*
G03X0012132Y0011600I0000000J0000268D01*
G01X0009768Y0010535D02*
G03X0010035Y0010268I0000267J0000000D01*
G03X0010302Y0010535I0000000J0000267D01*
G01X0010303D02*
G03X0010035Y0010803I0000268J0000000D01*
G03X0009767Y0010535I0000000J0000268D01*
G01X0010832Y0003100D02*
G03X0011100Y0002832I0000268J0000000D01*
G03X0011368Y0003100I0000000J0000268D01*
G03X0011100Y0003368I0000268J0000000D01*
G03X0010832Y0003100I0000000J0000268D01*
G01X0009732Y0005700D02*
G03X0010000Y0005432I0000268J0000000D01*
G03X0010268Y0005700I0000000J0000268D01*
G03X0010000Y0005968I0000268J0000000D01*
G03X0009732Y0005700I0000000J0000268D01*
G03X0010000Y0005432I0000268J0000000D01*
G03X0010268Y0005700I0000000J0000268D01*
G03X0010000Y0005968I0000268J0000000D01*
G03X0009732Y0005700I0000000J0000268D01*
G01X0014098Y0018220D02*
G03X0013830Y0018488I0000268J0000000D01*
G03X0013562Y0018220I0000000J0000268D01*
G03X0013591Y0018100I0000268J0000000D01*
G01X0013482Y0012700D02*
G03X0013750Y0012432I0000268J0000000D01*
G03X0014018Y0012700I0000000J0000268D01*
G03X0013750Y0012968I0000268J0000000D01*
G03X0013482Y0012700I0000000J0000268D01*
G01X0012132Y0011600D02*
G03X0012400Y0011332I0000268J0000000D01*
G03X0012668Y0011600I0000000J0000268D01*
G03X0012400Y0011868I0000268J0000000D01*
G03X0012132Y0011600I0000000J0000268D01*
G01X0009768Y0010535D02*
G03X0010035Y0010268I0000267J0000000D01*
G03X0010302Y0010535I0000000J0000267D01*
G01X0010303D02*
G03X0010035Y0010803I0000268J0000000D01*
G03X0009767Y0010535I0000000J0000268D01*
G01X0014482Y0006950D02*
G03X0014750Y0006682I0000268J0000000D01*
G03X0015018Y0006950I0000000J0000268D01*
G03X0014750Y0007218I0000268J0000000D01*
G03X0014482Y0006950I0000000J0000268D01*
G01X0012232D02*
G03X0012500Y0006682I0000268J0000000D01*
G03X0012768Y0006950I0000000J0000268D01*
G03X0012500Y0007218I0000268J0000000D01*
G03X0012232Y0006950I0000000J0000268D01*
G01X0012982Y0006900D02*
G03X0013250Y0006632I0000268J0000000D01*
G03X0013518Y0006900I0000000J0000268D01*
G03X0013250Y0007168I0000268J0000000D01*
G03X0012982Y0006900I0000000J0000268D01*
G01X0010832Y0006150D02*
G03X0011100Y0005882I0000268J0000000D01*
G03X0011368Y0006150I0000000J0000268D01*
G01X0011100Y0006418D02*
G03X0010832Y0006150I0000000J0000268D01*
G01X0008932Y0006500D02*
G03X0009200Y0006232I0000268J0000000D01*
G03X0009468Y0006500I0000000J0000268D01*
G03X0009200Y0006768I0000268J0000000D01*
G03X0008932Y0006500I0000000J0000268D01*
G01X0011400Y0006232D02*
G03X0011668Y0006500I0000000J0000268D01*
G03X0011400Y0006768I0000268J0000000D01*
G03X0011132Y0006500I0000000J0000268D01*
G01X0011232Y0014500D02*
G03X0011500Y0014232I0000268J0000000D01*
G03X0011768Y0014500I0000000J0000268D01*
G03X0011500Y0014768I0000268J0000000D01*
G03X0011232Y0014500I0000000J0000268D01*
G01X0011992Y0013680D02*
G03X0012260Y0013412I0000268J0000000D01*
G03X0012528Y0013680I0000000J0000268D01*
G03X0012260Y0013948I0000268J0000000D01*
G03X0011992Y0013680I0000000J0000268D01*
G01X0010500Y0016405D02*
G03X0010217Y0016726I0000500J0000155D01*
G01X0011524Y0017250D02*
G03X0011000Y0017774I0000524J0000000D01*
Y0014726D02*
G03X0011524Y0015250I0000000J0000524D01*
Y0016250D02*
G03X0011155Y0016750I0000524J0000000D01*
G01X0010000Y0014726D02*
G03X0010500Y0015094I0000000J0000524D01*
G01X0009476Y0015250D02*
G03X0010000Y0014726I0000524J0000000D01*
G01X0009476Y0016250D02*
G03X0009844Y0015750I0000524J0000000D01*
G01X0011000Y0017774D02*
G03X0010524Y0017467I0000000J0000524D01*
Y0017032D02*
G03X0010844Y0016750I0000476J0000218D01*
G01X0009844Y0015750D02*
G03X0009476Y0015250I0000156J0000500D01*
G01X0012750Y0017949D02*
G03X0012720Y0017850I0000150J0000099D01*
G01X0016200Y0004970D02*
G03X0016299Y0005000I0000000J0000180D01*
G01X0016020Y0005150D02*
G03X0016050Y0005050I0000180J0000000D01*
G01X0011368Y0006150D02*
G03X0011353Y0006236I0000268J0000000D01*
G01X0010844Y0016750D02*
G03X0010500Y0016405I0000156J0000500D01*
G01X0011353Y0006236D02*
G03X0011400Y0006232I0000047J0000264D01*
G01X0010500Y0015094D02*
G03X0011000Y0014726I0000500J0000156D01*
G01X0014069Y0018100D02*
G03X0014097Y0018220I0000239J0000120D01*
G01X0009782Y0016726D02*
G03X0009476Y0016250I0000218J0000476D01*
G01X0016050Y0008399D02*
G03X0016020Y0008300I0000150J0000099D01*
G01X0011132Y0006500D02*
G03X0011147Y0006413I0000268J0000000D01*
G54D43*
G01X0001758Y0009508D02*
Y0009042D01*
X0002500Y0008300D01*
X0005200D01*
X0005800Y0007700D01*
Y0004800D01*
X0005150Y0004150D01*
X0002050D01*
X0001758Y0004442D01*
Y0005008D01*
G54D10*
X0001968Y0001968D03*
X0021653D03*
Y0017716D03*
X0001968D03*
G54D16*
X0003596Y0005878D03*
X0000903D03*
X0003596Y0010378D03*
X0000903D03*
G54D17*
X0001758Y0005008D03*
X0002742D03*
X0001758Y0005992D03*
Y0009508D03*
X0002742D03*
X0001758Y0010492D03*
G54D18*
X0002742Y0005992D03*
Y0010492D03*
G54D19*
X0008250Y0001500D03*
X0009037D03*
X0005000D03*
X0005787D03*
X0021463Y0004750D03*
X0020675D03*
X0019888D03*
X0021463Y0007000D03*
X0020675D03*
X0019888D03*
X0021463Y0009250D03*
X0020675D03*
X0019888D03*
X0021463Y0011500D03*
X0020675D03*
X0019888D03*
G54D20*
X0022250Y0004750D03*
Y0007000D03*
Y0009250D03*
Y0011500D03*
G54D21*
X0010000Y0016250D03*
Y0015250D03*
X0011000D03*
Y0016250D03*
Y0017250D03*
G54D22*
X0006500Y0011000D03*
X0010000Y0017250D03*
G54D26*
X0006500Y0012000D03*
Y0013000D03*
G54D29*
X0016606Y0007644D03*
Y0007250D03*
Y0006856D03*
X0017000Y0007644D03*
Y0006856D03*
X0017394Y0007644D03*
Y0007250D03*
Y0006856D03*
G54D42*
X0019250Y0017300D03*
X0021350Y0013500D03*
X0013500Y0015600D03*
Y0014500D03*
X0017800Y0011550D03*
X0016170Y0011030D03*
X0016250Y0009550D03*
X0017750Y0018900D03*
X0015000Y0011500D03*
X0006400Y0015500D03*
X0008480Y0015470D03*
X0008470Y0014780D03*
X0011100Y0003100D03*
X0005000Y0005700D03*
X0010000D03*
X0008250D03*
X0005264Y0006535D03*
X0008000Y0011750D03*
X0021350Y0014000D03*
X0013830Y0018220D03*
X0015250Y0017000D03*
X0013530Y0017530D03*
X0018500Y0018750D03*
X0019250D03*
X0019350Y0016850D03*
X0013750Y0009350D03*
X0015000Y0010000D03*
X0011500Y0008950D03*
X0016000Y0001250D03*
X0015250D03*
X0014500D03*
X0012500Y0008450D03*
X0013250D03*
X0013750Y0012700D03*
X0003200Y0015750D03*
X0002750Y0013000D03*
X0014000Y0008450D03*
X0014750D03*
X0016250Y0008950D03*
X0017000Y0018700D03*
X0011500Y0013000D03*
X0000750D03*
X0001750D03*
X0003500D03*
X0012400Y0011600D03*
X0010035Y0010535D03*
G54D45*
X0011500Y0001300D03*
X0012250D03*
X0013750Y0001250D03*
X0013000Y0001300D03*
X0004750Y0007250D03*
X0006500Y0018450D03*
X0016500Y0016000D03*
X0014750Y0006950D03*
X0018400Y0009850D03*
X0017950Y0009700D03*
X0012500Y0006950D03*
X0016200Y0018750D03*
X0018750Y0010200D03*
X0013250Y0006900D03*
X0011100Y0006150D03*
X0007750Y0006550D03*
X0009200Y0006500D03*
X0011400D03*
X0013500Y0015000D03*
X0016750Y0001250D03*
X0011500Y0014500D03*
X0012260Y0013680D03*
X0016860Y0015990D03*
X0007000Y0014600D03*
G54D65*
X0017000Y0007250D03*
M02*
