*
G04 Mass Parameters ***
*
G04 Image ***
*
%IND:\UTENTI\00.LAVORI IN CORSO\METALTRONICA\23-326-0\23-326-0.DRD*%
%ICAS*%
%MOIN*%
%IPPOS*%
%ASAXBY*%
G74*%FSLAN2X34Y34*%
*
G04 Aperture Definitions ***
*
%AMTHERMAL48*
1,1,0.1211,0,0,*
1,0,0.0972,0,0,*
21,0,0.1212,0.0100,0,0,45.0*
21,0,0.1212,0.0100,0,0,135.0*%
%AMTHERMAL52*
1,1,0.1093,0,0,*
1,0,0.0854,0,0,*
21,0,0.1094,0.0100,0,0,45.0*
21,0,0.1094,0.0100,0,0,135.0*%
%AMTHERMAL56*
1,1,0.1172,0,0,*
1,0,0.0933,0,0,*
21,0,0.1173,0.0100,0,0,315.0*
21,0,0.1173,0.0100,0,0,45.0*%
%AMTHERMAL60*
1,1,0.1172,0,0,*
1,0,0.0933,0,0,*
21,0,0.1173,0.0100,0,0,135.0*
21,0,0.1173,0.0100,0,0,225.0*%
%ADD10C,0.1850*%
%ADD11C,0.0394*%
%ADD12R,0.0380X0.0320*%
%ADD13R,0.0886X0.0905*%
%ADD14R,0.0501X0.0404*%
%ADD15R,0.0710X0.0400*%
%ADD16O,0.0787X0.1181*%
%ADD17C,0.0669*%
%ADD18R,0.0669X0.0669*%
%ADD19C,0.0590*%
%ADD20R,0.0590X0.0590*%
%ADD21C,0.0787*%
%ADD22R,0.0787X0.0787*%
%ADD23R,0.0413X0.0236*%
%ADD24C,0.0187*%
%ADD25O,0.0650X0.0256*%
%ADD26C,0.0800*%
%ADD27R,0.1580X0.0680*%
%ADD28R,0.0550X0.0680*%
%ADD29C,0.0118*%
%ADD30R,0.0984X0.0984*%
%ADD31O,0.0394X0.0110*%
%ADD32O,0.0110X0.0394*%
%ADD33O,0.0700X0.0110*%
%ADD34R,0.0700X0.0110*%
%ADD35O,0.0110X0.0700*%
%ADD36R,0.0110X0.0700*%
%ADD37R,0.0236X0.0512*%
%ADD38C,0.0050*%
%ADD39C,0.0100*%
%ADD40C,0.0080*%
%ADD41C,0.0250*%
%ADD42C,0.0276*%
%ADD43C,0.0500*%
%ADD44C,0.0197*%
%ADD45C,0.0276*%
%ADD46C,0.2047*%
%ADD47O,0.0984X0.1378*%
%ADD48THERMAL48*%
%ADD49R,0.0866X0.0866*%
%ADD50O,0.0984X0.1378*%
%ADD51C,0.0866*%
%ADD52THERMAL52*%
%ADD53C,0.0708*%
%ADD54R,0.0708X0.0708*%
%ADD55C,0.1027*%
%ADD56THERMAL56*%
%ADD57R,0.0984X0.0984*%
%ADD58C,0.0748*%
%ADD59C,0.1100*%
%ADD60THERMAL60*%
%ADD61R,0.0984X0.0984*%
%ADD62C,0.0050*%
%ADD63C,0.0394*%
%ADD64C,0.0050*%
%ADD65C,0.0748*%
%ADD66O,0.0423X0.0139*%
%ADD67O,0.0139X0.0423*%
%ADD68C,0.0060*%
%ADD69C,0.0079*%
*
G04 Plot Data ***
*
G54D39*
G01X0024708Y-0018500D02*
X0024042D01*
X0024375Y-0017833D01*
X0024542D01*
Y-0018833D01*
X0023758D02*
X0023092D01*
X0023758Y-0018167D01*
Y-0018000D01*
X0023675Y-0017833D01*
X0023175D01*
X0023092Y-0018000D01*
X0022808Y-0018833D02*
X0022475D01*
X0022642D02*
Y-0017833D01*
X0022475Y-0018000D01*
X0012312Y-0018833D02*
X0011729D01*
Y-0017833D01*
X0011446Y-0018500D02*
X0010779D01*
X0011446Y-0018833D02*
Y-0018333D01*
X0011196Y-0017833D01*
X0011029D01*
X0010779Y-0018333D01*
Y-0018833D01*
X0010162D02*
Y-0017833D01*
X0010496D02*
X0009829D01*
X0008962Y-0018833D02*
X0008879Y-0018667D01*
Y-0018000D01*
X0008962Y-0017833D01*
X0009462D01*
X0009546Y-0018000D01*
Y-0018667D01*
X0009462Y-0018833D01*
X0008962D01*
X0008262D02*
Y-0017833D01*
X0008596D02*
X0007929D01*
X0032564Y-0016972D02*
Y-0016306D01*
X0032508Y-0016972D02*
X0032841D01*
X0032953Y-0016750D01*
Y-0016528D01*
X0032841Y-0016306D01*
X0032508D01*
X0032141Y-0016639D02*
X0031808D01*
X0032253Y-0016972D02*
X0031808D01*
Y-0016306D01*
X0032253D01*
X0031330Y-0016972D02*
Y-0016306D01*
X0031553D02*
X0031108D01*
X0030853Y-0016750D02*
X0030408D01*
X0030853Y-0016972D02*
Y-0016639D01*
X0030686Y-0016306D01*
X0030575D01*
X0030408Y-0016639D01*
Y-0016972D01*
X0030153D02*
X0029764D01*
Y-0016306D01*
X0029064Y-0016639D02*
X0029397D01*
X0029508Y-0016528D01*
Y-0016417D01*
X0029397Y-0016306D01*
X0029064D01*
Y-0016972D01*
X0028808Y-0016639D02*
X0028364D01*
X0028108Y-0016306D02*
Y-0016972D01*
X0027997Y-0016861D01*
X0027775Y-0016417D01*
X0027664Y-0016306D01*
Y-0016972D01*
X0027019D02*
X0026964Y-0016861D01*
Y-0016417D01*
X0027019Y-0016306D01*
X0027353D01*
X0027408Y-0016417D01*
Y-0016861D01*
X0027353Y-0016972D01*
X0027019D01*
X0026708Y-0016306D02*
Y-0016972D01*
X0026597Y-0016861D01*
X0026375Y-0016417D01*
X0026264Y-0016306D01*
Y-0016972D01*
X0024708Y-0016750D02*
X0024264D01*
X0024486Y-0016306D01*
X0024597D01*
Y-0016972D01*
X0010869D02*
Y-0016639D01*
X0011092Y-0016972D02*
Y-0016639D01*
X0011036Y-0016528D01*
X0010925D01*
X0010869Y-0016639D01*
X0010814Y-0016528D01*
X0010703D01*
X0010647Y-0016639D01*
Y-0016972D01*
X0010169D02*
Y-0016639D01*
X0010392Y-0016972D02*
Y-0016639D01*
X0010336Y-0016528D01*
X0010225D01*
X0010169Y-0016639D01*
X0010114Y-0016528D01*
X0010003D01*
X0009947Y-0016639D01*
Y-0016972D01*
X0008464D02*
X0008353Y-0016861D01*
X0008297Y-0016750D01*
Y-0016528D01*
X0008353Y-0016417D01*
X0008464Y-0016306D01*
X0008575D01*
X0008686Y-0016417D01*
X0008742Y-0016528D01*
Y-0016750D01*
X0008686Y-0016861D01*
X0008575Y-0016972D01*
X0008464D01*
X0007764D02*
X0007653Y-0016861D01*
X0007597Y-0016750D01*
Y-0016528D01*
X0007653Y-0016417D01*
X0007764Y-0016306D01*
X0007875D01*
X0007986Y-0016417D01*
X0008042Y-0016528D01*
Y-0016750D01*
X0007986Y-0016861D01*
X0007875Y-0016972D01*
X0007764D01*
X0007008D02*
X0007342Y-0016306D01*
X0006897D01*
X0006531Y-0016972D02*
X0006642D01*
Y-0016861D01*
X0006531D01*
Y-0016972D01*
X0006164Y-0016750D02*
X0005719D01*
X0005942Y-0016306D01*
X0006053D01*
Y-0016972D01*
X0024264Y-0015361D02*
X0024319Y-0015472D01*
X0024653D01*
X0024708Y-0015361D01*
Y-0015139D01*
X0024597Y-0015028D01*
X0024264D01*
Y-0014806D01*
X0024708D01*
X0010869Y-0015472D02*
Y-0015139D01*
X0011092Y-0015472D02*
Y-0015139D01*
X0011036Y-0015028D01*
X0010925D01*
X0010869Y-0015139D01*
X0010814Y-0015028D01*
X0010703D01*
X0010647Y-0015139D01*
Y-0015472D01*
X0010169D02*
Y-0015139D01*
X0010392Y-0015472D02*
Y-0015139D01*
X0010336Y-0015028D01*
X0010225D01*
X0010169Y-0015139D01*
X0010114Y-0015028D01*
X0010003D01*
X0009947Y-0015139D01*
Y-0015472D01*
X0008464D02*
X0008353Y-0015361D01*
X0008297Y-0015250D01*
Y-0015028D01*
X0008353Y-0014917D01*
X0008464Y-0014806D01*
X0008575D01*
X0008686Y-0014917D01*
X0008742Y-0015028D01*
Y-0015250D01*
X0008686Y-0015361D01*
X0008575Y-0015472D01*
X0008464D01*
X0007764D02*
X0007653Y-0015361D01*
X0007597Y-0015250D01*
Y-0015028D01*
X0007653Y-0014917D01*
X0007764Y-0014806D01*
X0007875D01*
X0007986Y-0014917D01*
X0008042Y-0015028D01*
Y-0015250D01*
X0007986Y-0015361D01*
X0007875Y-0015472D01*
X0007764D01*
X0006953Y-0015139D02*
X0007286D01*
X0007342Y-0015250D01*
Y-0015361D01*
X0007286Y-0015472D01*
X0006953D01*
X0006897Y-0015361D01*
Y-0015250D01*
X0007119Y-0014806D01*
X0006531Y-0015472D02*
X0006642D01*
Y-0015361D01*
X0006531D01*
Y-0015472D01*
X0006164D02*
X0005942D01*
X0006053D02*
Y-0014806D01*
X0005942Y-0014917D01*
X0024653Y-0013639D02*
X0024708Y-0013528D01*
Y-0013417D01*
X0024653Y-0013306D01*
X0024319D01*
X0024264Y-0013417D01*
Y-0013528D01*
X0024319Y-0013639D01*
X0024653D01*
X0024708Y-0013750D01*
Y-0013861D01*
X0024653Y-0013972D01*
X0024319D01*
X0024264Y-0013861D01*
Y-0013750D01*
X0024319Y-0013639D01*
X0010869Y-0013972D02*
Y-0013639D01*
X0011092Y-0013972D02*
Y-0013639D01*
X0011036Y-0013528D01*
X0010925D01*
X0010869Y-0013639D01*
X0010814Y-0013528D01*
X0010703D01*
X0010647Y-0013639D01*
Y-0013972D01*
X0010169D02*
Y-0013639D01*
X0010392Y-0013972D02*
Y-0013639D01*
X0010336Y-0013528D01*
X0010225D01*
X0010169Y-0013639D01*
X0010114Y-0013528D01*
X0010003D01*
X0009947Y-0013639D01*
Y-0013972D01*
X0008464D02*
X0008353Y-0013861D01*
X0008297Y-0013750D01*
Y-0013528D01*
X0008353Y-0013417D01*
X0008464Y-0013306D01*
X0008575D01*
X0008686Y-0013417D01*
X0008742Y-0013528D01*
Y-0013750D01*
X0008686Y-0013861D01*
X0008575Y-0013972D01*
X0008464D01*
X0007764D02*
X0007653Y-0013861D01*
X0007597Y-0013750D01*
Y-0013528D01*
X0007653Y-0013417D01*
X0007764Y-0013306D01*
X0007875D01*
X0007986Y-0013417D01*
X0008042Y-0013528D01*
Y-0013750D01*
X0007986Y-0013861D01*
X0007875Y-0013972D01*
X0007764D01*
X0007342D02*
X0006897D01*
X0007342Y-0013528D01*
Y-0013417D01*
X0007286Y-0013306D01*
X0006953D01*
X0006897Y-0013417D01*
X0006531Y-0013972D02*
X0006642D01*
Y-0013861D01*
X0006531D01*
Y-0013972D01*
X0006164D02*
X0005942D01*
X0006053D02*
Y-0013306D01*
X0005942Y-0013417D01*
X0024653Y-0012139D02*
X0024319D01*
X0024264Y-0012028D01*
Y-0011917D01*
X0024319Y-0011806D01*
X0024653D01*
X0024708Y-0011917D01*
Y-0012028D01*
X0024486Y-0012472D01*
X0010869D02*
Y-0012139D01*
X0011092Y-0012472D02*
Y-0012139D01*
X0011036Y-0012028D01*
X0010925D01*
X0010869Y-0012139D01*
X0010814Y-0012028D01*
X0010703D01*
X0010647Y-0012139D01*
Y-0012472D01*
X0010169D02*
Y-0012139D01*
X0010392Y-0012472D02*
Y-0012139D01*
X0010336Y-0012028D01*
X0010225D01*
X0010169Y-0012139D01*
X0010114Y-0012028D01*
X0010003D01*
X0009947Y-0012139D01*
Y-0012472D01*
X0008464D02*
X0008353Y-0012361D01*
X0008297Y-0012250D01*
Y-0012028D01*
X0008353Y-0011917D01*
X0008464Y-0011806D01*
X0008575D01*
X0008686Y-0011917D01*
X0008742Y-0012028D01*
Y-0012250D01*
X0008686Y-0012361D01*
X0008575Y-0012472D01*
X0008464D01*
X0007764D02*
X0007653Y-0012361D01*
X0007597Y-0012250D01*
Y-0012028D01*
X0007653Y-0011917D01*
X0007764Y-0011806D01*
X0007875D01*
X0007986Y-0011917D01*
X0008042Y-0012028D01*
Y-0012250D01*
X0007986Y-0012361D01*
X0007875Y-0012472D01*
X0007764D01*
X0007342D02*
X0007119D01*
X0007230D02*
Y-0011806D01*
X0007119Y-0011917D01*
X0006642Y-0012472D02*
X0006753D01*
Y-0012361D01*
X0006642D01*
Y-0012472D01*
X0006275D02*
X0006053D01*
X0006164D02*
Y-0011806D01*
X0006053Y-0011917D01*
X0024319Y-0010639D02*
X0024653D01*
X0024708Y-0010750D01*
Y-0010861D01*
X0024653Y-0010972D01*
X0024319D01*
X0024264Y-0010861D01*
Y-0010750D01*
X0024486Y-0010306D01*
X0024008Y-0010972D02*
X0023786D01*
X0023897D02*
Y-0010306D01*
X0023786Y-0010417D01*
X0010869Y-0010972D02*
Y-0010639D01*
X0011092Y-0010972D02*
Y-0010639D01*
X0011036Y-0010528D01*
X0010925D01*
X0010869Y-0010639D01*
X0010814Y-0010528D01*
X0010703D01*
X0010647Y-0010639D01*
Y-0010972D01*
X0010169D02*
Y-0010639D01*
X0010392Y-0010972D02*
Y-0010639D01*
X0010336Y-0010528D01*
X0010225D01*
X0010169Y-0010639D01*
X0010114Y-0010528D01*
X0010003D01*
X0009947Y-0010639D01*
Y-0010972D01*
X0008464D02*
X0008353Y-0010861D01*
X0008297Y-0010750D01*
Y-0010528D01*
X0008353Y-0010417D01*
X0008464Y-0010306D01*
X0008575D01*
X0008686Y-0010417D01*
X0008742Y-0010528D01*
Y-0010750D01*
X0008686Y-0010861D01*
X0008575Y-0010972D01*
X0008464D01*
X0007764D02*
X0007653Y-0010861D01*
X0007597Y-0010750D01*
Y-0010528D01*
X0007653Y-0010417D01*
X0007764Y-0010306D01*
X0007875D01*
X0007986Y-0010417D01*
X0008042Y-0010528D01*
Y-0010750D01*
X0007986Y-0010861D01*
X0007875Y-0010972D01*
X0007764D01*
X0007286Y-0010639D02*
X0006953D01*
X0006897Y-0010528D01*
Y-0010417D01*
X0006953Y-0010306D01*
X0007286D01*
X0007342Y-0010417D01*
Y-0010528D01*
X0007119Y-0010972D01*
X0006531D02*
X0006642D01*
Y-0010861D01*
X0006531D01*
Y-0010972D01*
X0005886D02*
X0005775Y-0010861D01*
X0005719Y-0010750D01*
Y-0010528D01*
X0005775Y-0010417D01*
X0005886Y-0010306D01*
X0005997D01*
X0006108Y-0010417D01*
X0006164Y-0010528D01*
Y-0010750D01*
X0006108Y-0010861D01*
X0005997Y-0010972D01*
X0005886D01*
X0024708Y-0009250D02*
X0024264D01*
X0024486Y-0008806D01*
X0024597D01*
Y-0009472D01*
X0010869D02*
Y-0009139D01*
X0011092Y-0009472D02*
Y-0009139D01*
X0011036Y-0009028D01*
X0010925D01*
X0010869Y-0009139D01*
X0010814Y-0009028D01*
X0010703D01*
X0010647Y-0009139D01*
Y-0009472D01*
X0010169D02*
Y-0009139D01*
X0010392Y-0009472D02*
Y-0009139D01*
X0010336Y-0009028D01*
X0010225D01*
X0010169Y-0009139D01*
X0010114Y-0009028D01*
X0010003D01*
X0009947Y-0009139D01*
Y-0009472D01*
X0008464D02*
X0008353Y-0009361D01*
X0008297Y-0009250D01*
Y-0009028D01*
X0008353Y-0008917D01*
X0008464Y-0008806D01*
X0008575D01*
X0008686Y-0008917D01*
X0008742Y-0009028D01*
Y-0009250D01*
X0008686Y-0009361D01*
X0008575Y-0009472D01*
X0008464D01*
X0007764D02*
X0007653Y-0009361D01*
X0007597Y-0009250D01*
Y-0009028D01*
X0007653Y-0008917D01*
X0007764Y-0008806D01*
X0007875D01*
X0007986Y-0008917D01*
X0008042Y-0009028D01*
Y-0009250D01*
X0007986Y-0009361D01*
X0007875Y-0009472D01*
X0007764D01*
X0007286Y-0009139D02*
X0007342Y-0009028D01*
Y-0008917D01*
X0007286Y-0008806D01*
X0006953D01*
X0006897Y-0008917D01*
Y-0009028D01*
X0006953Y-0009139D01*
X0007286D01*
X0007342Y-0009250D01*
Y-0009361D01*
X0007286Y-0009472D01*
X0006953D01*
X0006897Y-0009361D01*
Y-0009250D01*
X0006953Y-0009139D01*
X0006531Y-0009472D02*
X0006642D01*
Y-0009361D01*
X0006531D01*
Y-0009472D01*
X0005886D02*
X0005775Y-0009361D01*
X0005719Y-0009250D01*
Y-0009028D01*
X0005775Y-0008917D01*
X0005886Y-0008806D01*
X0005997D01*
X0006108Y-0008917D01*
X0006164Y-0009028D01*
Y-0009250D01*
X0006108Y-0009361D01*
X0005997Y-0009472D01*
X0005886D01*
X0024653Y-0007639D02*
X0024708Y-0007528D01*
Y-0007417D01*
X0024653Y-0007306D01*
X0024319D01*
X0024264Y-0007417D01*
Y-0007528D01*
X0024319Y-0007639D01*
X0024653D01*
X0024708Y-0007750D01*
Y-0007861D01*
X0024653Y-0007972D01*
X0024319D01*
X0024264Y-0007861D01*
Y-0007750D01*
X0024319Y-0007639D01*
X0010869Y-0007972D02*
Y-0007639D01*
X0011092Y-0007972D02*
Y-0007639D01*
X0011036Y-0007528D01*
X0010925D01*
X0010869Y-0007639D01*
X0010814Y-0007528D01*
X0010703D01*
X0010647Y-0007639D01*
Y-0007972D01*
X0010169D02*
Y-0007639D01*
X0010392Y-0007972D02*
Y-0007639D01*
X0010336Y-0007528D01*
X0010225D01*
X0010169Y-0007639D01*
X0010114Y-0007528D01*
X0010003D01*
X0009947Y-0007639D01*
Y-0007972D01*
X0008464D02*
X0008353Y-0007861D01*
X0008297Y-0007750D01*
Y-0007528D01*
X0008353Y-0007417D01*
X0008464Y-0007306D01*
X0008575D01*
X0008686Y-0007417D01*
X0008742Y-0007528D01*
Y-0007750D01*
X0008686Y-0007861D01*
X0008575Y-0007972D01*
X0008464D01*
X0007764D02*
X0007653Y-0007861D01*
X0007597Y-0007750D01*
Y-0007528D01*
X0007653Y-0007417D01*
X0007764Y-0007306D01*
X0007875D01*
X0007986Y-0007417D01*
X0008042Y-0007528D01*
Y-0007750D01*
X0007986Y-0007861D01*
X0007875Y-0007972D01*
X0007764D01*
X0006897Y-0007861D02*
X0007008Y-0007972D01*
X0007230D01*
X0007342Y-0007861D01*
Y-0007750D01*
X0007119Y-0007528D01*
X0007342Y-0007306D01*
X0006897D01*
X0006531Y-0007972D02*
X0006642D01*
Y-0007861D01*
X0006531D01*
Y-0007972D01*
X0005886D02*
X0005775Y-0007861D01*
X0005719Y-0007750D01*
Y-0007528D01*
X0005775Y-0007417D01*
X0005886Y-0007306D01*
X0005997D01*
X0006108Y-0007417D01*
X0006164Y-0007528D01*
Y-0007750D01*
X0006108Y-0007861D01*
X0005997Y-0007972D01*
X0005886D01*
X0024430Y-0006472D02*
X0024319Y-0006361D01*
X0024264Y-0006250D01*
Y-0006028D01*
X0024319Y-0005917D01*
X0024430Y-0005806D01*
X0024542D01*
X0024653Y-0005917D01*
X0024708Y-0006028D01*
Y-0006250D01*
X0024653Y-0006361D01*
X0024542Y-0006472D01*
X0024430D01*
X0023675D02*
X0024008Y-0005806D01*
X0023564D01*
X0010869Y-0006472D02*
Y-0006139D01*
X0011092Y-0006472D02*
Y-0006139D01*
X0011036Y-0006028D01*
X0010925D01*
X0010869Y-0006139D01*
X0010814Y-0006028D01*
X0010703D01*
X0010647Y-0006139D01*
Y-0006472D01*
X0010169D02*
Y-0006139D01*
X0010392Y-0006472D02*
Y-0006139D01*
X0010336Y-0006028D01*
X0010225D01*
X0010169Y-0006139D01*
X0010114Y-0006028D01*
X0010003D01*
X0009947Y-0006139D01*
Y-0006472D01*
X0008464D02*
X0008353Y-0006361D01*
X0008297Y-0006250D01*
Y-0006028D01*
X0008353Y-0005917D01*
X0008464Y-0005806D01*
X0008575D01*
X0008686Y-0005917D01*
X0008742Y-0006028D01*
Y-0006250D01*
X0008686Y-0006361D01*
X0008575Y-0006472D01*
X0008464D01*
X0007764D02*
X0007653Y-0006361D01*
X0007597Y-0006250D01*
Y-0006028D01*
X0007653Y-0005917D01*
X0007764Y-0005806D01*
X0007875D01*
X0007986Y-0005917D01*
X0008042Y-0006028D01*
Y-0006250D01*
X0007986Y-0006361D01*
X0007875Y-0006472D01*
X0007764D01*
X0007342D02*
X0006897D01*
X0007342Y-0006028D01*
Y-0005917D01*
X0007286Y-0005806D01*
X0006953D01*
X0006897Y-0005917D01*
X0006531Y-0006472D02*
X0006642D01*
Y-0006361D01*
X0006531D01*
Y-0006472D01*
X0005886D02*
X0005775Y-0006361D01*
X0005719Y-0006250D01*
Y-0006028D01*
X0005775Y-0005917D01*
X0005886Y-0005806D01*
X0005997D01*
X0006108Y-0005917D01*
X0006164Y-0006028D01*
Y-0006250D01*
X0006108Y-0006361D01*
X0005997Y-0006472D01*
X0005886D01*
X0033112Y-0004333D02*
X0032612D01*
X0033279Y-0004833D02*
X0032612D01*
Y-0003833D01*
X0033279D01*
X0031996Y-0004833D02*
Y-0003833D01*
X0032329D02*
X0031662D01*
X0030796Y-0004833D02*
X0030712Y-0004667D01*
Y-0004000D01*
X0030796Y-0003833D01*
X0031296D01*
X0031379Y-0004000D01*
Y-0004667D01*
X0031296Y-0004833D01*
X0030796D01*
X0030429Y-0003833D02*
Y-0004833D01*
X0030262Y-0004667D01*
X0029929Y-0004000D01*
X0029762Y-0003833D01*
Y-0004833D01*
X0023925D02*
Y-0004333D01*
X0024258Y-0003833D02*
X0024008Y-0004333D01*
X0023842D01*
X0023592Y-0003833D01*
X0022975Y-0004833D02*
Y-0003833D01*
X0023308D02*
X0022642D01*
X0022025Y-0004500D02*
X0022358Y-0004833D01*
X0021692Y-0004667D02*
X0021775Y-0004833D01*
X0022108D01*
X0022192Y-0004667D01*
X0022358Y-0004500D01*
Y-0004000D01*
X0022275Y-0003833D01*
X0021775D01*
X0021692Y-0004000D01*
Y-0004667D01*
X0017408Y-0004833D02*
X0016825D01*
Y-0003833D01*
X0015958Y-0004833D02*
X0015875Y-0004667D01*
Y-0004000D01*
X0015958Y-0003833D01*
X0016458D01*
X0016542Y-0004000D01*
Y-0004667D01*
X0016458Y-0004833D01*
X0015958D01*
X0015258D02*
Y-0003833D01*
X0015592D02*
X0014925D01*
X0009587Y-0004833D02*
Y-0003833D01*
X0009421Y-0004000D01*
X0009254Y-0004333D01*
X0009087Y-0004000D01*
X0008921Y-0003833D01*
Y-0004833D01*
X0008637Y-0004500D02*
X0007971D01*
X0008637Y-0004833D02*
Y-0004333D01*
X0008387Y-0003833D01*
X0008221D01*
X0007971Y-0004333D01*
Y-0004833D01*
X0007687D02*
X0007354D01*
X0007521D02*
Y-0003833D01*
X0007687D02*
X0007354D01*
X0006321Y-0004833D02*
Y-0003833D01*
X0006237Y-0004833D02*
X0006737D01*
X0006904Y-0004500D01*
Y-0004167D01*
X0006737Y-0003833D01*
X0006237D01*
X0003150Y-0004833D02*
Y-0003833D01*
X0002983Y-0004000D01*
X0002817Y-0004333D01*
X0002650Y-0004000D01*
X0002483Y-0003833D01*
Y-0004833D01*
X0001867D02*
Y-0004333D01*
X0002200Y-0003833D02*
X0001950Y-0004333D01*
X0001783D01*
X0001533Y-0003833D01*
X0001250Y-0004000D02*
X0001167Y-0003833D01*
X0000667D01*
X0000583Y-0004000D01*
Y-0004167D01*
X0000667Y-0004333D01*
X0001167D01*
X0001250Y-0004500D01*
Y-0004667D01*
X0001167Y-0004833D01*
X0000667D01*
X0000583Y-0004667D01*
X0023437Y-0002833D02*
Y-0001833D01*
X0023771D02*
X0023104D01*
X0022571Y-0002333D02*
X0022821Y-0002833D01*
X0022154Y-0002333D02*
X0022654D01*
X0022821Y-0002167D01*
Y-0002000D01*
X0022654Y-0001833D01*
X0022154D01*
Y-0002833D01*
X0021871Y-0002500D02*
X0021204D01*
X0021871Y-0002833D02*
Y-0002333D01*
X0021621Y-0001833D01*
X0021454D01*
X0021204Y-0002333D01*
Y-0002833D01*
X0020921Y-0002333D02*
X0020254D01*
X0020921Y-0002833D02*
Y-0001833D01*
X0020254Y-0002833D02*
Y-0001833D01*
X0019971Y-0002667D02*
X0019887Y-0002833D01*
X0019387D01*
X0019304Y-0002667D01*
Y-0002000D01*
X0019387Y-0001833D01*
X0019887D01*
X0019971Y-0002000D01*
X0017696Y-0002833D02*
X0017112D01*
Y-0001833D01*
X0016829Y-0002833D02*
X0016246D01*
Y-0001833D01*
X0015962Y-0002833D02*
X0015629D01*
X0015796D02*
Y-0001833D01*
X0015962D02*
X0015629D01*
X0014929Y-0002333D02*
X0015179Y-0002833D01*
X0014512Y-0002333D02*
X0015012D01*
X0015179Y-0002167D01*
Y-0002000D01*
X0015012Y-0001833D01*
X0014512D01*
Y-0002833D01*
X0013646D02*
Y-0001833D01*
X0013562Y-0002833D02*
X0014062D01*
X0014229Y-0002500D01*
Y-0002167D01*
X0014062Y-0001833D01*
X0013562D01*
X0036150Y-0002742D02*
X0035900Y-0002492D01*
X0036150Y-0002242D01*
X0035817D02*
Y-0002742D01*
X0035283D02*
X0035242Y-0002658D01*
Y-0002325D01*
X0035283Y-0002242D01*
X0035533D01*
X0035575Y-0002325D01*
Y-0002658D01*
X0035533Y-0002742D01*
X0035283D01*
X0034237Y-0002658D02*
X0034196Y-0002742D01*
X0033946D01*
X0033904Y-0002658D01*
Y-0002325D01*
X0033946Y-0002242D01*
X0034196D01*
X0034237Y-0002325D01*
X0033537Y-0002492D02*
X0033662Y-0002742D01*
X0033329Y-0002492D02*
X0033579D01*
X0033662Y-0002408D01*
Y-0002325D01*
X0033579Y-0002242D01*
X0033329D01*
Y-0002742D01*
X0032796D02*
Y-0002242D01*
X0032754Y-0002742D02*
X0033004D01*
X0033087Y-0002575D01*
Y-0002408D01*
X0033004Y-0002242D01*
X0032754D01*
X0031542Y-0002742D02*
X0031458Y-0002658D01*
X0031417Y-0002575D01*
Y-0002408D01*
X0031458Y-0002325D01*
X0031542Y-0002242D01*
X0031625D01*
X0031708Y-0002325D01*
X0031750Y-0002408D01*
Y-0002575D01*
X0031708Y-0002658D01*
X0031625Y-0002742D01*
X0031542D01*
X0031175Y-0002575D02*
X0030842D01*
X0031008Y-0002242D01*
X0031092D01*
Y-0002742D01*
X0019000Y0017550D02*
Y0017050D01*
X0019500Y0017550D02*
X0019000D01*
X0019500Y0017050D02*
Y0017550D01*
X0019000Y0017050D02*
X0019500D01*
Y0017550D02*
X0019000Y0017050D01*
X0019500D02*
X0019000Y0017550D01*
X0021100Y0013750D02*
Y0013250D01*
X0021600Y0013750D02*
X0021100D01*
X0021600Y0013250D02*
Y0013750D01*
X0021100Y0013250D02*
X0021600D01*
Y0013750D02*
X0021100Y0013250D01*
X0021600D02*
X0021100Y0013750D01*
X0013250Y0015850D02*
Y0015350D01*
X0013750Y0015850D02*
X0013250D01*
X0013750Y0015350D02*
Y0015850D01*
X0013250Y0015350D02*
X0013750D01*
Y0015850D02*
X0013250Y0015350D01*
X0013750D02*
X0013250Y0015850D01*
Y0014750D02*
Y0014250D01*
X0013750Y0014750D02*
X0013250D01*
X0013750Y0014250D02*
Y0014750D01*
X0013250Y0014250D02*
X0013750D01*
Y0014750D02*
X0013250Y0014250D01*
X0013750D02*
X0013250Y0014750D01*
X0017550Y0011800D02*
Y0011300D01*
X0018050Y0011800D02*
X0017550D01*
X0018050Y0011300D02*
Y0011800D01*
X0017550Y0011300D02*
X0018050D01*
Y0011800D02*
X0017550Y0011300D01*
X0018050D02*
X0017550Y0011800D01*
X0015750Y0001500D02*
Y0001000D01*
X0016250Y0001500D02*
X0015750D01*
X0016250Y0001000D02*
Y0001500D01*
X0015750Y0001000D02*
X0016250D01*
Y0001500D02*
X0015750Y0001000D01*
X0016250D02*
X0015750Y0001500D01*
X0016500D02*
Y0001000D01*
X0017000Y0001500D02*
X0016500D01*
X0017000Y0001000D02*
Y0001500D01*
X0016500Y0001000D02*
X0017000D01*
Y0001500D02*
X0016500Y0001000D01*
X0017000D02*
X0016500Y0001500D01*
X0016000Y0009800D02*
Y0009300D01*
X0016500Y0009800D02*
X0016000D01*
X0016500Y0009300D02*
Y0009800D01*
X0016000Y0009300D02*
X0016500D01*
Y0009800D02*
X0016000Y0009300D01*
X0016500D02*
X0016000Y0009800D01*
X0015920Y0011280D02*
Y0010780D01*
X0016420Y0011280D02*
X0015920D01*
X0016420Y0010780D02*
Y0011280D01*
X0015920Y0010780D02*
X0016420D01*
Y0011280D02*
X0015920Y0010780D01*
X0016420D02*
X0015920Y0011280D01*
X0014750Y0011750D02*
Y0011250D01*
X0015250Y0011750D02*
X0014750D01*
X0015250Y0011250D02*
Y0011750D01*
X0014750Y0011250D02*
X0015250D01*
Y0011750D02*
X0014750Y0011250D01*
X0015250D02*
X0014750Y0011750D01*
X0015920Y0011280D02*
Y0010780D01*
X0016420Y0011280D02*
X0015920D01*
X0016420Y0010780D02*
Y0011280D01*
X0015920Y0010780D02*
X0016420D01*
Y0011280D02*
X0015920Y0010780D01*
X0016420D02*
X0015920Y0011280D01*
X0016000Y0009800D02*
Y0009300D01*
X0016500Y0009800D02*
X0016000D01*
X0016500Y0009300D02*
Y0009800D01*
X0016000Y0009300D02*
X0016500D01*
Y0009800D02*
X0016000Y0009300D01*
X0016500D02*
X0016000Y0009800D01*
X0018250Y0019000D02*
Y0018500D01*
X0018750Y0019000D02*
X0018250D01*
X0018750Y0018500D02*
Y0019000D01*
X0018250Y0018500D02*
X0018750D01*
Y0019000D02*
X0018250Y0018500D01*
X0018750D02*
X0018250Y0019000D01*
X0017500Y0019150D02*
Y0018650D01*
X0018000Y0019150D02*
X0017500D01*
X0018000Y0018650D02*
Y0019150D01*
X0017500Y0018650D02*
X0018000D01*
Y0019150D02*
X0017500Y0018650D01*
X0018000D02*
X0017500Y0019150D01*
X0014750Y0011750D02*
Y0011250D01*
X0015250Y0011750D02*
X0014750D01*
X0015250Y0011250D02*
Y0011750D01*
X0014750Y0011250D02*
X0015250D01*
Y0011750D02*
X0014750Y0011250D01*
X0015250D02*
X0014750Y0011750D01*
X0013500Y0012950D02*
Y0012450D01*
X0014000Y0012950D02*
X0013500D01*
X0014000Y0012450D02*
Y0012950D01*
X0013500Y0012450D02*
X0014000D01*
Y0012950D02*
X0013500Y0012450D01*
X0014000D02*
X0013500Y0012950D01*
Y0012450D01*
X0014000Y0012950D02*
X0013500D01*
X0014000Y0012450D02*
Y0012950D01*
X0013500Y0012450D02*
X0014000D01*
Y0012950D02*
X0013500Y0012450D01*
X0014000D02*
X0013500Y0012950D01*
X0012150Y0011850D02*
Y0011350D01*
X0012650Y0011850D02*
X0012150D01*
X0012650Y0011350D02*
Y0011850D01*
X0012150Y0011350D02*
X0012650D01*
Y0011850D02*
X0012150Y0011350D01*
X0012650D02*
X0012150Y0011850D01*
X0007750Y0012000D02*
Y0011500D01*
X0008250Y0012000D02*
X0007750D01*
X0008250Y0011500D02*
Y0012000D01*
X0007750Y0011500D02*
X0008250D01*
Y0012000D02*
X0007750Y0011500D01*
X0008250D02*
X0007750Y0012000D01*
X0008220Y0015030D02*
Y0014530D01*
X0008720Y0015030D02*
X0008220D01*
X0008720Y0014530D02*
Y0015030D01*
X0008220Y0014530D02*
X0008720D01*
Y0015030D02*
X0008220Y0014530D01*
X0008720D02*
X0008220Y0015030D01*
X0008230Y0015720D02*
Y0015220D01*
X0008730Y0015720D02*
X0008230D01*
X0008730Y0015220D02*
Y0015720D01*
X0008230Y0015220D02*
X0008730D01*
Y0015720D02*
X0008230Y0015220D01*
X0008730D02*
X0008230Y0015720D01*
X0006150Y0015750D02*
Y0015250D01*
X0006650Y0015750D02*
X0006150D01*
X0006650Y0015250D02*
Y0015750D01*
X0006150Y0015250D02*
X0006650D01*
Y0015750D02*
X0006150Y0015250D01*
X0006650D02*
X0006150Y0015750D01*
X0008230Y0015720D02*
Y0015220D01*
X0008730Y0015720D02*
X0008230D01*
X0008730Y0015220D02*
Y0015720D01*
X0008230Y0015220D02*
X0008730D01*
Y0015720D02*
X0008230Y0015220D01*
X0008730D02*
X0008230Y0015720D01*
X0009785Y0010785D02*
Y0010285D01*
X0010285Y0010785D02*
X0009785D01*
X0010285Y0010285D02*
Y0010785D01*
X0009785Y0010285D02*
X0010285D01*
Y0010785D02*
X0009785Y0010285D01*
X0010285D02*
X0009785Y0010785D01*
X0007750Y0012000D02*
Y0011500D01*
X0008250Y0012000D02*
X0007750D01*
X0008250Y0011500D02*
Y0012000D01*
X0007750Y0011500D02*
X0008250D01*
Y0012000D02*
X0007750Y0011500D01*
X0008250D02*
X0007750Y0012000D01*
X0008230Y0015720D02*
Y0015220D01*
X0008730Y0015720D02*
X0008230D01*
X0008730Y0015220D02*
Y0015720D01*
X0008230Y0015220D02*
X0008730D01*
Y0015720D02*
X0008230Y0015220D01*
X0008730D02*
X0008230Y0015720D01*
X0008220Y0015030D02*
Y0014530D01*
X0008720Y0015030D02*
X0008220D01*
X0008720Y0014530D02*
Y0015030D01*
X0008220Y0014530D02*
X0008720D01*
Y0015030D02*
X0008220Y0014530D01*
X0008720D02*
X0008220Y0015030D01*
X0004500Y0007500D02*
Y0007000D01*
X0005000Y0007500D02*
X0004500D01*
X0005000Y0007000D02*
Y0007500D01*
X0004500Y0007000D02*
X0005000D01*
Y0007500D02*
X0004500Y0007000D01*
X0005000D02*
X0004500Y0007500D01*
X0008000Y0005950D02*
Y0005450D01*
X0008500Y0005950D02*
X0008000D01*
X0008500Y0005450D02*
Y0005950D01*
X0008000Y0005450D02*
X0008500D01*
Y0005950D02*
X0008000Y0005450D01*
X0008500D02*
X0008000Y0005950D01*
X0005014Y0006785D02*
Y0006285D01*
X0005514Y0006785D02*
X0005014D01*
X0005514Y0006285D02*
Y0006785D01*
X0005014Y0006285D02*
X0005514D01*
Y0006785D02*
X0005014Y0006285D01*
X0005514D02*
X0005014Y0006785D01*
X0010850Y0003350D02*
Y0002850D01*
X0011350Y0003350D02*
X0010850D01*
X0011350Y0002850D02*
Y0003350D01*
X0010850Y0002850D02*
X0011350D01*
Y0003350D02*
X0010850Y0002850D01*
X0011350D02*
X0010850Y0003350D01*
X0009750Y0005950D02*
Y0005450D01*
X0010250Y0005950D02*
X0009750D01*
X0010250Y0005450D02*
Y0005950D01*
X0009750Y0005450D02*
X0010250D01*
Y0005950D02*
X0009750Y0005450D01*
X0010250D02*
X0009750Y0005950D01*
X0004750D02*
Y0005450D01*
X0005250Y0005950D02*
X0004750D01*
X0005250Y0005450D02*
Y0005950D01*
X0004750Y0005450D02*
X0005250D01*
Y0005950D02*
X0004750Y0005450D01*
X0005250D02*
X0004750Y0005950D01*
X0005014Y0006785D02*
Y0006285D01*
X0005514Y0006785D02*
X0005014D01*
X0005514Y0006285D02*
Y0006785D01*
X0005014Y0006285D02*
X0005514D01*
Y0006785D02*
X0005014Y0006285D01*
X0005514D02*
X0005014Y0006785D01*
X0009750Y0005950D02*
Y0005450D01*
X0010250Y0005950D02*
X0009750D01*
X0010250Y0005450D02*
Y0005950D01*
X0009750Y0005450D02*
X0010250D01*
Y0005950D02*
X0009750Y0005450D01*
X0010250D02*
X0009750Y0005950D01*
X0008000D02*
Y0005450D01*
X0008500Y0005950D02*
X0008000D01*
X0008500Y0005450D02*
Y0005950D01*
X0008000Y0005450D02*
X0008500D01*
Y0005950D02*
X0008000Y0005450D01*
X0008500D02*
X0008000Y0005950D01*
X0001500Y0013250D02*
Y0012750D01*
X0002000Y0013250D02*
X0001500D01*
X0002000Y0012750D02*
Y0013250D01*
X0001500Y0012750D02*
X0002000D01*
Y0013250D02*
X0001500Y0012750D01*
X0002000D02*
X0001500Y0013250D01*
X0005014Y0006785D02*
Y0006285D01*
X0005514Y0006785D02*
X0005014D01*
X0005514Y0006285D02*
Y0006785D01*
X0005014Y0006285D02*
X0005514D01*
Y0006785D02*
X0005014Y0006285D01*
X0005514D02*
X0005014Y0006785D01*
X0004500Y0007500D02*
Y0007000D01*
X0005000Y0007500D02*
X0004500D01*
X0005000Y0007000D02*
Y0007500D01*
X0004500Y0007000D02*
X0005000D01*
Y0007500D02*
X0004500Y0007000D01*
X0005000D02*
X0004500Y0007500D01*
X0007750Y0012000D02*
Y0011500D01*
X0008250Y0012000D02*
X0007750D01*
X0008250Y0011500D02*
Y0012000D01*
X0007750Y0011500D02*
X0008250D01*
Y0012000D02*
X0007750Y0011500D01*
X0008250D02*
X0007750Y0012000D01*
X0002500Y0013250D02*
Y0012750D01*
X0003000Y0013250D02*
X0002500D01*
X0003000Y0012750D02*
Y0013250D01*
X0002500Y0012750D02*
X0003000D01*
Y0013250D02*
X0002500Y0012750D01*
X0003000D02*
X0002500Y0013250D01*
X0003250D02*
Y0012750D01*
X0003750Y0013250D02*
X0003250D01*
X0003750Y0012750D02*
Y0013250D01*
X0003250Y0012750D02*
X0003750D01*
Y0013250D02*
X0003250Y0012750D01*
X0003750D02*
X0003250Y0013250D01*
X0021100Y0014250D02*
Y0013750D01*
X0021600Y0014250D02*
X0021100D01*
X0021600Y0013750D02*
Y0014250D01*
X0021100Y0013750D02*
X0021600D01*
Y0014250D02*
X0021100Y0013750D01*
X0021600D02*
X0021100Y0014250D01*
X0013580Y0018470D02*
Y0017970D01*
X0014080Y0018470D02*
X0013580D01*
X0014080Y0017970D02*
Y0018470D01*
X0013580Y0017970D02*
X0014080D01*
Y0018470D02*
X0013580Y0017970D01*
X0014080D02*
X0013580Y0018470D01*
X0013280Y0017780D02*
Y0017280D01*
X0013780Y0017780D02*
X0013280D01*
X0013780Y0017280D02*
Y0017780D01*
X0013280Y0017280D02*
X0013780D01*
Y0017780D02*
X0013280Y0017280D01*
X0013780D02*
X0013280Y0017780D01*
X0015000Y0017250D02*
Y0016750D01*
X0015500Y0017250D02*
X0015000D01*
X0015500Y0016750D02*
Y0017250D01*
X0015000Y0016750D02*
X0015500D01*
Y0017250D02*
X0015000Y0016750D01*
X0015500D02*
X0015000Y0017250D01*
X0013280Y0017780D02*
Y0017280D01*
X0013780Y0017780D02*
X0013280D01*
X0013780Y0017280D02*
Y0017780D01*
X0013280Y0017280D02*
X0013780D01*
Y0017780D02*
X0013280Y0017280D01*
X0013780D02*
X0013280Y0017780D01*
X0018250Y0019000D02*
Y0018500D01*
X0018750Y0019000D02*
X0018250D01*
X0018750Y0018500D02*
Y0019000D01*
X0018250Y0018500D02*
X0018750D01*
Y0019000D02*
X0018250Y0018500D01*
X0018750D02*
X0018250Y0019000D01*
X0019000D02*
Y0018500D01*
X0019500Y0019000D02*
X0019000D01*
X0019500Y0018500D02*
Y0019000D01*
X0019000Y0018500D02*
X0019500D01*
Y0019000D02*
X0019000Y0018500D01*
X0019500D02*
X0019000Y0019000D01*
Y0018500D01*
X0019500Y0019000D02*
X0019000D01*
X0019500Y0018500D02*
Y0019000D01*
X0019000Y0018500D02*
X0019500D01*
Y0019000D02*
X0019000Y0018500D01*
X0019500D02*
X0019000Y0019000D01*
X0019100Y0017100D02*
Y0016600D01*
X0019600Y0017100D02*
X0019100D01*
X0019600Y0016600D02*
Y0017100D01*
X0019100Y0016600D02*
X0019600D01*
Y0017100D02*
X0019100Y0016600D01*
X0019600D02*
X0019100Y0017100D01*
X0013750Y0008700D02*
Y0008200D01*
X0014250Y0008700D02*
X0013750D01*
X0014250Y0008200D02*
Y0008700D01*
X0013750Y0008200D02*
X0014250D01*
Y0008700D02*
X0013750Y0008200D01*
X0014250D02*
X0013750Y0008700D01*
X0013500Y0009600D02*
Y0009100D01*
X0014000Y0009600D02*
X0013500D01*
X0014000Y0009100D02*
Y0009600D01*
X0013500Y0009100D02*
X0014000D01*
Y0009600D02*
X0013500Y0009100D01*
X0014000D02*
X0013500Y0009600D01*
X0013000Y0008700D02*
Y0008200D01*
X0013500Y0008700D02*
X0013000D01*
X0013500Y0008200D02*
Y0008700D01*
X0013000Y0008200D02*
X0013500D01*
Y0008700D02*
X0013000Y0008200D01*
X0013500D02*
X0013000Y0008700D01*
X0013750D02*
Y0008200D01*
X0014250Y0008700D02*
X0013750D01*
X0014250Y0008200D02*
Y0008700D01*
X0013750Y0008200D02*
X0014250D01*
Y0008700D02*
X0013750Y0008200D01*
X0014250D02*
X0013750Y0008700D01*
X0013500Y0009600D02*
Y0009100D01*
X0014000Y0009600D02*
X0013500D01*
X0014000Y0009100D02*
Y0009600D01*
X0013500Y0009100D02*
X0014000D01*
Y0009600D02*
X0013500Y0009100D01*
X0014000D02*
X0013500Y0009600D01*
X0014750Y0010250D02*
Y0009750D01*
X0015250Y0010250D02*
X0014750D01*
X0015250Y0009750D02*
Y0010250D01*
X0014750Y0009750D02*
X0015250D01*
Y0010250D02*
X0014750Y0009750D01*
X0015250D02*
X0014750Y0010250D01*
X0012250Y0008700D02*
Y0008200D01*
X0012750Y0008700D02*
X0012250D01*
X0012750Y0008200D02*
Y0008700D01*
X0012250Y0008200D02*
X0012750D01*
Y0008700D02*
X0012250Y0008200D01*
X0012750D02*
X0012250Y0008700D01*
X0011250Y0009200D02*
Y0008700D01*
X0011750Y0009200D02*
X0011250D01*
X0011750Y0008700D02*
Y0009200D01*
X0011250Y0008700D02*
X0011750D01*
Y0009200D02*
X0011250Y0008700D01*
X0011750D02*
X0011250Y0009200D01*
X0015000Y0001500D02*
Y0001000D01*
X0015500Y0001500D02*
X0015000D01*
X0015500Y0001000D02*
Y0001500D01*
X0015000Y0001000D02*
X0015500D01*
Y0001500D02*
X0015000Y0001000D01*
X0015500D02*
X0015000Y0001500D01*
X0015750D02*
Y0001000D01*
X0016250Y0001500D02*
X0015750D01*
X0016250Y0001000D02*
Y0001500D01*
X0015750Y0001000D02*
X0016250D01*
Y0001500D02*
X0015750Y0001000D01*
X0016250D02*
X0015750Y0001500D01*
X0014250D02*
Y0001000D01*
X0014750Y0001500D02*
X0014250D01*
X0014750Y0001000D02*
Y0001500D01*
X0014250Y0001000D02*
X0014750D01*
Y0001500D02*
X0014250Y0001000D01*
X0014750D02*
X0014250Y0001500D01*
X0013500D02*
Y0001000D01*
X0014000Y0001500D02*
X0013500D01*
X0014000Y0001000D02*
Y0001500D01*
X0013500Y0001000D02*
X0014000D01*
Y0001500D02*
X0013500Y0001000D01*
X0014000D02*
X0013500Y0001500D01*
X0012000Y0001550D02*
Y0001050D01*
X0012500Y0001550D02*
X0012000D01*
X0012500Y0001050D02*
Y0001550D01*
X0012000Y0001050D02*
X0012500D01*
Y0001550D02*
X0012000Y0001050D01*
X0012500D02*
X0012000Y0001550D01*
X0012750D02*
Y0001050D01*
X0013250Y0001550D02*
X0012750D01*
X0013250Y0001050D02*
Y0001550D01*
X0012750Y0001050D02*
X0013250D01*
Y0001550D02*
X0012750Y0001050D01*
X0013250D02*
X0012750Y0001550D01*
X0015000Y0001500D02*
Y0001000D01*
X0015500Y0001500D02*
X0015000D01*
X0015500Y0001000D02*
Y0001500D01*
X0015000Y0001000D02*
X0015500D01*
Y0001500D02*
X0015000Y0001000D01*
X0015500D02*
X0015000Y0001500D01*
X0014250D02*
Y0001000D01*
X0014750Y0001500D02*
X0014250D01*
X0014750Y0001000D02*
Y0001500D01*
X0014250Y0001000D02*
X0014750D01*
Y0001500D02*
X0014250Y0001000D01*
X0014750D02*
X0014250Y0001500D01*
X0012250Y0008700D02*
Y0008200D01*
X0012750Y0008700D02*
X0012250D01*
X0012750Y0008200D02*
Y0008700D01*
X0012250Y0008200D02*
X0012750D01*
Y0008700D02*
X0012250Y0008200D01*
X0012750D02*
X0012250Y0008700D01*
X0013000D02*
Y0008200D01*
X0013500Y0008700D02*
X0013000D01*
X0013500Y0008200D02*
Y0008700D01*
X0013000Y0008200D02*
X0013500D01*
Y0008700D02*
X0013000Y0008200D01*
X0013500D02*
X0013000Y0008700D01*
X0013500Y0012950D02*
Y0012450D01*
X0014000Y0012950D02*
X0013500D01*
X0014000Y0012450D02*
Y0012950D01*
X0013500Y0012450D02*
X0014000D01*
Y0012950D02*
X0013500Y0012450D01*
X0014000D02*
X0013500Y0012950D01*
X0003250Y0013250D02*
Y0012750D01*
X0003750Y0013250D02*
X0003250D01*
X0003750Y0012750D02*
Y0013250D01*
X0003250Y0012750D02*
X0003750D01*
Y0013250D02*
X0003250Y0012750D01*
X0003750D02*
X0003250Y0013250D01*
X0002950Y0016000D02*
Y0015500D01*
X0003450Y0016000D02*
X0002950D01*
X0003450Y0015500D02*
Y0016000D01*
X0002950Y0015500D02*
X0003450D01*
Y0016000D02*
X0002950Y0015500D01*
X0003450D02*
X0002950Y0016000D01*
X0001500Y0013250D02*
Y0012750D01*
X0002000Y0013250D02*
X0001500D01*
X0002000Y0012750D02*
Y0013250D01*
X0001500Y0012750D02*
X0002000D01*
Y0013250D02*
X0001500Y0012750D01*
X0002000D02*
X0001500Y0013250D01*
X0002500D02*
Y0012750D01*
X0003000Y0013250D02*
X0002500D01*
X0003000Y0012750D02*
Y0013250D01*
X0002500Y0012750D02*
X0003000D01*
Y0013250D02*
X0002500Y0012750D01*
X0003000D02*
X0002500Y0013250D01*
X0013750Y0008700D02*
Y0008200D01*
X0014250Y0008700D02*
X0013750D01*
X0014250Y0008200D02*
Y0008700D01*
X0013750Y0008200D02*
X0014250D01*
Y0008700D02*
X0013750Y0008200D01*
X0014250D02*
X0013750Y0008700D01*
X0014500D02*
Y0008200D01*
X0015000Y0008700D02*
X0014500D01*
X0015000Y0008200D02*
Y0008700D01*
X0014500Y0008200D02*
X0015000D01*
Y0008700D02*
X0014500Y0008200D01*
X0015000D02*
X0014500Y0008700D01*
Y0008200D01*
X0015000Y0008700D02*
X0014500D01*
X0015000Y0008200D02*
Y0008700D01*
X0014500Y0008200D02*
X0015000D01*
Y0008700D02*
X0014500Y0008200D01*
X0015000D02*
X0014500Y0008700D01*
X0016000Y0009200D02*
Y0008700D01*
X0016500Y0009200D02*
X0016000D01*
X0016500Y0008700D02*
Y0009200D01*
X0016000Y0008700D02*
X0016500D01*
Y0009200D02*
X0016000Y0008700D01*
X0016500D02*
X0016000Y0009200D01*
X0016750Y0018950D02*
Y0018450D01*
X0017250Y0018950D02*
X0016750D01*
X0017250Y0018450D02*
Y0018950D01*
X0016750Y0018450D02*
X0017250D01*
Y0018950D02*
X0016750Y0018450D01*
X0017250D02*
X0016750Y0018950D01*
X0015950Y0019000D02*
Y0018500D01*
X0016450Y0019000D02*
X0015950D01*
X0016450Y0018500D02*
Y0019000D01*
X0015950Y0018500D02*
X0016450D01*
Y0019000D02*
X0015950Y0018500D01*
X0016450D02*
X0015950Y0019000D01*
X0011250Y0013250D02*
Y0012750D01*
X0011750Y0013250D02*
X0011250D01*
X0011750Y0012750D02*
Y0013250D01*
X0011250Y0012750D02*
X0011750D01*
Y0013250D02*
X0011250Y0012750D01*
X0011750D02*
X0011250Y0013250D01*
X0000500D02*
Y0012750D01*
X0001000Y0013250D02*
X0000500D01*
X0001000Y0012750D02*
Y0013250D01*
X0000500Y0012750D02*
X0001000D01*
Y0013250D02*
X0000500Y0012750D01*
X0001000D02*
X0000500Y0013250D01*
X0001500D02*
Y0012750D01*
X0002000Y0013250D02*
X0001500D01*
X0002000Y0012750D02*
Y0013250D01*
X0001500Y0012750D02*
X0002000D01*
Y0013250D02*
X0001500Y0012750D01*
X0002000D02*
X0001500Y0013250D01*
X0003250D02*
Y0012750D01*
X0003750Y0013250D02*
X0003250D01*
X0003750Y0012750D02*
Y0013250D01*
X0003250Y0012750D02*
X0003750D01*
Y0013250D02*
X0003250Y0012750D01*
X0003750D02*
X0003250Y0013250D01*
X0012150Y0011850D02*
Y0011350D01*
X0012650Y0011850D02*
X0012150D01*
X0012650Y0011350D02*
Y0011850D01*
X0012150Y0011350D02*
X0012650D01*
Y0011850D02*
X0012150Y0011350D01*
X0012650D02*
X0012150Y0011850D01*
X0009785Y0010785D02*
Y0010285D01*
X0010285Y0010785D02*
X0009785D01*
X0010285Y0010285D02*
Y0010785D01*
X0009785Y0010285D02*
X0010285D01*
Y0010785D02*
X0009785Y0010285D01*
X0010285D02*
X0009785Y0010785D01*
X0011250Y0001550D02*
Y0001050D01*
X0011750Y0001550D02*
X0011250D01*
X0011750Y0001050D02*
Y0001550D01*
X0011250Y0001050D02*
X0011750D01*
Y0001550D02*
X0011250Y0001050D01*
X0011750D02*
X0011250Y0001550D01*
X0012000D02*
Y0001050D01*
X0012500Y0001550D02*
X0012000D01*
X0012500Y0001050D02*
Y0001550D01*
X0012000Y0001050D02*
X0012500D01*
Y0001550D02*
X0012000Y0001050D01*
X0012500D02*
X0012000Y0001550D01*
X0013500Y0001500D02*
Y0001000D01*
X0014000Y0001500D02*
X0013500D01*
X0014000Y0001000D02*
Y0001500D01*
X0013500Y0001000D02*
X0014000D01*
Y0001500D02*
X0013500Y0001000D01*
X0014000D02*
X0013500Y0001500D01*
X0012750Y0001550D02*
Y0001050D01*
X0013250Y0001550D02*
X0012750D01*
X0013250Y0001050D02*
Y0001550D01*
X0012750Y0001050D02*
X0013250D01*
Y0001550D02*
X0012750Y0001050D01*
X0013250D02*
X0012750Y0001550D01*
X0004500Y0007500D02*
Y0007000D01*
X0005000Y0007500D02*
X0004500D01*
X0005000Y0007000D02*
Y0007500D01*
X0004500Y0007000D02*
X0005000D01*
Y0007500D02*
X0004500Y0007000D01*
X0005000D02*
X0004500Y0007500D01*
X0006250Y0018700D02*
Y0018200D01*
X0006750Y0018700D02*
X0006250D01*
X0006750Y0018200D02*
Y0018700D01*
X0006250Y0018200D02*
X0006750D01*
Y0018700D02*
X0006250Y0018200D01*
X0006750D02*
X0006250Y0018700D01*
X0016250Y0016250D02*
Y0015750D01*
X0016750Y0016250D02*
X0016250D01*
X0016750Y0015750D02*
Y0016250D01*
X0016250Y0015750D02*
X0016750D01*
Y0016250D02*
X0016250Y0015750D01*
X0016750D02*
X0016250Y0016250D01*
X0014500Y0007200D02*
Y0006700D01*
X0015000Y0007200D02*
X0014500D01*
X0015000Y0006700D02*
Y0007200D01*
X0014500Y0006700D02*
X0015000D01*
Y0007200D02*
X0014500Y0006700D01*
X0015000D02*
X0014500Y0007200D01*
X0018150Y0010100D02*
Y0009600D01*
X0018650Y0010100D02*
X0018150D01*
X0018650Y0009600D02*
Y0010100D01*
X0018150Y0009600D02*
X0018650D01*
Y0010100D02*
X0018150Y0009600D01*
X0018650D02*
X0018150Y0010100D01*
X0017700Y0009950D02*
Y0009450D01*
X0018200Y0009950D02*
X0017700D01*
X0018200Y0009450D02*
Y0009950D01*
X0017700Y0009450D02*
X0018200D01*
Y0009950D02*
X0017700Y0009450D01*
X0018200D02*
X0017700Y0009950D01*
X0012250Y0007200D02*
Y0006700D01*
X0012750Y0007200D02*
X0012250D01*
X0012750Y0006700D02*
Y0007200D01*
X0012250Y0006700D02*
X0012750D01*
Y0007200D02*
X0012250Y0006700D01*
X0012750D02*
X0012250Y0007200D01*
X0015950Y0019000D02*
Y0018500D01*
X0016450Y0019000D02*
X0015950D01*
X0016450Y0018500D02*
Y0019000D01*
X0015950Y0018500D02*
X0016450D01*
Y0019000D02*
X0015950Y0018500D01*
X0016450D02*
X0015950Y0019000D01*
X0018500Y0010450D02*
Y0009950D01*
X0019000Y0010450D02*
X0018500D01*
X0019000Y0009950D02*
Y0010450D01*
X0018500Y0009950D02*
X0019000D01*
Y0010450D02*
X0018500Y0009950D01*
X0019000D02*
X0018500Y0010450D01*
X0013000Y0007150D02*
Y0006650D01*
X0013500Y0007150D02*
X0013000D01*
X0013500Y0006650D02*
Y0007150D01*
X0013000Y0006650D02*
X0013500D01*
Y0007150D02*
X0013000Y0006650D01*
X0013500D02*
X0013000Y0007150D01*
X0010850Y0006400D02*
Y0005900D01*
X0011350Y0006400D02*
X0010850D01*
X0011350Y0005900D02*
Y0006400D01*
X0010850Y0005900D02*
X0011350D01*
Y0006400D02*
X0010850Y0005900D01*
X0011350D02*
X0010850Y0006400D01*
X0007500Y0006800D02*
Y0006300D01*
X0008000Y0006800D02*
X0007500D01*
X0008000Y0006300D02*
Y0006800D01*
X0007500Y0006300D02*
X0008000D01*
Y0006800D02*
X0007500Y0006300D01*
X0008000D02*
X0007500Y0006800D01*
X0008950Y0006750D02*
Y0006250D01*
X0009450Y0006750D02*
X0008950D01*
X0009450Y0006250D02*
Y0006750D01*
X0008950Y0006250D02*
X0009450D01*
Y0006750D02*
X0008950Y0006250D01*
X0009450D02*
X0008950Y0006750D01*
X0011150D02*
Y0006250D01*
X0011650Y0006750D02*
X0011150D01*
X0011650Y0006250D02*
Y0006750D01*
X0011150Y0006250D02*
X0011650D01*
Y0006750D02*
X0011150Y0006250D01*
X0011650D02*
X0011150Y0006750D01*
X0013250Y0015250D02*
Y0014750D01*
X0013750Y0015250D02*
X0013250D01*
X0013750Y0014750D02*
Y0015250D01*
X0013250Y0014750D02*
X0013750D01*
Y0015250D02*
X0013250Y0014750D01*
X0013750D02*
X0013250Y0015250D01*
X0016500Y0001500D02*
Y0001000D01*
X0017000Y0001500D02*
X0016500D01*
X0017000Y0001000D02*
Y0001500D01*
X0016500Y0001000D02*
X0017000D01*
Y0001500D02*
X0016500Y0001000D01*
X0017000D02*
X0016500Y0001500D01*
X0011250Y0014750D02*
Y0014250D01*
X0011750Y0014750D02*
X0011250D01*
X0011750Y0014250D02*
Y0014750D01*
X0011250Y0014250D02*
X0011750D01*
Y0014750D02*
X0011250Y0014250D01*
X0011750D02*
X0011250Y0014750D01*
X0012010Y0013930D02*
Y0013430D01*
X0012510Y0013930D02*
X0012010D01*
X0012510Y0013430D02*
Y0013930D01*
X0012010Y0013430D02*
X0012510D01*
Y0013930D02*
X0012010Y0013430D01*
X0012510D02*
X0012010Y0013930D01*
X0016610Y0016240D02*
Y0015740D01*
X0017110Y0016240D02*
X0016610D01*
X0017110Y0015740D02*
Y0016240D01*
X0016610Y0015740D02*
X0017110D01*
Y0016240D02*
X0016610Y0015740D01*
X0017110D02*
X0016610Y0016240D01*
X0006750Y0014850D02*
Y0014350D01*
X0007250Y0014850D02*
X0006750D01*
X0007250Y0014350D02*
Y0014850D01*
X0006750Y0014350D02*
X0007250D01*
Y0014850D02*
X0006750Y0014350D01*
X0007250D02*
X0006750Y0014850D01*
X0001825Y-0016600D02*
X0001575Y-0016850D01*
X0002075D02*
X0001825Y-0016600D01*
X0001575Y-0016850D02*
X0002075D01*
X0001575Y-0015150D02*
Y-0015350D01*
X0001725Y-0015000D02*
X0001575Y-0015150D01*
X0001925Y-0015000D02*
X0001725D01*
X0002075Y-0015150D02*
X0001925Y-0015000D01*
X0002075Y-0015350D02*
Y-0015150D01*
X0001925Y-0015500D02*
X0002075Y-0015350D01*
X0001725Y-0015500D02*
X0001925D01*
X0001575Y-0015350D02*
X0001725Y-0015500D01*
X0001575Y-0013500D02*
Y-0013750D01*
X0001825Y-0013500D02*
X0001575D01*
X0001825Y-0014000D02*
Y-0013500D01*
X0002075Y-0014000D02*
X0001825D01*
X0002075Y-0013750D02*
Y-0014000D01*
X0001575Y-0013750D02*
X0002075D01*
X0001575Y-0012000D02*
Y-0012500D01*
X0002075Y-0012000D02*
X0001575D01*
X0002075Y-0012500D02*
Y-0012000D01*
X0001575Y-0012500D02*
X0002075D01*
Y-0012250D02*
X0001575D01*
X0001825Y-0012000D02*
Y-0012500D01*
Y-0010500D02*
X0001575Y-0010750D01*
X0002075D02*
X0001825Y-0010500D01*
Y-0011000D02*
X0002075Y-0010750D01*
X0001575D02*
X0001825Y-0011000D01*
X0002075Y-0009250D02*
X0001575D01*
X0001825Y-0009000D02*
Y-0009500D01*
X0002075Y-0007500D02*
X0001575Y-0008000D01*
X0002075D02*
X0001575Y-0007500D01*
Y-0006000D02*
Y-0006500D01*
X0002075Y-0006000D02*
X0001575D01*
X0002075Y-0006500D02*
Y-0006000D01*
X0001575Y-0006500D02*
X0002075D01*
Y-0006000D02*
X0001575Y-0006500D01*
X0002075D02*
X0001575Y-0006000D01*
X0037300Y-0019550D02*
X-0000050D01*
X0037250Y-0019500D02*
X0000000D01*
X0037250Y-0017500D02*
X0000000D01*
X0037250Y-0016000D02*
X0000000D01*
X0037250Y-0014500D02*
X0000000D01*
X0037250Y-0013000D02*
X0000000D01*
X0037250Y-0011500D02*
X0000000D01*
X0037250Y-0010000D02*
X0000000D01*
X0037250Y-0008500D02*
X0000000D01*
X0037250Y-0007000D02*
X0000000D01*
X0037250Y-0005500D02*
X0000000D01*
X0037250Y-0005450D02*
X0000000D01*
X0037250Y-0003500D02*
X0000000D01*
X0037250Y-0003450D02*
X0000000D01*
X0037250Y-0001500D02*
X0000000D01*
X0037300Y-0001450D02*
X-0000050D01*
X0037300Y-0019500D02*
Y-0001500D01*
X0037250Y-0019500D02*
Y-0001500D01*
X0025708Y-0019500D02*
Y-0003500D01*
X0020158Y-0019500D02*
Y-0003500D01*
X0012092Y-0017500D02*
Y-0003500D01*
X0003700Y-0017500D02*
Y-0003500D01*
X0003650Y-0017500D02*
Y-0003500D01*
X-0000050Y-0019500D02*
Y-0001500D01*
X0000000Y-0019500D02*
Y-0001500D01*
X0016856Y0007894D02*
X0016356Y0007394D01*
X0016856D02*
X0016356Y0007894D01*
X0016856Y0007500D02*
X0016356Y0007000D01*
X0016856D02*
X0016356Y0007500D01*
X0016856Y0007106D02*
X0016356Y0006606D01*
X0016856D02*
X0016356Y0007106D01*
X0017250Y0007894D02*
X0016750Y0007394D01*
X0017250D02*
X0016750Y0007894D01*
Y0007350D02*
Y0007150D01*
X0016900Y0007500D02*
X0016750Y0007350D01*
X0017100Y0007500D02*
X0016900D01*
X0017250Y0007350D02*
X0017100Y0007500D01*
X0017250Y0007150D02*
Y0007350D01*
X0017100Y0007000D02*
X0017250Y0007150D01*
X0016900Y0007000D02*
X0017100D01*
X0016750Y0007150D02*
X0016900Y0007000D01*
X0017250Y0007106D02*
X0016750Y0006606D01*
X0017250D02*
X0016750Y0007106D01*
X0017644Y0007894D02*
X0017144Y0007394D01*
X0017644D02*
X0017144Y0007894D01*
X0017644Y0007500D02*
X0017144Y0007000D01*
X0017644D02*
X0017144Y0007500D01*
X0017644Y0007106D02*
X0017144Y0006606D01*
X0017644D02*
X0017144Y0007106D01*
X0006250Y0011250D02*
Y0010750D01*
X0006750Y0011250D02*
X0006250D01*
X0006750Y0010750D02*
Y0011250D01*
X0006250Y0010750D02*
X0006750D01*
Y0011000D02*
X0006250D01*
X0006500Y0011250D02*
Y0010750D01*
X0006250Y0012250D02*
Y0011750D01*
X0006750Y0012250D02*
X0006250D01*
X0006750Y0011750D02*
Y0012250D01*
X0006250Y0011750D02*
X0006750D01*
Y0012000D02*
X0006250D01*
X0006500Y0012250D02*
Y0011750D01*
X0006250Y0013250D02*
Y0012750D01*
X0006750Y0013250D02*
X0006250D01*
X0006750Y0012750D02*
Y0013250D01*
X0006250Y0012750D02*
X0006750D01*
Y0013000D02*
X0006250D01*
X0006500Y0013250D02*
Y0012750D01*
X0008500Y0001500D02*
X0008000D01*
X0008250Y0001750D02*
Y0001250D01*
X0009287Y0001500D02*
X0008787D01*
X0009037Y0001750D02*
Y0001250D01*
X0005250Y0001500D02*
X0004750D01*
X0005000Y0001750D02*
Y0001250D01*
X0006037Y0001500D02*
X0005537D01*
X0005787Y0001750D02*
Y0001250D01*
X0009750Y0017500D02*
Y0017000D01*
X0010250Y0017500D02*
X0009750D01*
X0010250Y0017000D02*
Y0017500D01*
X0009750Y0017000D02*
X0010250D01*
Y0017250D02*
X0009750D01*
X0010000Y0017500D02*
Y0017000D01*
X0009750Y0016500D02*
Y0016000D01*
X0010250Y0016500D02*
X0009750D01*
X0010250Y0016000D02*
Y0016500D01*
X0009750Y0016000D02*
X0010250D01*
Y0016250D02*
X0009750D01*
X0010000Y0016500D02*
Y0016000D01*
X0009750Y0015500D02*
Y0015000D01*
X0010250Y0015500D02*
X0009750D01*
X0010250Y0015000D02*
Y0015500D01*
X0009750Y0015000D02*
X0010250D01*
Y0015250D02*
X0009750D01*
X0010000Y0015500D02*
Y0015000D01*
X0010750Y0015500D02*
Y0015000D01*
X0011250Y0015500D02*
X0010750D01*
X0011250Y0015000D02*
Y0015500D01*
X0010750Y0015000D02*
X0011250D01*
Y0015250D02*
X0010750D01*
X0011000Y0015500D02*
Y0015000D01*
X0010750Y0016500D02*
Y0016000D01*
X0011250Y0016500D02*
X0010750D01*
X0011250Y0016000D02*
Y0016500D01*
X0010750Y0016000D02*
X0011250D01*
Y0016250D02*
X0010750D01*
X0011000Y0016500D02*
Y0016000D01*
X0010750Y0017500D02*
Y0017000D01*
X0011250Y0017500D02*
X0010750D01*
X0011250Y0017000D02*
Y0017500D01*
X0010750Y0017000D02*
X0011250D01*
Y0017250D02*
X0010750D01*
X0011000Y0017500D02*
Y0017000D01*
X0022250Y0005000D02*
X0022000Y0004750D01*
X0022500D02*
X0022250Y0005000D01*
Y0004500D02*
X0022500Y0004750D01*
X0022000D02*
X0022250Y0004500D01*
X0021463Y0005000D02*
X0021213Y0004750D01*
X0021713D02*
X0021463Y0005000D01*
Y0004500D02*
X0021713Y0004750D01*
X0021213D02*
X0021463Y0004500D01*
X0020675Y0005000D02*
X0020425Y0004750D01*
X0020925D02*
X0020675Y0005000D01*
Y0004500D02*
X0020925Y0004750D01*
X0020425D02*
X0020675Y0004500D01*
X0019888Y0005000D02*
X0019638Y0004750D01*
X0020138D02*
X0019888Y0005000D01*
Y0004500D02*
X0020138Y0004750D01*
X0019638D02*
X0019888Y0004500D01*
X0022250Y0007250D02*
X0022000Y0007000D01*
X0022500D02*
X0022250Y0007250D01*
Y0006750D02*
X0022500Y0007000D01*
X0022000D02*
X0022250Y0006750D01*
X0021463Y0007250D02*
X0021213Y0007000D01*
X0021713D02*
X0021463Y0007250D01*
Y0006750D02*
X0021713Y0007000D01*
X0021213D02*
X0021463Y0006750D01*
X0020675Y0007250D02*
X0020425Y0007000D01*
X0020925D02*
X0020675Y0007250D01*
Y0006750D02*
X0020925Y0007000D01*
X0020425D02*
X0020675Y0006750D01*
X0019888Y0007250D02*
X0019638Y0007000D01*
X0020138D02*
X0019888Y0007250D01*
Y0006750D02*
X0020138Y0007000D01*
X0019638D02*
X0019888Y0006750D01*
X0022250Y0009500D02*
X0022000Y0009250D01*
X0022500D02*
X0022250Y0009500D01*
Y0009000D02*
X0022500Y0009250D01*
X0022000D02*
X0022250Y0009000D01*
X0021463Y0009500D02*
X0021213Y0009250D01*
X0021713D02*
X0021463Y0009500D01*
Y0009000D02*
X0021713Y0009250D01*
X0021213D02*
X0021463Y0009000D01*
X0020675Y0009500D02*
X0020425Y0009250D01*
X0020925D02*
X0020675Y0009500D01*
Y0009000D02*
X0020925Y0009250D01*
X0020425D02*
X0020675Y0009000D01*
X0019888Y0009500D02*
X0019638Y0009250D01*
X0020138D02*
X0019888Y0009500D01*
Y0009000D02*
X0020138Y0009250D01*
X0019638D02*
X0019888Y0009000D01*
X0022250Y0011750D02*
X0022000Y0011500D01*
X0022500D02*
X0022250Y0011750D01*
Y0011250D02*
X0022500Y0011500D01*
X0022000D02*
X0022250Y0011250D01*
X0021463Y0011750D02*
X0021213Y0011500D01*
X0021713D02*
X0021463Y0011750D01*
Y0011250D02*
X0021713Y0011500D01*
X0021213D02*
X0021463Y0011250D01*
X0020675Y0011750D02*
X0020425Y0011500D01*
X0020925D02*
X0020675Y0011750D01*
Y0011250D02*
X0020925Y0011500D01*
X0020425D02*
X0020675Y0011250D01*
X0019888Y0011750D02*
X0019638Y0011500D01*
X0020138D02*
X0019888Y0011750D01*
Y0011250D02*
X0020138Y0011500D01*
X0019638D02*
X0019888Y0011250D01*
X0001508Y0005258D02*
Y0005008D01*
X0001758Y0005258D02*
X0001508D01*
X0001758Y0004758D02*
Y0005258D01*
X0002008Y0004758D02*
X0001758D01*
X0002008Y0005008D02*
Y0004758D01*
X0001508Y0005008D02*
X0002008D01*
X0002492Y0005258D02*
Y0005008D01*
X0002742Y0005258D02*
X0002492D01*
X0002742Y0004758D02*
Y0005258D01*
X0002992Y0004758D02*
X0002742D01*
X0002992Y0005008D02*
Y0004758D01*
X0002492Y0005008D02*
X0002992D01*
X0003346Y0005978D02*
Y0005778D01*
X0003496Y0006128D02*
X0003346Y0005978D01*
X0003696Y0006128D02*
X0003496D01*
X0003846Y0005978D02*
X0003696Y0006128D01*
X0003846Y0005778D02*
Y0005978D01*
X0003696Y0005628D02*
X0003846Y0005778D01*
X0003496Y0005628D02*
X0003696D01*
X0003346Y0005778D02*
X0003496Y0005628D01*
X0002492Y0006242D02*
Y0005992D01*
X0002742Y0006242D02*
X0002492D01*
X0002742Y0005742D02*
Y0006242D01*
X0002992Y0005742D02*
X0002742D01*
X0002992Y0005992D02*
Y0005742D01*
X0002492Y0005992D02*
X0002992D01*
X0001508Y0006242D02*
Y0005992D01*
X0001758Y0006242D02*
X0001508D01*
X0001758Y0005742D02*
Y0006242D01*
X0002008Y0005742D02*
X0001758D01*
X0002008Y0005992D02*
Y0005742D01*
X0001508Y0005992D02*
X0002008D01*
X0000653Y0005978D02*
Y0005778D01*
X0000803Y0006128D02*
X0000653Y0005978D01*
X0001003Y0006128D02*
X0000803D01*
X0001153Y0005978D02*
X0001003Y0006128D01*
X0001153Y0005778D02*
Y0005978D01*
X0001003Y0005628D02*
X0001153Y0005778D01*
X0000803Y0005628D02*
X0001003D01*
X0000653Y0005778D02*
X0000803Y0005628D01*
X0001508Y0009758D02*
Y0009508D01*
X0001758Y0009758D02*
X0001508D01*
X0001758Y0009258D02*
Y0009758D01*
X0002008Y0009258D02*
X0001758D01*
X0002008Y0009508D02*
Y0009258D01*
X0001508Y0009508D02*
X0002008D01*
X0002492Y0009758D02*
Y0009508D01*
X0002742Y0009758D02*
X0002492D01*
X0002742Y0009258D02*
Y0009758D01*
X0002992Y0009258D02*
X0002742D01*
X0002992Y0009508D02*
Y0009258D01*
X0002492Y0009508D02*
X0002992D01*
X0003346Y0010478D02*
Y0010278D01*
X0003496Y0010628D02*
X0003346Y0010478D01*
X0003696Y0010628D02*
X0003496D01*
X0003846Y0010478D02*
X0003696Y0010628D01*
X0003846Y0010278D02*
Y0010478D01*
X0003696Y0010128D02*
X0003846Y0010278D01*
X0003496Y0010128D02*
X0003696D01*
X0003346Y0010278D02*
X0003496Y0010128D01*
X0002492Y0010742D02*
Y0010492D01*
X0002742Y0010742D02*
X0002492D01*
X0002742Y0010242D02*
Y0010742D01*
X0002992Y0010242D02*
X0002742D01*
X0002992Y0010492D02*
Y0010242D01*
X0002492Y0010492D02*
X0002992D01*
X0001508Y0010742D02*
Y0010492D01*
X0001758Y0010742D02*
X0001508D01*
X0001758Y0010242D02*
Y0010742D01*
X0002008Y0010242D02*
X0001758D01*
X0002008Y0010492D02*
Y0010242D01*
X0001508Y0010492D02*
X0002008D01*
X0000653Y0010478D02*
Y0010278D01*
X0000803Y0010628D02*
X0000653Y0010478D01*
X0001003Y0010628D02*
X0000803D01*
X0001153Y0010478D02*
X0001003Y0010628D01*
X0001153Y0010278D02*
Y0010478D01*
X0001003Y0010128D02*
X0001153Y0010278D01*
X0000803Y0010128D02*
X0001003D01*
X0000653Y0010278D02*
X0000803Y0010128D01*
X0001968Y0002118D02*
X0001718Y0001868D01*
X0002218D02*
X0001968Y0002118D01*
X0001718Y0001868D02*
X0002218D01*
X0021653Y0002118D02*
X0021403Y0001868D01*
X0021903D02*
X0021653Y0002118D01*
X0021403Y0001868D02*
X0021903D01*
X0021653Y0017866D02*
X0021403Y0017616D01*
X0021903D02*
X0021653Y0017866D01*
X0021403Y0017616D02*
X0021903D01*
X0001968Y0017866D02*
X0001718Y0017616D01*
X0002218D02*
X0001968Y0017866D01*
X0001718Y0017616D02*
X0002218D01*
G54D41*
G01X0000000Y0000000D02*
X0023620D01*
Y0019683D01*
X0000000D01*
Y0000000D01*
M02*
