*
G04 Mass Parameters ***
*
G04 Image ***
*
%IND:\UTENTI\00.LAVORI IN CORSO\METALTRONICA\23-326-0\23-326-0.SMT*%
%ICAS*%
%MOIN*%
%IPPOS*%
%ASAXBY*%
G74*%FSLAN2X34Y34*%
*
G04 Aperture Definitions ***
*
%AMTHERMAL48*
1,1,0.1211,0,0,*
1,0,0.0972,0,0,*
21,0,0.1212,0.0100,0,0,45.0*
21,0,0.1212,0.0100,0,0,135.0*%
%AMTHERMAL52*
1,1,0.1093,0,0,*
1,0,0.0854,0,0,*
21,0,0.1094,0.0100,0,0,45.0*
21,0,0.1094,0.0100,0,0,135.0*%
%AMTHERMAL56*
1,1,0.1172,0,0,*
1,0,0.0933,0,0,*
21,0,0.1173,0.0100,0,0,315.0*
21,0,0.1173,0.0100,0,0,45.0*%
%AMTHERMAL60*
1,1,0.1172,0,0,*
1,0,0.0933,0,0,*
21,0,0.1173,0.0100,0,0,135.0*
21,0,0.1173,0.0100,0,0,225.0*%
%ADD10C,0.1850*%
%ADD11C,0.0394*%
%ADD12R,0.0380X0.0320*%
%ADD13R,0.0886X0.0905*%
%ADD14R,0.0501X0.0404*%
%ADD15R,0.0710X0.0400*%
%ADD16O,0.0787X0.1181*%
%ADD17C,0.0669*%
%ADD18R,0.0669X0.0669*%
%ADD19C,0.0590*%
%ADD20R,0.0590X0.0590*%
%ADD21C,0.0787*%
%ADD22R,0.0787X0.0787*%
%ADD23R,0.0413X0.0236*%
%ADD24C,0.0187*%
%ADD25O,0.0650X0.0256*%
%ADD26C,0.0800*%
%ADD27R,0.1580X0.0680*%
%ADD28R,0.0550X0.0680*%
%ADD29C,0.0118*%
%ADD30R,0.0984X0.0984*%
%ADD31O,0.0394X0.0110*%
%ADD32O,0.0110X0.0394*%
%ADD33O,0.0700X0.0110*%
%ADD34R,0.0700X0.0110*%
%ADD35O,0.0110X0.0700*%
%ADD36R,0.0110X0.0700*%
%ADD37R,0.0236X0.0512*%
%ADD38C,0.0050*%
%ADD39C,0.0100*%
%ADD40C,0.0080*%
%ADD41C,0.0250*%
%ADD42C,0.0276*%
%ADD43C,0.0500*%
%ADD44C,0.0197*%
%ADD45C,0.0276*%
%ADD46C,0.2047*%
%ADD47O,0.0984X0.1378*%
%ADD48THERMAL48*%
%ADD49R,0.0866X0.0866*%
%ADD50O,0.0984X0.1378*%
%ADD51C,0.0866*%
%ADD52THERMAL52*%
%ADD53C,0.0708*%
%ADD54R,0.0708X0.0708*%
%ADD55C,0.1027*%
%ADD56THERMAL56*%
%ADD57R,0.0984X0.0984*%
%ADD58C,0.0748*%
%ADD59C,0.1100*%
%ADD60THERMAL60*%
%ADD61R,0.0984X0.0984*%
%ADD62C,0.0050*%
%ADD63C,0.0394*%
%ADD64C,0.0050*%
%ADD65C,0.0748*%
%ADD66O,0.0423X0.0139*%
%ADD67O,0.0139X0.0423*%
*
G04 Plot Data ***
*
G54D38*
G01X0007273Y0008570D02*
X0007027D01*
X0007255Y0008525D02*
X0007027D01*
X0007240Y0008480D02*
X0007027D01*
X0007228Y0008435D02*
X0007027D01*
X0007218Y0008390D02*
X0007027D01*
X0007212Y0008345D02*
X0007027D01*
X0007208Y0008300D02*
X0007027D01*
X0007207Y0008255D02*
X0007027D01*
X0007209Y0008210D02*
X0007027D01*
X0007213Y0008165D02*
X0007027D01*
X0007220Y0008120D02*
X0007027D01*
X0007229Y0008075D02*
X0007027D01*
X0007242Y0008030D02*
X0007027D01*
X0007257Y0007985D02*
X0007027D01*
X0007275Y0007940D02*
X0007027D01*
X0007296Y0007895D02*
X0007027D01*
X0007321Y0007850D02*
X0007027D01*
X0007349Y0007805D02*
X0007027D01*
X0007382Y0007760D02*
X0007027D01*
X0007420Y0007715D02*
X0007027D01*
X0007464Y0007670D02*
X0007027D01*
X0007516Y0007625D02*
X0007027D01*
X0007579Y0007580D02*
X0007027D01*
X0007647Y0007535D02*
X0007027D01*
X0007647Y0007490D02*
X0007027D01*
X0007647Y0007445D02*
X0007027D01*
X0007647Y0007400D02*
X0007027D01*
X0007647Y0007355D02*
X0007027D01*
X0007607Y0007562D02*
Y0007270D01*
X0007562Y0007591D02*
Y0007270D01*
X0007517Y0007624D02*
Y0007270D01*
X0007472Y0007663D02*
Y0007270D01*
X0007427Y0007708D02*
Y0007270D01*
X0007382Y0007760D02*
Y0007270D01*
X0007337Y0007823D02*
Y0007270D01*
X0007292Y0007903D02*
Y0007270D01*
X0007247Y0008013D02*
Y0007270D01*
X0007202Y0009230D02*
Y0007270D01*
X0007157Y0009230D02*
Y0007270D01*
X0007112Y0009230D02*
Y0007270D01*
X0007067Y0009220D02*
Y0007280D01*
X0007247Y0009230D02*
Y0008502D01*
X0007647Y0009200D02*
X0007044D01*
X0007647Y0009155D02*
X0007027D01*
X0007647Y0009110D02*
X0007027D01*
X0007647Y0009065D02*
X0007027D01*
X0007647Y0009020D02*
X0007027D01*
X0007647Y0008975D02*
X0007027D01*
X0007599Y0008930D02*
X0007027D01*
X0007529Y0008885D02*
X0007027D01*
X0007472Y0008840D02*
X0007027D01*
X0007425Y0008795D02*
X0007027D01*
X0007385Y0008750D02*
X0007027D01*
X0007350Y0008705D02*
X0007027D01*
X0007320Y0008660D02*
X0007027D01*
X0007295Y0008615D02*
X0007027D01*
X0007607Y0009230D02*
Y0008934D01*
X0007562Y0009230D02*
Y0008907D01*
X0007517Y0009230D02*
Y0008876D01*
X0007472Y0009230D02*
Y0008839D01*
X0007427Y0009230D02*
Y0008797D01*
X0007382Y0009230D02*
Y0008746D01*
X0007337Y0009230D02*
Y0008685D01*
X0007292Y0009230D02*
Y0008609D01*
X0007647Y0007310D02*
X0007037D01*
X0007647Y0008960D02*
X0007637Y0008950D01*
X0007647Y0009230D02*
Y0008960D01*
Y0009230D02*
X0007107D01*
X0007105D01*
X0007027Y0009150D02*
Y0007350D01*
Y0007348D01*
X0007647Y0007270D02*
X0007107D01*
X0007647Y0007540D02*
Y0007270D01*
X0007207Y0008255D02*
Y0008250D01*
X0008978Y0008573D02*
X0008726D01*
X0008978Y0008528D02*
X0008745D01*
X0008978Y0008483D02*
X0008760D01*
X0008978Y0008438D02*
X0008773D01*
X0008978Y0008393D02*
X0008783D01*
X0008978Y0008348D02*
X0008791D01*
X0008978Y0008303D02*
X0008796D01*
X0008978Y0008258D02*
X0008798D01*
X0008978Y0008213D02*
X0008798D01*
X0008978Y0008168D02*
X0008794D01*
X0008978Y0008123D02*
X0008788D01*
X0008978Y0008078D02*
X0008780D01*
X0008978Y0008033D02*
X0008768D01*
X0008978Y0007988D02*
X0008754D01*
X0008978Y0007943D02*
X0008736D01*
X0008978Y0007898D02*
X0008715D01*
X0008978Y0007853D02*
X0008691D01*
X0008978Y0007808D02*
X0008662D01*
X0008978Y0007763D02*
X0008628D01*
X0008978Y0007718D02*
X0008590D01*
X0008978Y0007673D02*
X0008544D01*
X0008978Y0007628D02*
X0008489D01*
X0008978Y0007583D02*
X0008423D01*
X0008978Y0007538D02*
X0008358D01*
X0008978Y0007493D02*
X0008358D01*
X0008978Y0007448D02*
X0008358D01*
X0008978Y0007403D02*
X0008358D01*
X0008978Y0007358D02*
X0008358D01*
X0008938Y0009223D02*
Y0007283D01*
X0008893Y0009233D02*
Y0007273D01*
X0008848Y0009233D02*
Y0007273D01*
X0008803Y0009233D02*
Y0007273D01*
X0008758Y0008001D02*
Y0007273D01*
X0008713Y0007894D02*
Y0007273D01*
X0008668Y0007817D02*
Y0007273D01*
X0008623Y0007756D02*
Y0007273D01*
X0008578Y0007706D02*
Y0007273D01*
X0008533Y0007663D02*
Y0007273D01*
X0008488Y0007627D02*
Y0007273D01*
X0008443Y0007596D02*
Y0007273D01*
X0008398Y0007569D02*
Y0007273D01*
Y0009233D02*
Y0008940D01*
X0008961Y0009203D02*
X0008358D01*
X0008978Y0009158D02*
X0008358D01*
X0008978Y0009113D02*
X0008358D01*
X0008978Y0009068D02*
X0008358D01*
X0008978Y0009023D02*
X0008358D01*
X0008978Y0008978D02*
X0008358D01*
X0008978Y0008933D02*
X0008411D01*
X0008978Y0008888D02*
X0008476D01*
X0008978Y0008843D02*
X0008530D01*
X0008978Y0008798D02*
X0008576D01*
X0008978Y0008753D02*
X0008615D01*
X0008978Y0008708D02*
X0008649D01*
X0008978Y0008663D02*
X0008678D01*
X0008978Y0008618D02*
X0008704D01*
X0008758Y0009233D02*
Y0008489D01*
X0008713Y0009233D02*
Y0008600D01*
X0008668Y0009233D02*
Y0008679D01*
X0008623Y0009233D02*
Y0008743D01*
X0008578Y0009233D02*
Y0008795D01*
X0008533Y0009233D02*
Y0008840D01*
X0008488Y0009233D02*
Y0008878D01*
X0008443Y0009233D02*
Y0008912D01*
X0008968Y0007313D02*
X0008358D01*
X0008798Y0008253D02*
Y0008248D01*
X0008358Y0009233D02*
Y0008963D01*
X0008898Y0009233D02*
X0008358D01*
X0008900D02*
X0008898D01*
X0008978Y0009153D02*
Y0007353D01*
Y0007351D01*
X0008898Y0007273D02*
X0008358D01*
Y0007543D02*
Y0007273D01*
X0008368Y0007553D02*
X0008358Y0007543D01*
G01X0007105Y0009230D02*
G03X0007027Y0009152I0000000J0000078D01*
G03X0007027Y0009150I0000078J0000000D01*
Y0007348D02*
G03X0007105Y0007270I0000078J0000000D01*
G03X0007107Y0007270I0000000J0000078D01*
G01X0007207Y0008250D02*
G03X0007647Y0007540I0000820J0000017D01*
G01X0007637Y0008950D02*
G03X0007207Y0008255I0000346J0000695D01*
G01X0008368Y0007553D02*
G03X0008799Y0008248I0000345J0000695D01*
G01X0008798Y0008253D02*
G03X0008358Y0008963I0000820J0000017D01*
G01X0008978Y0009155D02*
G03X0008900Y0009233I0000078J0000000D01*
G01X0008978Y0009153D02*
G03X0008978Y0009155I0000078J0000002D01*
G01X0008900Y0007273D02*
G03X0008978Y0007351I0000000J0000078D01*
G01X0008898Y0007273D02*
G03X0008900Y0007273I0000002J0000078D01*
G54D12*
X0008750Y0006530D03*
Y0005970D03*
X0007250Y0006530D03*
Y0005970D03*
X0010750Y0004030D03*
Y0003470D03*
X0013000Y0018220D03*
Y0018780D03*
Y0015720D03*
Y0016280D03*
Y0015030D03*
Y0014470D03*
X0016750Y0004030D03*
Y0003470D03*
X0013750Y0004030D03*
Y0003470D03*
X0016000Y0004030D03*
Y0003470D03*
X0013000Y0004030D03*
Y0003470D03*
X0015250Y0004030D03*
Y0003470D03*
X0012250Y0004030D03*
Y0003470D03*
X0014500Y0004030D03*
Y0003470D03*
X0011500Y0004030D03*
Y0003470D03*
X0012500Y0008030D03*
Y0007470D03*
X0013250Y0008030D03*
Y0007470D03*
X0014000Y0008030D03*
Y0007470D03*
X0014750Y0008030D03*
Y0007470D03*
X0008000Y0014780D03*
Y0014220D03*
X0006500Y0017470D03*
Y0018030D03*
X0008000Y0017470D03*
Y0018030D03*
X0007250D03*
Y0017470D03*
X0003500Y0013470D03*
Y0014030D03*
X0017500Y0011030D03*
Y0010470D03*
X0016250Y0018280D03*
Y0017720D03*
X0013000Y0016970D03*
Y0017530D03*
X0014250Y0018780D03*
Y0018220D03*
X0016750Y0010470D03*
Y0011030D03*
X0014000Y0014470D03*
Y0015030D03*
X0020750Y0013470D03*
Y0014030D03*
X0019250Y0017720D03*
Y0018280D03*
X0018500Y0017720D03*
Y0018280D03*
X0017000D03*
Y0017720D03*
X0016750Y0009530D03*
Y0008970D03*
X0015000Y0011030D03*
Y0010470D03*
X0008000Y0012220D03*
Y0012780D03*
X0004750Y0007720D03*
Y0008280D03*
X0000750Y0013470D03*
Y0014030D03*
X0001750Y0013470D03*
Y0014030D03*
X0003750Y0016030D03*
Y0015470D03*
X0002750Y0013470D03*
Y0014030D03*
X0008000Y0015470D03*
Y0016030D03*
G54D13*
X0013750Y0010035D03*
Y0011964D03*
X0009250Y0012464D03*
Y0010535D03*
X0010000Y0008464D03*
Y0006535D03*
X0006000Y0008464D03*
Y0006535D03*
G54D14*
X0010750Y0002650D03*
Y0001850D03*
X0016750Y0002650D03*
Y0001850D03*
X0013750Y0002650D03*
Y0001850D03*
X0016000Y0002650D03*
Y0001850D03*
X0013000Y0002650D03*
Y0001850D03*
X0015250Y0002650D03*
Y0001850D03*
X0012250Y0002650D03*
Y0001850D03*
X0014500Y0002650D03*
Y0001850D03*
X0011500Y0002650D03*
Y0001850D03*
X0017750Y0017600D03*
Y0018400D03*
G54D15*
X0015250Y0018910D03*
Y0017590D03*
G54D16*
X0003596Y0005878D03*
X0000903D03*
X0003596Y0010378D03*
X0000903D03*
G54D17*
X0001758Y0005008D03*
X0002742D03*
X0001758Y0005992D03*
Y0009508D03*
X0002742D03*
X0001758Y0010492D03*
G54D18*
X0002742Y0005992D03*
Y0010492D03*
G54D19*
X0008250Y0001500D03*
X0009037D03*
X0005000D03*
X0005787D03*
X0021463Y0004750D03*
X0020675D03*
X0019888D03*
X0021463Y0007000D03*
X0020675D03*
X0019888D03*
X0021463Y0009250D03*
X0020675D03*
X0019888D03*
X0021463Y0011500D03*
X0020675D03*
X0019888D03*
X0003500Y0003500D03*
X0019500Y0001000D03*
X0004500Y0018250D03*
G54D20*
X0022250Y0004750D03*
Y0007000D03*
Y0009250D03*
Y0011500D03*
G54D21*
X0010000Y0016250D03*
Y0015250D03*
X0011000D03*
Y0016250D03*
Y0017250D03*
G54D22*
X0006500Y0011000D03*
X0010000Y0017250D03*
G54D23*
X0002600Y0015197D03*
X0001400D03*
Y0014803D03*
X0002600D03*
G54D25*
X0007000Y0015000D03*
Y0015500D03*
Y0016000D03*
Y0016500D03*
X0004600D03*
Y0016000D03*
Y0015500D03*
Y0015000D03*
G54D26*
X0006500Y0012000D03*
Y0013000D03*
G54D27*
X0011500Y0009700D03*
G54D28*
X0012400Y0012300D03*
X0011500D03*
X0010600D03*
G54D30*
X0017000Y0007250D03*
G54D33*
X0019485Y0013030D03*
Y0013227D03*
Y0013424D03*
Y0013818D03*
Y0014015D03*
Y0014212D03*
Y0014409D03*
Y0014606D03*
Y0014803D03*
Y0015000D03*
Y0015197D03*
Y0015394D03*
Y0015788D03*
Y0015985D03*
X0014970D03*
Y0015591D03*
Y0015394D03*
Y0015197D03*
Y0015000D03*
Y0014803D03*
Y0014606D03*
Y0014409D03*
Y0014212D03*
Y0014015D03*
Y0013621D03*
Y0013424D03*
Y0013227D03*
Y0013030D03*
G54D34*
X0019485Y0013621D03*
Y0015591D03*
X0014970Y0015788D03*
Y0013818D03*
G54D35*
X0015947Y0012250D03*
X0016144D03*
X0016341D03*
X0016538D03*
X0016735D03*
X0016932D03*
X0017129D03*
X0017326D03*
X0017720D03*
X0017917D03*
X0018114D03*
X0018311D03*
X0018508D03*
X0018705D03*
Y0016765D03*
X0018508D03*
X0018311D03*
X0018114D03*
X0017917D03*
X0017720D03*
X0017523D03*
X0017129D03*
X0016932D03*
X0016735D03*
X0016538D03*
X0016341D03*
X0016144D03*
X0015947D03*
X0015750D03*
G54D36*
Y0012250D03*
X0017523D03*
X0017326Y0016765D03*
G54D37*
X0009250Y0005102D03*
X0008250D03*
Y0002898D03*
X0009250D03*
X0006000Y0005102D03*
X0005000D03*
Y0002898D03*
X0006000D03*
G54D66*
X0017787Y0006758D03*
Y0006955D03*
Y0007151D03*
Y0007348D03*
Y0007545D03*
Y0007742D03*
X0016213D03*
Y0007545D03*
Y0007348D03*
Y0007151D03*
Y0006955D03*
Y0006758D03*
G54D67*
X0016508Y0006463D03*
X0016705D03*
X0016901D03*
X0017098D03*
X0017295D03*
X0017492D03*
Y0008037D03*
X0017295D03*
X0017098D03*
X0016901D03*
X0016705D03*
X0016508D03*
M02*
