*
G04 Mass Parameters ***
*
G04 Image ***
*
%IND:\UTENTI\00.LAVORI IN CORSO\METALTRONICA\23-326-0\23-326-0.SMB*%
%ICAS*%
%MOIN*%
%IPPOS*%
%ASAXBY*%
G74*%FSLAN2X34Y34*%
*
G04 Aperture Definitions ***
*
%AMTHERMAL48*
1,1,0.1211,0,0,*
1,0,0.0972,0,0,*
21,0,0.1212,0.0100,0,0,45.0*
21,0,0.1212,0.0100,0,0,135.0*%
%AMTHERMAL52*
1,1,0.1093,0,0,*
1,0,0.0854,0,0,*
21,0,0.1094,0.0100,0,0,45.0*
21,0,0.1094,0.0100,0,0,135.0*%
%AMTHERMAL56*
1,1,0.1172,0,0,*
1,0,0.0933,0,0,*
21,0,0.1173,0.0100,0,0,315.0*
21,0,0.1173,0.0100,0,0,45.0*%
%AMTHERMAL60*
1,1,0.1172,0,0,*
1,0,0.0933,0,0,*
21,0,0.1173,0.0100,0,0,135.0*
21,0,0.1173,0.0100,0,0,225.0*%
%ADD10C,0.1850*%
%ADD11C,0.0394*%
%ADD12R,0.0380X0.0320*%
%ADD13R,0.0886X0.0905*%
%ADD14R,0.0501X0.0404*%
%ADD15R,0.0710X0.0400*%
%ADD16O,0.0787X0.1181*%
%ADD17C,0.0669*%
%ADD18R,0.0669X0.0669*%
%ADD19C,0.0590*%
%ADD20R,0.0590X0.0590*%
%ADD21C,0.0787*%
%ADD22R,0.0787X0.0787*%
%ADD23R,0.0413X0.0236*%
%ADD24C,0.0187*%
%ADD25O,0.0650X0.0256*%
%ADD26C,0.0800*%
%ADD27R,0.1580X0.0680*%
%ADD28R,0.0550X0.0680*%
%ADD29C,0.0118*%
%ADD30R,0.0984X0.0984*%
%ADD31O,0.0394X0.0110*%
%ADD32O,0.0110X0.0394*%
%ADD33O,0.0700X0.0110*%
%ADD34R,0.0700X0.0110*%
%ADD35O,0.0110X0.0700*%
%ADD36R,0.0110X0.0700*%
%ADD37R,0.0236X0.0512*%
%ADD38C,0.0050*%
%ADD39C,0.0100*%
%ADD40C,0.0080*%
%ADD41C,0.0250*%
%ADD42C,0.0276*%
%ADD43C,0.0500*%
%ADD44C,0.0197*%
%ADD45C,0.0276*%
%ADD46C,0.2047*%
%ADD47O,0.0984X0.1378*%
%ADD48THERMAL48*%
%ADD49R,0.0866X0.0866*%
%ADD50O,0.0984X0.1378*%
%ADD51C,0.0866*%
%ADD52THERMAL52*%
%ADD53C,0.0708*%
%ADD54R,0.0708X0.0708*%
%ADD55C,0.1027*%
%ADD56THERMAL56*%
%ADD57R,0.0984X0.0984*%
%ADD58C,0.0748*%
%ADD59C,0.1100*%
%ADD60THERMAL60*%
%ADD61R,0.0984X0.0984*%
%ADD62C,0.0050*%
%ADD63C,0.0394*%
%ADD64C,0.0050*%
%ADD65C,0.0748*%
%ADD66O,0.0423X0.0139*%
%ADD67O,0.0139X0.0423*%
*
G04 Plot Data ***
*
G54D16*
X0003596Y0005878D03*
X0000903D03*
X0003596Y0010378D03*
X0000903D03*
G54D17*
X0001758Y0005008D03*
X0002742D03*
X0001758Y0005992D03*
Y0009508D03*
X0002742D03*
X0001758Y0010492D03*
G54D18*
X0002742Y0005992D03*
Y0010492D03*
G54D19*
X0008250Y0001500D03*
X0009037D03*
X0005000D03*
X0005787D03*
X0021463Y0004750D03*
X0020675D03*
X0019888D03*
X0021463Y0007000D03*
X0020675D03*
X0019888D03*
X0021463Y0009250D03*
X0020675D03*
X0019888D03*
X0021463Y0011500D03*
X0020675D03*
X0019888D03*
G54D20*
X0022250Y0004750D03*
Y0007000D03*
Y0009250D03*
Y0011500D03*
G54D21*
X0010000Y0016250D03*
Y0015250D03*
X0011000D03*
Y0016250D03*
Y0017250D03*
G54D22*
X0006500Y0011000D03*
X0010000Y0017250D03*
G54D26*
X0006500Y0012000D03*
Y0013000D03*
G54D30*
X0017000Y0007250D03*
M02*
