*
G04 Mass Parameters ***
*
G04 Image ***
*
%IND:\UTENTI\00.LAVORI IN CORSO\METALTRONICA\23-326-0\23-326-0.BOT*%
%ICAS*%
%MOIN*%
%IPPOS*%
%ASAXBY*%
G74*%FSLAN2X34Y34*%
*
G04 Aperture Definitions ***
*
%ADD10C,0.1850*%
%ADD11C,0.0394*%
%ADD12R,0.0380X0.0320*%
%ADD13R,0.0886X0.0905*%
%ADD14R,0.0501X0.0404*%
%ADD15R,0.0710X0.0400*%
%ADD16O,0.0787X0.1181*%
%ADD17C,0.0669*%
%ADD18R,0.0669X0.0669*%
%ADD19C,0.0590*%
%ADD20R,0.0590X0.0590*%
%ADD21C,0.0787*%
%ADD22R,0.0787X0.0787*%
%ADD23R,0.0413X0.0236*%
%ADD24C,0.0187*%
%ADD25O,0.0650X0.0256*%
%ADD26C,0.0800*%
%ADD27R,0.1580X0.0680*%
%ADD28R,0.0550X0.0680*%
%ADD29C,0.0118*%
%ADD30R,0.0984X0.0984*%
%ADD31O,0.0394X0.0110*%
%ADD32O,0.0110X0.0394*%
%ADD33O,0.0700X0.0110*%
%ADD34R,0.0700X0.0110*%
%ADD35O,0.0110X0.0700*%
%ADD36R,0.0110X0.0700*%
%ADD37R,0.0236X0.0512*%
%ADD38C,0.0050*%
%ADD39C,0.0100*%
%ADD40C,0.0080*%
%ADD41C,0.0250*%
%ADD42C,0.0276*%
%ADD43C,0.0500*%
%ADD44C,0.0197*%
%ADD45C,0.0276*%
*
G04 Plot Data ***
*
G54D39*
G01X0016248Y0015910D02*
X0011579D01*
X0016830Y0017840D02*
Y0016320D01*
X0010629Y0014380D02*
X0007152D01*
X0017080Y0018444D02*
Y0016142D01*
X0016802Y0018880D02*
X0016434D01*
X0012929Y0007270D02*
X0003370D01*
X0013347Y0015820D02*
X0011669D01*
X0019950Y0016450D02*
X0016830D01*
X0019750Y0018340D02*
X0016400D01*
X0002559Y0008800D02*
X0000250D01*
X0022503Y0015190D02*
X0012302D01*
X0022503Y0015280D02*
X0012211D01*
X0011860Y0018630D02*
Y0015630D01*
X0012040Y0019500D02*
Y0019170D01*
X0012130Y0019500D02*
Y0019170D01*
X0012220Y0019500D02*
Y0019170D01*
X0022503Y0015100D02*
X0012360D01*
X0011470Y0016019D02*
X0012314Y0015178D01*
X0017080Y0019500D02*
Y0018955D01*
X0016810Y0019500D02*
Y0018888D01*
X0006570Y0019150D02*
X0005678D01*
X0016047Y0018970D02*
X0015770D01*
X0015500Y0019170D02*
X0006650D01*
X0006599Y0017710D02*
X0003950D01*
X0006190Y0019500D02*
Y0018780D01*
X0011140Y0019500D02*
Y0019170D01*
X0019770Y0016630D02*
X0016830D01*
X0007090Y0019500D02*
Y0019170D01*
X0009520Y0019500D02*
Y0019170D01*
X0018030Y0007900D02*
X0003120D01*
X0010960Y0019500D02*
Y0019170D01*
X0016802Y0018520D02*
X0016337D01*
X0018030Y0007540D02*
X0003120D01*
X0006030Y0018550D02*
Y0018350D01*
X0012580Y0008194D02*
Y0007205D01*
X0009593Y0014920D02*
X0007170D01*
X0009534Y0015010D02*
X0007170D01*
X0009498Y0015100D02*
X0007170D01*
X0015759Y0018250D02*
X0006678D01*
X0009790Y0019500D02*
Y0019170D01*
X0015640Y0005720D02*
Y0000250D01*
X0006530Y0019120D02*
X0006082Y0018672D01*
X0006820Y0014402D02*
Y0013422D01*
X0009476Y0017620D02*
X0007155D01*
X0009610Y0019500D02*
Y0019170D01*
X0007170Y0017550D02*
Y0014807D01*
X0006080Y0018230D02*
X0006830Y0017479D01*
X0006010Y0011798D02*
Y0011524D01*
X0006100Y0011652D02*
Y0011524D01*
X0005976Y0010510D02*
X0004120D01*
X0006190Y0010476D02*
Y0003950D01*
X0006100Y0012652D02*
Y0012348D01*
X0006010Y0012798D02*
Y0012202D01*
X0005976Y0011524D02*
Y0010476D01*
X0007024D02*
X0005976D01*
X0007024Y0011524D02*
Y0010476D01*
X0011230Y0005916D02*
Y0000250D01*
X0010510Y0006030D02*
Y0003950D01*
X0011320Y0001102D02*
Y0000250D01*
X0010420Y0006030D02*
Y0003950D01*
X0019600Y0000880D02*
X0010550D01*
X0004660Y0018688D02*
Y0003950D01*
X0006910Y0010476D02*
Y0003950D01*
X0006830Y0016990D02*
X0003950D01*
X0011320Y0016835D02*
Y0016664D01*
X0009790Y0006030D02*
Y0003950D01*
X0010790Y0015730D02*
X0010209D01*
X0010534Y0015010D02*
X0010480D01*
X0016630Y0001011D02*
Y0000250D01*
X0010716Y0016810D02*
X0010524D01*
X0011278Y0015730D02*
X0011209D01*
X0009476Y0017774D02*
Y0016726D01*
X0010524Y0017774D02*
X0009476D01*
X0001601Y0004570D02*
X0000250D01*
X0022675Y0005175D02*
X0021825D01*
X0022675Y0004325D02*
X0021825D01*
X0022675Y0005175D02*
Y0004325D01*
X0021040Y0009032D02*
Y0007218D01*
X0009160Y0006030D02*
Y0003950D01*
X0002572Y0007540D02*
X0000250D01*
X0002572Y0007630D02*
X0000250D01*
X0022675Y0007425D02*
X0021825D01*
X0022675Y0006575D02*
X0021825D01*
X0022675Y0007425D02*
Y0006575D01*
X0021040Y0011282D02*
Y0009468D01*
X0015100Y0009752D02*
Y0007240D01*
X0013494Y0009430D02*
X0003200D01*
X0013543Y0009520D02*
X0003206D01*
X0022675Y0009675D02*
X0021825D01*
X0022675Y0008825D02*
X0021825D01*
X0022675Y0009675D02*
Y0008825D01*
X0020410Y0015990D02*
Y0011832D01*
X0005976Y0011320D02*
X0000250D01*
X0005976Y0011500D02*
X0000250D01*
X0006164Y0011590D02*
X0000250D01*
X0022675Y0011925D02*
X0021825D01*
X0022675Y0011075D02*
X0021825D01*
X0022675Y0011925D02*
Y0011075D01*
X0011860Y0015150D02*
Y0000250D01*
X0000380Y0006075D02*
Y0005681D01*
X0000697Y0009700D02*
X0000250D01*
X0013030Y0006747D02*
Y0001566D01*
X0002277Y0006457D02*
Y0005527D01*
X0003310Y0005243D02*
Y0005178D01*
X0003096Y0005527D02*
X0002277D01*
X0000471Y0006370D02*
X0000250D01*
X0007869Y0006190D02*
X0004320D01*
X0012040Y0013527D02*
Y0001466D01*
X0012400Y0001078D02*
Y0000250D01*
X0003400Y0005196D02*
Y0005178D01*
X0004270Y0005180D02*
X0003980Y0004890D01*
X0001690Y0010032D02*
Y0009967D01*
X0000380Y0010575D02*
Y0010181D01*
X0001330Y0009878D02*
Y0009689D01*
X0000380Y0010150D02*
X0000250D01*
X0003207Y0010957D02*
X0002277D01*
X0002080Y0009880D02*
X0002035D01*
X0003168D02*
X0003020D01*
X0002249Y0010240D02*
X0002148D01*
X0001870Y0015800D02*
Y0010943D01*
X0013543Y0001420D02*
X0013239D01*
X0004120Y0010575D02*
Y0010181D01*
X0014252Y0001150D02*
X0013998D01*
X0012363Y0007180D02*
X0003460D01*
X0002320Y0009039D02*
Y0006457D01*
X0013120Y0006666D02*
Y0001539D01*
X0001299Y0004930D02*
X0000250D01*
X0006910Y0019500D02*
Y0019170D01*
X0021580Y0004341D02*
Y0003900D01*
X0021850Y0004325D02*
Y0003900D01*
X0006030Y0018340D02*
X0003950D01*
X0019750Y0019420D02*
X0005678D01*
Y0018688D02*
X0003950D01*
X0005678Y0019500D02*
Y0018688D01*
X0018430Y0019500D02*
Y0010116D01*
X0022503Y0015650D02*
Y0012601D01*
X0010550Y0003950D02*
X0000250D01*
X0010550D02*
Y0000250D01*
X0019600D02*
X0010550D01*
X0019600Y0002650D02*
Y0000250D01*
X0020850Y0003900D02*
X0019600Y0002650D01*
X0023300Y0003900D02*
X0020850D01*
X0022503Y0015650D02*
X0020750D01*
X0019750Y0016650D02*
X0020750Y0015650D01*
X0019750Y0019500D02*
Y0016650D01*
X0003490Y0004838D02*
Y0003950D01*
X0019750Y0019500D02*
X0005678D01*
X0003950Y0016900D02*
X0002850Y0015800D01*
X0000250D01*
Y0003950D01*
X0023300Y0012601D02*
Y0003900D01*
X0023290Y0012601D02*
Y0003900D01*
X0023200Y0012601D02*
Y0003900D01*
X0023110Y0012601D02*
Y0003900D01*
X0023020Y0012601D02*
Y0003900D01*
X0022930Y0012601D02*
Y0003900D01*
X0022840Y0012601D02*
Y0003900D01*
X0020590Y0004333D02*
Y0003640D01*
X0022210Y0004325D02*
Y0003900D01*
X0022120Y0004325D02*
Y0003900D01*
X0022030Y0004325D02*
Y0003900D01*
X0021940Y0004325D02*
Y0003900D01*
X0017350Y0019500D02*
Y0006420D01*
X0022750Y0012601D02*
Y0003900D01*
X0021400Y0004329D02*
Y0003900D01*
X0021310Y0004353D02*
Y0003900D01*
X0021220Y0004401D02*
Y0003900D01*
X0021130Y0004485D02*
Y0003900D01*
X0021040Y0004532D02*
Y0003900D01*
X0020950Y0004426D02*
Y0003900D01*
X0020860Y0004367D02*
Y0003900D01*
X0020770Y0004336D02*
Y0003820D01*
X0019503Y0004570D02*
X0002898D01*
X0002086Y0010820D02*
X0001758Y0010492D01*
X0019960Y0004331D02*
Y0003010D01*
X0019510Y0017236D02*
Y0011695D01*
Y0004555D02*
Y0000250D01*
X0019420Y0017093D02*
Y0000250D01*
X0019330Y0017044D02*
Y0000250D01*
X0019240Y0017032D02*
Y0000250D01*
X0023300Y0009790D02*
X0018920D01*
X0016686Y0001510D02*
X0016063D01*
X0016360Y0019500D02*
Y0018964D01*
X0023300Y0007540D02*
X0018770D01*
X0018790Y0009599D02*
Y0000250D01*
X0018700Y0006664D02*
Y0000250D01*
X0018610Y0006573D02*
Y0000250D01*
X0018520Y0006483D02*
Y0000250D01*
X0018430Y0006392D02*
Y0000250D01*
X0018340Y0006302D02*
Y0000250D01*
X0018250Y0006212D02*
Y0000250D01*
X0018160Y0006121D02*
Y0000250D01*
X0018070Y0006031D02*
Y0000250D01*
X0013480Y0008313D02*
Y0007420D01*
X0017980Y0005940D02*
Y0000250D01*
X0017890Y0005850D02*
Y0000250D01*
X0018720Y0006684D02*
X0017772Y0005731D01*
X0019600Y0001060D02*
X0016938D01*
X0016990Y0001131D02*
Y0000250D01*
X0016900Y0001028D02*
Y0000250D01*
X0016810Y0000989D02*
Y0000250D01*
X0016830Y0016320D02*
X0016895Y0016255D01*
X0017260Y0005680D02*
Y0000250D01*
X0015966Y0018880D02*
X0015860D01*
X0017530Y0005680D02*
Y0000250D01*
X0017440Y0005680D02*
Y0000250D01*
X0016540Y0005680D02*
Y0001416D01*
Y0001084D02*
Y0000250D01*
X0016450Y0005680D02*
Y0000250D01*
X0016360Y0005680D02*
Y0000250D01*
X0016561Y0001060D02*
X0016188D01*
X0016180Y0005680D02*
Y0001448D01*
X0014879Y0006480D02*
X0015627Y0005732D01*
X0016090Y0005680D02*
Y0001502D01*
X0016000Y0005680D02*
Y0001518D01*
X0015910Y0005680D02*
Y0001502D01*
X0015820Y0001052D02*
Y0000250D01*
X0014982Y0001240D02*
X0014767D01*
X0016090Y0000998D02*
Y0000250D01*
X0015460Y0001084D02*
Y0000250D01*
X0012881Y0001060D02*
X0012368D01*
X0015370Y0001011D02*
Y0000250D01*
X0015550Y0005809D02*
Y0000250D01*
X0015190Y0000989D02*
Y0000250D01*
X0014179Y0006880D02*
X0014527Y0006532D01*
X0014920Y0006439D02*
Y0000250D01*
X0014244Y0001330D02*
X0014005D01*
X0014740Y0006480D02*
Y0001368D01*
X0017919Y0006910D02*
X0015430D01*
X0014560Y0006506D02*
Y0001511D01*
X0014470Y0006589D02*
Y0001516D01*
X0014380Y0006679D02*
Y0001489D01*
X0014200Y0006859D02*
Y0000250D01*
X0014110Y0006880D02*
Y0000250D01*
X0013482Y0001240D02*
X0013261D01*
X0013930Y0006880D02*
Y0001448D01*
X0013840Y0006880D02*
Y0001502D01*
X0013750Y0006880D02*
Y0001518D01*
X0018009Y0007000D02*
X0015340D01*
X0013570Y0001052D02*
Y0000250D01*
X0013480Y0006763D02*
Y0000250D01*
X0013390Y0006672D02*
Y0000250D01*
X0010150Y0006030D02*
Y0003950D01*
X0013840Y0000998D02*
Y0000250D01*
X0017739Y0006730D02*
X0015610D01*
X0017559Y0006550D02*
X0015790D01*
X0013120Y0001061D02*
Y0000250D01*
X0012760Y0001181D02*
Y0000250D01*
X0012670Y0006743D02*
Y0000250D01*
X0012027Y0014650D02*
X0011722D01*
X0011500Y0015094D02*
Y0014768D01*
X0011381Y0012760D02*
X0006972D01*
X0012490Y0006682D02*
Y0001418D01*
X0012310Y0006761D02*
Y0001561D01*
X0016900Y0019500D02*
Y0018948D01*
X0012040Y0018630D02*
Y0015451D01*
X0012400Y0006702D02*
Y0001522D01*
X0011261Y0001420D02*
X0010550D01*
X0019600Y0001600D02*
X0010550D01*
X0013120Y0018630D02*
Y0008684D01*
X0011680Y0001102D02*
Y0000250D01*
X0009782Y0016726D02*
X0009476D01*
X0010470Y0015020D02*
X0010820Y0014670D01*
X0010330Y0006030D02*
Y0003950D01*
X0010240Y0006030D02*
Y0003950D01*
X0010870Y0006013D02*
Y0000250D01*
X0010060Y0006030D02*
Y0003950D01*
X0011770Y0015240D02*
Y0000250D01*
X0011500Y0001032D02*
Y0000250D01*
X0008440Y0006030D02*
Y0003950D01*
X0008350Y0006030D02*
Y0003950D01*
X0008260Y0006030D02*
Y0003950D01*
X0011140Y0005885D02*
Y0000250D01*
X0011050Y0005887D02*
Y0000250D01*
X0010780Y0006030D02*
Y0000250D01*
X0010690Y0006030D02*
Y0000250D01*
X0010600Y0006030D02*
Y0000250D01*
X0008080Y0006031D02*
Y0003950D01*
X0007990Y0006070D02*
Y0003950D01*
X0007810Y0006249D02*
Y0003950D01*
X0007720Y0006284D02*
Y0003950D01*
X0007540Y0018630D02*
Y0006716D01*
Y0006384D02*
Y0003950D01*
X0006830Y0014830D02*
X0000250D01*
X0007270Y0018630D02*
Y0003950D01*
X0006077Y0011680D02*
X0000250D01*
X0007090Y0014348D02*
Y0003950D01*
X0006820Y0010476D02*
Y0003950D01*
X0006730Y0010476D02*
Y0003950D01*
X0006640Y0010476D02*
Y0003950D01*
X0006550Y0010476D02*
Y0003950D01*
X0006460Y0010476D02*
Y0003950D01*
X0007000Y0010476D02*
Y0003950D01*
X0006010Y0010476D02*
Y0003950D01*
X0005920Y0019500D02*
Y0003950D01*
X0005830Y0019500D02*
Y0003950D01*
X0005740Y0019500D02*
Y0003950D01*
X0005650Y0018688D02*
Y0003950D01*
X0005560Y0018688D02*
Y0003950D01*
X0005380Y0018688D02*
Y0003950D01*
X0005290Y0018688D02*
Y0003950D01*
X0005200Y0018688D02*
Y0003950D01*
X0005110Y0018688D02*
Y0003950D01*
X0005020Y0018688D02*
Y0003950D01*
X0004930Y0018688D02*
Y0003950D01*
X0004840Y0018688D02*
Y0003950D01*
X0004750Y0018688D02*
Y0003950D01*
X0004570Y0018688D02*
Y0003950D01*
X0004480Y0018688D02*
Y0003950D01*
X0023300Y0005650D02*
X0004320D01*
X0014380Y0001011D02*
Y0000250D01*
X0002860Y0015810D02*
Y0010957D01*
X0004390Y0018688D02*
Y0003950D01*
X0004120Y0005029D02*
Y0003950D01*
X0003760Y0004838D02*
Y0003950D01*
X0003670Y0004838D02*
Y0003950D01*
X0003580Y0004838D02*
Y0003950D01*
X0002289Y0009070D02*
X0001914D01*
X0003390Y0005200D02*
X0003165D01*
X0001449Y0009160D02*
X0000250D01*
X0001690Y0004548D02*
Y0003950D01*
X0002500Y0004611D02*
Y0003950D01*
X0001600Y0004570D02*
Y0003950D01*
X0001510Y0004614D02*
Y0003950D01*
X0001420Y0004688D02*
Y0003950D01*
X0001150Y0005219D02*
Y0003950D01*
X0001060Y0005181D02*
Y0003950D01*
X0019600Y0002140D02*
X0010550D01*
X0000880Y0005158D02*
Y0003950D01*
X0000790Y0005170D02*
Y0003950D01*
X0000700Y0005199D02*
Y0003950D01*
X0000430Y0005457D02*
Y0003950D01*
X0020320Y0004517D02*
Y0003370D01*
X0003950Y0018688D02*
Y0016900D01*
X0006419Y0017890D02*
X0003950D01*
X0006041Y0018610D02*
X0003950D01*
X0006149Y0018160D02*
X0003950D01*
X0006239Y0018070D02*
X0003950D01*
X0006329Y0017980D02*
X0003950D01*
X0006689Y0017620D02*
X0003950D01*
X0006779Y0017530D02*
X0003950D01*
X0006830Y0017440D02*
X0003950D01*
X0006830Y0017350D02*
X0003950D01*
X0006830Y0017260D02*
X0003950D01*
X0006830Y0017170D02*
X0003950D01*
X0006830Y0016900D02*
X0003950D01*
X0006830Y0016810D02*
X0003860D01*
X0006830Y0016720D02*
X0003770D01*
X0006830Y0016630D02*
X0003680D01*
X0006830Y0016540D02*
X0003590D01*
X0006830Y0016450D02*
X0003500D01*
X0006830Y0016360D02*
X0003410D01*
X0006830Y0016270D02*
X0003320D01*
X0006830Y0016180D02*
X0003230D01*
X0006830Y0016090D02*
X0003140D01*
X0006830Y0015910D02*
X0002960D01*
X0006830Y0015820D02*
X0002870D01*
X0006830Y0015730D02*
X0000250D01*
X0006830Y0015640D02*
X0000250D01*
X0006830Y0015550D02*
X0000250D01*
X0006830Y0015460D02*
X0000250D01*
X0006830Y0015370D02*
X0000250D01*
X0006830Y0015280D02*
X0000250D01*
X0006830Y0015190D02*
X0000250D01*
X0006830Y0015100D02*
X0000250D01*
X0007180Y0014402D02*
Y0003950D01*
X0001150Y0015800D02*
Y0011036D01*
X0006737Y0014650D02*
X0000250D01*
X0006735Y0014560D02*
X0000250D01*
X0011293Y0014330D02*
X0010750D01*
X0011334Y0014290D02*
X0000250D01*
X0012028Y0014200D02*
X0000250D01*
X0012029Y0014110D02*
X0000250D01*
X0012029Y0014020D02*
X0000250D01*
X0012029Y0013930D02*
X0000250D01*
X0012130Y0013446D02*
Y0001539D01*
X0012001Y0013750D02*
X0000250D01*
X0012016Y0013570D02*
X0000250D01*
X0006275Y0013480D02*
X0000250D01*
X0006141Y0013390D02*
X0000250D01*
X0006063Y0013300D02*
X0000250D01*
X0006013Y0013210D02*
X0000250D01*
X0005984Y0013120D02*
X0000250D01*
X0005971Y0013030D02*
X0000250D01*
X0005973Y0012940D02*
X0000250D01*
X0006027Y0012760D02*
X0000250D01*
X0006267Y0011524D02*
X0005976D01*
X0006177Y0012580D02*
X0000250D01*
X0006298Y0012490D02*
X0000250D01*
X0006152Y0012400D02*
X0000250D01*
X0006070Y0012310D02*
X0000250D01*
X0006018Y0012220D02*
X0000250D01*
X0005986Y0012130D02*
X0000250D01*
X0020680Y0004325D02*
Y0003730D01*
X0005971Y0012040D02*
X0000250D01*
X0005972Y0011950D02*
X0000250D01*
X0005989Y0011860D02*
X0000250D01*
X0006022Y0011770D02*
X0000250D01*
X0003207Y0010957D02*
Y0010924D01*
X0000380Y0010330D02*
X0000250D01*
X0000380Y0010240D02*
X0000250D01*
X0002420Y0009929D02*
Y0009843D01*
X0000555Y0009790D02*
X0000250D01*
X0002050Y0015800D02*
Y0010853D01*
X0003760Y0016710D02*
Y0011072D01*
X0000471Y0010870D02*
X0000250D01*
X0000421Y0010780D02*
X0000250D01*
X0000392Y0010690D02*
X0000250D01*
X0000380Y0010600D02*
X0000250D01*
X0013210Y0006635D02*
Y0001466D01*
X0002199Y0009160D02*
X0002066D01*
X0000683Y0011050D02*
X0000250D01*
X0002500Y0008859D02*
Y0006457D01*
X0001420Y0010096D02*
Y0009827D01*
X0000380Y0005830D02*
X0000250D01*
X0000380Y0005740D02*
X0000250D01*
X0002572Y0006640D02*
X0000250D01*
X0002572Y0007900D02*
X0000250D01*
X0001299Y0009430D02*
X0000250D01*
X0001324Y0009340D02*
X0000250D01*
X0002572Y0007810D02*
X0000250D01*
X0013750Y0008354D02*
Y0007420D01*
X0015936Y0001510D02*
X0015313D01*
X0011680Y0008752D02*
Y0001498D01*
X0002572Y0008620D02*
X0000250D01*
X0002379Y0008980D02*
X0000250D01*
X0023300Y0005290D02*
X0004320D01*
X0023300Y0005200D02*
X0004287D01*
X0002572Y0008710D02*
X0000250D01*
X0002572Y0007270D02*
X0000250D01*
X0002572Y0008260D02*
X0000250D01*
X0000380Y0005650D02*
X0000250D01*
X0002572Y0008080D02*
X0000250D01*
X0002572Y0007990D02*
X0000250D01*
X0001371Y0009250D02*
X0000250D01*
X0020500Y0004363D02*
Y0003550D01*
X0019690Y0004374D02*
Y0002740D01*
X0001601Y0009070D02*
X0000250D01*
X0013300Y0006637D02*
Y0000250D01*
X0013210Y0001134D02*
Y0000250D01*
X0002572Y0006457D02*
X0002277D01*
X0000421Y0006280D02*
X0000250D01*
X0000392Y0006190D02*
X0000250D01*
X0002320Y0005527D02*
Y0005202D01*
X0001780Y0005528D02*
Y0005472D01*
X0000520Y0005324D02*
Y0003950D01*
X0002277Y0006280D02*
X0002122D01*
X0000555Y0005290D02*
X0000250D01*
X0000697Y0005200D02*
X0000250D01*
X0001304Y0005110D02*
X0000250D01*
X0001335Y0005200D02*
X0001109D01*
X0002586Y0004570D02*
X0001914D01*
X0000683Y0006550D02*
X0000250D01*
X0000549Y0006460D02*
X0000250D01*
X0023300Y0005470D02*
X0004320D01*
X0023300Y0005380D02*
X0004320D01*
X0002320Y0004813D02*
Y0003950D01*
X0019559Y0004480D02*
X0000250D01*
X0002590Y0015800D02*
Y0010957D01*
X0015061Y0001060D02*
X0014688D01*
X0019662Y0004390D02*
X0000250D01*
X0023300Y0004300D02*
X0000250D01*
X0023300Y0004210D02*
X0000250D01*
X0023300Y0004120D02*
X0000250D01*
X0023300Y0004030D02*
X0000250D01*
X0023300Y0003940D02*
X0010550D01*
X0020710Y0003760D02*
X0010550D01*
X0020620Y0003670D02*
X0010550D01*
X0020530Y0003580D02*
X0010550D01*
X0020440Y0003490D02*
X0010550D01*
X0020350Y0003400D02*
X0010550D01*
X0020260Y0003310D02*
X0010550D01*
X0020170Y0003220D02*
X0010550D01*
X0020080Y0003130D02*
X0010550D01*
X0019600Y0001240D02*
X0017017D01*
X0003850Y0004838D02*
Y0003950D01*
X0019600Y0002500D02*
X0010550D01*
X0019600Y0002410D02*
X0010550D01*
X0019600Y0002320D02*
X0010550D01*
X0019600Y0002230D02*
X0010550D01*
X0019990Y0003040D02*
X0010550D01*
X0019600Y0000970D02*
X0010550D01*
X0019600Y0000790D02*
X0010550D01*
X0019600Y0000700D02*
X0010550D01*
X0019600Y0000610D02*
X0010550D01*
X0019600Y0000520D02*
X0010550D01*
X0019600Y0000430D02*
X0010550D01*
X0000340Y0015800D02*
Y0003950D01*
X0019750Y0017170D02*
X0019484D01*
X0019750Y0017080D02*
X0019402D01*
X0019060Y0019500D02*
Y0017488D01*
X0000430Y0015800D02*
Y0010799D01*
X0015399Y0018610D02*
X0006900D01*
X0018030Y0008170D02*
X0003120D01*
X0006109Y0018700D02*
X0005678D01*
X0007090Y0018630D02*
Y0017700D01*
X0019750Y0019330D02*
X0005678D01*
X0019750Y0019240D02*
X0005678D01*
X0009970Y0006030D02*
Y0003950D01*
X0010330Y0018630D02*
Y0017774D01*
X0006030Y0018520D02*
X0003950D01*
X0006062Y0018250D02*
X0003950D01*
X0006509Y0017800D02*
X0003950D01*
X0006830Y0017080D02*
X0003950D01*
X0019960Y0016440D02*
Y0011919D01*
X0007450Y0018630D02*
Y0003950D01*
X0006469Y0019060D02*
X0005678D01*
X0006379Y0018970D02*
X0005678D01*
X0006289Y0018880D02*
X0005678D01*
X0009880Y0006030D02*
Y0003950D01*
X0023300Y0011140D02*
X0022675D01*
X0005992Y0012850D02*
X0000250D01*
X0006125Y0011625D02*
X0006500Y0012000D01*
X0006875Y0012375D02*
X0006500Y0012000D01*
X0006875Y0011625D02*
X0006500Y0012000D01*
X0006125Y0012375D02*
X0006500Y0012000D01*
X0010370Y0016620D02*
X0010000Y0016250D01*
X0009630Y0015880D02*
X0010000Y0016250D01*
X0009630Y0016620D02*
X0010000Y0016250D01*
X0010370Y0015880D02*
X0010000Y0016250D01*
X0019587Y0005050D02*
X0019888Y0004750D01*
X0020188Y0004449D02*
X0019888Y0004750D01*
X0019587Y0004449D02*
X0019888Y0004750D01*
X0020188Y0005050D02*
X0019888Y0004750D01*
X0021162Y0005050D02*
X0021463Y0004750D01*
X0021763Y0004449D02*
X0021463Y0004750D01*
X0021162Y0004449D02*
X0021463Y0004750D01*
X0021763Y0005050D02*
X0021463Y0004750D01*
X0019587Y0007300D02*
X0019888Y0007000D01*
X0020188Y0006699D02*
X0019888Y0007000D01*
X0019587Y0006699D02*
X0019888Y0007000D01*
X0020188Y0007300D02*
X0019888Y0007000D01*
X0021162Y0007300D02*
X0021463Y0007000D01*
X0021763Y0006699D02*
X0021463Y0007000D01*
X0021162Y0006699D02*
X0021463Y0007000D01*
X0021763Y0007300D02*
X0021463Y0007000D01*
X0019587Y0009550D02*
X0019888Y0009250D01*
X0020188Y0008949D02*
X0019888Y0009250D01*
X0019587Y0008949D02*
X0019888Y0009250D01*
X0020188Y0009550D02*
X0019888Y0009250D01*
X0021162Y0009550D02*
X0021463Y0009250D01*
X0021763Y0008949D02*
X0021463Y0009250D01*
X0021162Y0008949D02*
X0021463Y0009250D01*
X0021763Y0009550D02*
X0021463Y0009250D01*
X0019587Y0011800D02*
X0019888Y0011500D01*
X0020188Y0011199D02*
X0019888Y0011500D01*
X0019587Y0011199D02*
X0019888Y0011500D01*
X0020188Y0011800D02*
X0019888Y0011500D01*
X0021162Y0011800D02*
X0021463Y0011500D01*
X0021763Y0011199D02*
X0021463Y0011500D01*
X0021162Y0011199D02*
X0021463Y0011500D01*
X0021763Y0011800D02*
X0021463Y0011500D01*
X0001429Y0006320D02*
X0001758Y0005992D01*
X0002086Y0005663D02*
X0001758Y0005992D01*
X0000380Y0006010D02*
X0000250D01*
X0002086Y0006320D02*
X0001758Y0005992D01*
X0001429Y0010820D02*
X0001758Y0010492D01*
X0002086Y0010163D02*
X0001758Y0010492D01*
X0000475Y0009880D02*
X0000250D01*
X0019870Y0004325D02*
Y0002920D01*
X0019600Y0000340D02*
X0010550D01*
X0021490Y0004326D02*
Y0003900D01*
X0006030Y0018430D02*
X0003950D01*
X0002410Y0005527D02*
Y0005333D01*
Y0008949D02*
Y0006457D01*
X0002140Y0009219D02*
Y0006256D01*
X0013494Y0001330D02*
X0013266D01*
X0000610Y0005247D02*
Y0003950D01*
X0002130Y0009229D02*
X0002572Y0008787D01*
X0012850Y0001078D02*
Y0000250D01*
X0012760Y0006780D02*
Y0001418D01*
X0013930Y0001052D02*
Y0000250D01*
X0002159Y0010150D02*
X0002072D01*
X0002080Y0010000D02*
Y0009842D01*
X0014560Y0000989D02*
Y0000250D01*
X0002572Y0008787D02*
Y0006457D01*
X0002080Y0009970D02*
X0001804D01*
X0002500Y0010009D02*
Y0009904D01*
X0002680Y0015800D02*
Y0010957D01*
X0002770Y0015800D02*
Y0010957D01*
X0002091Y0010060D02*
X0001929D01*
X0013686Y0001510D02*
X0013166D01*
X0013502Y0001150D02*
X0013222D01*
X0001510Y0010099D02*
Y0009901D01*
X0003829Y0004840D02*
X0003175D01*
X0002289Y0005110D02*
X0002211D01*
X0002308Y0004840D02*
X0002191D01*
X0019503Y0004930D02*
X0004020D01*
X0003130Y0005443D02*
Y0005263D01*
X0002572Y0007450D02*
X0000250D01*
X0019472Y0004840D02*
X0003886D01*
X0015100Y0001028D02*
Y0000250D01*
X0012220Y0001034D02*
Y0000250D01*
X0012580Y0006694D02*
Y0000250D01*
X0014436Y0001510D02*
X0013813D01*
X0003850Y0009723D02*
Y0006790D01*
X0019662Y0005110D02*
X0004200D01*
X0004320Y0006250D02*
Y0005300D01*
X0012266Y0006820D02*
X0003820D01*
X0012235Y0006910D02*
X0003730D01*
X0012237Y0007000D02*
X0003640D01*
X0002572Y0006730D02*
X0000250D01*
X0019559Y0005020D02*
X0004110D01*
X0002140Y0010228D02*
Y0010130D01*
X0012272Y0007090D02*
X0003550D01*
X0014232Y0001240D02*
X0014017D01*
X0002572Y0007180D02*
X0000250D01*
X0003120Y0007520D02*
X0004268Y0006372D01*
X0007498Y0006640D02*
X0004000D01*
X0003248Y0009790D02*
X0003111D01*
X0003130Y0009943D02*
Y0009763D01*
X0012940Y0006806D02*
Y0001561D01*
X0003040Y0010027D02*
Y0009864D01*
X0002590Y0010027D02*
Y0009947D01*
X0002680Y0010027D02*
Y0009968D01*
X0002770Y0010027D02*
Y0009971D01*
X0002860Y0010027D02*
Y0009957D01*
X0002950Y0010027D02*
Y0009923D01*
X0000380Y0010510D02*
X0000250D01*
X0003400Y0004838D02*
Y0003950D01*
X0009790Y0018630D02*
Y0017774D01*
X0009610Y0018630D02*
Y0017774D01*
X0006730Y0019500D02*
Y0019170D01*
X0006640Y0019500D02*
Y0019170D01*
X0006830Y0017479D02*
Y0014807D01*
X0006460Y0019500D02*
Y0019050D01*
X0007360Y0019500D02*
Y0019170D01*
X0009700Y0018630D02*
Y0017774D01*
X0018030Y0007810D02*
X0003120D01*
X0006820Y0018529D02*
Y0017970D01*
X0019860Y0016540D02*
X0016830D01*
X0012040Y0001134D02*
Y0000250D01*
X0007000Y0018630D02*
Y0017790D01*
X0018030Y0007630D02*
X0003120D01*
X0014290Y0006769D02*
Y0001416D01*
X0015910Y0018099D02*
Y0006430D01*
X0020040Y0016360D02*
X0016830D01*
X0016990Y0019500D02*
Y0018967D01*
X0011261Y0009070D02*
X0003120D01*
X0016299Y0017710D02*
X0011250D01*
X0018030Y0008080D02*
X0003120D01*
X0011950Y0019500D02*
Y0019170D01*
X0018030Y0007990D02*
X0003120D01*
X0016330Y0016270D02*
X0011523D01*
X0013300Y0015422D02*
Y0014678D01*
X0019750Y0017890D02*
X0016822D01*
X0016748Y0018790D02*
X0016464D01*
X0013840Y0008235D02*
Y0007420D01*
X0019750Y0018160D02*
X0016580D01*
X0011239Y0008890D02*
X0003120D01*
X0020400Y0016000D02*
X0017127D01*
X0019750Y0017800D02*
X0016830D01*
X0012131Y0001060D02*
X0011618D01*
X0002572Y0007720D02*
X0000250D01*
X0018030Y0007360D02*
X0014980D01*
X0014470Y0018630D02*
Y0007420D01*
X0014650Y0018630D02*
Y0008698D01*
X0019750Y0019060D02*
X0015680D01*
X0016270Y0019500D02*
Y0019008D01*
X0003310Y0009743D02*
Y0007330D01*
X0014543Y0008620D02*
X0014207D01*
X0018030Y0007270D02*
X0015070D01*
X0022503Y0012850D02*
X0011722D01*
X0016494Y0001330D02*
X0016255D01*
X0015640Y0019500D02*
Y0019100D01*
X0019750Y0018700D02*
X0017268D01*
X0016180Y0001052D02*
Y0000250D01*
X0012084Y0001510D02*
X0011666D01*
X0003490Y0009668D02*
Y0007150D01*
X0013390Y0008222D02*
Y0007420D01*
X0011320Y0008752D02*
Y0006755D01*
Y0005997D02*
Y0001498D01*
X0011590Y0006311D02*
Y0001552D01*
X0023300Y0005830D02*
X0017870D01*
X0015190Y0009811D02*
Y0007150D01*
X0023300Y0007450D02*
X0018770D01*
X0023300Y0006010D02*
X0018049D01*
X0014650Y0008202D02*
Y0007420D01*
X0018030Y0008620D02*
X0014957D01*
X0016270Y0015863D02*
Y0009217D01*
X0013300Y0008187D02*
Y0007420D01*
X0018030Y0008980D02*
X0016516D01*
X0018030Y0009070D02*
X0016489D01*
X0017710Y0005691D02*
Y0000250D01*
X0019662Y0009610D02*
X0018800D01*
X0016482Y0001240D02*
X0016267D01*
X0016131Y0008710D02*
X0014813D01*
X0023300Y0005920D02*
X0017959D01*
X0018030Y0008530D02*
X0015005D01*
X0014560Y0008261D02*
Y0007420D01*
X0016000Y0000982D02*
Y0000250D01*
X0019060Y0017111D02*
Y0000250D01*
X0023300Y0009970D02*
X0018920D01*
X0018030Y0009379D02*
Y0007020D01*
X0015043Y0001420D02*
X0014707D01*
X0014650Y0001028D02*
Y0000250D01*
X0014830Y0006480D02*
Y0000250D01*
X0014470Y0000984D02*
Y0000250D01*
X0018880Y0019500D02*
Y0010434D01*
X0017620Y0011352D02*
Y0006610D01*
X0017890Y0011298D02*
Y0009961D01*
X0017980Y0011352D02*
Y0009966D01*
X0018250Y0019500D02*
Y0010072D01*
X0013930Y0018630D02*
Y0009548D01*
X0015190Y0006169D02*
Y0001511D01*
X0015186Y0001510D02*
X0014563D01*
X0015100Y0006259D02*
Y0001472D01*
X0017976Y0009433D02*
X0018030Y0009379D01*
X0017800Y0009478D02*
Y0006790D01*
X0016090Y0017919D02*
Y0009164D01*
X0016450Y0008772D02*
Y0006420D01*
X0016090Y0008735D02*
Y0006420D01*
X0018030Y0008440D02*
X0015017D01*
X0015010Y0006349D02*
Y0001368D01*
X0018340Y0019500D02*
Y0010111D01*
X0013570Y0009152D02*
Y0007420D01*
X0016540Y0015735D02*
Y0006420D01*
X0016900Y0018452D02*
Y0016254D01*
X0014740Y0008182D02*
Y0007420D01*
X0014686Y0008710D02*
X0014063D01*
X0013752Y0008350D02*
X0013498D01*
X0017429Y0006420D02*
X0015920D01*
X0013930Y0008191D02*
Y0007420D01*
X0012028Y0001150D02*
X0011722D01*
X0017530Y0019500D02*
Y0006520D01*
X0014560Y0018630D02*
Y0008638D01*
X0014740Y0009936D02*
Y0008717D01*
X0016000Y0018009D02*
Y0009045D01*
X0016630Y0015766D02*
Y0006420D01*
X0016720Y0015762D02*
Y0006420D01*
X0013186Y0006640D02*
X0011628D01*
X0012293Y0008620D02*
X0003120D01*
X0003130Y0009252D02*
Y0007510D01*
X0014850Y0007420D02*
X0013150D01*
X0012347Y0006730D02*
X0011537D01*
X0013043D02*
X0012652D01*
X0017469Y0006460D02*
X0015880D01*
X0015280Y0000984D02*
Y0000250D01*
X0012987Y0006847D02*
X0012970Y0006830D01*
X0012252Y0008350D02*
X0003120D01*
X0014994Y0001330D02*
X0014755D01*
X0012850Y0018630D02*
Y0007190D01*
X0016180Y0008691D02*
Y0006420D01*
X0012839Y0007180D02*
X0012637D01*
X0014834Y0009790D02*
X0003944D01*
X0012850Y0006780D02*
X0012707D01*
X0013030Y0007370D02*
X0012779Y0007120D01*
X0013390Y0014256D02*
Y0008678D01*
X0019750Y0018250D02*
X0016490D01*
X0015370Y0005989D02*
Y0001489D01*
X0015744Y0001330D02*
X0015505D01*
X0018790Y0019500D02*
Y0010464D01*
X0023300Y0010060D02*
X0018978D01*
X0016543Y0001420D02*
X0016207D01*
X0013660Y0014285D02*
Y0009602D01*
X0019463Y0007000D02*
X0018770D01*
X0019472Y0007090D02*
X0018770D01*
X0019503Y0007180D02*
X0018770D01*
X0016450Y0019500D02*
Y0018845D01*
X0018920Y0009993D02*
Y0009800D01*
X0016810Y0018511D02*
Y0017920D01*
X0018870Y0009680D02*
X0018770Y0009579D01*
X0015280Y0006079D02*
Y0001516D01*
X0017620Y0005680D02*
Y0000250D01*
X0018770Y0009579D02*
Y0006804D01*
X0015793Y0001420D02*
X0015457D01*
X0014830Y0008194D02*
Y0007420D01*
X0018030Y0008710D02*
X0016368D01*
X0018030Y0007020D02*
X0017429Y0006420D01*
X0018030Y0008350D02*
X0014998D01*
X0019472Y0006910D02*
X0018770D01*
X0019559Y0007270D02*
X0018770D01*
X0019662Y0007360D02*
X0018770D01*
X0016450Y0015737D02*
Y0009128D01*
X0013660Y0000998D02*
Y0000250D01*
X0017650Y0005680D02*
X0015750D01*
X0011500Y0006252D02*
Y0001568D01*
X0004210Y0005119D02*
Y0003950D01*
X0014419Y0006640D02*
X0013313D01*
X0004120Y0018688D02*
Y0006520D01*
X0003400Y0009696D02*
Y0007240D01*
X0022503Y0013030D02*
X0011766D01*
X0016360Y0015772D02*
Y0009194D01*
X0017710Y0009581D02*
Y0006700D01*
X0017260Y0019500D02*
Y0018763D01*
X0018030Y0009160D02*
X0016416D01*
X0011410Y0006232D02*
Y0001552D01*
X0014879Y0006480D02*
X0014650D01*
X0011410Y0014248D02*
Y0013252D01*
X0014920Y0008243D02*
Y0007405D01*
X0022503Y0013120D02*
X0011739D01*
X0014830Y0009793D02*
Y0008705D01*
X0014970Y0007370D02*
X0015920Y0006420D01*
X0014020Y0018630D02*
Y0008717D01*
X0017170Y0019500D02*
Y0018907D01*
X0015529Y0005830D02*
X0004320D01*
X0015489Y0018520D02*
X0006810D01*
X0013502Y0009250D02*
X0003129D01*
X0014329Y0006730D02*
X0013457D01*
X0012940Y0018630D02*
Y0007280D01*
X0017649Y0006640D02*
X0015700D01*
X0012739Y0001240D02*
X0012511D01*
X0022503Y0012940D02*
X0011761D01*
X0014239Y0006820D02*
X0013505D01*
X0018030Y0007450D02*
X0003190D01*
X0022503Y0012760D02*
X0011618D01*
X0014110Y0018630D02*
Y0008694D01*
X0014200Y0018630D02*
Y0008628D01*
X0012232Y0008440D02*
X0003120D01*
X0012779Y0007120D02*
X0012707D01*
X0014290Y0018630D02*
Y0007420D01*
X0013030Y0018630D02*
Y0008602D01*
X0018030Y0008890D02*
X0016511D01*
X0011140Y0014330D02*
Y0006670D01*
X0014020Y0008183D02*
Y0007420D01*
X0015439Y0005920D02*
X0011237D01*
X0008530Y0018630D02*
Y0006370D01*
X0010872Y0006010D02*
X0004320D01*
X0015349D02*
X0011328D01*
X0015079Y0006280D02*
X0011552D01*
X0013750Y0014404D02*
Y0009618D01*
X0008620Y0018630D02*
Y0006370D01*
X0007482Y0006550D02*
X0004090D01*
X0012490Y0001181D02*
Y0000250D01*
X0013210Y0018630D02*
Y0008714D01*
X0010861Y0006030D02*
X0008100D01*
X0008016Y0006524D02*
X0008170Y0006370D01*
X0002572Y0007000D02*
X0000250D01*
X0008935Y0006460D02*
X0008080D01*
X0022503Y0013210D02*
X0011666D01*
X0008937Y0006550D02*
X0008018D01*
X0007776Y0006283D02*
X0007977Y0006082D01*
X0008800Y0018630D02*
Y0006370D01*
X0008890Y0018630D02*
Y0006370D01*
X0015169Y0006190D02*
X0011364D01*
X0008966Y0006370D02*
X0008170D01*
X0013660Y0006880D02*
Y0001502D01*
X0014989Y0006370D02*
X0011634D01*
X0011193Y0006670D02*
X0009407D01*
X0009880Y0014740D02*
Y0006670D01*
X0014920Y0009744D02*
Y0008657D01*
X0009970Y0014727D02*
Y0006670D01*
X0013381Y0014740D02*
X0012367D01*
X0010359Y0014650D02*
X0007263D01*
X0010690Y0014828D02*
Y0014800D01*
X0010780Y0014775D02*
Y0014710D01*
X0010269Y0014740D02*
X0010119D01*
X0010687Y0014830D02*
X0010660D01*
X0010593Y0014920D02*
X0010570D01*
X0010230Y0014779D02*
X0010627Y0014382D01*
X0012027Y0014470D02*
X0011766D01*
X0012027Y0014560D02*
X0011761D01*
X0011293Y0014670D02*
X0010820D01*
X0010539Y0014470D02*
X0007234D01*
X0010449Y0014560D02*
X0007264D01*
X0012030Y0013840D02*
X0000250D01*
X0021083Y0013480D02*
X0012438D01*
X0012028Y0014380D02*
X0011739D01*
X0021091Y0013570D02*
X0012504D01*
X0019097Y0017080D02*
X0016830D01*
X0012490Y0018630D02*
Y0013817D01*
X0012670Y0008243D02*
Y0007157D01*
X0022503Y0013840D02*
X0012474D01*
X0021254Y0013750D02*
X0012518D01*
X0011950Y0015061D02*
Y0000250D01*
Y0018630D02*
Y0015540D01*
X0012026Y0014986D02*
X0012031Y0013818D01*
X0012028Y0014290D02*
X0011666D01*
X0011320Y0014835D02*
Y0014698D01*
X0011410Y0014924D02*
Y0014752D01*
X0010701Y0015820D02*
X0010299D01*
X0016248Y0016090D02*
X0011498D01*
X0017080Y0005680D02*
Y0000250D01*
X0016302Y0016180D02*
X0011519D01*
X0022503Y0014920D02*
X0012366D01*
X0013390Y0015356D02*
Y0014744D01*
X0022503Y0014830D02*
X0012366D01*
X0012365Y0015056D02*
X0012369Y0013924D01*
X0011229Y0015779D02*
X0012026Y0014985D01*
X0016330Y0016810D02*
X0011284D01*
X0016330Y0016900D02*
X0011389D01*
X0011234Y0008980D02*
X0003120D01*
X0017350Y0005680D02*
Y0000250D01*
X0010690Y0016828D02*
Y0016672D01*
X0010780Y0016775D02*
Y0016725D01*
X0011050Y0018630D02*
Y0017771D01*
X0022503Y0015010D02*
X0012366D01*
X0016990Y0018432D02*
Y0016224D01*
X0020490Y0015910D02*
X0017115D01*
X0019750Y0017710D02*
X0016830D01*
X0020580Y0015820D02*
X0017067D01*
X0016270Y0017739D02*
Y0016137D01*
X0007024Y0011524D02*
X0006732D01*
X0006772Y0014740D02*
X0000250D01*
X0023300Y0012490D02*
X0006702D01*
X0023300Y0012400D02*
X0006848D01*
X0023300Y0012310D02*
X0006930D01*
X0023300Y0012220D02*
X0006982D01*
X0023300Y0012130D02*
X0007014D01*
X0023300Y0012040D02*
X0007028D01*
X0019662Y0011860D02*
X0007011D01*
X0017800Y0011282D02*
Y0009922D01*
X0017647Y0011770D02*
X0006977D01*
X0017566Y0011680D02*
X0006922D01*
X0006085Y0012670D02*
X0000250D01*
X0007000Y0011824D02*
Y0011524D01*
X0006910Y0011664D02*
Y0011524D01*
X0006820Y0011577D02*
Y0011524D01*
Y0012577D02*
Y0012422D01*
X0006730Y0012522D02*
Y0012477D01*
Y0017579D02*
Y0013477D01*
X0006640Y0017669D02*
Y0013511D01*
X0006550Y0017759D02*
Y0013527D01*
X0006460Y0017849D02*
Y0013528D01*
X0006190Y0011570D02*
Y0011524D01*
X0023300Y0011950D02*
X0007027D01*
X0023300Y0011050D02*
X0007024D01*
X0023300Y0010960D02*
X0007024D01*
X0023300Y0010870D02*
X0007024D01*
X0023300Y0010780D02*
X0007024D01*
X0023300Y0010690D02*
X0007024D01*
X0023300Y0010600D02*
X0007024D01*
X0017535Y0011590D02*
X0006836D01*
X0017537Y0011500D02*
X0007024D01*
X0017572Y0011410D02*
X0007024D01*
X0019559Y0011230D02*
X0007024D01*
X0019662Y0011140D02*
X0007024D01*
X0008710Y0018630D02*
Y0006370D01*
X0013030Y0001034D02*
Y0000250D01*
X0011381Y0014740D02*
X0011119D01*
X0009700Y0006030D02*
Y0003950D01*
X0009520Y0006030D02*
Y0003950D01*
X0009430Y0006030D02*
Y0003950D01*
X0009340Y0006030D02*
Y0003950D01*
X0009250Y0006030D02*
Y0003950D01*
X0009070Y0006030D02*
Y0003950D01*
X0008980Y0006030D02*
Y0003950D01*
X0023300Y0005560D02*
X0004320D01*
X0005976Y0011230D02*
X0000250D01*
X0019600Y0001870D02*
X0010550D01*
X0019600Y0004437D02*
Y0002650D01*
Y0001780D02*
X0010550D01*
X0019600Y0001690D02*
X0010550D01*
X0013570Y0006880D02*
Y0001448D01*
X0008890Y0006030D02*
Y0003950D01*
X0008800Y0006030D02*
Y0003950D01*
X0008710Y0006030D02*
Y0003950D01*
X0008620Y0006030D02*
Y0003950D01*
X0008530Y0006030D02*
Y0003950D01*
X0014380Y0018630D02*
Y0007420D01*
X0008966Y0006370D02*
X0008170D01*
Y0006030D02*
Y0003950D01*
X0006370Y0010476D02*
Y0003950D01*
X0006280Y0010476D02*
Y0003950D01*
X0019900Y0002950D02*
X0010550D01*
X0006100Y0010476D02*
Y0003950D01*
X0007900Y0006159D02*
Y0003950D01*
X0011239Y0001240D02*
X0010550D01*
X0003310Y0004838D02*
Y0003950D01*
X0005470Y0018688D02*
Y0003950D01*
X0019810Y0002860D02*
X0010550D01*
X0019720Y0002770D02*
X0010550D01*
X0011410Y0001048D02*
Y0000250D01*
X0006730Y0018313D02*
Y0018060D01*
X0007180Y0018630D02*
Y0014798D01*
X0011500Y0018630D02*
Y0017405D01*
X0011410Y0018630D02*
Y0017576D01*
X0010960Y0018630D02*
Y0017772D01*
X0010870Y0018630D02*
Y0017757D01*
X0010780Y0018630D02*
Y0017725D01*
X0016330Y0016630D02*
X0011360D01*
X0016119Y0017890D02*
X0006900D01*
X0016209Y0017800D02*
X0006990D01*
X0016330Y0017170D02*
X0011517D01*
X0016330Y0017080D02*
X0011495D01*
X0016330Y0016990D02*
X0011454D01*
X0010524Y0017774D02*
Y0017467D01*
X0011500Y0017094D02*
Y0016405D01*
X0011410Y0016924D02*
Y0016576D01*
X0010524Y0017032D02*
Y0016726D01*
X0011334Y0001510D02*
X0010550D01*
X0011500Y0015509D02*
Y0015405D01*
X0011410Y0015598D02*
Y0015576D01*
X0011320Y0015688D02*
Y0015664D01*
X0011230Y0016779D02*
Y0016720D01*
X0011320Y0018630D02*
Y0017664D01*
X0011230Y0018630D02*
Y0017720D01*
X0011140Y0018630D02*
Y0017754D01*
X0010780Y0015775D02*
Y0015725D01*
X0010690Y0015828D02*
Y0015672D01*
X0011230Y0015778D02*
Y0015720D01*
X0011368Y0015640D02*
X0011349D01*
X0011459Y0015550D02*
X0011429D01*
X0011910Y0015100D02*
X0011502D01*
X0012001Y0015010D02*
X0011465D01*
X0012026Y0014920D02*
X0011406D01*
X0012026Y0014830D02*
X0011313D01*
X0016232Y0016000D02*
X0011488D01*
X0010420Y0015937D02*
Y0015563D01*
X0010330Y0015843D02*
Y0015656D01*
X0010240Y0015784D02*
Y0015715D01*
X0009790Y0015770D02*
Y0015730D01*
X0009700Y0015821D02*
Y0015679D01*
X0009610Y0015900D02*
Y0015599D01*
X0009520Y0016040D02*
Y0015459D01*
X0010600Y0015912D02*
Y0015588D01*
X0010650Y0015640D02*
X0010349D01*
X0010571Y0015550D02*
X0010429D01*
X0010520Y0015460D02*
X0010480D01*
X0011549D02*
X0011480D01*
X0011639Y0015370D02*
X0011510D01*
X0011730Y0015280D02*
X0011523D01*
X0011820Y0015190D02*
X0011520D01*
X0010510Y0016065D02*
Y0015435D01*
X0010420Y0016726D02*
Y0016563D01*
X0010330Y0016726D02*
Y0016656D01*
X0010240Y0016726D02*
Y0016715D01*
X0009700Y0016726D02*
Y0016679D01*
X0009610Y0016726D02*
Y0016599D01*
X0009520Y0016726D02*
Y0016459D01*
X0010510Y0016726D02*
Y0016435D01*
X0010769Y0016720D02*
X0010231D01*
X0010640Y0016630D02*
X0010360D01*
X0010564Y0016540D02*
X0010436D01*
X0010516Y0016450D02*
X0010484D01*
X0016330Y0016540D02*
X0011436D01*
X0016330Y0016450D02*
X0011484D01*
X0016330Y0016360D02*
X0011512D01*
X0016720Y0000984D02*
Y0000250D01*
X0010540Y0016000D02*
X0010460D01*
X0010602Y0015910D02*
X0010398D01*
X0006830Y0015010D02*
X0000250D01*
X0010524Y0016726D02*
X0010217D01*
X0010690Y0018630D02*
Y0017672D01*
X0010600Y0018630D02*
Y0017588D01*
X0010510Y0018630D02*
Y0017774D01*
X0010420Y0018630D02*
Y0017774D01*
X0015379Y0018630D02*
X0006920D01*
X0010240D02*
Y0017774D01*
X0010150Y0018630D02*
Y0017774D01*
X0010060Y0018630D02*
Y0017774D01*
X0009970Y0018630D02*
Y0017774D01*
X0009880Y0018630D02*
Y0017774D01*
X0011278Y0008800D02*
X0003120D01*
X0018030Y0007720D02*
X0003120D01*
X0010600Y0016912D02*
Y0016588D01*
X0010750Y0017710D02*
X0010524D01*
X0010629Y0017620D02*
X0010524D01*
X0010557Y0017530D02*
X0010524D01*
X0016330Y0017620D02*
X0011370D01*
X0016330Y0017530D02*
X0011442D01*
X0016330Y0017440D02*
X0011488D01*
X0016330Y0017350D02*
X0011514D01*
X0016330Y0017260D02*
X0011523D01*
X0010545Y0016990D02*
X0010524D01*
X0010610Y0016900D02*
X0010524D01*
X0020449Y0005110D02*
X0020113D01*
X0020347Y0005020D02*
X0020216D01*
X0020290Y0004930D02*
X0020273D01*
X0020347Y0004480D02*
X0020216D01*
X0020449Y0004390D02*
X0020113D01*
X0020290Y0004570D02*
X0020273D01*
X0020230Y0006748D02*
Y0005002D01*
X0020140Y0006658D02*
Y0005092D01*
X0020050Y0006607D02*
Y0005143D01*
X0019960Y0006581D02*
Y0005169D01*
X0019870Y0006575D02*
Y0005174D01*
X0019780Y0006589D02*
Y0005161D01*
X0019690Y0006624D02*
Y0005126D01*
X0019600Y0006687D02*
Y0005063D01*
X0019510Y0006805D02*
Y0004945D01*
X0021237Y0005110D02*
X0020901D01*
X0021134Y0005020D02*
X0021003D01*
X0021078Y0004930D02*
X0021060D01*
X0021134Y0004480D02*
X0021003D01*
X0021237Y0004390D02*
X0020901D01*
X0021078Y0004570D02*
X0021060D01*
X0020950Y0006676D02*
Y0005074D01*
X0020860Y0006617D02*
Y0005133D01*
X0020770Y0006586D02*
Y0005164D01*
X0020680Y0006575D02*
Y0005175D01*
X0020590Y0006583D02*
Y0005166D01*
X0020500Y0006613D02*
Y0005137D01*
X0020410Y0006668D02*
Y0005082D01*
X0020320Y0006767D02*
Y0004983D01*
X0021825Y0005110D02*
X0021688D01*
X0021825Y0005020D02*
X0021791D01*
X0021825Y0004480D02*
X0021791D01*
X0021825Y0004390D02*
X0021688D01*
X0021760Y0006696D02*
Y0005054D01*
X0021670Y0006629D02*
Y0005121D01*
X0021825Y0005175D02*
Y0004972D01*
X0021580Y0006591D02*
Y0005158D01*
X0021490Y0006576D02*
Y0005174D01*
X0021400Y0006579D02*
Y0005170D01*
X0021310Y0006603D02*
Y0005146D01*
X0021220Y0006651D02*
Y0005099D01*
X0021130Y0006735D02*
Y0005014D01*
X0023300Y0005740D02*
X0017780D01*
X0023300Y0005020D02*
X0022675D01*
X0023300Y0004930D02*
X0022675D01*
X0023300Y0004840D02*
X0022675D01*
X0023300Y0004750D02*
X0022675D01*
X0023300Y0004660D02*
X0022675D01*
X0023300Y0004480D02*
X0022675D01*
X0023300Y0004390D02*
X0022675D01*
X0022660Y0006575D02*
Y0005175D01*
X0022570Y0006575D02*
Y0005175D01*
X0022480Y0006575D02*
Y0005175D01*
X0022390Y0006575D02*
Y0005175D01*
X0022300Y0006575D02*
Y0005175D01*
X0022210Y0006575D02*
Y0005175D01*
X0022120Y0006575D02*
Y0005175D01*
X0022030Y0006575D02*
Y0005175D01*
X0021940Y0006575D02*
Y0005175D01*
X0021850Y0006575D02*
Y0005175D01*
X0020230Y0008998D02*
Y0007252D01*
X0020140Y0008908D02*
Y0007342D01*
X0020050Y0008857D02*
Y0007393D01*
X0019960Y0008831D02*
Y0007419D01*
X0019870Y0008825D02*
Y0007424D01*
X0019780Y0008839D02*
Y0007411D01*
X0019690Y0008874D02*
Y0007376D01*
X0019600Y0008937D02*
Y0007313D01*
X0019510Y0009055D02*
Y0007195D01*
X0020449Y0007360D02*
X0020113D01*
X0020347Y0007270D02*
X0020216D01*
X0020290Y0007180D02*
X0020273D01*
X0020290Y0006820D02*
X0020273D01*
X0020347Y0006730D02*
X0020216D01*
X0020449Y0006640D02*
X0020113D01*
X0020950Y0008926D02*
Y0007324D01*
X0020860Y0008867D02*
Y0007383D01*
X0020770Y0008836D02*
Y0007414D01*
X0020680Y0008825D02*
Y0007425D01*
X0020590Y0008833D02*
Y0007416D01*
X0020500Y0008863D02*
Y0007387D01*
X0020410Y0008918D02*
Y0007332D01*
X0020320Y0009017D02*
Y0007233D01*
X0021237Y0007360D02*
X0020901D01*
X0021134Y0007270D02*
X0021003D01*
X0021078Y0007180D02*
X0021060D01*
X0021078Y0006820D02*
X0021060D01*
X0021134Y0006730D02*
X0021003D01*
X0021237Y0006640D02*
X0020901D01*
X0021760Y0008946D02*
Y0007304D01*
X0021670Y0008879D02*
Y0007371D01*
X0021580Y0008841D02*
Y0007408D01*
X0021490Y0008826D02*
Y0007424D01*
X0021400Y0008829D02*
Y0007420D01*
X0021310Y0008853D02*
Y0007396D01*
X0021220Y0008901D02*
Y0007349D01*
X0021130Y0008985D02*
Y0007264D01*
X0008980Y0018630D02*
Y0006652D01*
X0021825Y0007360D02*
X0021688D01*
X0021825Y0007270D02*
X0021791D01*
X0021825Y0006730D02*
X0021791D01*
X0021825Y0006640D02*
X0021688D01*
X0021825Y0007425D02*
Y0007222D01*
X0022660Y0008825D02*
Y0007425D01*
X0022570Y0008825D02*
Y0007425D01*
X0022480Y0008825D02*
Y0007425D01*
X0022390Y0008825D02*
Y0007425D01*
X0022300Y0008825D02*
Y0007425D01*
X0022210Y0008825D02*
Y0007425D01*
X0022120Y0008825D02*
Y0007425D01*
X0022030Y0008825D02*
Y0007425D01*
X0021940Y0008825D02*
Y0007425D01*
X0021850Y0008825D02*
Y0007425D01*
X0023300Y0005110D02*
X0022675D01*
X0023300Y0007360D02*
X0022675D01*
X0023300Y0007270D02*
X0022675D01*
X0023300Y0007180D02*
X0022675D01*
X0023300Y0007090D02*
X0022675D01*
X0023300Y0007000D02*
X0022675D01*
X0023300Y0006910D02*
X0022675D01*
X0023300Y0006820D02*
X0022675D01*
X0023300Y0006730D02*
X0022675D01*
X0020230Y0011248D02*
Y0009502D01*
X0020140Y0011158D02*
Y0009592D01*
X0020050Y0011107D02*
Y0009643D01*
X0019960Y0011081D02*
Y0009669D01*
X0019870Y0011075D02*
Y0009674D01*
X0019780Y0011089D02*
Y0009661D01*
X0019690Y0011124D02*
Y0009626D01*
X0019600Y0011187D02*
Y0009563D01*
X0019510Y0011305D02*
Y0009445D01*
X0020449Y0009610D02*
X0020113D01*
X0020347Y0009520D02*
X0020216D01*
X0020290Y0009430D02*
X0020273D01*
X0020290Y0009070D02*
X0020273D01*
X0020347Y0008980D02*
X0020216D01*
X0020449Y0008890D02*
X0020113D01*
X0020950Y0011176D02*
Y0009574D01*
X0020860Y0011117D02*
Y0009633D01*
X0020770Y0011086D02*
Y0009664D01*
X0020680Y0011075D02*
Y0009675D01*
X0020590Y0011083D02*
Y0009666D01*
X0020500Y0011113D02*
Y0009637D01*
X0020410Y0011168D02*
Y0009582D01*
X0020320Y0011267D02*
Y0009483D01*
X0021237Y0009610D02*
X0020901D01*
X0021134Y0009520D02*
X0021003D01*
X0021078Y0009430D02*
X0021060D01*
X0021078Y0009070D02*
X0021060D01*
X0021134Y0008980D02*
X0021003D01*
X0021237Y0008890D02*
X0020901D01*
X0021760Y0011196D02*
Y0009554D01*
X0021670Y0011129D02*
Y0009621D01*
X0021580Y0011091D02*
Y0009658D01*
X0021490Y0011076D02*
Y0009674D01*
X0021400Y0011079D02*
Y0009670D01*
X0021310Y0011103D02*
Y0009646D01*
X0021220Y0011151D02*
Y0009599D01*
X0021130Y0011235D02*
Y0009514D01*
X0021825Y0009610D02*
X0021688D01*
X0021825Y0009520D02*
X0021791D01*
X0021825Y0008980D02*
X0021791D01*
X0021825Y0008890D02*
X0021688D01*
X0021825Y0009675D02*
Y0009472D01*
X0022660Y0011075D02*
Y0009675D01*
X0022570Y0011075D02*
Y0009675D01*
X0022480Y0011075D02*
Y0009675D01*
X0022390Y0011075D02*
Y0009675D01*
X0022300Y0011075D02*
Y0009675D01*
X0022210Y0011075D02*
Y0009675D01*
X0022120Y0011075D02*
Y0009675D01*
X0022030Y0011075D02*
Y0009675D01*
X0021940Y0011075D02*
Y0009675D01*
X0021850Y0011075D02*
Y0009675D01*
X0023300Y0006640D02*
X0022675D01*
X0023300Y0009610D02*
X0022675D01*
X0023300Y0009520D02*
X0022675D01*
X0023300Y0009430D02*
X0022675D01*
X0023300Y0009340D02*
X0022675D01*
X0023300Y0009250D02*
X0022675D01*
X0023300Y0009160D02*
X0022675D01*
X0023300Y0009070D02*
X0022675D01*
X0023300Y0008980D02*
X0022675D01*
X0020320Y0016080D02*
Y0011733D01*
X0021040Y0015650D02*
Y0011718D01*
X0020230Y0016170D02*
Y0011752D01*
X0020140Y0016260D02*
Y0011842D01*
X0020050Y0016350D02*
Y0011893D01*
X0021850Y0015650D02*
Y0011925D01*
X0019780Y0016620D02*
Y0011911D01*
X0019690Y0019500D02*
Y0011876D01*
X0020449Y0011860D02*
X0020113D01*
X0020347Y0011770D02*
X0020216D01*
X0020290Y0011680D02*
X0020273D01*
X0020290Y0011320D02*
X0020273D01*
X0020347Y0011230D02*
X0020216D01*
X0020449Y0011140D02*
X0020113D01*
X0021220Y0015650D02*
Y0013734D01*
X0021130Y0015650D02*
Y0013652D01*
X0020950Y0015650D02*
Y0011824D01*
X0020860Y0015650D02*
Y0011883D01*
X0020770Y0015650D02*
Y0011914D01*
X0020680Y0015720D02*
Y0011925D01*
X0020590Y0015810D02*
Y0011916D01*
X0020500Y0015900D02*
Y0011887D01*
X0021237Y0011860D02*
X0020901D01*
X0021134Y0011770D02*
X0021003D01*
X0021078Y0011680D02*
X0021060D01*
X0021078Y0011320D02*
X0021060D01*
X0021134Y0011230D02*
X0021003D01*
X0021237Y0011140D02*
X0020901D01*
X0021940Y0015650D02*
Y0011925D01*
X0019600Y0019500D02*
Y0011813D01*
X0021172Y0013300D02*
X0006937D01*
X0021580Y0013363D02*
Y0011908D01*
X0021490Y0013272D02*
Y0011924D01*
X0021400Y0013237D02*
Y0011920D01*
X0021310Y0013235D02*
Y0011896D01*
X0021220Y0013266D02*
Y0011849D01*
X0005976Y0011410D02*
X0000250D01*
X0021825Y0011860D02*
X0021688D01*
X0021825Y0011770D02*
X0021791D01*
X0021825Y0011230D02*
X0021791D01*
X0021825Y0011140D02*
X0021688D01*
X0021825Y0011925D02*
Y0011722D01*
X0022660Y0012601D02*
Y0011925D01*
X0022570Y0012601D02*
Y0011925D01*
X0020310Y0016090D02*
X0017108D01*
X0022480Y0015650D02*
Y0011925D01*
X0022390Y0015650D02*
Y0011925D01*
X0018700Y0019500D02*
Y0010463D01*
X0022210Y0015650D02*
Y0011925D01*
X0022120Y0015650D02*
Y0011925D01*
X0022030Y0015650D02*
Y0011925D01*
X0019870Y0016530D02*
Y0011924D01*
X0023300Y0011860D02*
X0022675D01*
X0023300Y0011770D02*
X0022675D01*
X0023300Y0011680D02*
X0022675D01*
X0023300Y0011590D02*
X0022675D01*
X0023300Y0011500D02*
X0022675D01*
X0023300Y0011410D02*
X0022675D01*
X0023300Y0011320D02*
X0022675D01*
X0023300Y0011230D02*
X0022675D01*
X0001240Y0009780D02*
Y0006476D01*
X0001150Y0009719D02*
Y0006536D01*
X0001060Y0009681D02*
Y0006574D01*
X0000970Y0009662D02*
Y0006594D01*
X0000880Y0009658D02*
Y0006598D01*
X0000790Y0009670D02*
Y0006586D01*
X0000700Y0009699D02*
Y0006557D01*
X0000610Y0009747D02*
Y0006508D01*
X0000520Y0009824D02*
Y0006431D01*
X0000430Y0009957D02*
Y0006299D01*
X0001487Y0006370D02*
X0001336D01*
X0001393Y0006280D02*
X0001385D01*
X0012850Y0006780D02*
Y0001522D01*
X0002572Y0006550D02*
X0001123D01*
X0001711Y0005470D02*
X0001382D01*
X0001480Y0005380D02*
X0001331D01*
X0001388Y0005290D02*
X0001251D01*
X0001443Y0005650D02*
X0001426D01*
X0001586Y0005560D02*
X0001413D01*
X0002572Y0006910D02*
X0000250D01*
X0002050Y0009146D02*
Y0006353D01*
X0001960Y0009089D02*
Y0006410D01*
X0001870Y0009057D02*
Y0006443D01*
X0001780Y0009043D02*
Y0006456D01*
X0002277Y0006370D02*
X0002028D01*
X0002277Y0006190D02*
X0002178D01*
X0002277Y0006100D02*
X0002209D01*
X0002277Y0006010D02*
X0002222D01*
X0002277Y0005920D02*
X0002217D01*
X0002277Y0005830D02*
X0002193D01*
X0002277Y0005740D02*
X0002148D01*
X0002277Y0005650D02*
X0002072D01*
X0002277Y0005560D02*
X0001929D01*
X0001690Y0009048D02*
Y0006452D01*
X0001600Y0009070D02*
Y0006429D01*
X0001510Y0009114D02*
Y0006385D01*
X0001420Y0009188D02*
Y0006311D01*
Y0005596D02*
Y0005327D01*
X0007552Y0006370D02*
X0004270D01*
X0002572Y0008440D02*
X0000250D01*
X0002572Y0008530D02*
X0000250D01*
X0002572Y0008350D02*
X0000250D01*
X0004030Y0009888D02*
Y0006610D01*
X0003940Y0009786D02*
Y0006700D01*
X0003760Y0009684D02*
Y0006880D01*
X0003670Y0009663D02*
Y0006970D01*
X0003580Y0009658D02*
Y0007060D01*
X0007779Y0006280D02*
X0004317D01*
X0000424Y0005470D02*
X0000250D01*
X0000475Y0005380D02*
X0000250D01*
X0002469Y0008890D02*
X0000250D01*
X0001330Y0009326D02*
Y0006378D01*
X0007630Y0006311D02*
Y0003950D01*
X0003220Y0009817D02*
Y0007420D01*
X0002572Y0006460D02*
X0001258D01*
X0001304Y0009610D02*
X0000250D01*
X0007498Y0006460D02*
X0004180D01*
X0003120Y0009237D02*
Y0007520D01*
X0010960Y0005922D02*
Y0000250D01*
X0007959Y0006100D02*
X0004320D01*
X0015259D02*
X0011363D01*
X0010963Y0005920D02*
X0004320D01*
X0015619Y0005740D02*
X0004320D01*
X0000394Y0005560D02*
X0000250D01*
X0004030Y0004939D02*
Y0003950D01*
X0003117Y0005470D02*
X0002788D01*
X0003168Y0005380D02*
X0003020D01*
X0003248Y0005290D02*
X0003111D01*
X0021040Y0006782D02*
Y0004968D01*
X0003453Y0005178D02*
X0003174D01*
X0003040Y0005527D02*
Y0005364D01*
X0002950Y0005527D02*
Y0005423D01*
X0002860Y0005527D02*
Y0005457D01*
X0002770Y0005527D02*
Y0005471D01*
X0002680Y0005527D02*
Y0005468D01*
X0002590Y0005527D02*
Y0005447D01*
X0020410Y0004418D02*
Y0003460D01*
X0002500Y0005527D02*
Y0005404D01*
X0002410Y0004682D02*
Y0003950D01*
X0003220Y0005317D02*
Y0005178D01*
X0019463Y0004750D02*
X0003129D01*
X0000380Y0005920D02*
X0000250D01*
X0002695Y0005470D02*
X0001804D01*
X0002464Y0005380D02*
X0002035D01*
X0002373Y0005290D02*
X0002127D01*
X0002319Y0005200D02*
X0002180D01*
X0001330Y0005378D02*
Y0005189D01*
X0002140Y0005728D02*
Y0005272D01*
X0002050Y0005631D02*
Y0005369D01*
X0001960Y0005574D02*
Y0005426D01*
X0001870Y0005541D02*
Y0005458D01*
X0002572Y0008170D02*
X0000250D01*
X0001690Y0005532D02*
Y0005467D01*
X0001600Y0005555D02*
Y0005445D01*
X0001510Y0005599D02*
Y0005401D01*
X0002572Y0006820D02*
X0000250D01*
X0002590Y0004568D02*
Y0003950D01*
X0002277Y0005020D02*
X0002222D01*
X0002284Y0004930D02*
X0002216D01*
X0001293Y0005020D02*
X0000250D01*
X0002355Y0004750D02*
X0002144D01*
X0002434Y0004660D02*
X0002066D01*
X0001487Y0010870D02*
X0001336D01*
X0001393Y0010780D02*
X0001385D01*
X0003376Y0011050D02*
X0001123D01*
X0003242Y0010960D02*
X0001258D01*
X0001711Y0009970D02*
X0001382D01*
X0001480Y0009880D02*
X0001331D01*
X0001586Y0010060D02*
X0001413D01*
X0001600Y0015800D02*
Y0010929D01*
X0001510Y0015800D02*
Y0010885D01*
X0001240Y0015800D02*
Y0010976D01*
X0003940Y0016890D02*
Y0010970D01*
X0001060Y0015800D02*
Y0011074D01*
X0000970Y0015800D02*
Y0011094D01*
X0000880Y0015800D02*
Y0011098D01*
X0000790Y0015800D02*
Y0011086D01*
X0000700Y0015800D02*
Y0011057D01*
X0000610Y0015800D02*
Y0011008D01*
X0001388Y0009790D02*
X0001251D01*
X0001335Y0009700D02*
X0001109D01*
X0002500Y0015800D02*
Y0010957D01*
X0002230Y0015800D02*
Y0010220D01*
X0002140Y0015800D02*
Y0010756D01*
X0001449Y0004660D02*
X0000250D01*
X0002277Y0010870D02*
X0002028D01*
X0002277Y0010780D02*
X0002122D01*
X0002277Y0010690D02*
X0002178D01*
X0002277Y0010600D02*
X0002209D01*
X0002277Y0010510D02*
X0002222D01*
X0002277Y0010420D02*
X0002217D01*
X0002277Y0010330D02*
X0002193D01*
X0001420Y0015800D02*
Y0010811D01*
X0001330Y0015800D02*
Y0010878D01*
X0001960Y0015800D02*
Y0010910D01*
X0002464Y0009880D02*
X0002420D01*
X0002695Y0009970D02*
X0002460D01*
X0001780Y0015800D02*
Y0010956D01*
X0001690Y0015800D02*
Y0010952D01*
X0003310Y0016260D02*
Y0011013D01*
X0003220Y0016170D02*
Y0010939D01*
X0003040Y0015990D02*
Y0010957D01*
X0002410Y0015800D02*
Y0010957D01*
X0002320Y0015800D02*
Y0010957D01*
X0002950Y0015900D02*
Y0010957D01*
X0015811Y0001060D02*
X0015438D01*
X0019750Y0019150D02*
X0015580D01*
X0005976Y0011050D02*
X0003816D01*
X0005976Y0010960D02*
X0003951D01*
X0005976Y0010870D02*
X0004029D01*
X0005976Y0010780D02*
X0004078D01*
X0005976Y0010690D02*
X0004107D01*
X0005976Y0010600D02*
X0004119D01*
X0016253Y0018487D02*
X0016778Y0017962D01*
X0018597Y0010420D02*
X0004120D01*
X0018516Y0010330D02*
X0004120D01*
X0014761Y0009880D02*
X0004024D01*
X0014881Y0010240D02*
X0004120D01*
X0004030Y0018688D02*
Y0010868D01*
X0005976Y0011140D02*
X0000250D01*
X0006010Y0019500D02*
Y0013202D01*
X0000424Y0009970D02*
X0000250D01*
X0003670Y0016620D02*
Y0011093D01*
X0003580Y0016530D02*
Y0011098D01*
X0000394Y0010060D02*
X0000250D01*
X0003400Y0016350D02*
Y0011060D01*
X0000520Y0015800D02*
Y0010931D01*
X0003490Y0016440D02*
Y0011087D01*
X0015732Y0001240D02*
X0015517D01*
X0018880Y0009690D02*
Y0000250D01*
X0019780Y0004339D02*
Y0002830D01*
X0014734Y0009970D02*
X0004075D01*
X0017710Y0011298D02*
Y0009818D01*
X0017682Y0009700D02*
X0003802D01*
X0003390D02*
X0003165D01*
X0003096Y0010027D02*
X0002518D01*
X0002277Y0010268D02*
X0002132Y0010122D01*
X0000380Y0010420D02*
X0000250D01*
X0001960Y0010074D02*
Y0009926D01*
X0001870Y0010041D02*
Y0009958D01*
X0001780Y0010028D02*
Y0009972D01*
X0001443Y0010150D02*
X0001426D01*
X0001600Y0010055D02*
Y0009945D01*
X0002050Y0010131D02*
Y0009869D01*
X0000970Y0005162D02*
Y0003950D01*
X0002518Y0010027D02*
X0002420Y0009929D01*
X0013750Y0000982D02*
Y0000250D01*
X0014020Y0006880D02*
Y0000250D01*
X0004300Y0018688D02*
Y0006330D01*
X0003117Y0009970D02*
X0002788D01*
X0013561Y0001060D02*
X0013118D01*
X0014293Y0001420D02*
X0013957D01*
X0006830Y0016000D02*
X0003050D01*
X0003130Y0004752D02*
Y0003950D01*
X0003040Y0004651D02*
Y0003950D01*
X0001780Y0004543D02*
Y0003950D01*
X0002770Y0004544D02*
Y0003950D01*
X0002680Y0004547D02*
Y0003950D01*
X0003858Y0004838D02*
X0003174D01*
X0002277Y0010957D02*
Y0010268D01*
X0000549Y0010960D02*
X0000250D01*
X0000380Y0006100D02*
X0000250D01*
X0002950Y0004592D02*
Y0003950D01*
X0002860Y0004558D02*
Y0003950D01*
X0002140Y0004743D02*
Y0003950D01*
X0002050Y0004646D02*
Y0003950D01*
X0001960Y0004589D02*
Y0003950D01*
X0001870Y0004557D02*
Y0003950D01*
X0001330Y0004826D02*
Y0003950D01*
X0001240Y0005280D02*
Y0003950D01*
X0003220Y0004838D02*
Y0003950D01*
X0003940Y0004859D02*
Y0003950D01*
X0019630Y0002680D02*
X0010550D01*
X0019600Y0002590D02*
X0010550D01*
X0004300Y0005220D02*
Y0003950D01*
X0002230Y0009129D02*
Y0003950D01*
X0001324Y0004840D02*
X0000250D01*
X0020800Y0003850D02*
X0010550D01*
X0011278Y0001150D02*
X0010550D01*
X0011381Y0001060D02*
X0010550D01*
X0021760Y0004446D02*
Y0003900D01*
X0021670Y0004379D02*
Y0003900D01*
X0023300Y0004570D02*
X0022675D01*
X0021825Y0011278D02*
Y0011075D01*
Y0009028D02*
Y0008825D01*
Y0006778D02*
Y0006575D01*
X0019472Y0004660D02*
X0003050D01*
X0022660Y0004325D02*
Y0003900D01*
X0022570Y0004325D02*
Y0003900D01*
X0022480Y0004325D02*
Y0003900D01*
X0022390Y0004325D02*
Y0003900D01*
X0022300Y0004325D02*
Y0003900D01*
X0001371Y0004750D02*
X0000250D01*
X0020230Y0004498D02*
Y0003280D01*
X0021825Y0004528D02*
Y0004325D01*
X0020140Y0004408D02*
Y0003190D01*
X0020050Y0004357D02*
Y0003100D01*
X0019600Y0001960D02*
X0010550D01*
X0003850Y0016800D02*
Y0011033D01*
X0019600Y0002050D02*
X0010550D01*
X0019510Y0019500D02*
Y0017363D01*
X0019420Y0019500D02*
Y0017507D01*
X0019330Y0019500D02*
Y0017555D01*
X0019240Y0019500D02*
Y0017567D01*
X0019150Y0019500D02*
Y0017548D01*
X0020220Y0016180D02*
X0017048D01*
X0019750Y0017530D02*
X0019387D01*
X0019750Y0017440D02*
X0019478D01*
X0019750Y0017350D02*
X0019513D01*
X0019750Y0017260D02*
X0019514D01*
X0022503Y0013570D02*
X0021608D01*
X0022503Y0013480D02*
X0021617D01*
X0022503Y0013750D02*
X0021445D01*
X0022503Y0013660D02*
X0021564D01*
X0022503Y0013390D02*
X0021594D01*
X0022503Y0013300D02*
X0021528D01*
X0021760Y0015650D02*
Y0011804D01*
X0021670Y0015650D02*
Y0011871D01*
X0021580Y0015650D02*
Y0013637D01*
X0021490Y0015650D02*
Y0013728D01*
X0021400Y0015650D02*
Y0013763D01*
X0021310Y0015650D02*
Y0013764D01*
X0013750Y0018630D02*
Y0015695D01*
X0013300Y0018630D02*
Y0015778D01*
X0016302Y0015820D02*
X0013652D01*
X0016796Y0015730D02*
X0013734D01*
X0013660Y0018630D02*
Y0015814D01*
X0013570Y0018630D02*
Y0015858D01*
X0013480Y0018630D02*
Y0015867D01*
X0022503Y0015640D02*
X0013764D01*
X0022503Y0015550D02*
X0013763D01*
X0022503Y0015460D02*
X0013728D01*
X0022503Y0015370D02*
X0013637D01*
X0013390Y0018630D02*
Y0015844D01*
X0022503Y0014740D02*
X0013618D01*
X0021130Y0013347D02*
Y0011764D01*
X0013266Y0015730D02*
X0011760D01*
X0013660Y0015385D02*
Y0014714D01*
X0013570Y0015341D02*
Y0014758D01*
X0013363Y0015370D02*
X0012121D01*
X0013750Y0015504D02*
Y0014595D01*
X0022503Y0014650D02*
X0013722D01*
X0022503Y0014560D02*
X0013761D01*
X0022503Y0014470D02*
X0013766D01*
X0022503Y0014380D02*
X0013739D01*
X0022503Y0014290D02*
X0013666D01*
X0022300Y0015650D02*
Y0011925D01*
X0017620Y0019500D02*
Y0011748D01*
X0017710Y0019500D02*
Y0011802D01*
X0017980Y0019500D02*
Y0011748D01*
X0017890Y0019500D02*
Y0011802D01*
X0019559Y0011770D02*
X0017952D01*
X0019503Y0011680D02*
X0018034D01*
X0019472Y0011590D02*
X0018064D01*
X0019463Y0011500D02*
X0018063D01*
X0019472Y0011410D02*
X0018028D01*
X0019503Y0011320D02*
X0017937D01*
X0013561Y0009160D02*
X0011666D01*
X0017698Y0009610D02*
X0013813D01*
X0017752Y0009520D02*
X0013957D01*
X0017979Y0009430D02*
X0014005D01*
X0018030Y0009340D02*
X0014017D01*
X0018030Y0009250D02*
X0013998D01*
X0016084Y0009160D02*
X0013938D01*
X0013930Y0009152D02*
Y0008708D01*
X0013840Y0009098D02*
Y0008664D01*
X0013750Y0009082D02*
Y0008545D01*
X0013660Y0009098D02*
Y0007420D01*
X0018161Y0009970D02*
X0015266D01*
X0017752Y0009880D02*
X0015239D01*
X0018485Y0010240D02*
X0015118D01*
X0018487Y0010150D02*
X0015222D01*
X0018234Y0010060D02*
X0015261D01*
X0017698Y0009790D02*
X0015166D01*
X0014920Y0018630D02*
Y0010255D01*
X0015190Y0018630D02*
Y0010188D01*
X0014830Y0018630D02*
Y0010207D01*
X0014740Y0018630D02*
Y0010063D01*
X0015100Y0018630D02*
Y0010248D01*
X0015010Y0018630D02*
Y0010267D01*
X0011680Y0012802D02*
Y0009148D01*
X0013482Y0009340D02*
X0003175D01*
X0016011Y0009070D02*
X0011739D01*
X0015984Y0008980D02*
X0011766D01*
X0015989Y0008890D02*
X0011761D01*
X0016028Y0008800D02*
X0011722D01*
X0012436Y0008710D02*
X0011618D01*
X0011590Y0012748D02*
Y0009202D01*
X0011500Y0012732D02*
Y0009218D01*
X0011410Y0012748D02*
Y0009202D01*
X0011320Y0012802D02*
Y0009148D01*
X0017663Y0011320D02*
X0007024D01*
X0015752Y0001150D02*
X0015498D01*
X0014778Y0010150D02*
X0004119D01*
X0015460Y0005899D02*
Y0001416D01*
X0017800Y0019500D02*
Y0011818D01*
X0013686Y0009610D02*
X0003195D01*
X0011320Y0014302D02*
Y0013198D01*
X0013030Y0008297D02*
Y0007370D01*
X0013120Y0008216D02*
Y0007417D01*
X0013210Y0008185D02*
Y0007420D01*
X0013811Y0008260D02*
X0013438D01*
X0013732Y0008440D02*
X0013517D01*
X0013744Y0008530D02*
X0013505D01*
X0013793Y0008620D02*
X0013457D01*
X0013936Y0008710D02*
X0013313D01*
X0013061Y0008260D02*
X0012688D01*
X0013840Y0018630D02*
Y0009602D01*
X0012580Y0018630D02*
Y0008705D01*
X0012670Y0018630D02*
Y0008657D01*
X0012760Y0018630D02*
Y0008513D01*
X0012310Y0013417D02*
Y0008638D01*
X0012400Y0013452D02*
Y0008698D01*
X0012490Y0013543D02*
Y0008717D01*
X0013002Y0008350D02*
X0012748D01*
X0012982Y0008440D02*
X0012767D01*
X0012994Y0008530D02*
X0012755D01*
X0013043Y0008620D02*
X0012707D01*
X0018030Y0007090D02*
X0015250D01*
X0012310Y0001039D02*
Y0000250D01*
X0017980Y0009429D02*
Y0006970D01*
X0015910Y0000998D02*
Y0000250D01*
X0016502Y0001150D02*
X0016248D01*
X0014110Y0008206D02*
Y0007420D01*
X0014502Y0008350D02*
X0014248D01*
X0017829Y0006820D02*
X0015520D01*
X0014200Y0008272D02*
Y0007420D01*
X0014561Y0008260D02*
X0014188D01*
X0016270Y0005680D02*
Y0000250D01*
X0015820Y0005680D02*
Y0001448D01*
X0012130Y0001061D02*
Y0000250D01*
X0013186Y0008710D02*
X0012563D01*
X0017890Y0009439D02*
Y0006880D01*
X0014482Y0008440D02*
X0014267D01*
X0017440Y0019500D02*
Y0006430D01*
X0016270Y0008683D02*
Y0006420D01*
X0017260Y0018636D02*
Y0006420D01*
X0017080Y0015837D02*
Y0006420D01*
X0016990Y0015756D02*
Y0006420D01*
X0016900Y0015725D02*
Y0006420D01*
X0015010Y0008386D02*
Y0007330D01*
X0006592Y0018198D02*
X0007118Y0017672D01*
X0016000Y0008854D02*
Y0006420D01*
X0015820Y0018189D02*
Y0006520D01*
X0015730Y0018279D02*
Y0006610D01*
X0015640Y0018369D02*
Y0006700D01*
X0015550Y0018459D02*
Y0006790D01*
X0015460Y0018549D02*
Y0006880D01*
X0015370Y0018630D02*
Y0006970D01*
X0015280Y0018630D02*
Y0007060D01*
X0018030Y0007180D02*
X0015160D01*
X0012940Y0001039D02*
Y0000250D01*
X0012310Y0008261D02*
Y0007138D01*
X0012760Y0008386D02*
Y0007120D01*
X0012311Y0008260D02*
X0003120D01*
X0012490Y0008182D02*
Y0007217D01*
X0012400Y0008202D02*
Y0007198D01*
X0002572Y0007360D02*
X0000250D01*
X0013480Y0014233D02*
Y0008587D01*
X0013570Y0014241D02*
Y0009548D01*
X0018160Y0019500D02*
Y0009968D01*
X0018970Y0019500D02*
Y0010352D01*
X0015002Y0001150D02*
X0014748D01*
X0018520Y0019500D02*
Y0010337D01*
X0023300Y0010420D02*
X0018902D01*
X0023300Y0010330D02*
X0018984D01*
X0023300Y0010240D02*
X0019014D01*
X0023300Y0009880D02*
X0018920D01*
X0018070Y0019500D02*
Y0009939D01*
X0014739Y0010060D02*
X0004106D01*
X0018970Y0010047D02*
Y0000250D01*
X0023300Y0006100D02*
X0018139D01*
X0019559Y0009520D02*
X0018770D01*
X0019503Y0009430D02*
X0018770D01*
X0019472Y0009340D02*
X0018770D01*
X0019463Y0009250D02*
X0018770D01*
X0019472Y0009160D02*
X0018770D01*
X0019503Y0009070D02*
X0018770D01*
X0019559Y0008980D02*
X0018770D01*
X0019662Y0008890D02*
X0018770D01*
X0003130Y0016080D02*
Y0010957D01*
X0023300Y0008800D02*
X0018770D01*
X0023300Y0008710D02*
X0018770D01*
X0023300Y0008620D02*
X0018770D01*
X0023300Y0008530D02*
X0018770D01*
X0023300Y0008440D02*
X0018770D01*
X0023300Y0008350D02*
X0018770D01*
X0023300Y0008260D02*
X0018770D01*
X0023300Y0008170D02*
X0018770D01*
X0023300Y0008080D02*
X0018770D01*
X0023300Y0007990D02*
X0018770D01*
X0023300Y0007900D02*
X0018770D01*
X0023300Y0007810D02*
X0018770D01*
X0023300Y0007720D02*
X0018770D01*
X0023300Y0007630D02*
X0018770D01*
X0004210Y0018688D02*
Y0006430D01*
X0018610Y0019500D02*
Y0010428D01*
X0023300Y0010150D02*
X0019013D01*
X0015620Y0019120D02*
X0015937Y0018803D01*
X0013334Y0014290D02*
X0012368D01*
X0023300Y0008890D02*
X0022675D01*
X0023300Y0006460D02*
X0018497D01*
X0023300Y0006370D02*
X0018407D01*
X0023300Y0006280D02*
X0018318D01*
X0023300Y0006190D02*
X0018228D01*
X0023300Y0009700D02*
X0018887D01*
X0019503Y0006820D02*
X0018770D01*
X0019662Y0006640D02*
X0018676D01*
X0019559Y0006730D02*
X0018753D01*
X0017800Y0005760D02*
Y0000250D01*
X0018030Y0008260D02*
X0014938D01*
X0011590Y0014248D02*
Y0013252D01*
X0023300Y0006550D02*
X0018587D01*
X0014494Y0008530D02*
X0014255D01*
X0011680Y0014302D02*
Y0013198D01*
X0020670Y0015730D02*
X0016923D01*
X0020130Y0016270D02*
X0016880D01*
X0015550Y0019500D02*
Y0019162D01*
X0012244Y0008530D02*
X0003120D01*
X0019750Y0018520D02*
X0017198D01*
X0016810Y0015727D02*
Y0006420D01*
X0015730Y0005681D02*
Y0000250D01*
X0018030Y0008800D02*
X0016472D01*
X0014311Y0001060D02*
X0013938D01*
X0011500Y0014232D02*
Y0013268D01*
X0012734Y0001330D02*
X0012516D01*
X0012761Y0001420D02*
X0012489D01*
X0012834Y0001510D02*
X0012416D01*
X0012778Y0001150D02*
X0012472D01*
X0011989Y0001240D02*
X0011761D01*
X0014740Y0001131D02*
Y0000250D01*
X0011984Y0001330D02*
X0011766D01*
X0012011Y0001420D02*
X0011739D01*
X0014650Y0006480D02*
Y0001472D01*
X0007552Y0006730D02*
X0003910D01*
X0016180Y0017829D02*
Y0009208D01*
X0014179Y0006880D02*
X0013517D01*
X0014509Y0006550D02*
X0011663D01*
X0008260Y0018630D02*
Y0006370D01*
X0008170Y0018630D02*
Y0006370D01*
X0008350Y0018630D02*
Y0006370D01*
X0008440Y0018630D02*
Y0006370D01*
X0008080Y0018630D02*
Y0006460D01*
X0007990Y0018630D02*
Y0006668D01*
X0007900Y0018630D02*
Y0006772D01*
X0007810Y0018630D02*
Y0006811D01*
X0007720Y0018630D02*
Y0006816D01*
X0007630Y0018630D02*
Y0006789D01*
X0009063Y0006730D02*
X0007948D01*
X0008972Y0006640D02*
X0008002D01*
X0011050Y0014330D02*
Y0006670D01*
X0010960Y0014330D02*
Y0006670D01*
X0010870Y0014330D02*
Y0006670D01*
X0010780Y0014330D02*
Y0006670D01*
X0010690Y0014341D02*
Y0006670D01*
X0010600Y0014409D02*
Y0006670D01*
X0010510Y0014499D02*
Y0006670D01*
X0010420Y0014589D02*
Y0006670D01*
X0010330Y0014679D02*
Y0006670D01*
X0010240Y0014769D02*
Y0006670D01*
X0010150Y0014748D02*
Y0006670D01*
X0010060Y0014730D02*
Y0006670D01*
X0009610Y0006030D02*
Y0003950D01*
X0009430Y0018630D02*
Y0006670D01*
X0009340Y0018630D02*
Y0006728D01*
X0009250Y0018630D02*
Y0006763D01*
X0009160Y0018630D02*
Y0006764D01*
X0009070Y0018630D02*
Y0006734D01*
X0011263Y0006730D02*
X0009337D01*
X0015379Y0018630D02*
X0016330Y0017679D01*
X0009520Y0015040D02*
Y0006670D01*
X0009610Y0014900D02*
Y0006670D01*
X0009700Y0014821D02*
Y0006670D01*
X0015010Y0009732D02*
Y0008513D01*
X0011381Y0008710D02*
X0003120D01*
X0011590Y0008698D02*
Y0006688D01*
X0011500Y0008682D02*
Y0006748D01*
X0011230Y0014330D02*
Y0006707D01*
X0009790Y0014770D02*
Y0006670D01*
X0002572Y0007090D02*
X0000250D01*
X0014290Y0001084D02*
Y0000250D01*
X0015010Y0001131D02*
Y0000250D01*
X0014899Y0006460D02*
X0011664D01*
X0011590Y0001048D02*
Y0000250D01*
X0019600Y0001150D02*
X0016998D01*
X0019600Y0001510D02*
X0016813D01*
X0019600Y0001420D02*
X0016957D01*
X0019600Y0001330D02*
X0017005D01*
X0017170Y0005680D02*
Y0000250D01*
X0016990Y0005680D02*
Y0001368D01*
X0016900Y0005680D02*
Y0001472D01*
X0016810Y0005680D02*
Y0001511D01*
X0016720Y0005680D02*
Y0001516D01*
X0016630Y0005680D02*
Y0001489D01*
X0010881Y0014740D02*
X0010750D01*
X0010510Y0015065D02*
Y0014980D01*
X0011230Y0014779D02*
Y0014670D01*
X0011140Y0014745D02*
Y0014670D01*
X0011050Y0014729D02*
Y0014670D01*
X0010960Y0014728D02*
Y0014670D01*
X0010870Y0014743D02*
Y0014670D01*
X0012027Y0014740D02*
X0011618D01*
X0011680Y0015329D02*
Y0014698D01*
X0011590Y0015419D02*
Y0014752D01*
X0013300Y0014322D02*
Y0008713D01*
X0013278Y0014650D02*
X0012367D01*
X0013239Y0014560D02*
X0012367D01*
X0013234Y0014470D02*
X0012367D01*
X0013261Y0014380D02*
X0012368D01*
X0022503Y0014200D02*
X0012368D01*
X0022503Y0014110D02*
X0012369D01*
X0022503Y0014020D02*
X0012369D01*
X0022503Y0013930D02*
X0012369D01*
X0012082Y0013480D02*
X0006725D01*
X0012400Y0018630D02*
Y0013908D01*
X0012310Y0018630D02*
Y0015182D01*
X0012220Y0018630D02*
Y0015271D01*
X0012130Y0018630D02*
Y0015361D01*
X0007360Y0018630D02*
Y0003950D01*
X0011770Y0018630D02*
Y0015720D01*
X0011680Y0018630D02*
Y0015809D01*
X0011500Y0016094D02*
Y0015988D01*
X0013480Y0015333D02*
Y0014767D01*
X0013235Y0015640D02*
X0011850D01*
X0013237Y0015550D02*
X0011940D01*
X0013272Y0015460D02*
X0012031D01*
X0016330Y0017679D02*
Y0016207D01*
X0019750Y0018070D02*
X0016670D01*
X0016000Y0019500D02*
Y0018928D01*
X0015730Y0019500D02*
Y0019010D01*
X0019150Y0017052D02*
Y0000250D01*
X0019113Y0017530D02*
X0016830D01*
X0019022Y0017440D02*
X0016830D01*
X0018987Y0017350D02*
X0016830D01*
X0018985Y0017260D02*
X0016830D01*
X0019016Y0017170D02*
X0016830D01*
X0019750Y0018970D02*
X0016352D01*
X0019750Y0018880D02*
X0017198D01*
X0011860Y0019500D02*
Y0019170D01*
X0019750Y0016900D02*
X0016830D01*
X0016360Y0008706D02*
Y0006420D01*
X0019750Y0017980D02*
X0016760D01*
X0016720Y0019500D02*
Y0018020D01*
X0016630Y0019500D02*
Y0018110D01*
X0012994Y0006820D02*
X0012959D01*
X0016450Y0018654D02*
Y0018290D01*
X0016360Y0018535D02*
Y0018380D01*
X0016270Y0018491D02*
Y0018470D01*
X0016540Y0019500D02*
Y0018200D01*
X0016180Y0019500D02*
Y0019017D01*
X0019750Y0016720D02*
X0016830D01*
X0015910Y0019500D02*
Y0018830D01*
X0015820Y0019500D02*
Y0018920D01*
X0016090Y0019500D02*
Y0018994D01*
X0017170Y0018493D02*
Y0006420D01*
X0016732Y0018700D02*
X0016463D01*
X0019750Y0018610D02*
X0017252D01*
X0016748D02*
X0016428D01*
X0019750Y0018430D02*
X0016310D01*
X0019750Y0018790D02*
X0017252D01*
X0016330Y0016720D02*
X0011231D01*
X0019750Y0016810D02*
X0016830D01*
X0019750Y0016990D02*
X0016830D01*
X0015460Y0019500D02*
Y0019170D01*
X0015370Y0019500D02*
Y0019170D01*
X0015280Y0019500D02*
Y0019170D01*
X0015190Y0019500D02*
Y0019170D01*
X0015100Y0019500D02*
Y0019170D01*
X0015010Y0019500D02*
Y0019170D01*
X0014920Y0019500D02*
Y0019170D01*
X0014830Y0019500D02*
Y0019170D01*
X0014740Y0019500D02*
Y0019170D01*
X0014650Y0019500D02*
Y0019170D01*
X0014560Y0019500D02*
Y0019170D01*
X0014470Y0019500D02*
Y0019170D01*
X0014380Y0019500D02*
Y0019170D01*
X0014290Y0019500D02*
Y0019170D01*
X0014200Y0019500D02*
Y0019170D01*
X0014110Y0019500D02*
Y0019170D01*
X0014020Y0019500D02*
Y0019170D01*
X0013930Y0019500D02*
Y0019170D01*
X0013840Y0019500D02*
Y0019170D01*
X0013750Y0019500D02*
Y0019170D01*
X0013660Y0019500D02*
Y0019170D01*
X0013570Y0019500D02*
Y0019170D01*
X0013480Y0019500D02*
Y0019170D01*
X0013390Y0019500D02*
Y0019170D01*
X0013300Y0019500D02*
Y0019170D01*
X0013210Y0019500D02*
Y0019170D01*
X0013120Y0019500D02*
Y0019170D01*
X0013030Y0019500D02*
Y0019170D01*
X0012940Y0019500D02*
Y0019170D01*
X0012850Y0019500D02*
Y0019170D01*
X0012760Y0019500D02*
Y0019170D01*
X0012670Y0019500D02*
Y0019170D01*
X0012580Y0019500D02*
Y0019170D01*
X0012490Y0019500D02*
Y0019170D01*
X0012400Y0019500D02*
Y0019170D01*
X0012310Y0019500D02*
Y0019170D01*
X0023300Y0012601D02*
X0022503D01*
X0011770Y0019500D02*
Y0019170D01*
X0011680Y0019500D02*
Y0019170D01*
X0011590Y0019500D02*
Y0019170D01*
X0009430Y0019500D02*
Y0019170D01*
X0009340Y0019500D02*
Y0019170D01*
X0009250Y0019500D02*
Y0019170D01*
X0009160Y0019500D02*
Y0019170D01*
X0009070Y0019500D02*
Y0019170D01*
X0008980Y0019500D02*
Y0019170D01*
X0008890Y0019500D02*
Y0019170D01*
X0008800Y0019500D02*
Y0019170D01*
X0008710Y0019500D02*
Y0019170D01*
X0008620Y0019500D02*
Y0019170D01*
X0008530Y0019500D02*
Y0019170D01*
X0008440Y0019500D02*
Y0019170D01*
X0008350Y0019500D02*
Y0019170D01*
X0008260Y0019500D02*
Y0019170D01*
X0008170Y0019500D02*
Y0019170D01*
X0008080Y0019500D02*
Y0019170D01*
X0007990Y0019500D02*
Y0019170D01*
X0007900Y0019500D02*
Y0019170D01*
X0007810Y0019500D02*
Y0019170D01*
X0007720Y0019500D02*
Y0019170D01*
X0007630Y0019500D02*
Y0019170D01*
X0007540Y0019500D02*
Y0019170D01*
X0007450Y0019500D02*
Y0019170D01*
X0006550Y0019500D02*
Y0019137D01*
X0006820Y0019500D02*
Y0019170D01*
X0007180Y0019500D02*
Y0019170D01*
X0011500Y0019500D02*
Y0019170D01*
X0011410Y0019500D02*
Y0019170D01*
X0011320Y0019500D02*
Y0019170D01*
X0011230Y0019500D02*
Y0019170D01*
X0006280Y0019500D02*
Y0018870D01*
X0011050Y0019500D02*
Y0019170D01*
X0006100Y0019500D02*
Y0018690D01*
X0010870Y0019500D02*
Y0019170D01*
X0010780Y0019500D02*
Y0019170D01*
X0010690Y0019500D02*
Y0019170D01*
X0010600Y0019500D02*
Y0019170D01*
X0010510Y0019500D02*
Y0019170D01*
X0010420Y0019500D02*
Y0019170D01*
X0010330Y0019500D02*
Y0019170D01*
X0010240Y0019500D02*
Y0019170D01*
X0010150Y0019500D02*
Y0019170D01*
X0010060Y0019500D02*
Y0019170D01*
X0009970Y0019500D02*
Y0019170D01*
X0009880Y0019500D02*
Y0019170D01*
X0007000Y0019500D02*
Y0019170D01*
X0011334Y0009160D02*
X0003120D01*
X0009700Y0019500D02*
Y0019170D01*
X0006370Y0019500D02*
Y0018960D01*
X0007270Y0019500D02*
Y0019170D01*
X0001293Y0009520D02*
X0000250D01*
X0006640Y0018222D02*
Y0018150D01*
X0006199Y0018790D02*
X0005678D01*
X0006910Y0018619D02*
Y0017880D01*
X0006920Y0018630D02*
X0006766Y0018476D01*
X0009520Y0018630D02*
Y0017774D01*
X0015579Y0018430D02*
X0006767D01*
X0015669Y0018340D02*
X0006744D01*
X0015849Y0018160D02*
X0006630D01*
X0015939Y0018070D02*
X0006720D01*
X0016029Y0017980D02*
X0006810D01*
X0006100Y0018209D02*
Y0013348D01*
X0009476Y0017710D02*
X0007080D01*
X0009476Y0017530D02*
X0007170D01*
X0009476Y0017440D02*
X0007170D01*
X0009476Y0017350D02*
X0007170D01*
X0009476Y0017260D02*
X0007170D01*
X0009476Y0017170D02*
X0007170D01*
X0009476Y0017080D02*
X0007170D01*
X0009476Y0016990D02*
X0007170D01*
X0009476Y0016900D02*
X0007170D01*
X0009476Y0016810D02*
X0007170D01*
X0009769Y0016720D02*
X0007170D01*
X0009640Y0016630D02*
X0007170D01*
X0009564Y0016540D02*
X0007170D01*
X0009516Y0016450D02*
X0007170D01*
X0009488Y0016360D02*
X0007170D01*
X0009477Y0016270D02*
X0007170D01*
X0009481Y0016180D02*
X0007170D01*
X0009501Y0016090D02*
X0007170D01*
X0009540Y0016000D02*
X0007170D01*
X0009602Y0015910D02*
X0007170D01*
X0009701Y0015820D02*
X0007170D01*
X0009790Y0015730D02*
X0007170D01*
X0009650Y0015640D02*
X0007170D01*
X0009571Y0015550D02*
X0007170D01*
X0009520Y0015460D02*
X0007170D01*
X0009490Y0015370D02*
X0007170D01*
X0009477Y0015280D02*
X0007170D01*
X0009480Y0015190D02*
X0007170D01*
X0006830Y0014920D02*
X0000250D01*
X0009881Y0014740D02*
X0007228D01*
X0013019Y0007360D02*
X0003280D01*
X0009687Y0014830D02*
X0007170D01*
X0012220Y0013415D02*
Y0001566D01*
X0006847Y0014380D02*
X0000250D01*
X0011234Y0001330D02*
X0010550D01*
X0010600Y0014912D02*
Y0014890D01*
X0011590Y0018630D02*
Y0015899D01*
X0006766Y0014470D02*
X0000250D01*
X0007000Y0014332D02*
Y0013176D01*
X0006910Y0014348D02*
Y0013336D01*
X0019750Y0017620D02*
X0016830D01*
X0006370Y0017939D02*
Y0013514D01*
X0006280Y0018029D02*
Y0013482D01*
X0006190Y0018119D02*
Y0013430D01*
X0023300Y0012580D02*
X0006823D01*
X0011993Y0013660D02*
X0000250D01*
X0021135D02*
X0012527D01*
X0021106Y0013390D02*
X0006859D01*
X0011410Y0008698D02*
Y0006767D01*
X0011334Y0013210D02*
X0006986D01*
X0011261Y0013120D02*
X0007016D01*
X0011234Y0013030D02*
X0007029D01*
X0011239Y0012940D02*
X0007026D01*
X0011278Y0012850D02*
X0007008D01*
X0022503Y0012670D02*
X0006915D01*
X0023300Y0010510D02*
X0007024D01*
X0006820Y0017489D02*
Y0014798D01*
X0007000Y0012824D02*
Y0012176D01*
X0006910Y0012664D02*
Y0012336D01*
X0006280Y0012518D02*
Y0012482D01*
X0006190Y0012570D02*
Y0012430D01*
G01X0011470Y0016019D02*
G03X0011524Y0016250I0000470J0000231D01*
G01X0016830Y0017840D02*
G03X0016780Y0017960I0000170J0000000D01*
G01X0016200Y0019018D02*
G03X0015937Y0018803I0000000J0000268D01*
G01X0006650Y0019170D02*
G03X0006530Y0019120I0000000J0000170D01*
G01X0006768Y0018450D02*
G03X0006766Y0018476I0000268J0000000D01*
G01X0015620Y0019120D02*
G03X0015500Y0019170I0000120J0000120D01*
G01X0006030Y0018350D02*
G03X0006080Y0018230I0000170J0000000D01*
Y0018670D02*
G03X0006030Y0018550I0000120J0000120D01*
G01X0007170Y0017550D02*
G03X0007120Y0017670I0000170J0000000D01*
G01X0007170Y0017550D02*
G03X0007120Y0017670I0000170J0000000D01*
G01X0006732Y0014600D02*
G03X0007000Y0014332I0000268J0000000D01*
G03X0007268Y0014600I0000000J0000268D01*
G03X0007170Y0014807I0000268J0000000D01*
G01X0007030Y0013000D02*
G03X0006500Y0013530I0000530J0000000D01*
G03X0005970Y0013000I0000000J0000530D01*
G03X0006324Y0012500I0000530J0000000D01*
G01X0010524Y0017032D02*
G03X0010844Y0016750I0000476J0000218D01*
G01X0011524Y0017250D02*
G03X0011000Y0017774I0000524J0000000D01*
G01X0010844Y0016750D02*
G03X0010500Y0016405I0000156J0000500D01*
G01X0011000Y0014726D02*
G03X0011524Y0015250I0000000J0000524D01*
G01X0011155Y0016750D02*
G03X0011523Y0017250I0000155J0000500D01*
G01X0010500Y0015094D02*
G03X0011000Y0014726I0000500J0000156D01*
G01X0009476Y0015250D02*
G03X0010000Y0014726I0000524J0000000D01*
G01X0010500Y0015405D02*
G03X0010155Y0015750I0000500J0000155D01*
G01X0011524Y0015250D02*
G03X0011155Y0015750I0000524J0000000D01*
G01X0009476Y0016250D02*
G03X0009844Y0015750I0000524J0000000D01*
G01X0011000Y0017774D02*
G03X0010524Y0017467I0000000J0000524D01*
G01X0010155Y0015750D02*
G03X0010500Y0016094I0000155J0000500D01*
G01X0009844Y0015750D02*
G03X0009476Y0015250I0000156J0000500D01*
G01X0011524Y0016250D02*
G03X0011155Y0016750I0000524J0000000D01*
G01X0019463Y0004750D02*
G03X0019888Y0004325I0000425J0000000D01*
G03X0020281Y0004590I0000000J0000425D01*
G01X0019888Y0005175D02*
G03X0019463Y0004750I0000000J0000425D01*
G01X0020675Y0004325D02*
G03X0021069Y0004590I0000000J0000425D01*
G01X0020281D02*
G03X0020675Y0004325I0000394J0000160D01*
G01X0020281Y0004910D02*
G03X0019888Y0005174I0000393J0000160D01*
G01X0021463Y0004325D02*
G03X0021825Y0004528I0000000J0000425D01*
G01X0021069Y0004590D02*
G03X0021463Y0004325I0000394J0000160D01*
G01X0021069Y0004910D02*
G03X0020675Y0005175I0000394J0000160D01*
G01X0019463Y0007000D02*
G03X0019888Y0006575I0000425J0000000D01*
G03X0020281Y0006840I0000000J0000425D01*
G01X0019888Y0007425D02*
G03X0019463Y0007000I0000000J0000425D01*
G01X0020675Y0006575D02*
G03X0021069Y0006840I0000000J0000425D01*
G01X0020281D02*
G03X0020675Y0006575I0000394J0000160D01*
G01X0020281Y0007160D02*
G03X0019888Y0007424I0000393J0000160D01*
G01X0021463Y0006575D02*
G03X0021825Y0006778I0000000J0000425D01*
G01X0021069Y0006840D02*
G03X0021463Y0006575I0000394J0000160D01*
G01X0021069Y0007160D02*
G03X0020675Y0007425I0000394J0000160D01*
G01X0019463Y0009250D02*
G03X0019888Y0008825I0000425J0000000D01*
G03X0020281Y0009090I0000000J0000425D01*
G01X0019888Y0009675D02*
G03X0019463Y0009250I0000000J0000425D01*
G01X0020675Y0008825D02*
G03X0021069Y0009090I0000000J0000425D01*
G01X0020281D02*
G03X0020675Y0008825I0000394J0000160D01*
G01X0020281Y0009410D02*
G03X0019888Y0009674I0000393J0000160D01*
G01X0021463Y0008825D02*
G03X0021825Y0009028I0000000J0000425D01*
G01X0021069Y0009090D02*
G03X0021463Y0008825I0000394J0000160D01*
G01X0021069Y0009410D02*
G03X0020675Y0009675I0000394J0000160D01*
G01X0019463Y0011500D02*
G03X0019888Y0011075I0000425J0000000D01*
G03X0020281Y0011340I0000000J0000425D01*
G01X0019888Y0011925D02*
G03X0019463Y0011500I0000000J0000425D01*
G01X0020675Y0011075D02*
G03X0021069Y0011340I0000000J0000425D01*
G01X0020281D02*
G03X0020675Y0011075I0000394J0000160D01*
G01X0020281Y0011660D02*
G03X0019888Y0011924I0000393J0000160D01*
G01X0021463Y0011075D02*
G03X0021825Y0011278I0000000J0000425D01*
G01X0021069Y0011340D02*
G03X0021463Y0011075I0000394J0000160D01*
G01X0021069Y0011660D02*
G03X0020675Y0011925I0000394J0000160D01*
G01X0000903Y0006598D02*
G03X0000380Y0006075I0000000J0000523D01*
Y0005681D02*
G03X0000903Y0005158I0000523J0000000D01*
G01X0001388Y0006273D02*
G03X0000903Y0006599I0000485J0000198D01*
Y0005158D02*
G03X0001427Y0005666I0000000J0000523D01*
G01X0001758Y0005527D02*
G03X0002223Y0005992I0000000J0000465D01*
G01X0002222D02*
G03X0001758Y0006456I0000464J0000000D01*
G01X0001427Y0005666D02*
G03X0001758Y0005527I0000331J0000326D01*
G01X0002277Y0005008D02*
G03X0002742Y0004543I0000465J0000000D01*
G03X0003174Y0004838I0000000J0000465D01*
G01X0002742Y0005472D02*
G03X0002278Y0005008I0000000J0000464D01*
G01X0001293D02*
G03X0001758Y0004543I0000465J0000000D01*
G03X0002223Y0005008I0000000J0000465D01*
G01X0002222D02*
G03X0001758Y0005472I0000464J0000000D01*
G03X0001294Y0005008I0000000J0000464D01*
G01X0000903Y0011098D02*
G03X0000380Y0010575I0000000J0000523D01*
Y0010181D02*
G03X0000903Y0009658I0000523J0000000D01*
G01X0001388Y0010773D02*
G03X0000903Y0011099I0000485J0000198D01*
G01X0001758Y0010027D02*
G03X0002223Y0010492I0000000J0000465D01*
G01X0002222D02*
G03X0001758Y0010956I0000464J0000000D01*
G01X0001427Y0010166D02*
G03X0001758Y0010027I0000331J0000326D01*
G01X0004120Y0010575D02*
G03X0003596Y0011099I0000524J0000000D01*
Y0011098D02*
G03X0003207Y0010924I0000000J0000523D01*
G01X0003596Y0009658D02*
G03X0004119Y0010181I0000000J0000523D01*
G01X0003207Y0009508D02*
G03X0002742Y0009973I0000465J0000000D01*
G01X0001293Y0009508D02*
G03X0001758Y0009043I0000465J0000000D01*
G01X0002742Y0009972D02*
G03X0002420Y0009843I0000000J0000464D01*
G01X0001758Y0009972D02*
G03X0001294Y0009508I0000000J0000464D01*
G01X0006830Y0014807D02*
G03X0006732Y0014600I0000170J0000207D01*
G01X0021825Y0009472D02*
G03X0021463Y0009675I0000362J0000222D01*
G01X0021825Y0007222D02*
G03X0021463Y0007425I0000362J0000222D01*
G01X0021825Y0004972D02*
G03X0021463Y0005175I0000362J0000222D01*
G01X0020675D02*
G03X0020281Y0004910I0000000J0000425D01*
G01X0011155Y0015750D02*
G03X0011229Y0015779I0000155J0000500D01*
G01X0016330Y0016207D02*
G03X0016232Y0016000I0000170J0000207D01*
G01X0015620Y0019120D02*
G03X0015500Y0019170I0000120J0000120D01*
G01X0012850Y0006780D02*
G03X0012970Y0006830I0000000J0000170D01*
G01X0011500Y0014768D02*
G03X0011293Y0014670I0000000J0000268D01*
G01X0010500Y0016405D02*
G03X0010217Y0016726I0000500J0000155D01*
G01X0010630Y0014380D02*
G03X0010750Y0014330I0000120J0000120D01*
G01X0011353Y0006236D02*
G03X0011400Y0006232I0000047J0000264D01*
G01X0010844Y0015750D02*
G03X0010500Y0015405I0000156J0000500D01*
G01X0010000Y0014726D02*
G03X0010230Y0014779I0000000J0000524D01*
G01X0001758Y0006457D02*
G03X0001388Y0006273I0000000J0000465D01*
G01X0003174Y0005178D02*
G03X0002742Y0005472I0000432J0000170D01*
G01X0006324Y0012500D02*
G03X0005970Y0012000I0000176J0000500D01*
G01X0020675Y0011925D02*
G03X0020281Y0011660I0000000J0000425D01*
G01X0005970Y0012000D02*
G03X0006267Y0011524I0000530J0000000D01*
G01X0020675Y0007425D02*
G03X0020281Y0007160I0000000J0000425D01*
G01X0013250Y0006632D02*
G03X0013517Y0006880I0000000J0000268D01*
G01X0006080Y0018670D02*
G03X0006030Y0018550I0000120J0000120D01*
G01X0018982Y0017300D02*
G03X0019250Y0017032I0000268J0000000D01*
G03X0019518Y0017300I0000000J0000268D01*
G03X0019250Y0017568I0000268J0000000D01*
G03X0018982Y0017300I0000000J0000268D01*
G01X0021082Y0013500D02*
G03X0021350Y0013232I0000268J0000000D01*
G03X0021618Y0013500I0000000J0000268D01*
G03X0021350Y0013768I0000268J0000000D01*
G03X0021082Y0013500I0000000J0000268D01*
G01X0013232Y0015600D02*
G03X0013500Y0015332I0000268J0000000D01*
G03X0013768Y0015600I0000000J0000268D01*
G03X0013500Y0015868I0000268J0000000D01*
G03X0013232Y0015600I0000000J0000268D01*
Y0014500D02*
G03X0013500Y0014232I0000268J0000000D01*
G03X0013768Y0014500I0000000J0000268D01*
G03X0013500Y0014768I0000268J0000000D01*
G03X0013232Y0014500I0000000J0000268D01*
G01X0017532Y0011550D02*
G03X0017800Y0011282I0000268J0000000D01*
G03X0018068Y0011550I0000000J0000268D01*
G03X0017800Y0011818I0000268J0000000D01*
G03X0017532Y0011550I0000000J0000268D01*
G01X0015732Y0001250D02*
G03X0016000Y0000982I0000268J0000000D01*
G03X0016268Y0001250I0000000J0000268D01*
G03X0016000Y0001518I0000268J0000000D01*
G03X0015732Y0001250I0000000J0000268D01*
G01X0013482Y0009350D02*
G03X0013750Y0009082I0000268J0000000D01*
G03X0014018Y0009350I0000000J0000268D01*
G03X0013750Y0009618I0000268J0000000D01*
G03X0013482Y0009350I0000000J0000268D01*
G01X0012982Y0008450D02*
G03X0013250Y0008182I0000268J0000000D01*
G03X0013518Y0008450I0000000J0000268D01*
G03X0013250Y0008718I0000268J0000000D01*
G03X0012982Y0008450I0000000J0000268D01*
G01X0013732D02*
G03X0014000Y0008182I0000268J0000000D01*
G03X0014268Y0008450I0000000J0000268D01*
G03X0014000Y0008718I0000268J0000000D01*
G03X0013732Y0008450I0000000J0000268D01*
G01X0013482Y0009350D02*
G03X0013750Y0009082I0000268J0000000D01*
G03X0014018Y0009350I0000000J0000268D01*
G03X0013750Y0009618I0000268J0000000D01*
G03X0013482Y0009350I0000000J0000268D01*
G01X0014732Y0010000D02*
G03X0015000Y0009732I0000268J0000000D01*
G03X0015268Y0010000I0000000J0000268D01*
G03X0015000Y0010268I0000268J0000000D01*
G03X0014732Y0010000I0000000J0000268D01*
G01X0011232Y0008950D02*
G03X0011500Y0008682I0000268J0000000D01*
G03X0011768Y0008950I0000000J0000268D01*
G03X0011500Y0009218I0000268J0000000D01*
G03X0011232Y0008950I0000000J0000268D01*
G01X0015732Y0001250D02*
G03X0016000Y0000982I0000268J0000000D01*
G03X0016268Y0001250I0000000J0000268D01*
G03X0016000Y0001518I0000268J0000000D01*
G03X0015732Y0001250I0000000J0000268D01*
G01X0014232D02*
G03X0014500Y0000982I0000268J0000000D01*
G03X0014768Y0001250I0000000J0000268D01*
G03X0014500Y0001518I0000268J0000000D01*
G03X0014232Y0001250I0000000J0000268D01*
G01X0013482D02*
G03X0013750Y0000982I0000268J0000000D01*
G03X0014018Y0001250I0000000J0000268D01*
G03X0013750Y0001518I0000268J0000000D01*
G03X0013482Y0001250I0000000J0000268D01*
G01X0011982Y0001300D02*
G03X0012250Y0001032I0000268J0000000D01*
G03X0012518Y0001300I0000000J0000268D01*
G03X0012250Y0001568I0000268J0000000D01*
G03X0011982Y0001300I0000000J0000268D01*
G01X0014982Y0001250D02*
G03X0015250Y0000982I0000268J0000000D01*
G03X0015518Y0001250I0000000J0000268D01*
G03X0015250Y0001518I0000268J0000000D01*
G03X0014982Y0001250I0000000J0000268D01*
G01X0014232D02*
G03X0014500Y0000982I0000268J0000000D01*
G03X0014768Y0001250I0000000J0000268D01*
G03X0014500Y0001518I0000268J0000000D01*
G03X0014232Y0001250I0000000J0000268D01*
G01X0012232Y0008450D02*
G03X0012500Y0008182I0000268J0000000D01*
G03X0012768Y0008450I0000000J0000268D01*
G03X0012500Y0008718I0000268J0000000D01*
G03X0012232Y0008450I0000000J0000268D01*
G01X0012982D02*
G03X0013250Y0008182I0000268J0000000D01*
G03X0013518Y0008450I0000000J0000268D01*
G03X0013250Y0008718I0000268J0000000D01*
G03X0012982Y0008450I0000000J0000268D01*
G01X0013732D02*
G03X0014000Y0008182I0000268J0000000D01*
G03X0014268Y0008450I0000000J0000268D01*
G03X0014000Y0008718I0000268J0000000D01*
G03X0013732Y0008450I0000000J0000268D01*
G01X0014482D02*
G03X0014750Y0008182I0000268J0000000D01*
G03X0015018Y0008450I0000000J0000268D01*
G03X0014750Y0008718I0000268J0000000D01*
G03X0014482Y0008450I0000000J0000268D01*
G03X0014750Y0008182I0000268J0000000D01*
G03X0015018Y0008450I0000000J0000268D01*
G03X0014750Y0008718I0000268J0000000D01*
G03X0014482Y0008450I0000000J0000268D01*
G01X0015982Y0008950D02*
G03X0016250Y0008682I0000268J0000000D01*
G03X0016518Y0008950I0000000J0000268D01*
G03X0016250Y0009218I0000268J0000000D01*
G03X0015982Y0008950I0000000J0000268D01*
G01X0016732Y0018700D02*
G03X0017000Y0018432I0000268J0000000D01*
G03X0017268Y0018700I0000000J0000268D01*
G03X0017000Y0018968I0000268J0000000D01*
G03X0016732Y0018700I0000000J0000268D01*
G01X0011232Y0013000D02*
G03X0011500Y0012732I0000268J0000000D01*
G03X0011768Y0013000I0000000J0000268D01*
G03X0011500Y0013268I0000268J0000000D01*
G03X0011232Y0013000I0000000J0000268D01*
Y0001300D02*
G03X0011500Y0001032I0000268J0000000D01*
G03X0011768Y0001300I0000000J0000268D01*
G03X0011500Y0001568I0000268J0000000D01*
G03X0011232Y0001300I0000000J0000268D01*
G01X0011982D02*
G03X0012250Y0001032I0000268J0000000D01*
G03X0012518Y0001300I0000000J0000268D01*
G03X0012250Y0001568I0000268J0000000D01*
G03X0011982Y0001300I0000000J0000268D01*
G01X0013482Y0001250D02*
G03X0013750Y0000982I0000268J0000000D01*
G03X0014018Y0001250I0000000J0000268D01*
G03X0013750Y0001518I0000268J0000000D01*
G03X0013482Y0001250I0000000J0000268D01*
G01X0012732Y0001300D02*
G03X0013000Y0001032I0000268J0000000D01*
G03X0013268Y0001300I0000000J0000268D01*
G03X0013000Y0001568I0000268J0000000D01*
G03X0012732Y0001300I0000000J0000268D01*
G01X0002130Y0010120D02*
G03X0002080Y0010000I0000120J0000120D01*
G01X0003858Y0004838D02*
G03X0003978Y0004887I0000000J0000170D01*
G01X0009782Y0016726D02*
G03X0009476Y0016250I0000218J0000476D01*
G01X0003096Y0005527D02*
G03X0003453Y0005178I0000500J0000154D01*
G01X0004320Y0006250D02*
G03X0004270Y0006370I0000170J0000000D01*
Y0005180D02*
G03X0004320Y0005300I0000120J0000120D01*
G01X0020675Y0009675D02*
G03X0020281Y0009410I0000000J0000425D01*
G01X0003096Y0010027D02*
G03X0003596Y0009658I0000500J0000154D01*
G01X0006592Y0018198D02*
G03X0006768Y0018450I0000092J0000252D01*
G01X0016232Y0016000D02*
G03X0016500Y0015732I0000268J0000000D01*
G01X0017128Y0015990D02*
G03X0016895Y0016255I0000268J0000000D01*
G01X0017682Y0009700D02*
G03X0017950Y0009432I0000268J0000000D01*
G01X0018136Y0009893D02*
G03X0017950Y0009968I0000186J0000193D01*
G03X0017682Y0009700I0000000J0000268D01*
G01X0003120Y0009237D02*
G03X0003207Y0009508I0000378J0000271D01*
G01X0013150Y0007420D02*
G03X0013030Y0007370I0000000J0000170D01*
G01X0014970D02*
G03X0014850Y0007420I0000120J0000120D01*
G01X0012850Y0006780D02*
G03X0012970Y0006830I0000000J0000170D01*
G01X0012232Y0006950D02*
G03X0012500Y0006682I0000268J0000000D01*
G03X0012707Y0006780I0000000J0000268D01*
G01X0012500Y0007218D02*
G03X0012232Y0006950I0000000J0000268D01*
G01X0016468Y0018750D02*
G03X0016200Y0019018I0000268J0000000D01*
G01X0016253Y0018487D02*
G03X0016468Y0018750I0000053J0000263D01*
G01X0018920Y0009993D02*
G03X0019018Y0010200I0000170J0000207D01*
G01X0018870Y0009680D02*
G03X0018920Y0009800I0000120J0000120D01*
G01X0019018Y0010200D02*
G03X0018750Y0010468I0000268J0000000D01*
G03X0018482Y0010200I0000000J0000268D01*
G01X0018720Y0006684D02*
G03X0018770Y0006804I0000120J0000120D01*
G01X0015630Y0005730D02*
G03X0015750Y0005680I0000120J0000120D01*
G01X0017650D02*
G03X0017770Y0005730I0000000J0000170D01*
G01X0017650Y0005680D02*
G03X0017770Y0005730I0000000J0000170D01*
G01X0014530Y0006530D02*
G03X0014650Y0006480I0000120J0000120D01*
G01X0012987Y0006847D02*
G03X0013250Y0006632I0000263J0000053D01*
G01X0012707Y0007120D02*
G03X0012500Y0007218I0000207J0000170D01*
G01X0011100Y0005882D02*
G03X0011368Y0006150I0000000J0000268D01*
G01X0010861Y0006030D02*
G03X0011100Y0005883I0000239J0000120D01*
G01X0007980Y0006080D02*
G03X0008100Y0006030I0000120J0000120D01*
G01X0007482Y0006550D02*
G03X0007750Y0006282I0000268J0000000D01*
G01X0008018Y0006550D02*
G03X0007750Y0006818I0000268J0000000D01*
G03X0007482Y0006550I0000000J0000268D01*
G01X0011368Y0006150D02*
G03X0011353Y0006236I0000268J0000000D01*
G01X0007750Y0006282D02*
G03X0007776Y0006283I0000000J0000268D01*
G01X0008932Y0006500D02*
G03X0008966Y0006370I0000268J0000000D01*
G01X0009200Y0006768D02*
G03X0008932Y0006500I0000000J0000268D01*
G01X0009407Y0006670D02*
G03X0009200Y0006768I0000207J0000170D01*
G01X0011400Y0006232D02*
G03X0011668Y0006500I0000000J0000268D01*
G03X0011400Y0006768I0000268J0000000D01*
G01X0016482Y0001250D02*
G03X0016750Y0000982I0000268J0000000D01*
G03X0017018Y0001250I0000000J0000268D01*
G03X0016750Y0001518I0000268J0000000D01*
G03X0016482Y0001250I0000000J0000268D01*
G01X0010500Y0016094D02*
G03X0010844Y0015750I0000500J0000156D01*
G01X0010630Y0014380D02*
G03X0010750Y0014330I0000120J0000120D01*
G01X0011500Y0014232D02*
G03X0011768Y0014500I0000000J0000268D01*
G03X0011500Y0014768I0000268J0000000D01*
G01X0011293Y0014330D02*
G03X0011500Y0014232I0000207J0000170D01*
G01X0011992Y0013680D02*
G03X0012260Y0013412I0000268J0000000D01*
G03X0012528Y0013680I0000000J0000268D01*
G03X0012369Y0013924I0000268J0000000D01*
G01X0012365Y0015056D02*
G03X0012315Y0015176I0000169J0000000D01*
G01X0012031Y0013818D02*
G03X0011993Y0013680I0000229J0000138D01*
G01X0016674Y0015797D02*
G03X0016860Y0015722I0000186J0000193D01*
G03X0017128Y0015990I0000000J0000268D01*
G01X0016500Y0015732D02*
G03X0016674Y0015797I0000000J0000268D01*
G01X0006676Y0012500D02*
G03X0007030Y0013000I0000176J0000500D01*
G01X0011400Y0006768D02*
G03X0011193Y0006670I0000000J0000268D01*
G01X0006732Y0011524D02*
G03X0007030Y0012000I0000232J0000476D01*
G01X0021463Y0005175D02*
G03X0021069Y0004910I0000000J0000425D01*
G01X0004270Y0005180D02*
G03X0004320Y0005300I0000120J0000120D01*
G01X0002080Y0009842D02*
G03X0001758Y0009972I0000322J0000334D01*
G01X0000903Y0009658D02*
G03X0001427Y0010166I0000000J0000523D01*
G01X0001758Y0009043D02*
G03X0002130Y0009229I0000000J0000465D01*
G01X0001758Y0010957D02*
G03X0001388Y0010773I0000000J0000465D01*
G01X0021825Y0011722D02*
G03X0021463Y0011925I0000362J0000222D01*
G03X0021069Y0011660I0000000J0000425D01*
G01X0021463Y0009675D02*
G03X0021069Y0009410I0000000J0000425D01*
G01X0021463Y0007425D02*
G03X0021069Y0007160I0000000J0000425D01*
G01X0017950Y0009432D02*
G03X0017976Y0009433I0000000J0000268D01*
G01X0018482Y0010200D02*
G03X0018503Y0010097I0000268J0000000D01*
G01X0018400Y0010118D02*
G03X0018136Y0009893I0000000J0000268D01*
G01X0018503Y0010097D02*
G03X0018400Y0010118I0000103J0000247D01*
G01X0014970Y0007370D02*
G03X0014850Y0007420I0000120J0000120D01*
G01X0008016Y0006524D02*
G03X0008017Y0006550I0000266J0000026D01*
G01X0010470Y0015020D02*
G03X0010500Y0015094I0000470J0000230D01*
G01X0007030Y0012000D02*
G03X0006676Y0012500I0000530J0000000D01*
G54D40*
G01X0004028Y0018858D02*
X0003945D01*
Y0018942D01*
X0004028D01*
Y0018858D01*
X0004313Y0019275D02*
X0004355Y0019358D01*
X0004605D01*
X0004647Y0019275D01*
Y0019192D01*
X0004605Y0019108D01*
X0004355D01*
X0004313Y0019025D01*
Y0018942D01*
X0004355Y0018858D01*
X0004605D01*
X0004647Y0018942D01*
X0004932Y0018858D02*
X0004848D01*
Y0018942D01*
X0004932D01*
Y0018858D01*
X0005217D02*
X0005508D01*
Y0019358D01*
X0023140Y0012888D02*
X0023062Y0012935D01*
X0022984Y0012958D01*
X0022829D01*
X0022751Y0012935D01*
X0022673Y0012888D01*
Y0012841D01*
X0022751Y0012795D01*
X0022829Y0012771D01*
X0022984D01*
X0023062Y0012795D01*
X0023140Y0012841D01*
Y0012888D01*
X0022906Y0013141D02*
Y0013328D01*
Y0013675D02*
Y0013535D01*
X0022984Y0013511D01*
X0023062D01*
X0023140Y0013535D01*
Y0013675D01*
X0023062Y0013698D01*
X0022984D01*
X0022673Y0013605D01*
X0023140Y0013881D02*
Y0014068D01*
X0022829Y0013881D01*
X0022751D01*
X0022673Y0013905D01*
Y0014045D01*
X0022751Y0014068D01*
X0023062Y0014438D02*
X0023140Y0014391D01*
Y0014298D01*
X0023062Y0014251D01*
X0022984D01*
X0022829Y0014345D01*
X0022673Y0014251D01*
Y0014438D01*
X0022906Y0014621D02*
Y0014808D01*
X0023062Y0015178D02*
X0023140Y0015131D01*
Y0015038D01*
X0023062Y0014991D01*
X0022984D01*
X0022829Y0015085D01*
X0022673Y0014991D01*
Y0015178D01*
X0023140Y0015361D02*
Y0015548D01*
X0022829Y0015361D01*
X0022751D01*
X0022673Y0015385D01*
Y0015525D01*
X0022751Y0015548D01*
X0002742Y0005992D02*
Y0008858D01*
X0002250Y0009350D01*
Y0010000D01*
X0002742Y0010492D01*
Y0005008D02*
X0003858D01*
X0004150Y0005300D01*
Y0006250D01*
X0002950Y0007450D01*
Y0009350D01*
X0002792Y0009508D01*
X0002742D01*
X0006500Y0018450D02*
X0006850Y0018800D01*
X0015450D01*
X0016500Y0017750D01*
Y0016000D01*
X0014750Y0006950D02*
X0014900D01*
X0015800Y0006050D01*
X0017550D01*
X0018400Y0006900D01*
Y0009850D01*
X0017950Y0009700D02*
X0018200Y0009450D01*
Y0006950D01*
X0017500Y0006250D01*
X0015850D01*
X0014850Y0007250D01*
X0013150D01*
X0012850Y0006950D01*
X0012500D01*
X0018750Y0010200D02*
Y0009800D01*
X0018600Y0009650D01*
Y0006804D01*
X0017650Y0005850D01*
X0015750D01*
X0014950Y0006650D01*
X0014650D01*
X0014250Y0007050D01*
X0013400D01*
X0013250Y0006900D01*
X0011100Y0006150D02*
X0011050Y0006200D01*
X0008100D01*
X0007750Y0006550D01*
X0009200Y0006500D02*
X0011400D01*
X0010000Y0015250D02*
X0010750Y0014500D01*
X0011500D01*
X0012260Y0013680D02*
X0012200Y0013740D01*
X0012196Y0015056D01*
X0011001Y0016246D01*
X0011000Y0016250D01*
X0016860Y0015990D02*
Y0016050D01*
X0016660Y0016250D01*
Y0017840D01*
X0015500Y0019000D01*
X0006650D01*
X0006200Y0018550D01*
Y0018350D01*
X0007000Y0017550D01*
Y0014600D01*
G54D10*
X0001968Y0001968D03*
X0021653D03*
Y0017716D03*
X0001968D03*
G54D16*
X0003596Y0005878D03*
X0000903D03*
X0003596Y0010378D03*
X0000903D03*
G54D17*
X0001758Y0005008D03*
X0002742D03*
X0001758Y0005992D03*
Y0009508D03*
X0002742D03*
X0001758Y0010492D03*
G54D18*
X0002742Y0005992D03*
Y0010492D03*
G54D19*
X0008250Y0001500D03*
X0009037D03*
X0005000D03*
X0005787D03*
X0021463Y0004750D03*
X0020675D03*
X0019888D03*
X0021463Y0007000D03*
X0020675D03*
X0019888D03*
X0021463Y0009250D03*
X0020675D03*
X0019888D03*
X0021463Y0011500D03*
X0020675D03*
X0019888D03*
G54D20*
X0022250Y0004750D03*
Y0007000D03*
Y0009250D03*
Y0011500D03*
G54D21*
X0010000Y0016250D03*
Y0015250D03*
X0011000D03*
Y0016250D03*
Y0017250D03*
G54D22*
X0006500Y0011000D03*
X0010000Y0017250D03*
G54D26*
X0006500Y0012000D03*
Y0013000D03*
G54D29*
X0016606Y0007644D03*
Y0007250D03*
Y0006856D03*
X0017000Y0007644D03*
Y0006856D03*
X0017394Y0007644D03*
Y0007250D03*
Y0006856D03*
G54D30*
X0017000Y0007250D03*
G54D42*
X0019250Y0017300D03*
X0021350Y0013500D03*
X0013500Y0015600D03*
Y0014500D03*
X0017800Y0011550D03*
X0016170Y0011030D03*
X0016250Y0009550D03*
X0017750Y0018900D03*
X0015000Y0011500D03*
X0006400Y0015500D03*
X0008480Y0015470D03*
X0008470Y0014780D03*
X0011100Y0003100D03*
X0005000Y0005700D03*
X0010000D03*
X0008250D03*
X0005264Y0006535D03*
X0008000Y0011750D03*
X0021350Y0014000D03*
X0013830Y0018220D03*
X0015250Y0017000D03*
X0013530Y0017530D03*
X0018500Y0018750D03*
X0019250D03*
X0019350Y0016850D03*
X0013750Y0009350D03*
X0015000Y0010000D03*
X0011500Y0008950D03*
X0016000Y0001250D03*
X0015250D03*
X0014500D03*
X0012500Y0008450D03*
X0013250D03*
X0013750Y0012700D03*
X0003200Y0015750D03*
X0002750Y0013000D03*
X0014000Y0008450D03*
X0014750D03*
X0016250Y0008950D03*
X0017000Y0018700D03*
X0011500Y0013000D03*
X0000750D03*
X0001750D03*
X0003500D03*
X0012400Y0011600D03*
X0010035Y0010535D03*
X0011500Y0001300D03*
X0012250D03*
X0013750Y0001250D03*
X0013000Y0001300D03*
X0004750Y0007250D03*
X0006500Y0018450D03*
X0016500Y0016000D03*
X0014750Y0006950D03*
X0018400Y0009850D03*
X0017950Y0009700D03*
X0012500Y0006950D03*
X0016200Y0018750D03*
X0018750Y0010200D03*
X0013250Y0006900D03*
X0011100Y0006150D03*
X0007750Y0006550D03*
X0009200Y0006500D03*
X0011400D03*
X0013500Y0015000D03*
X0016750Y0001250D03*
X0011500Y0014500D03*
X0012260Y0013680D03*
G54D45*
X0016860Y0015990D03*
X0007000Y0014600D03*
M02*
