*
G04 Mass Parameters ***
*
G04 Image ***
*
%IND:\UTENTI\00.LAVORI IN CORSO\METALTRONICA\23-326-0\23-326-0.SST*%
%ICAS*%
%MOIN*%
%IPPOS*%
%ASAXBY*%
G74*%FSLAN2X34Y34*%
*
G04 Aperture Definitions ***
*
%AMTHERMAL48*
1,1,0.1211,0,0,*
1,0,0.0972,0,0,*
21,0,0.1212,0.0100,0,0,45.0*
21,0,0.1212,0.0100,0,0,135.0*%
%AMTHERMAL52*
1,1,0.1093,0,0,*
1,0,0.0854,0,0,*
21,0,0.1094,0.0100,0,0,45.0*
21,0,0.1094,0.0100,0,0,135.0*%
%AMTHERMAL56*
1,1,0.1172,0,0,*
1,0,0.0933,0,0,*
21,0,0.1173,0.0100,0,0,315.0*
21,0,0.1173,0.0100,0,0,45.0*%
%AMTHERMAL60*
1,1,0.1172,0,0,*
1,0,0.0933,0,0,*
21,0,0.1173,0.0100,0,0,135.0*
21,0,0.1173,0.0100,0,0,225.0*%
%ADD10C,0.1850*%
%ADD11C,0.0394*%
%ADD12R,0.0380X0.0320*%
%ADD13R,0.0886X0.0905*%
%ADD14R,0.0501X0.0404*%
%ADD15R,0.0710X0.0400*%
%ADD16O,0.0787X0.1181*%
%ADD17C,0.0669*%
%ADD18R,0.0669X0.0669*%
%ADD19C,0.0590*%
%ADD20R,0.0590X0.0590*%
%ADD21C,0.0787*%
%ADD22R,0.0787X0.0787*%
%ADD23R,0.0413X0.0236*%
%ADD24C,0.0187*%
%ADD25O,0.0650X0.0256*%
%ADD26C,0.0800*%
%ADD27R,0.1580X0.0680*%
%ADD28R,0.0550X0.0680*%
%ADD29C,0.0118*%
%ADD30R,0.0984X0.0984*%
%ADD31O,0.0394X0.0110*%
%ADD32O,0.0110X0.0394*%
%ADD33O,0.0700X0.0110*%
%ADD34R,0.0700X0.0110*%
%ADD35O,0.0110X0.0700*%
%ADD36R,0.0110X0.0700*%
%ADD37R,0.0236X0.0512*%
%ADD38C,0.0050*%
%ADD39C,0.0100*%
%ADD40C,0.0080*%
%ADD41C,0.0250*%
%ADD42C,0.0276*%
%ADD43C,0.0500*%
%ADD44C,0.0197*%
%ADD45C,0.0276*%
%ADD46C,0.2047*%
%ADD47O,0.0984X0.1378*%
%ADD48THERMAL48*%
%ADD49R,0.0866X0.0866*%
%ADD50O,0.0984X0.1378*%
%ADD51C,0.0866*%
%ADD52THERMAL52*%
%ADD53C,0.0708*%
%ADD54R,0.0708X0.0708*%
%ADD55C,0.1027*%
%ADD56THERMAL56*%
%ADD57R,0.0984X0.0984*%
%ADD58C,0.0748*%
%ADD59C,0.1100*%
%ADD60THERMAL60*%
%ADD61R,0.0984X0.0984*%
%ADD62C,0.0050*%
%ADD63C,0.0394*%
%ADD64C,0.0050*%
%ADD65C,0.0748*%
%ADD66O,0.0423X0.0139*%
%ADD67O,0.0139X0.0423*%
%ADD68C,0.0060*%
%ADD69C,0.0079*%
*
G04 Plot Data ***
*
G54D38*
G01X0019050Y0004485D02*
X0018350D01*
X0019050Y0004440D02*
X0018350D01*
X0019050Y0004395D02*
X0018350D01*
X0019050Y0004350D02*
X0018350D01*
X0019050Y0004305D02*
X0018350D01*
X0019050Y0004260D02*
X0018350D01*
X0019050Y0004215D02*
X0018350D01*
X0019050Y0004170D02*
X0018350D01*
X0019050Y0004125D02*
X0018350D01*
X0019050Y0004080D02*
X0018350D01*
X0019050Y0004035D02*
X0018350D01*
X0019050Y0003990D02*
X0018350D01*
X0019050Y0003945D02*
X0018350D01*
X0019050Y0003900D02*
X0018350D01*
X0019050Y0003855D02*
X0018350D01*
X0019050Y0003810D02*
X0018350D01*
X0019050Y0003765D02*
X0018350D01*
X0019050Y0003720D02*
X0018350D01*
X0019050Y0003675D02*
X0018350D01*
X0019050Y0003630D02*
X0018350D01*
X0019050Y0003585D02*
X0018350D01*
X0019050Y0003540D02*
X0018350D01*
X0019050Y0003495D02*
X0018350D01*
X0019050Y0003450D02*
X0018350D01*
X0019050Y0003405D02*
X0018350D01*
X0019050Y0003360D02*
X0018350D01*
X0019050Y0003315D02*
X0018350D01*
X0019050Y0003270D02*
X0018350D01*
X0019050Y0003225D02*
X0018350D01*
X0019050Y0003180D02*
X0018350D01*
X0019050Y0003135D02*
X0018350D01*
X0019050Y0003090D02*
X0018350D01*
X0019050Y0003045D02*
X0018350D01*
X0019050Y0003000D02*
X0018350D01*
X0019050Y0002955D02*
X0018350D01*
X0019050Y0002910D02*
X0018350D01*
X0019050Y0002865D02*
X0018350D01*
X0019050Y0002820D02*
X0018350D01*
X0019050Y0002775D02*
X0018350D01*
X0019050Y0002730D02*
X0018350D01*
X0019050Y0002685D02*
X0018350D01*
X0019050Y0002640D02*
X0018350D01*
X0019050Y0002595D02*
X0018350D01*
X0019050Y0002550D02*
X0018350D01*
X0019050Y0002505D02*
X0018350D01*
X0019050Y0002460D02*
X0018350D01*
X0019050Y0002415D02*
X0018350D01*
X0019050Y0002370D02*
X0018350D01*
X0019050Y0002325D02*
X0018350D01*
X0019050Y0002280D02*
X0018350D01*
X0019050Y0002235D02*
X0018350D01*
X0019050Y0002190D02*
X0018350D01*
X0019050Y0002145D02*
X0018350D01*
X0019050Y0002100D02*
X0018350D01*
X0019050Y0002055D02*
X0018350D01*
X0019050Y0002010D02*
X0018350D01*
X0019050Y0001965D02*
X0018350D01*
X0019050Y0001920D02*
X0018350D01*
X0019050Y0001875D02*
X0018350D01*
X0019050Y0001830D02*
X0018350D01*
X0019050Y0001785D02*
X0018350D01*
X0019050Y0001740D02*
X0018350D01*
X0019050Y0001700D02*
X0018350D01*
X0019050Y0005400D02*
Y0001700D01*
Y0005400D02*
X0018350D01*
Y0001700D01*
X0019020Y0005400D02*
Y0001700D01*
X0018975Y0005400D02*
Y0001700D01*
X0018930Y0005400D02*
Y0001700D01*
X0018885Y0005400D02*
Y0001700D01*
X0018840Y0005400D02*
Y0001700D01*
X0018795Y0005400D02*
Y0001700D01*
X0018750Y0005400D02*
Y0001700D01*
X0018705Y0005400D02*
Y0001700D01*
X0018660Y0005400D02*
Y0001700D01*
X0018615Y0005400D02*
Y0001700D01*
X0018570Y0005400D02*
Y0001700D01*
X0018525Y0005400D02*
Y0001700D01*
X0018480Y0005400D02*
Y0001700D01*
X0018435Y0005400D02*
Y0001700D01*
X0018390Y0005400D02*
Y0001700D01*
X0019050Y0005385D02*
X0018350D01*
X0019050Y0005340D02*
X0018350D01*
X0019050Y0005295D02*
X0018350D01*
X0019050Y0005250D02*
X0018350D01*
X0019050Y0005205D02*
X0018350D01*
X0019050Y0005160D02*
X0018350D01*
X0019050Y0005115D02*
X0018350D01*
X0019050Y0005070D02*
X0018350D01*
X0019050Y0005025D02*
X0018350D01*
X0019050Y0004980D02*
X0018350D01*
X0019050Y0004935D02*
X0018350D01*
X0019050Y0004890D02*
X0018350D01*
X0019050Y0004845D02*
X0018350D01*
X0019050Y0004800D02*
X0018350D01*
X0019050Y0004755D02*
X0018350D01*
X0019050Y0004710D02*
X0018350D01*
X0019050Y0004665D02*
X0018350D01*
X0019050Y0004620D02*
X0018350D01*
X0019050Y0004575D02*
X0018350D01*
X0019050Y0004530D02*
X0018350D01*
X0018200Y0004485D02*
X0017500D01*
X0018200Y0004440D02*
X0017500D01*
X0018200Y0004395D02*
X0017500D01*
X0018200Y0004350D02*
X0017500D01*
X0018200Y0004305D02*
X0017500D01*
X0018200Y0004260D02*
X0017500D01*
X0018200Y0004215D02*
X0017500D01*
X0018200Y0004170D02*
X0017500D01*
X0018200Y0004125D02*
X0017500D01*
X0018200Y0004080D02*
X0017500D01*
X0018200Y0004035D02*
X0017500D01*
X0018200Y0003990D02*
X0017500D01*
X0018200Y0003945D02*
X0017500D01*
X0018200Y0003900D02*
X0017500D01*
X0018200Y0003855D02*
X0017500D01*
X0018200Y0003810D02*
X0017500D01*
X0018200Y0003765D02*
X0017500D01*
X0018200Y0003720D02*
X0017500D01*
X0018200Y0003675D02*
X0017500D01*
X0018200Y0003630D02*
X0017500D01*
X0018200Y0003585D02*
X0017500D01*
X0018200Y0003540D02*
X0017500D01*
X0018200Y0003495D02*
X0017500D01*
X0018200Y0003450D02*
X0017500D01*
X0018200Y0003405D02*
X0017500D01*
X0018200Y0003360D02*
X0017500D01*
X0018200Y0003315D02*
X0017500D01*
X0018200Y0003270D02*
X0017500D01*
X0018200Y0003225D02*
X0017500D01*
X0018200Y0003180D02*
X0017500D01*
X0018200Y0003135D02*
X0017500D01*
X0018200Y0003090D02*
X0017500D01*
X0018200Y0003045D02*
X0017500D01*
X0018200Y0003000D02*
X0017500D01*
X0018200Y0002955D02*
X0017500D01*
X0018200Y0002910D02*
X0017500D01*
X0018200Y0002865D02*
X0017500D01*
X0018200Y0002820D02*
X0017500D01*
X0018200Y0002775D02*
X0017500D01*
X0018200Y0002730D02*
X0017500D01*
X0018200Y0002685D02*
X0017500D01*
X0018200Y0002640D02*
X0017500D01*
X0018200Y0002595D02*
X0017500D01*
X0018200Y0002550D02*
X0017500D01*
X0018200Y0002505D02*
X0017500D01*
X0018200Y0002460D02*
X0017500D01*
X0018200Y0002415D02*
X0017500D01*
X0018200Y0002370D02*
X0017500D01*
X0018200Y0002325D02*
X0017500D01*
X0018200Y0002280D02*
X0017500D01*
X0018200Y0002235D02*
X0017500D01*
X0018200Y0002190D02*
X0017500D01*
X0018200Y0002145D02*
X0017500D01*
X0018200Y0002100D02*
X0017500D01*
X0018200Y0002055D02*
X0017500D01*
X0018200Y0002010D02*
X0017500D01*
X0018200Y0001965D02*
X0017500D01*
X0018200Y0001920D02*
X0017500D01*
X0018200Y0001875D02*
X0017500D01*
X0018200Y0001830D02*
X0017500D01*
X0018200Y0001785D02*
X0017500D01*
X0018200Y0001740D02*
X0017500D01*
X0017650Y0001700D02*
X0017500D01*
Y0005400D02*
Y0001700D01*
X0018200Y0005400D02*
X0017500D01*
X0018200D02*
Y0001700D01*
X0017650D01*
X0018170Y0005400D02*
Y0001700D01*
X0018125Y0005400D02*
Y0001700D01*
X0018080Y0005400D02*
Y0001700D01*
X0018035Y0005400D02*
Y0001700D01*
X0017990Y0005400D02*
Y0001700D01*
X0017945Y0005400D02*
Y0001700D01*
X0017900Y0005400D02*
Y0001700D01*
X0017855Y0005400D02*
Y0001700D01*
X0017810Y0005400D02*
Y0001700D01*
X0017765Y0005400D02*
Y0001700D01*
X0017720Y0005400D02*
Y0001700D01*
X0017675Y0005400D02*
Y0001700D01*
X0017630Y0005400D02*
Y0001700D01*
X0017585Y0005400D02*
Y0001700D01*
X0017540Y0005400D02*
Y0001700D01*
X0018200Y0005385D02*
X0017500D01*
X0018200Y0005340D02*
X0017500D01*
X0018200Y0005295D02*
X0017500D01*
X0018200Y0005250D02*
X0017500D01*
X0018200Y0005205D02*
X0017500D01*
X0018200Y0005160D02*
X0017500D01*
X0018200Y0005115D02*
X0017500D01*
X0018200Y0005070D02*
X0017500D01*
X0018200Y0005025D02*
X0017500D01*
X0018200Y0004980D02*
X0017500D01*
X0018200Y0004935D02*
X0017500D01*
X0018200Y0004890D02*
X0017500D01*
X0018200Y0004845D02*
X0017500D01*
X0018200Y0004800D02*
X0017500D01*
X0018200Y0004755D02*
X0017500D01*
X0018200Y0004710D02*
X0017500D01*
X0018200Y0004665D02*
X0017500D01*
X0018200Y0004620D02*
X0017500D01*
X0018200Y0004575D02*
X0017500D01*
X0018200Y0004530D02*
X0017500D01*
X0006897Y0007130D02*
X0009127D01*
Y0009350D01*
X0006897D01*
Y0007130D01*
G54D39*
G01X0003992Y0000308D02*
X0003825D01*
X0003908D02*
Y0000808D01*
X0003825Y0000725D01*
X0007242Y0000358D02*
X0007075D01*
X0007158D02*
Y0000858D01*
X0007075Y0000775D01*
X0003742Y0006958D02*
X0003575D01*
X0003658D02*
Y0007458D01*
X0003575Y0007375D01*
X0003742Y0011458D02*
X0003575D01*
X0003658D02*
Y0011958D01*
X0003575Y0011875D01*
G54D40*
G01X0023140Y0015454D02*
X0023062Y0015408D01*
X0022984Y0015384D01*
X0022829D01*
X0022751Y0015408D01*
X0022673Y0015454D01*
Y0015501D01*
X0022751Y0015548D01*
X0022829Y0015571D01*
X0022984D01*
X0023062Y0015548D01*
X0023140Y0015501D01*
Y0015454D01*
X0022906Y0015201D02*
Y0015014D01*
Y0014668D02*
Y0014808D01*
X0022984Y0014831D01*
X0023062D01*
X0023140Y0014808D01*
Y0014668D01*
X0023062Y0014644D01*
X0022984D01*
X0022673Y0014738D01*
X0023140Y0014461D02*
Y0014274D01*
X0022829Y0014461D01*
X0022751D01*
X0022673Y0014438D01*
Y0014298D01*
X0022751Y0014274D01*
X0023062Y0013904D02*
X0023140Y0013951D01*
Y0014044D01*
X0023062Y0014091D01*
X0022984D01*
X0022829Y0013998D01*
X0022673Y0014091D01*
Y0013904D01*
X0022906Y0013721D02*
Y0013534D01*
X0023062Y0013164D02*
X0023140Y0013211D01*
Y0013304D01*
X0023062Y0013351D01*
X0022984D01*
X0022829Y0013258D01*
X0022673Y0013351D01*
Y0013164D01*
X0023140Y0012981D02*
Y0012794D01*
X0022829Y0012981D01*
X0022751D01*
X0022673Y0012958D01*
Y0012818D01*
X0022751Y0012794D01*
X0015587Y0011967D02*
X0015480D01*
X0015533D02*
Y0012367D01*
X0015480Y0012300D01*
G54D68*
G01X0018673Y0001563D02*
Y0001377D01*
X0018873Y0001563D02*
X0018473D01*
X0018873Y0001377D02*
X0018473D01*
X0018807Y0001233D02*
X0018873Y0001210D01*
Y0001070D01*
X0018807Y0001047D01*
X0018540D01*
X0018473Y0001070D01*
Y0001210D01*
X0018540Y0001233D01*
Y0000903D02*
X0018473Y0000880D01*
Y0000740D01*
X0018540Y0000717D01*
X0018607D01*
X0018673Y0000740D01*
Y0000880D01*
X0018740Y0000903D01*
X0018807D01*
X0018873Y0000880D01*
Y0000740D01*
X0018807Y0000717D01*
X0018023Y0001500D02*
X0017823D01*
X0017623Y0001593D02*
X0017823Y0001523D01*
Y0001477D01*
X0017623Y0001407D01*
X0017690Y0001263D02*
X0017623Y0001240D01*
Y0001100D01*
X0017690Y0001077D01*
X0017757D01*
X0017823Y0001100D01*
Y0001240D01*
X0017890Y0001263D01*
X0017957D01*
X0018023Y0001240D01*
Y0001100D01*
X0017957Y0001077D01*
X0017690Y0000933D02*
X0017623Y0000910D01*
Y0000770D01*
X0017690Y0000747D01*
X0017757D01*
X0017823Y0000770D01*
Y0000910D01*
X0017890Y0000933D01*
X0017957D01*
X0018023Y0000910D01*
Y0000770D01*
X0017957Y0000747D01*
X0017890Y0000603D02*
Y0000417D01*
X0018023Y0000603D02*
X0017823D01*
X0017623Y0000533D01*
Y0000487D01*
X0017823Y0000417D01*
X0018023D01*
X0015550Y0006740D02*
Y0006553D01*
X0015283Y0006647D01*
Y0006693D01*
X0015683D01*
X0015283Y0006410D02*
X0015617D01*
X0015683Y0006387D01*
Y0006247D01*
X0015617Y0006223D01*
X0015283D01*
X0011168Y0008143D02*
X0011102Y0008167D01*
X0011035D01*
X0010968Y0008143D01*
Y0008003D01*
X0011035Y0007980D01*
X0011102D01*
X0011168Y0008003D01*
Y0008143D01*
X0011235Y0008167D01*
X0011302D01*
X0011368Y0008143D01*
Y0008003D01*
X0011302Y0007980D01*
X0011235D01*
X0011168Y0008003D01*
X0011302Y0007837D02*
X0011368Y0007813D01*
Y0007673D01*
X0011302Y0007650D01*
X0011035D01*
X0010968Y0007673D01*
Y0007813D01*
X0011035Y0007837D01*
X0008418Y0011433D02*
X0008352Y0011387D01*
X0008285Y0011363D01*
X0008152D01*
X0008085Y0011387D01*
X0008018Y0011433D01*
Y0011480D01*
X0008085Y0011527D01*
X0008152Y0011550D01*
X0008285D01*
X0008352Y0011527D01*
X0008418Y0011480D01*
Y0011433D01*
Y0011220D02*
Y0011127D01*
Y0011173D02*
X0008018D01*
X0008085Y0011127D01*
X0008352Y0010937D02*
X0008418Y0010913D01*
Y0010773D01*
X0008352Y0010750D01*
X0008085D01*
X0008018Y0010773D01*
Y0010913D01*
X0008085Y0010937D01*
X0013277Y0006961D02*
X0013210Y0006984D01*
X0013144D01*
X0013077Y0006961D01*
Y0006821D01*
X0013144Y0006798D01*
X0013210D01*
X0013277Y0006821D01*
Y0006961D01*
X0013344Y0006984D01*
X0013410D01*
X0013477Y0006961D01*
Y0006821D01*
X0013410Y0006798D01*
X0013344D01*
X0013277Y0006821D01*
Y0006584D02*
X0013477Y0006654D01*
X0013277Y0006468D02*
Y0006608D01*
X0013210Y0006654D01*
X0013144D01*
X0013077Y0006608D01*
Y0006468D01*
X0013477D01*
X0019011Y0006967D02*
X0019078Y0006990D01*
Y0007130D01*
X0019011Y0007154D01*
X0018878D01*
X0018811Y0007107D01*
Y0006967D01*
X0018678D01*
Y0007154D01*
X0018944Y0006660D02*
X0019011D01*
X0019078Y0006684D01*
Y0006777D01*
X0019011Y0006800D01*
X0018678D01*
Y0006824D02*
Y0006730D01*
X0023342Y0006713D02*
X0023249D01*
X0023295D02*
Y0007113D01*
X0023249Y0007046D01*
X0011676Y0001273D02*
Y0001180D01*
Y0001227D02*
X0011276D01*
X0011342Y0001180D01*
X0011676Y0000990D02*
Y0000827D01*
X0011276D01*
X0011676Y0000520D02*
X0011276D01*
X0011676Y0000497D02*
Y0000637D01*
X0011542Y0000683D01*
X0011409D01*
X0011276Y0000637D01*
Y0000497D01*
X0005118Y0006677D02*
X0004718Y0006817D01*
Y0006630D01*
X0005052Y0006487D02*
X0005118Y0006463D01*
Y0006323D01*
X0005052Y0006300D01*
X0004785D01*
X0004718Y0006323D01*
Y0006463D01*
X0004785Y0006487D01*
X0017044Y0019518D02*
Y0019331D01*
X0016777Y0019424D01*
Y0019471D01*
X0017177D01*
Y0019188D02*
Y0019094D01*
Y0019141D02*
X0016777D01*
X0016844Y0019094D01*
X0017110Y0018904D02*
X0017177Y0018881D01*
Y0018741D01*
X0017110Y0018718D01*
X0016844D01*
X0016777Y0018741D01*
Y0018881D01*
X0016844Y0018904D01*
X0002939Y0012945D02*
Y0012759D01*
X0002673Y0012945D01*
X0002606D01*
X0002539Y0012922D01*
Y0012782D01*
X0002606Y0012759D01*
X0002873Y0012615D02*
X0002939Y0012592D01*
Y0012452D01*
X0002873Y0012429D01*
X0002606D01*
X0002539Y0012452D01*
Y0012592D01*
X0002606Y0012615D01*
X0016026Y0001157D02*
Y0001297D01*
X0016092Y0001320D01*
X0016159D01*
X0016226Y0001297D01*
Y0001157D01*
X0016159Y0001133D01*
X0016092D01*
X0015826Y0001227D01*
X0016226Y0000990D02*
Y0000827D01*
X0015826D01*
X0016226Y0000520D02*
X0015826D01*
X0016226Y0000497D02*
Y0000637D01*
X0016092Y0000683D01*
X0015959D01*
X0015826Y0000637D01*
Y0000497D01*
X0003939Y0008182D02*
Y0008322D01*
X0004006Y0008345D01*
X0004073D01*
X0004139Y0008322D01*
Y0008182D01*
X0004073Y0008159D01*
X0004006D01*
X0003739Y0008252D01*
X0004073Y0008015D02*
X0004139Y0007992D01*
Y0007852D01*
X0004073Y0007829D01*
X0003806D01*
X0003739Y0007852D01*
Y0007992D01*
X0003806Y0008015D01*
X0000933Y0007517D02*
Y0007330D01*
X0000667Y0007517D01*
X0000600D01*
X0000533Y0007493D01*
Y0007353D01*
X0000600Y0007330D01*
X0000800Y0007023D02*
X0000867D01*
X0000933Y0007047D01*
Y0007140D01*
X0000867Y0007163D01*
X0000533D01*
Y0007187D02*
Y0007093D01*
X0014227Y0006844D02*
X0013827Y0006984D01*
Y0006798D01*
X0014027Y0006584D02*
X0014227Y0006654D01*
X0014027Y0006468D02*
Y0006608D01*
X0013960Y0006654D01*
X0013894D01*
X0013827Y0006608D01*
Y0006468D01*
X0014227D01*
X0008123Y0018940D02*
X0008189Y0018986D01*
Y0019080D01*
X0008123Y0019126D01*
X0008056D01*
X0007923Y0019033D01*
X0007789Y0019126D01*
Y0018940D01*
X0007989Y0018726D02*
X0008189Y0018796D01*
X0007989Y0018610D02*
Y0018750D01*
X0007923Y0018796D01*
X0007856D01*
X0007789Y0018750D01*
Y0018610D01*
X0008189D01*
X0016110Y0005081D02*
X0016177Y0005104D01*
Y0005244D01*
X0016110Y0005268D01*
X0015977D01*
X0015910Y0005221D01*
Y0005081D01*
X0015777D01*
Y0005268D01*
X0016177Y0004938D02*
Y0004844D01*
Y0004891D02*
X0015777D01*
X0015844Y0004844D01*
X0015977Y0004584D02*
X0016177Y0004654D01*
X0015977Y0004468D02*
Y0004608D01*
X0015910Y0004654D01*
X0015844D01*
X0015777Y0004608D01*
Y0004468D01*
X0016177D01*
X0011677Y0005151D02*
X0011610Y0005104D01*
X0011544Y0005081D01*
X0011410D01*
X0011344Y0005104D01*
X0011277Y0005151D01*
Y0005198D01*
X0011344Y0005244D01*
X0011410Y0005268D01*
X0011544D01*
X0011610Y0005244D01*
X0011677Y0005198D01*
Y0005151D01*
Y0004938D02*
Y0004844D01*
Y0004891D02*
X0011277D01*
X0011344Y0004844D01*
X0011477Y0004584D02*
X0011677Y0004654D01*
X0011477Y0004468D02*
Y0004608D01*
X0011410Y0004654D01*
X0011344D01*
X0011277Y0004608D01*
Y0004468D01*
X0011677D01*
X0007725Y0002837D02*
Y0002697D01*
X0007658Y0002674D01*
X0007592D01*
X0007525Y0002697D01*
Y0002837D01*
X0007592Y0002861D01*
X0007658D01*
X0007925Y0002767D01*
X0007792Y0002367D02*
X0007858D01*
X0007925Y0002391D01*
Y0002484D01*
X0007858Y0002507D01*
X0007525D01*
Y0002531D02*
Y0002437D01*
X0006556Y0019145D02*
Y0018959D01*
X0006289Y0019052D01*
Y0019099D01*
X0006689D01*
X0006489Y0018745D02*
X0006689Y0018815D01*
X0006489Y0018629D02*
Y0018769D01*
X0006423Y0018815D01*
X0006356D01*
X0006289Y0018769D01*
Y0018629D01*
X0006689D01*
X0014777Y0006821D02*
Y0006961D01*
X0014844Y0006984D01*
X0014910D01*
X0014977Y0006961D01*
Y0006821D01*
X0014910Y0006798D01*
X0014844D01*
X0014577Y0006891D01*
X0014777Y0006584D02*
X0014977Y0006654D01*
X0014777Y0006468D02*
Y0006608D01*
X0014710Y0006654D01*
X0014644D01*
X0014577Y0006608D01*
Y0006468D01*
X0014977D01*
X0019011Y0011467D02*
X0019078Y0011514D01*
Y0011607D01*
X0019011Y0011654D01*
X0018944D01*
X0018811Y0011560D01*
X0018678Y0011654D01*
Y0011467D01*
X0018944Y0011160D02*
X0019011D01*
X0019078Y0011184D01*
Y0011277D01*
X0019011Y0011300D01*
X0018678D01*
Y0011324D02*
Y0011230D01*
X0023342Y0011213D02*
X0023249D01*
X0023295D02*
Y0011613D01*
X0023249Y0011546D01*
X0009533Y0012977D02*
X0009133Y0013117D01*
Y0012930D01*
X0009400Y0012623D02*
X0009467D01*
X0009533Y0012647D01*
Y0012740D01*
X0009467Y0012763D01*
X0009133D01*
Y0012787D02*
Y0012693D01*
X0013823Y0017489D02*
X0013889Y0017535D01*
Y0017629D01*
X0013823Y0017675D01*
X0013756D01*
X0013623Y0017582D01*
X0013489Y0017675D01*
Y0017489D01*
X0013889Y0017345D02*
Y0017159D01*
X0013623Y0017345D01*
X0013556D01*
X0013489Y0017322D01*
Y0017182D01*
X0013556Y0017159D01*
X0013823Y0017015D02*
X0013889Y0016992D01*
Y0016852D01*
X0013823Y0016829D01*
X0013556D01*
X0013489Y0016852D01*
Y0016992D01*
X0013556Y0017015D01*
X0015342Y0001320D02*
Y0001133D01*
X0015076Y0001227D01*
Y0001273D01*
X0015476D01*
Y0000990D02*
Y0000827D01*
X0015076D01*
X0015476Y0000520D02*
X0015076D01*
X0015476Y0000497D02*
Y0000637D01*
X0015342Y0000683D01*
X0015209D01*
X0015076Y0000637D01*
Y0000497D01*
X0020498Y0012829D02*
X0020565Y0012852D01*
Y0012992D01*
X0020498Y0013016D01*
X0020365D01*
X0020298Y0012969D01*
Y0012829D01*
X0020165D01*
Y0013016D01*
Y0012686D02*
X0020498D01*
X0020565Y0012662D01*
Y0012522D01*
X0020498Y0012499D01*
X0020165D01*
X0014477Y0017664D02*
Y0017478D01*
X0014210Y0017664D01*
X0014144D01*
X0014077Y0017641D01*
Y0017501D01*
X0014144Y0017478D01*
X0014477Y0017334D02*
Y0017148D01*
X0014210Y0017334D01*
X0014144D01*
X0014077Y0017311D01*
Y0017171D01*
X0014144Y0017148D01*
X0014410Y0017004D02*
X0014477Y0016981D01*
Y0016841D01*
X0014410Y0016818D01*
X0014144D01*
X0014077Y0016841D01*
Y0016981D01*
X0014144Y0017004D01*
X0005464Y0005297D02*
Y0005437D01*
X0005530Y0005461D01*
X0005597D01*
X0005664Y0005437D01*
Y0005297D01*
X0005597Y0005274D01*
X0005530D01*
X0005264Y0005367D01*
Y0005131D02*
X0005597D01*
X0005664Y0005107D01*
Y0004967D01*
X0005597Y0004944D01*
X0005264D01*
X0015360Y0005081D02*
X0015427Y0005128D01*
Y0005221D01*
X0015360Y0005268D01*
X0015294D01*
X0015160Y0005174D01*
X0015027Y0005268D01*
Y0005081D01*
X0015427Y0004938D02*
Y0004844D01*
Y0004891D02*
X0015027D01*
X0015094Y0004844D01*
X0015227Y0004584D02*
X0015427Y0004654D01*
X0015227Y0004468D02*
Y0004608D01*
X0015160Y0004654D01*
X0015094D01*
X0015027Y0004608D01*
Y0004468D01*
X0015427D01*
X0012409Y0001133D02*
X0012476Y0001180D01*
Y0001273D01*
X0012409Y0001320D01*
X0012342D01*
X0012209Y0001227D01*
X0012076Y0001320D01*
Y0001133D01*
X0012476Y0000990D02*
Y0000827D01*
X0012076D01*
X0012476Y0000520D02*
X0012076D01*
X0012476Y0000497D02*
Y0000637D01*
X0012342Y0000683D01*
X0012209D01*
X0012076Y0000637D01*
Y0000497D01*
X0000883Y0015170D02*
Y0015077D01*
Y0015123D02*
X0000483D01*
X0000550Y0015077D01*
X0000883Y0014887D02*
Y0014723D01*
X0000483D01*
X0004425Y0002837D02*
X0004358Y0002861D01*
X0004292D01*
X0004225Y0002837D01*
Y0002697D01*
X0004292Y0002674D01*
X0004358D01*
X0004425Y0002697D01*
Y0002837D01*
X0004492Y0002861D01*
X0004558D01*
X0004625Y0002837D01*
Y0002697D01*
X0004558Y0002674D01*
X0004492D01*
X0004425Y0002697D01*
X0004492Y0002367D02*
X0004558D01*
X0004625Y0002391D01*
Y0002484D01*
X0004558Y0002507D01*
X0004225D01*
Y0002531D02*
Y0002437D01*
X0006633Y0009513D02*
Y0009420D01*
Y0009467D02*
X0006233D01*
X0006300Y0009420D01*
X0005063Y0009317D02*
Y0009130D01*
X0004796Y0009317D01*
X0004729D01*
X0004663Y0009294D01*
Y0009154D01*
X0004729Y0009130D01*
X0004663Y0008987D02*
X0004996D01*
X0005063Y0008964D01*
Y0008824D01*
X0004996Y0008800D01*
X0004663D01*
X0007427Y0019134D02*
Y0018948D01*
X0007160Y0019134D01*
X0007094D01*
X0007027Y0019111D01*
Y0018971D01*
X0007094Y0018948D01*
X0007227Y0018734D02*
X0007427Y0018804D01*
X0007227Y0018618D02*
Y0018758D01*
X0007160Y0018804D01*
X0007094D01*
X0007027Y0018758D01*
Y0018618D01*
X0007427D01*
X0015305Y0017020D02*
Y0016927D01*
Y0016974D02*
X0014905D01*
X0014972Y0016927D01*
X0015305Y0016737D02*
Y0016550D01*
X0015039Y0016737D01*
X0014972D01*
X0014905Y0016714D01*
Y0016574D01*
X0014972Y0016550D01*
X0015239Y0016407D02*
X0015305Y0016384D01*
Y0016244D01*
X0015239Y0016220D01*
X0014972D01*
X0014905Y0016244D01*
Y0016384D01*
X0014972Y0016407D01*
X0012477Y0005268D02*
Y0005081D01*
X0012210Y0005268D01*
X0012144D01*
X0012077Y0005244D01*
Y0005104D01*
X0012144Y0005081D01*
X0012477Y0004938D02*
Y0004844D01*
Y0004891D02*
X0012077D01*
X0012144Y0004844D01*
X0012277Y0004584D02*
X0012477Y0004654D01*
X0012277Y0004468D02*
Y0004608D01*
X0012210Y0004654D01*
X0012144D01*
X0012077Y0004608D01*
Y0004468D01*
X0012477D01*
X0007427Y0005514D02*
Y0005328D01*
X0007160Y0005514D01*
X0007094D01*
X0007027Y0005491D01*
Y0005351D01*
X0007094Y0005328D01*
X0007427Y0005184D02*
Y0004998D01*
X0007160Y0005184D01*
X0007094D01*
X0007027Y0005161D01*
Y0005021D01*
X0007094Y0004998D01*
X0007227Y0004784D02*
X0007427Y0004854D01*
X0007227Y0004668D02*
Y0004808D01*
X0007160Y0004854D01*
X0007094D01*
X0007027Y0004808D01*
Y0004668D01*
X0007427D01*
X0011689Y0008892D02*
X0011755Y0008939D01*
Y0009032D01*
X0011689Y0009079D01*
X0011622D01*
X0011489Y0008985D01*
X0011355Y0009079D01*
Y0008892D01*
Y0008749D02*
X0011689D01*
X0011755Y0008725D01*
Y0008585D01*
X0011689Y0008562D01*
X0011355D01*
X0008110Y0010007D02*
Y0009820D01*
X0007844Y0010007D01*
X0007777D01*
X0007710Y0009983D01*
Y0009843D01*
X0007777Y0009820D01*
X0008110Y0009677D02*
Y0009513D01*
X0007710D01*
X0016239Y0011109D02*
X0016173Y0011062D01*
X0016106Y0011039D01*
X0015973D01*
X0015906Y0011062D01*
X0015839Y0011109D01*
Y0011155D01*
X0015906Y0011202D01*
X0015973Y0011225D01*
X0016106D01*
X0016173Y0011202D01*
X0016239Y0011155D01*
Y0011109D01*
Y0010895D02*
Y0010709D01*
X0015973Y0010895D01*
X0015906D01*
X0015839Y0010872D01*
Y0010732D01*
X0015906Y0010709D01*
X0016173Y0010565D02*
X0016239Y0010542D01*
Y0010402D01*
X0016173Y0010379D01*
X0015906D01*
X0015839Y0010402D01*
Y0010542D01*
X0015906Y0010565D01*
X0014676Y0001270D02*
Y0001083D01*
X0014409Y0001270D01*
X0014342D01*
X0014276Y0001247D01*
Y0001107D01*
X0014342Y0001083D01*
X0014676Y0000940D02*
Y0000777D01*
X0014276D01*
X0014676Y0000470D02*
X0014276D01*
X0014676Y0000447D02*
Y0000587D01*
X0014542Y0000633D01*
X0014409D01*
X0014276Y0000587D01*
Y0000447D01*
X0000873Y0012759D02*
X0000939Y0012782D01*
Y0012922D01*
X0000873Y0012945D01*
X0000739D01*
X0000673Y0012899D01*
Y0012759D01*
X0000539D01*
Y0012945D01*
X0000873Y0012615D02*
X0000939Y0012592D01*
Y0012452D01*
X0000873Y0012429D01*
X0000606D01*
X0000539Y0012452D01*
Y0012592D01*
X0000606Y0012615D01*
X0019628Y0003590D02*
Y0003730D01*
X0019694Y0003754D01*
X0019761D01*
X0019828Y0003730D01*
Y0003590D01*
X0019761Y0003567D01*
X0019694D01*
X0019428Y0003660D01*
X0019694Y0003260D02*
X0019761D01*
X0019828Y0003284D01*
Y0003377D01*
X0019761Y0003400D01*
X0019428D01*
Y0003424D02*
Y0003330D01*
X0023342Y0004463D02*
X0023249D01*
X0023295D02*
Y0004863D01*
X0023249Y0004796D01*
X0013989Y0014005D02*
Y0013865D01*
X0013923Y0013842D01*
X0013856D01*
X0013789Y0013865D01*
Y0014005D01*
X0013856Y0014029D01*
X0013923D01*
X0014189Y0013935D01*
Y0013699D02*
Y0013605D01*
Y0013652D02*
X0013789D01*
X0013856Y0013605D01*
X0014123Y0013415D02*
X0014189Y0013392D01*
Y0013252D01*
X0014123Y0013229D01*
X0013856D01*
X0013789Y0013252D01*
Y0013392D01*
X0013856Y0013415D01*
X0014627Y0005221D02*
Y0005128D01*
Y0005174D02*
X0014227D01*
X0014294Y0005128D01*
X0014627Y0004938D02*
Y0004844D01*
Y0004891D02*
X0014227D01*
X0014294Y0004844D01*
X0014427Y0004584D02*
X0014627Y0004654D01*
X0014427Y0004468D02*
Y0004608D01*
X0014360Y0004654D01*
X0014294D01*
X0014227Y0004608D01*
Y0004468D01*
X0014627D01*
X0018944Y0009404D02*
Y0009217D01*
X0018678Y0009310D01*
Y0009357D01*
X0019078D01*
X0018944Y0008910D02*
X0019011D01*
X0019078Y0008934D01*
Y0009027D01*
X0019011Y0009050D01*
X0018678D01*
Y0009074D02*
Y0008980D01*
X0023342Y0008963D02*
X0023249D01*
X0023295D02*
Y0009363D01*
X0023249Y0009296D01*
X0003639Y0012949D02*
Y0012855D01*
Y0012902D02*
X0003239D01*
X0003306Y0012855D01*
X0003439Y0012595D02*
X0003639Y0012665D01*
X0003439Y0012479D02*
Y0012619D01*
X0003373Y0012665D01*
X0003306D01*
X0003239Y0012619D01*
Y0012479D01*
X0003639D01*
X0021489Y0014155D02*
X0021423Y0014179D01*
X0021356D01*
X0021289Y0014155D01*
Y0014015D01*
X0021356Y0013992D01*
X0021423D01*
X0021489Y0014015D01*
Y0014155D01*
X0021556Y0014179D01*
X0021623D01*
X0021689Y0014155D01*
Y0014015D01*
X0021623Y0013992D01*
X0021556D01*
X0021489Y0014015D01*
X0021689Y0013849D02*
Y0013755D01*
Y0013802D02*
X0021289D01*
X0021356Y0013755D01*
X0021623Y0013565D02*
X0021689Y0013542D01*
Y0013402D01*
X0021623Y0013379D01*
X0021356D01*
X0021289Y0013402D01*
Y0013542D01*
X0021356Y0013565D01*
X0013689Y0016405D02*
Y0016265D01*
X0013623Y0016242D01*
X0013556D01*
X0013489Y0016265D01*
Y0016405D01*
X0013556Y0016429D01*
X0013623D01*
X0013889Y0016335D01*
Y0016099D02*
Y0016005D01*
Y0016052D02*
X0013489D01*
X0013556Y0016005D01*
X0013689Y0015745D02*
X0013889Y0015815D01*
X0013689Y0015629D02*
Y0015769D01*
X0013623Y0015815D01*
X0013556D01*
X0013489Y0015769D01*
Y0015629D01*
X0013889D01*
X0013926Y0001180D02*
X0013526Y0001320D01*
Y0001133D01*
X0013926Y0000990D02*
Y0000827D01*
X0013526D01*
X0013926Y0000520D02*
X0013526D01*
X0013926Y0000497D02*
Y0000637D01*
X0013792Y0000683D01*
X0013659D01*
X0013526Y0000637D01*
Y0000497D01*
X0001906Y0012945D02*
Y0012759D01*
X0001639Y0012852D01*
Y0012899D01*
X0002039D01*
X0001973Y0012615D02*
X0002039Y0012592D01*
Y0012452D01*
X0001973Y0012429D01*
X0001706D01*
X0001639Y0012452D01*
Y0012592D01*
X0001706Y0012615D01*
X0019489Y0019389D02*
X0019089Y0019529D01*
Y0019342D01*
X0019489Y0019199D02*
Y0019105D01*
Y0019152D02*
X0019089D01*
X0019156Y0019105D01*
X0019423Y0018915D02*
X0019489Y0018892D01*
Y0018752D01*
X0019423Y0018729D01*
X0019156D01*
X0019089Y0018752D01*
Y0018892D01*
X0019156Y0018915D01*
X0012977Y0013994D02*
X0012910Y0014018D01*
X0012844D01*
X0012777Y0013994D01*
Y0013854D01*
X0012844Y0013831D01*
X0012910D01*
X0012977Y0013854D01*
Y0013994D01*
X0013044Y0014018D01*
X0013110D01*
X0013177Y0013994D01*
Y0013854D01*
X0013110Y0013831D01*
X0013044D01*
X0012977Y0013854D01*
X0013177Y0013688D02*
Y0013594D01*
Y0013641D02*
X0012777D01*
X0012844Y0013594D01*
X0012977Y0013334D02*
X0013177Y0013404D01*
X0012977Y0013218D02*
Y0013358D01*
X0012910Y0013404D01*
X0012844D01*
X0012777Y0013358D01*
Y0013218D01*
X0013177D01*
X0000833Y0012020D02*
Y0011927D01*
Y0011973D02*
X0000433D01*
X0000500Y0011927D01*
X0000700Y0011573D02*
X0000767D01*
X0000833Y0011597D01*
Y0011690D01*
X0000767Y0011713D01*
X0000433D01*
Y0011737D02*
Y0011643D01*
X0008964Y0005371D02*
X0008564Y0005511D01*
Y0005324D01*
Y0005181D02*
X0008897D01*
X0008964Y0005157D01*
Y0005017D01*
X0008897Y0004994D01*
X0008564D01*
X0013677Y0005104D02*
Y0005244D01*
X0013744Y0005268D01*
X0013810D01*
X0013877Y0005244D01*
Y0005104D01*
X0013810Y0005081D01*
X0013744D01*
X0013477Y0005174D01*
X0013877Y0004938D02*
Y0004844D01*
Y0004891D02*
X0013477D01*
X0013544Y0004844D01*
X0013677Y0004584D02*
X0013877Y0004654D01*
X0013677Y0004468D02*
Y0004608D01*
X0013610Y0004654D01*
X0013544D01*
X0013477Y0004608D01*
Y0004468D01*
X0013877D01*
X0008189Y0016999D02*
Y0016905D01*
Y0016952D02*
X0007789D01*
X0007856Y0016905D01*
X0008123Y0016715D02*
X0008189Y0016692D01*
Y0016552D01*
X0008123Y0016529D01*
X0007856D01*
X0007789Y0016552D01*
Y0016692D01*
X0007856Y0016715D01*
X0018489Y0019365D02*
Y0019505D01*
X0018556Y0019529D01*
X0018623D01*
X0018689Y0019505D01*
Y0019365D01*
X0018623Y0019342D01*
X0018556D01*
X0018289Y0019435D01*
X0018689Y0019199D02*
Y0019105D01*
Y0019152D02*
X0018289D01*
X0018356Y0019105D01*
X0018623Y0018915D02*
X0018689Y0018892D01*
Y0018752D01*
X0018623Y0018729D01*
X0018356D01*
X0018289Y0018752D01*
Y0018892D01*
X0018356Y0018915D01*
X0008160Y0006628D02*
X0008227Y0006674D01*
Y0006768D01*
X0008160Y0006814D01*
X0008094D01*
X0007960Y0006721D01*
X0007827Y0006814D01*
Y0006628D01*
X0008227Y0006484D02*
Y0006298D01*
X0007960Y0006484D01*
X0007894D01*
X0007827Y0006461D01*
Y0006321D01*
X0007894Y0006298D01*
X0008027Y0006084D02*
X0008227Y0006154D01*
X0008027Y0005968D02*
Y0006108D01*
X0007960Y0006154D01*
X0007894D01*
X0007827Y0006108D01*
Y0005968D01*
X0008227D01*
X0015177Y0010018D02*
Y0009831D01*
X0014910Y0010018D01*
X0014844D01*
X0014777Y0009994D01*
Y0009854D01*
X0014844Y0009831D01*
X0015177Y0009688D02*
Y0009594D01*
Y0009641D02*
X0014777D01*
X0014844Y0009594D01*
X0015110Y0009404D02*
X0015177Y0009381D01*
Y0009241D01*
X0015110Y0009218D01*
X0014844D01*
X0014777Y0009241D01*
Y0009381D01*
X0014844Y0009404D01*
X0013109Y0001133D02*
X0013176Y0001157D01*
Y0001297D01*
X0013109Y0001320D01*
X0012976D01*
X0012909Y0001273D01*
Y0001133D01*
X0012776D01*
Y0001320D01*
X0013176Y0000990D02*
Y0000827D01*
X0012776D01*
X0013176Y0000520D02*
X0012776D01*
X0013176Y0000497D02*
Y0000637D01*
X0013042Y0000683D01*
X0012909D01*
X0012776Y0000637D01*
Y0000497D01*
X0007989Y0011722D02*
Y0011582D01*
X0007923Y0011559D01*
X0007856D01*
X0007789Y0011582D01*
Y0011722D01*
X0007856Y0011745D01*
X0007923D01*
X0008189Y0011652D01*
X0008123Y0011415D02*
X0008189Y0011392D01*
Y0011252D01*
X0008123Y0011229D01*
X0007856D01*
X0007789Y0011252D01*
Y0011392D01*
X0007856Y0011415D01*
X0017610Y0009431D02*
X0017677Y0009478D01*
Y0009571D01*
X0017610Y0009618D01*
X0017544D01*
X0017410Y0009524D01*
X0017277Y0009618D01*
Y0009431D01*
X0017677Y0009288D02*
Y0009194D01*
Y0009241D02*
X0017277D01*
X0017344Y0009194D01*
X0017610Y0009004D02*
X0017677Y0008981D01*
Y0008841D01*
X0017610Y0008818D01*
X0017344D01*
X0017277Y0008841D01*
Y0008981D01*
X0017344Y0009004D01*
X0018344Y0011011D02*
Y0010824D01*
X0018077Y0010918D01*
Y0010964D01*
X0018477D01*
Y0010681D02*
Y0010518D01*
X0018077D01*
X0013094Y0005268D02*
Y0005081D01*
X0012827Y0005174D01*
Y0005221D01*
X0013227D01*
Y0004938D02*
Y0004844D01*
Y0004891D02*
X0012827D01*
X0012894Y0004844D01*
X0013027Y0004584D02*
X0013227Y0004654D01*
X0013027Y0004468D02*
Y0004608D01*
X0012960Y0004654D01*
X0012894D01*
X0012827Y0004608D01*
Y0004468D01*
X0013227D01*
X0010726Y0001297D02*
Y0001157D01*
X0010659Y0001133D01*
X0010592D01*
X0010526Y0001157D01*
Y0001297D01*
X0010592Y0001320D01*
X0010659D01*
X0010926Y0001227D01*
Y0000990D02*
Y0000827D01*
X0010526D01*
X0010926Y0000520D02*
X0010526D01*
X0010926Y0000497D02*
Y0000637D01*
X0010792Y0000683D01*
X0010659D01*
X0010526Y0000637D01*
Y0000497D01*
X0008110Y0013598D02*
X0008177Y0013621D01*
Y0013761D01*
X0008110Y0013784D01*
X0007977D01*
X0007910Y0013738D01*
Y0013598D01*
X0007777D01*
Y0013784D01*
X0007977Y0013384D02*
X0008177Y0013454D01*
X0007977Y0013268D02*
Y0013408D01*
X0007910Y0013454D01*
X0007844D01*
X0007777Y0013408D01*
Y0013268D01*
X0008177D01*
X0017854Y0019347D02*
X0017921Y0019370D01*
Y0019510D01*
X0017854Y0019534D01*
X0017721D01*
X0017654Y0019487D01*
Y0019347D01*
X0017521D01*
Y0019534D01*
X0017921Y0019204D02*
Y0019110D01*
Y0019157D02*
X0017521D01*
X0017588Y0019110D01*
X0017854Y0018920D02*
X0017921Y0018897D01*
Y0018757D01*
X0017854Y0018734D01*
X0017588D01*
X0017521Y0018757D01*
Y0018897D01*
X0017588Y0018920D01*
X0016776Y0001297D02*
X0016709Y0001320D01*
X0016642D01*
X0016576Y0001297D01*
Y0001157D01*
X0016642Y0001133D01*
X0016709D01*
X0016776Y0001157D01*
Y0001297D01*
X0016842Y0001320D01*
X0016909D01*
X0016976Y0001297D01*
Y0001157D01*
X0016909Y0001133D01*
X0016842D01*
X0016776Y0001157D01*
X0016976Y0000990D02*
Y0000827D01*
X0016576D01*
X0016976Y0000520D02*
X0016576D01*
X0016976Y0000497D02*
Y0000637D01*
X0016842Y0000683D01*
X0016709D01*
X0016576Y0000637D01*
Y0000497D01*
X0012527Y0006961D02*
Y0006821D01*
X0012460Y0006798D01*
X0012394D01*
X0012327Y0006821D01*
Y0006961D01*
X0012394Y0006984D01*
X0012460D01*
X0012727Y0006891D01*
X0012527Y0006584D02*
X0012727Y0006654D01*
X0012527Y0006468D02*
Y0006608D01*
X0012460Y0006654D01*
X0012394D01*
X0012327Y0006608D01*
Y0006468D01*
X0012727D01*
X0015048Y0012400D02*
Y0012306D01*
Y0012353D02*
X0014648D01*
X0014715Y0012306D01*
X0015048Y0012116D02*
Y0012023D01*
Y0012070D02*
X0014648D01*
X0014715Y0012023D01*
X0014981Y0011833D02*
X0015048Y0011810D01*
Y0011670D01*
X0014981Y0011646D01*
X0014715D01*
X0014648Y0011670D01*
Y0011810D01*
X0014715Y0011833D01*
X0016410Y0019024D02*
X0016477Y0019071D01*
Y0019164D01*
X0016410Y0019211D01*
X0016344D01*
X0016210Y0019118D01*
X0016077Y0019211D01*
Y0019024D01*
X0016477Y0018881D02*
Y0018718D01*
X0016077D01*
X0005638Y0017454D02*
Y0017361D01*
Y0017408D02*
X0005238D01*
X0005304Y0017361D01*
X0005238Y0017171D02*
X0005571D01*
X0005638Y0017148D01*
Y0017008D01*
X0005571Y0016984D01*
X0005238D01*
X0010927Y0005268D02*
Y0005174D01*
Y0005221D02*
X0010527D01*
X0010594Y0005174D01*
X0010927Y0004984D02*
Y0004798D01*
X0010660Y0004984D01*
X0010594D01*
X0010527Y0004961D01*
Y0004821D01*
X0010594Y0004798D01*
X0010727Y0004584D02*
X0010927Y0004654D01*
X0010727Y0004468D02*
Y0004608D01*
X0010660Y0004654D01*
X0010594D01*
X0010527Y0004608D01*
Y0004468D01*
X0010927D01*
X0013839Y0018809D02*
X0013773Y0018762D01*
X0013706Y0018739D01*
X0013573D01*
X0013506Y0018762D01*
X0013439Y0018809D01*
Y0018855D01*
X0013506Y0018902D01*
X0013573Y0018925D01*
X0013706D01*
X0013773Y0018902D01*
X0013839Y0018855D01*
Y0018809D01*
Y0018595D02*
Y0018409D01*
X0013573Y0018595D01*
X0013506D01*
X0013439Y0018572D01*
Y0018432D01*
X0013506Y0018409D01*
X0013639Y0018195D02*
X0013839Y0018265D01*
X0013639Y0018079D02*
Y0018219D01*
X0013573Y0018265D01*
X0013506D01*
X0013439Y0018219D01*
Y0018079D01*
X0013839D01*
X0016977Y0005128D02*
X0016577Y0005268D01*
Y0005081D01*
X0016977Y0004938D02*
Y0004844D01*
Y0004891D02*
X0016577D01*
X0016644Y0004844D01*
X0016777Y0004584D02*
X0016977Y0004654D01*
X0016777Y0004468D02*
Y0004608D01*
X0016710Y0004654D01*
X0016644D01*
X0016577Y0004608D01*
Y0004468D01*
X0016977D01*
X0003910Y0016798D02*
X0003977Y0016844D01*
Y0016938D01*
X0003910Y0016984D01*
X0003844D01*
X0003710Y0016891D01*
X0003577Y0016984D01*
Y0016798D01*
X0003910Y0016654D02*
X0003977Y0016631D01*
Y0016491D01*
X0003910Y0016468D01*
X0003644D01*
X0003577Y0016491D01*
Y0016631D01*
X0003644Y0016654D01*
X0009488Y0008681D02*
X0009370D01*
Y0006319D01*
X0009488D01*
X0009097Y0011950D02*
Y0011825D01*
X0009043Y0011950D02*
Y0011825D01*
X0008989Y0011950D02*
Y0011825D01*
X0008935Y0011950D02*
Y0011825D01*
X0008881Y0011950D02*
Y0011825D01*
X0008827Y0011950D02*
Y0011825D01*
X0008773Y0011950D02*
Y0011825D01*
X0008719Y0011950D02*
Y0011825D01*
X0008665Y0011950D02*
Y0011825D01*
X0009875Y0011919D02*
X0008625D01*
X0009691Y0011950D02*
Y0011825D01*
X0009637Y0011950D02*
Y0011825D01*
X0009583Y0011950D02*
Y0011825D01*
X0009529Y0011950D02*
Y0011825D01*
X0009475Y0011950D02*
Y0011825D01*
X0009421Y0011950D02*
Y0011825D01*
X0009367Y0011950D02*
Y0011825D01*
X0009313Y0011950D02*
Y0011825D01*
X0009259Y0011950D02*
Y0011825D01*
X0009205Y0011950D02*
Y0011825D01*
X0009151Y0011950D02*
Y0011825D01*
X0009875Y0011865D02*
X0008625D01*
Y0011950D02*
Y0011825D01*
X0009875D02*
X0008625D01*
X0009875Y0011950D02*
Y0011825D01*
Y0011950D02*
X0008625D01*
X0009853D02*
Y0011825D01*
X0009799Y0011950D02*
Y0011825D01*
X0009745Y0011950D02*
Y0011825D01*
X0009762Y0012681D02*
X0009880D01*
Y0010319D01*
X0009762D01*
X0008708Y0012868D02*
X0008611D01*
X0008704Y0012898D02*
Y0012857D01*
X0008650Y0012926D02*
Y0012829D01*
X0008680Y0012922D02*
X0008638D01*
X0008738Y0012681D02*
X0008620D01*
Y0010319D01*
X0008738D01*
X0012925Y0008325D02*
Y0007175D01*
X0013570D01*
Y0008325D01*
X0012925D01*
X0011250Y0002950D02*
X0011750D01*
X0011850Y0002850D01*
Y0001550D01*
X0011150D01*
Y0002850D01*
X0011250Y0002950D01*
X0011150Y0002350D02*
X0011850D01*
X0005847Y0007950D02*
Y0007825D01*
X0005793Y0007950D02*
Y0007825D01*
X0005739Y0007950D02*
Y0007825D01*
X0005685Y0007950D02*
Y0007825D01*
X0005631Y0007950D02*
Y0007825D01*
X0005577Y0007950D02*
Y0007825D01*
X0005523Y0007950D02*
Y0007825D01*
X0005469Y0007950D02*
Y0007825D01*
X0005415Y0007950D02*
Y0007825D01*
X0006625Y0007919D02*
X0005375D01*
X0006441Y0007950D02*
Y0007825D01*
X0006387Y0007950D02*
Y0007825D01*
X0006333Y0007950D02*
Y0007825D01*
X0006279Y0007950D02*
Y0007825D01*
X0006225Y0007950D02*
Y0007825D01*
X0006171Y0007950D02*
Y0007825D01*
X0006117Y0007950D02*
Y0007825D01*
X0006063Y0007950D02*
Y0007825D01*
X0006009Y0007950D02*
Y0007825D01*
X0005955Y0007950D02*
Y0007825D01*
X0005901Y0007950D02*
Y0007825D01*
X0006625Y0007865D02*
X0005375D01*
Y0007950D02*
Y0007825D01*
X0006625D02*
X0005375D01*
X0006625Y0007950D02*
Y0007825D01*
Y0007950D02*
X0005375D01*
X0006603D02*
Y0007825D01*
X0006549Y0007950D02*
Y0007825D01*
X0006495Y0007950D02*
Y0007825D01*
X0006512Y0008681D02*
X0006630D01*
Y0006319D01*
X0006512D01*
X0005458Y0008868D02*
X0005361D01*
X0005454Y0008898D02*
Y0008857D01*
X0005400Y0008926D02*
Y0008829D01*
X0005430Y0008922D02*
X0005388D01*
X0005488Y0008681D02*
X0005370D01*
Y0006319D01*
X0005488D01*
X0016675Y0018575D02*
Y0017425D01*
X0017320D01*
Y0018575D01*
X0016675D01*
X0003075Y0013175D02*
Y0014325D01*
X0002430D01*
Y0013175D01*
X0003075D01*
X0016228Y0008022D02*
X0016092D01*
X0016230Y0008095D02*
Y0008025D01*
X0016176Y0008136D02*
Y0007983D01*
X0016122Y0008128D02*
Y0007992D01*
X0016195Y0008130D02*
X0016125D01*
X0016236Y0008076D02*
X0016083D01*
X0015900Y0006650D02*
Y0006150D01*
X0018100D01*
Y0008350D01*
X0016100D01*
X0015900Y0008150D01*
Y0006650D01*
X0015750Y0002950D02*
X0016250D01*
X0016350Y0002850D01*
Y0001550D01*
X0015650D01*
Y0002850D01*
X0015750Y0002950D01*
X0015650Y0002350D02*
X0016350D01*
X0005075Y0007425D02*
Y0008575D01*
X0004430D01*
Y0007425D01*
X0005075D01*
X0001081Y0006441D02*
X0000545D01*
Y0005063D02*
Y0004827D01*
X0001081D01*
X0003419D02*
X0003955D01*
Y0005063D01*
Y0006441D01*
X0003419Y0005063D02*
X0003955D01*
X0003116Y0007468D02*
X0001384D01*
Y0007000D01*
Y0006423D01*
X0001321D01*
Y0005561D01*
X0002195D01*
Y0006423D01*
X0001726D01*
Y0006533D01*
X0002774D01*
Y0006423D01*
X0002305D01*
Y0005561D01*
X0002663D01*
Y0005439D01*
X0002305D01*
Y0004577D01*
X0003179D01*
Y0006423D01*
X0003116D01*
Y0007000D01*
Y0007468D01*
X0003419Y0006441D02*
X0003955D01*
Y0006677D01*
X0003419D01*
Y0004323D01*
X0001081D01*
Y0006677D01*
X0000545D01*
Y0006441D01*
Y0005063D01*
X0001081D01*
X0001692Y0005074D02*
X0001633Y0005133D01*
Y0004883D01*
X0001883D01*
X0001824Y0004942D01*
Y0005074D01*
X0001692D01*
Y0004942D01*
X0001824D01*
X0001633Y0005133D02*
X0001883D01*
X0001824Y0005074D01*
X0001692Y0006058D02*
X0001633Y0006117D01*
X0001883D01*
X0001824Y0006058D01*
X0001692D01*
Y0005926D01*
X0001633Y0005867D01*
X0001883D01*
X0001824Y0005926D01*
X0001692D01*
X0001883Y0004883D02*
Y0005133D01*
Y0005867D02*
Y0006117D01*
X0001824Y0006058D02*
Y0005926D01*
X0001633Y0005867D02*
Y0006117D01*
X0003179Y0005561D02*
X0002900D01*
Y0005439D01*
X0002663D01*
Y0005561D02*
X0002900D01*
X0002867Y0004883D02*
Y0005133D01*
X0002617D01*
X0002676Y0005074D01*
Y0004942D01*
X0002617Y0004883D01*
X0002867D01*
X0002808Y0004942D01*
Y0005074D01*
X0002676D01*
X0002808Y0004942D02*
X0002676D01*
X0002867Y0005133D02*
X0002808Y0005074D01*
X0002676Y0006058D02*
X0002617Y0006117D01*
X0002867D01*
X0002808Y0006058D01*
X0002676D01*
Y0005926D01*
X0002617Y0005867D01*
X0002867D01*
X0002808Y0005926D01*
X0002676D01*
X0002867Y0005867D02*
Y0006117D01*
X0002808Y0006058D02*
Y0005926D01*
X0002617Y0004883D02*
Y0005133D01*
Y0005867D02*
Y0006117D01*
X0003179Y0005439D02*
X0002900D01*
X0003274Y0007724D02*
Y0007575D01*
X0001226D01*
Y0007724D01*
X0001305Y0007803D02*
X0003200Y0007800D01*
X0003419Y0006677D02*
X0003274D01*
Y0007000D01*
Y0007575D01*
X0001384Y0007000D02*
X0001226D01*
Y0007575D01*
X0001633Y0004883D02*
X0001692Y0004942D01*
X0003116Y0006423D02*
X0002774D01*
X0001726D02*
X0001384D01*
X0001321Y0004577D02*
X0002195D01*
Y0005439D01*
X0001321D01*
Y0004577D01*
X0001081Y0006677D02*
X0001226D01*
Y0007000D01*
X0003116D02*
X0003274D01*
X0013675Y0008325D02*
Y0007175D01*
X0014320D01*
Y0008325D01*
X0013675D01*
X0008325Y0017175D02*
Y0018325D01*
X0007680D01*
Y0017175D01*
X0008325D01*
X0015675Y0004325D02*
Y0003175D01*
X0016320D01*
Y0004325D01*
X0015675D01*
X0011175D02*
Y0003175D01*
X0011820D01*
Y0004325D01*
X0011175D01*
X0006825Y0017175D02*
Y0018325D01*
X0006180D01*
Y0017175D01*
X0006825D01*
X0014425Y0008325D02*
Y0007175D01*
X0015070D01*
Y0008325D01*
X0014425D01*
X0011750Y0018844D02*
Y0013655D01*
X0011986Y0013419D01*
Y0019081D01*
X0011750Y0018844D01*
X0009250D01*
X0009014Y0019081D01*
X0011986D01*
X0008758Y0015364D02*
Y0017136D01*
Y0019258D01*
X0012242D01*
Y0018411D01*
Y0018155D02*
Y0016378D01*
Y0016122D02*
Y0014344D01*
Y0014088D02*
Y0013242D01*
X0008758D01*
Y0015364D01*
X0009014D01*
Y0013419D01*
X0009250Y0013655D01*
X0011750D01*
X0009250Y0018844D02*
Y0017136D01*
X0009014D01*
Y0019081D01*
X0009250Y0013655D02*
Y0015364D01*
X0009014D01*
Y0013419D02*
X0011986D01*
X0008758Y0017136D02*
X0009014D01*
X0011047Y0016297D02*
X0011126Y0016376D01*
X0010874D01*
X0010953Y0016297D01*
X0011047D01*
Y0016203D01*
X0011126Y0016124D01*
Y0016376D01*
X0011047Y0016203D02*
X0010953D01*
X0010874Y0016124D01*
Y0016376D01*
X0011126Y0016124D02*
X0010874D01*
X0010953Y0016297D02*
Y0016203D01*
X0010047Y0017297D02*
X0010126Y0017376D01*
X0009874D01*
X0009953Y0017297D01*
X0010047D01*
Y0017203D01*
X0010126Y0017124D01*
Y0017376D01*
X0010047Y0017203D02*
X0009953D01*
X0009874Y0017124D01*
Y0017376D01*
X0010126Y0017124D02*
X0009874D01*
X0009953Y0017297D02*
Y0017203D01*
X0010047Y0016297D02*
X0010126Y0016376D01*
X0009874D01*
X0009953Y0016297D01*
X0010047D01*
Y0016203D01*
X0010126Y0016124D01*
Y0016376D01*
X0010047Y0016203D02*
X0009953D01*
X0009874Y0016124D01*
Y0016376D01*
X0010126Y0016124D02*
X0009874D01*
X0009953Y0016297D02*
Y0016203D01*
X0010047Y0015297D02*
X0010126Y0015376D01*
X0009874D01*
X0009953Y0015297D01*
X0010047D01*
Y0015203D01*
X0010126Y0015124D01*
Y0015376D01*
X0010047Y0015203D02*
X0009953D01*
X0009874Y0015124D01*
Y0015376D01*
X0010126Y0015124D02*
X0009874D01*
X0009953Y0015297D02*
Y0015203D01*
X0011047Y0015297D02*
X0011126Y0015376D01*
X0010874D01*
X0010953Y0015297D01*
X0011047D01*
Y0015203D01*
X0011126Y0015124D01*
Y0015376D01*
X0011047Y0015203D02*
X0010953D01*
X0010874Y0015124D01*
Y0015376D01*
X0011126Y0015124D02*
X0010874D01*
X0010953Y0015297D02*
Y0015203D01*
X0011047Y0017297D02*
X0011126Y0017376D01*
X0010874D01*
X0010953Y0017297D01*
X0011047D01*
Y0017203D01*
X0011126Y0017124D01*
Y0017376D01*
X0011047Y0017203D02*
X0010953D01*
X0010874Y0017124D01*
Y0017376D01*
X0011126Y0017124D02*
X0010874D01*
X0010953Y0017297D02*
Y0017203D01*
X0013325Y0016675D02*
Y0017825D01*
X0012680D01*
Y0016675D01*
X0013325D01*
X0015000Y0002950D02*
X0015500D01*
X0015600Y0002850D01*
Y0001550D01*
X0014900D01*
Y0002850D01*
X0015000Y0002950D01*
X0014900Y0002350D02*
X0015600D01*
X0015950Y0012750D02*
X0019000D01*
Y0016250D01*
X0015500D01*
Y0013200D01*
X0015950Y0012750D01*
X0015652Y0012794D02*
Y0012706D01*
X0015598Y0012874D02*
Y0012626D01*
X0015544Y0012902D02*
Y0012598D01*
X0015490Y0012908D02*
Y0012592D01*
X0015436Y0012894D02*
Y0012605D01*
X0015382Y0012855D02*
Y0012645D01*
X0015544Y0012902D02*
X0015456D01*
X0015624Y0012848D02*
X0015376D01*
X0015652Y0012794D02*
X0015348D01*
X0015658Y0012740D02*
X0015342D01*
X0015644Y0012686D02*
X0015355D01*
X0015605Y0012632D02*
X0015395D01*
X0013925Y0019075D02*
Y0017925D01*
X0014570D01*
Y0019075D01*
X0013925D01*
X0006204Y0004270D02*
X0006076D01*
X0006163Y0004368D02*
Y0004234D01*
X0006109Y0004365D02*
Y0004237D01*
X0006207Y0004324D02*
X0006073D01*
X0006249Y0004671D02*
X0006209Y0004711D01*
X0004674D01*
Y0003292D01*
X0006326D01*
Y0004590D01*
X0006249Y0004671D01*
X0004713Y0004472D02*
X0006326D01*
X0014925Y0004325D02*
Y0003175D01*
X0015570D01*
Y0004325D01*
X0014925D01*
X0012000Y0002950D02*
X0012500D01*
X0012600Y0002850D01*
Y0001550D01*
X0011900D01*
Y0002850D01*
X0012000Y0002950D01*
X0011900Y0002350D02*
X0012600D01*
X0001390Y0015492D02*
X0001370D01*
Y0015472D01*
Y0014527D01*
Y0014508D01*
X0001390D01*
X0002610D02*
X0002630D01*
Y0014527D01*
Y0015472D01*
Y0015492D01*
X0002610D01*
Y0014508D02*
X0001390D01*
Y0015492D02*
X0002610D01*
X0001390Y0014882D02*
Y0014724D01*
X0002610Y0015118D02*
Y0015276D01*
X0006925Y0018325D02*
Y0017175D01*
X0007570D01*
Y0018325D01*
X0006925D01*
X0014700Y0019300D02*
X0015800D01*
Y0017200D01*
X0014700D01*
Y0019300D01*
X0011925Y0004325D02*
Y0003175D01*
X0012570D01*
Y0004325D01*
X0011925D01*
X0006925Y0006825D02*
Y0005675D01*
X0007570D01*
Y0006825D01*
X0006925D01*
X0012850Y0012790D02*
X0010150D01*
Y0009210D01*
X0012850D01*
Y0012790D01*
X0007999Y0007270D02*
Y0007284D01*
X0007998D01*
X0007547Y0007395D02*
X0007541Y0007384D01*
X0007131Y0007795D02*
X0007143Y0007801D01*
X0007118Y0007850D01*
X0007111Y0007867D01*
X0007104Y0007884D01*
X0007097Y0007901D01*
X0007090Y0007918D01*
X0007084Y0007935D01*
X0007078Y0007953D01*
X0007073Y0007971D01*
X0007068Y0007989D01*
X0007063Y0008007D01*
X0007058Y0008025D01*
X0007054Y0008043D01*
X0007044Y0008098D01*
X0007041Y0008117D01*
X0007038Y0008136D01*
X0007036Y0008155D01*
X0007032Y0008251D01*
X0007033Y0008304D01*
X0007035Y0008338D01*
X0007037Y0008356D01*
X0007039Y0008373D01*
X0007057Y0008473D01*
X0007061Y0008489D01*
X0007065Y0008506D01*
X0007085Y0008570D01*
X0007091Y0008585D01*
X0007097Y0008601D01*
X0007103Y0008616D01*
X0007123Y0008662D01*
X0007111Y0008667D01*
X0007104Y0008652D01*
X0007091Y0008621D01*
X0007084Y0008606D01*
X0007079Y0008590D01*
X0007073Y0008574D01*
X0007053Y0008509D01*
X0007048Y0008493D01*
X0007044Y0008476D01*
X0007041Y0008459D01*
X0007037Y0008442D01*
X0007031Y0008409D01*
X0007028Y0008391D01*
X0007026Y0008374D01*
X0007024Y0008357D01*
X0007022Y0008339D01*
X0007020Y0008304D01*
X0007019Y0008251D01*
X0007023Y0008154D01*
X0007025Y0008134D01*
X0007028Y0008115D01*
X0007031Y0008096D01*
X0007050Y0008003D01*
X0007055Y0007985D01*
X0007060Y0007967D01*
X0007066Y0007949D01*
X0007072Y0007931D01*
X0007092Y0007879D01*
X0007099Y0007862D01*
X0007107Y0007845D01*
X0007131Y0007795D01*
X0007999Y0009232D02*
Y0009219D01*
X0008096Y0009214D01*
X0008134Y0009210D01*
X0008152Y0009207D01*
X0008208Y0009197D01*
X0008226Y0009192D01*
X0008244Y0009188D01*
X0008280Y0009178D01*
X0008298Y0009172D01*
X0008315Y0009166D01*
X0008350Y0009154D01*
X0008367Y0009147D01*
X0008401Y0009132D01*
X0008450Y0009108D01*
X0008456Y0009120D01*
X0008406Y0009144D01*
X0008389Y0009152D01*
X0008372Y0009159D01*
X0008319Y0009179D01*
X0008302Y0009185D01*
X0008284Y0009190D01*
X0008266Y0009196D01*
X0008247Y0009200D01*
X0008154Y0009220D01*
X0008135Y0009223D01*
X0008097Y0009227D01*
X0007999Y0009232D01*
X0008868Y0008708D02*
X0008856Y0008702D01*
X0008967Y0008251D02*
X0008980D01*
X0008895Y0007267D02*
X0007435D01*
Y0007287D01*
X0008900Y0007288D01*
X0008963Y0007356D02*
Y0008816D01*
X0008984D01*
Y0007356D01*
X0008895Y0007267D02*
Y0007271D01*
X0008980Y0007355D02*
Y0007864D01*
X0008824D01*
Y0007851D01*
X0008967D01*
Y0007350D01*
X0008901Y0007284D02*
X0008414D01*
Y0007430D01*
X0008830Y0007855D02*
X0008818Y0007861D01*
X0008401Y0007438D02*
Y0007271D01*
X0008895D01*
X0007595Y0009075D02*
X0007615D01*
Y0009236D01*
X0007377D01*
X0007015Y0008880D01*
Y0008654D01*
X0007191D01*
X0007205Y0008681D01*
X0007217Y0008702D01*
X0007254Y0008762D01*
X0007268Y0008781D01*
X0007312Y0008837D01*
X0007327Y0008855D01*
X0007343Y0008872D01*
X0007360Y0008889D01*
X0007377Y0008905D01*
X0007394Y0008921D01*
X0007412Y0008937D01*
X0007448Y0008967D01*
X0007467Y0008981D01*
X0007546Y0009033D01*
X0007567Y0009044D01*
X0007588Y0009056D01*
X0007609Y0009066D01*
X0007600Y0009084D01*
X0007557Y0009062D01*
X0007536Y0009050D01*
X0007455Y0008997D01*
X0007436Y0008983D01*
X0007345Y0008903D01*
X0007328Y0008886D01*
X0007312Y0008868D01*
X0007296Y0008850D01*
X0007281Y0008831D01*
X0007266Y0008812D01*
X0007224Y0008753D01*
X0007211Y0008733D01*
X0007199Y0008712D01*
X0007187Y0008691D01*
X0007179Y0008675D01*
X0007035D01*
Y0008871D01*
X0007385Y0009215D01*
X0007595D01*
Y0009075D01*
X0007035Y0008871D02*
Y0007687D01*
X0007015D01*
Y0008880D01*
X0007385Y0009215D02*
X0008564D01*
Y0009236D01*
X0007377D01*
X0007473Y0007716D02*
X0007464Y0007725D01*
X0007244Y0007505D01*
X0007254Y0007496D01*
X0007473Y0007716D01*
X0008754Y0009007D02*
X0008982Y0008816D01*
X0008780Y0008614D01*
X0008773Y0008629D01*
X0008519Y0008946D02*
X0008530Y0008938D01*
X0008784Y0008636D02*
X0008963Y0008815D01*
X0008746Y0008997D01*
X0008563Y0009215D01*
X0008384Y0009036D01*
X0008528Y0008947D02*
X0008521Y0008937D01*
X0008362Y0009032D02*
X0008564Y0009234D01*
X0008754Y0009007D01*
X0008746Y0008997D01*
X0008969Y0008811D01*
X0008979Y0008807D01*
X0008555Y0009231D02*
X0008559Y0009220D01*
X0008745Y0008998D01*
X0008755Y0009006D01*
X0008570Y0009227D01*
X0008574Y0009219D01*
X0008967Y0008825D02*
X0008975Y0008822D01*
X0008754Y0009007D01*
X0008750Y0009002D01*
X0008565Y0009224D01*
X0008564Y0009225D01*
X0008973Y0008816D02*
X0008972Y0008817D01*
X0008750Y0009002D01*
X0008754Y0008997D01*
X0008745Y0009006D01*
X0008525Y0008786D01*
X0008535Y0008777D01*
X0008754Y0008997D01*
X0007026Y0007687D02*
X0007027Y0007686D01*
X0007249Y0007501D01*
X0007435Y0007279D01*
Y0007278D01*
X0007429Y0007276D01*
X0007426Y0007284D01*
X0007032Y0007677D02*
X0007245Y0007496D01*
X0007254Y0007506D01*
X0007031Y0007692D01*
X0007020Y0007697D01*
X0007444Y0007272D02*
X0007440Y0007282D01*
X0007254Y0007505D01*
X0007244Y0007497D01*
X0007429Y0007276D01*
X0007310Y0007736D02*
X0007305Y0007731D01*
X0007637Y0007470D02*
X0007435Y0007268D01*
X0007244Y0007497D01*
X0007016Y0007687D01*
X0007218Y0007889D01*
X0007314Y0007730D02*
X0007304Y0007722D01*
X0007215Y0007866D02*
X0007036Y0007687D01*
X0007254Y0007505D01*
X0007435Y0007287D01*
X0007614Y0007467D01*
X0007313Y0007721D02*
X0007305Y0007731D01*
X0007310Y0007736D01*
X0008694Y0008771D02*
X0008686Y0008781D01*
X0008695Y0008780D02*
X0008685Y0008773D01*
X0017075Y0010175D02*
Y0011325D01*
X0016430D01*
Y0010175D01*
X0017075D01*
X0014250Y0002950D02*
X0014750D01*
X0014850Y0002850D01*
Y0001550D01*
X0014150D01*
Y0002850D01*
X0014250Y0002950D01*
X0014150Y0002350D02*
X0014850D01*
X0001075Y0013175D02*
Y0014325D01*
X0000430D01*
Y0013175D01*
X0001075D01*
X0014325Y0014175D02*
Y0015325D01*
X0013680D01*
Y0014175D01*
X0014325D01*
X0014175Y0004325D02*
Y0003175D01*
X0014820D01*
Y0004325D01*
X0014175D01*
X0003825Y0013175D02*
Y0014325D01*
X0003180D01*
Y0013175D01*
X0003825D01*
X0021075D02*
Y0014325D01*
X0020430D01*
Y0013175D01*
X0021075D01*
X0013325Y0015425D02*
Y0016575D01*
X0012680D01*
Y0015425D01*
X0013325D01*
X0013500Y0002950D02*
X0014000D01*
X0014100Y0002850D01*
Y0001550D01*
X0013400D01*
Y0002850D01*
X0013500Y0002950D01*
X0013400Y0002350D02*
X0014100D01*
X0002075Y0013175D02*
Y0014325D01*
X0001430D01*
Y0013175D01*
X0002075D01*
X0019575Y0017425D02*
Y0018575D01*
X0018930D01*
Y0017425D01*
X0019575D01*
X0012675Y0015325D02*
Y0014175D01*
X0013320D01*
Y0015325D01*
X0012675D01*
X0001081Y0010941D02*
X0000545D01*
Y0009563D02*
Y0009327D01*
X0001081D01*
X0003419D02*
X0003955D01*
Y0009563D01*
Y0010941D01*
X0003419Y0009563D02*
X0003955D01*
X0003116Y0011968D02*
X0001384D01*
Y0011500D01*
Y0010923D01*
X0001321D01*
Y0010061D01*
X0002195D01*
Y0010923D01*
X0001726D01*
Y0011033D01*
X0002774D01*
Y0010923D01*
X0002305D01*
Y0010061D01*
X0002663D01*
Y0009939D01*
X0002305D01*
Y0009077D01*
X0003179D01*
Y0010923D01*
X0003116D01*
Y0011500D01*
Y0011968D01*
X0003419Y0010941D02*
X0003955D01*
Y0011177D01*
X0003419D01*
Y0008823D01*
X0001081D01*
Y0011177D01*
X0000545D01*
Y0010941D01*
Y0009563D01*
X0001081D01*
X0001692Y0009574D02*
X0001633Y0009633D01*
Y0009383D01*
X0001883D01*
X0001824Y0009442D01*
Y0009574D01*
X0001692D01*
Y0009442D01*
X0001824D01*
X0001633Y0009633D02*
X0001883D01*
X0001824Y0009574D01*
X0001692Y0010558D02*
X0001633Y0010617D01*
X0001883D01*
X0001824Y0010558D01*
X0001692D01*
Y0010426D01*
X0001633Y0010367D01*
X0001883D01*
X0001824Y0010426D01*
X0001692D01*
X0001883Y0009383D02*
Y0009633D01*
Y0010367D02*
Y0010617D01*
X0001824Y0010558D02*
Y0010426D01*
X0001633Y0010367D02*
Y0010617D01*
X0003179Y0010061D02*
X0002900D01*
Y0009939D01*
X0002663D01*
Y0010061D02*
X0002900D01*
X0002867Y0009383D02*
Y0009633D01*
X0002617D01*
X0002676Y0009574D01*
Y0009442D01*
X0002617Y0009383D01*
X0002867D01*
X0002808Y0009442D01*
Y0009574D01*
X0002676D01*
X0002808Y0009442D02*
X0002676D01*
X0002867Y0009633D02*
X0002808Y0009574D01*
X0002676Y0010558D02*
X0002617Y0010617D01*
X0002867D01*
X0002808Y0010558D01*
X0002676D01*
Y0010426D01*
X0002617Y0010367D01*
X0002867D01*
X0002808Y0010426D01*
X0002676D01*
X0002867Y0010367D02*
Y0010617D01*
X0002808Y0010558D02*
Y0010426D01*
X0002617Y0009383D02*
Y0009633D01*
Y0010367D02*
Y0010617D01*
X0003179Y0009939D02*
X0002900D01*
X0003274Y0012224D02*
Y0012075D01*
X0001226D01*
Y0012224D01*
X0001305Y0012303D02*
X0003200Y0012300D01*
X0003419Y0011177D02*
X0003274D01*
Y0011500D01*
Y0012075D01*
X0001384Y0011500D02*
X0001226D01*
Y0012075D01*
X0001633Y0009383D02*
X0001692Y0009442D01*
X0003116Y0010923D02*
X0002774D01*
X0001726D02*
X0001384D01*
X0001321Y0009077D02*
X0002195D01*
Y0009939D01*
X0001321D01*
Y0009077D01*
X0001081Y0011177D02*
X0001226D01*
Y0011500D01*
X0003116D02*
X0003274D01*
X0009454Y0004270D02*
X0009326D01*
X0009413Y0004368D02*
Y0004234D01*
X0009359Y0004365D02*
Y0004237D01*
X0009457Y0004324D02*
X0009323D01*
X0009499Y0004671D02*
X0009459Y0004711D01*
X0007924D01*
Y0003292D01*
X0009576D01*
Y0004590D01*
X0009499Y0004671D01*
X0007963Y0004472D02*
X0009576D01*
X0013425Y0004325D02*
Y0003175D01*
X0014070D01*
Y0004325D01*
X0013425D01*
X0008325Y0015175D02*
Y0016325D01*
X0007680D01*
Y0015175D01*
X0008325D01*
X0018825Y0017425D02*
Y0018575D01*
X0018180D01*
Y0017425D01*
X0018825D01*
X0008425Y0006825D02*
Y0005675D01*
X0009070D01*
Y0006825D01*
X0008425D01*
X0014675Y0011325D02*
Y0010175D01*
X0015320D01*
Y0011325D01*
X0014675D01*
X0012750Y0002950D02*
X0013250D01*
X0013350Y0002850D01*
Y0001550D01*
X0012650D01*
Y0002850D01*
X0012750Y0002950D01*
X0012650Y0002350D02*
X0013350D01*
X0008325Y0011925D02*
Y0013075D01*
X0007680D01*
Y0011925D01*
X0008325D01*
X0016425Y0009825D02*
Y0008675D01*
X0017070D01*
Y0009825D01*
X0016425D01*
X0017175Y0011325D02*
Y0010175D01*
X0017820D01*
Y0011325D01*
X0017175D01*
X0012675Y0004325D02*
Y0003175D01*
X0013320D01*
Y0004325D01*
X0012675D01*
X0010500Y0002950D02*
X0011000D01*
X0011100Y0002850D01*
Y0001550D01*
X0010400D01*
Y0002850D01*
X0010500Y0002950D01*
X0010400Y0002350D02*
X0011100D01*
X0007675Y0015075D02*
Y0013925D01*
X0008320D01*
Y0015075D01*
X0007675D01*
X0018100Y0017300D02*
Y0018700D01*
X0017400D01*
Y0017300D01*
X0018100D01*
X0016500Y0002950D02*
X0017000D01*
X0017100Y0002850D01*
Y0001550D01*
X0016400D01*
Y0002850D01*
X0016500Y0002950D01*
X0016400Y0002350D02*
X0017100D01*
X0012175Y0008325D02*
Y0007175D01*
X0012820D01*
Y0008325D01*
X0012175D01*
X0013597Y0010675D02*
Y0010550D01*
X0013543Y0010675D02*
Y0010550D01*
X0013489Y0010675D02*
Y0010550D01*
X0013435Y0010675D02*
Y0010550D01*
X0013381Y0010675D02*
Y0010550D01*
X0013327Y0010675D02*
Y0010550D01*
X0013273Y0010675D02*
Y0010550D01*
X0013219Y0010675D02*
Y0010550D01*
X0013165Y0010675D02*
Y0010550D01*
X0014375Y0010644D02*
X0013125D01*
X0014191Y0010675D02*
Y0010550D01*
X0014137Y0010675D02*
Y0010550D01*
X0014083Y0010675D02*
Y0010550D01*
X0014029Y0010675D02*
Y0010550D01*
X0013975Y0010675D02*
Y0010550D01*
X0013921Y0010675D02*
Y0010550D01*
X0013867Y0010675D02*
Y0010550D01*
X0013813Y0010675D02*
Y0010550D01*
X0013759Y0010675D02*
Y0010550D01*
X0013705Y0010675D02*
Y0010550D01*
X0013651Y0010675D02*
Y0010550D01*
X0014375Y0010590D02*
X0013125D01*
X0014375Y0010675D02*
Y0010550D01*
Y0010675D02*
X0013125D01*
Y0010550D01*
X0014375D02*
X0013125D01*
X0014353Y0010675D02*
Y0010550D01*
X0014299Y0010675D02*
Y0010550D01*
X0014245Y0010675D02*
Y0010550D01*
X0013238Y0009819D02*
X0013120D01*
Y0012181D01*
X0013238D01*
X0014388Y0009613D02*
X0014292D01*
X0014385Y0009641D02*
Y0009602D01*
X0014331Y0009670D02*
Y0009574D01*
X0014360Y0009667D02*
X0014321D01*
X0014262Y0009819D02*
X0014380D01*
Y0012181D01*
X0014262D01*
X0015925Y0018575D02*
Y0017425D01*
X0016570D01*
Y0018575D01*
X0015925D01*
X0006734Y0014698D02*
Y0014601D01*
X0006680Y0014730D02*
Y0014568D01*
X0006626Y0014720D02*
Y0014579D01*
X0006716Y0014715D02*
X0006619D01*
X0006749Y0014661D02*
X0006587D01*
X0006738Y0014607D02*
X0006597D01*
X0006250Y0014600D02*
X0005050D01*
Y0016800D01*
X0006550D01*
Y0014900D01*
X0006250Y0014600D01*
X0010425Y0004325D02*
Y0003175D01*
X0011070D01*
Y0004325D01*
X0010425D01*
X0013325Y0017925D02*
Y0019075D01*
X0012680D01*
Y0017925D01*
X0013325D01*
X0016425Y0004325D02*
Y0003175D01*
X0017070D01*
Y0004325D01*
X0016425D01*
X0003425Y0016325D02*
Y0015175D01*
X0004070D01*
Y0016325D01*
X0003425D01*
X0009847Y0007950D02*
Y0007825D01*
X0009793Y0007950D02*
Y0007825D01*
X0009739Y0007950D02*
Y0007825D01*
X0009685Y0007950D02*
Y0007825D01*
X0009631Y0007950D02*
Y0007825D01*
X0009577Y0007950D02*
Y0007825D01*
X0009523Y0007950D02*
Y0007825D01*
X0009469Y0007950D02*
Y0007825D01*
X0009415Y0007950D02*
Y0007825D01*
X0010625Y0007919D02*
X0009375D01*
X0010441Y0007950D02*
Y0007825D01*
X0010387Y0007950D02*
Y0007825D01*
X0010333Y0007950D02*
Y0007825D01*
X0010279Y0007950D02*
Y0007825D01*
X0010225Y0007950D02*
Y0007825D01*
X0010171Y0007950D02*
Y0007825D01*
X0010117Y0007950D02*
Y0007825D01*
X0010063Y0007950D02*
Y0007825D01*
X0010009Y0007950D02*
Y0007825D01*
X0009955Y0007950D02*
Y0007825D01*
X0009901Y0007950D02*
Y0007825D01*
X0010625Y0007865D02*
X0009375D01*
Y0007950D02*
Y0007825D01*
X0010625D02*
X0009375D01*
X0010625Y0007950D02*
Y0007825D01*
Y0007950D02*
X0009375D01*
X0010603D02*
Y0007825D01*
X0010549Y0007950D02*
Y0007825D01*
X0010495Y0007950D02*
Y0007825D01*
X0010512Y0008681D02*
X0010630D01*
Y0006319D01*
X0010512D01*
X0009458Y0008868D02*
X0009361D01*
X0009454Y0008898D02*
Y0008857D01*
X0009400Y0008926D02*
Y0008829D01*
X0009430Y0008922D02*
X0009388D01*
G01X0008659Y0012828D02*
G03X0008709Y0012878I0000000J0000050D01*
G01X0008610D02*
G03X0008659Y0012829I0000049J0000000D01*
Y0012927D02*
G03X0008610Y0012878I0000000J0000049D01*
G01X0008709D02*
G03X0008659Y0012928I0000050J0000000D01*
G01X0005409Y0008828D02*
G03X0005459Y0008878I0000000J0000050D01*
G01X0005360D02*
G03X0005409Y0008829I0000049J0000000D01*
Y0008927D02*
G03X0005360Y0008878I0000000J0000049D01*
G01X0005459D02*
G03X0005409Y0008928I0000050J0000000D01*
G01X0016160Y0007982D02*
G03X0016238Y0008060I0000000J0000078D01*
G01X0016082D02*
G03X0016160Y0007982I0000078J0000000D01*
Y0008138D02*
G03X0016082Y0008060I0000000J0000078D01*
G01X0016238D02*
G03X0016160Y0008138I0000078J0000000D01*
G01X0001305Y0007803D02*
G03X0001226Y0007724I0000000J0000079D01*
G01X0003270Y0007730D02*
G03X0003200Y0007800I0000080J0000010D01*
G01X0012340Y0018283D02*
G03X0012242Y0018411I0000132J0000000D01*
Y0018155D02*
G03X0012340Y0018283I0000034J0000128D01*
G01X0012370Y0016250D02*
G03X0012242Y0016378I0000128J0000000D01*
Y0016122D02*
G03X0012370Y0016250I0000000J0000128D01*
G01X0012340Y0014216D02*
G03X0012242Y0014344I0000132J0000000D01*
Y0014088D02*
G03X0012340Y0014216I0000034J0000128D01*
G01X0015500Y0012592D02*
G03X0015658Y0012750I0000000J0000158D01*
G01X0015342D02*
G03X0015500Y0012592I0000158J0000000D01*
Y0012908D02*
G03X0015342Y0012750I0000000J0000158D01*
G01X0015658D02*
G03X0015500Y0012908I0000158J0000000D01*
G01X0006140Y0004230D02*
G03X0006211Y0004301I0000000J0000071D01*
G01X0006069D02*
G03X0006140Y0004230I0000071J0000000D01*
Y0004372D02*
G03X0006069Y0004301I0000000J0000071D01*
G01X0006211D02*
G03X0006140Y0004372I0000071J0000000D01*
G01X0001390Y0015492D02*
G03X0001370Y0015472I0000000J0000020D01*
Y0014527D02*
G03X0001390Y0014507I0000020J0000000D01*
G01X0002610Y0014508D02*
G03X0002629Y0014527I0000000J0000019D01*
G01X0002630Y0015472D02*
G03X0002610Y0015492I0000020J0000000D01*
G01X0007547Y0007395D02*
G03X0007998Y0007283I0000451J0000854D01*
G01X0007541Y0007384D02*
G03X0007998Y0007271I0000457J0000864D01*
G01X0008967Y0008253D02*
G03X0008856Y0008702I0000963J0000000D01*
G01X0008967Y0008251D02*
G03X0008967Y0008253I0000963J0000002D01*
G01X0008980Y0008251D02*
G03X0008980Y0008253I0000977J0000002D01*
G03X0008868Y0008708I0000977J0000000D01*
G01X0008900Y0007288D02*
G03X0008963Y0007356I0000005J0000068D01*
G01X0008895Y0007267D02*
G03X0008984Y0007356I0000000J0000089D01*
G01X0008895Y0007271D02*
G03X0008980Y0007355I0000000J0000085D01*
G01X0008901Y0007284D02*
G03X0008967Y0007350I0000006J0000072D01*
G01X0008414Y0007430D02*
G03X0008830Y0007855I0000416J0000824D01*
G01X0008401Y0007438D02*
G03X0008818Y0007861I0000404J0000816D01*
G01X0008773Y0008629D02*
G03X0008689Y0008767I0000772J0000376D01*
G01X0008613Y0008741D02*
G03X0008689Y0008767I0000000J0000124D01*
G01X0008489Y0008865D02*
G03X0008613Y0008741I0000124J0000000D01*
G01X0008519Y0008946D02*
G03X0008489Y0008865I0000094J0000081D01*
G01X0008530Y0008938D02*
G03X0008502Y0008865I0000083J0000073D01*
G03X0008613Y0008754I0000111J0000000D01*
G03X0008691Y0008786I0000000J0000111D01*
G01X0008784Y0008636D02*
G03X0008691Y0008786I0000786J0000385D01*
G01X0008528Y0008947D02*
G03X0008384Y0009036I0000526J0000692D01*
G01X0008521Y0008937D02*
G03X0008362Y0009032I0000524J0000689D01*
G01X0008979Y0008807D02*
G03X0008980Y0008834I0000397J0000027D01*
G03X0008582Y0009232I0000398J0000000D01*
G03X0008555Y0009231I0000000J0000398D01*
G01X0008582Y0009219D02*
G03X0008574Y0009219I0000000J0000385D01*
G01X0008967Y0008834D02*
G03X0008582Y0009219I0000385J0000000D01*
G01X0008967Y0008825D02*
G03X0008967Y0008834I0000385J0000009D01*
G01X0008582Y0009226D02*
G03X0008564Y0009225I0000000J0000392D01*
G01X0008974Y0008834D02*
G03X0008582Y0009226I0000392J0000000D01*
G01X0008973Y0008816D02*
G03X0008973Y0008834I0000391J0000018D01*
G01X0007417Y0007277D02*
G03X0007435Y0007278I0000000J0000392D01*
G01X0007026Y0007669D02*
G03X0007417Y0007278I0000391J0000000D01*
G01X0007026Y0007687D02*
G03X0007026Y0007669I0000391J0000018D01*
G01X0007417Y0007284D02*
G03X0007426Y0007284I0000000J0000385D01*
G01X0007032Y0007669D02*
G03X0007417Y0007284I0000385J0000000D01*
G01X0007032Y0007677D02*
G03X0007032Y0007669I0000385J0000008D01*
G01X0007020Y0007697D02*
G03X0007019Y0007669I0000397J0000028D01*
G03X0007417Y0007271I0000398J0000000D01*
G03X0007444Y0007272I0000000J0000398D01*
G01X0007386Y0007762D02*
G03X0007310Y0007736I0000000J0000124D01*
G01X0007386Y0007762D02*
G03X0007305Y0007731I0000000J0000124D01*
G01X0007510Y0007638D02*
G03X0007386Y0007762I0000124J0000000D01*
G01X0007484Y0007562D02*
G03X0007510Y0007638I0000098J0000076D01*
G01X0007484Y0007562D02*
G03X0007637Y0007470I0000516J0000692D01*
G01X0007218Y0007889D02*
G03X0007314Y0007730I0000772J0000357D01*
G01X0007215Y0007866D02*
G03X0007304Y0007722I0000776J0000380D01*
G01X0007465Y0007559D02*
G03X0007614Y0007467I0000534J0000694D01*
G01X0007465Y0007559D02*
G03X0007498Y0007638I0000079J0000079D01*
G01X0007497D02*
G03X0007386Y0007749I0000111J0000000D01*
G03X0007313Y0007721I0000000J0000111D01*
G01X0007138Y0008252D02*
G03X0007310Y0007736I0000861J0000000D01*
G01X0007999Y0009113D02*
G03X0007138Y0008252I0000000J0000861D01*
G01X0008515Y0008941D02*
G03X0007999Y0009113I0000516J0000689D01*
G01X0008515Y0008941D02*
G03X0008489Y0008865I0000098J0000076D01*
G03X0008613Y0008741I0000124J0000000D01*
G03X0008694Y0008771I0000000J0000124D01*
G01X0008613Y0008754D02*
G03X0008686Y0008781I0000000J0000111D01*
G01X0008502Y0008865D02*
G03X0008613Y0008754I0000111J0000000D01*
G01X0008534Y0008943D02*
G03X0008502Y0008865I0000079J0000078D01*
G01X0008534Y0008943D02*
G03X0007999Y0009126I0000535J0000692D01*
G03X0007124Y0008251I0000000J0000875D01*
G01X0007125D02*
G03X0007308Y0007717I0000874J0000000D01*
G01X0007386Y0007749D02*
G03X0007308Y0007717I0000000J0000112D01*
G01X0007497Y0007637D02*
G03X0007386Y0007748I0000111J0000000D01*
G01X0007465Y0007559D02*
G03X0007497Y0007637I0000079J0000078D01*
G01X0007465Y0007559D02*
G03X0007999Y0007377I0000534J0000692D01*
G03X0008873Y0008251I0000000J0000874D01*
G01X0008874D02*
G03X0008695Y0008780I0000875J0000000D01*
G01X0008861Y0008251D02*
G03X0008685Y0008773I0000861J0000000D01*
G01X0008000Y0007390D02*
G03X0008861Y0008251I0000000J0000861D01*
G01X0007484Y0007562D02*
G03X0008000Y0007390I0000516J0000689D01*
G01X0007484Y0007562D02*
G03X0007510Y0007638I0000098J0000076D01*
G01X0001305Y0012303D02*
G03X0001226Y0012224I0000000J0000079D01*
G01X0003270Y0012230D02*
G03X0003200Y0012300I0000080J0000010D01*
G01X0009390Y0004230D02*
G03X0009461Y0004301I0000000J0000071D01*
G01X0009319D02*
G03X0009390Y0004230I0000071J0000000D01*
Y0004372D02*
G03X0009319Y0004301I0000000J0000071D01*
G01X0009461D02*
G03X0009390Y0004372I0000071J0000000D01*
G01X0014340Y0009573D02*
G03X0014389Y0009622I0000000J0000049D01*
G01X0014291D02*
G03X0014340Y0009573I0000049J0000000D01*
Y0009671D02*
G03X0014291Y0009622I0000000J0000049D01*
G01X0014389D02*
G03X0014340Y0009671I0000049J0000000D01*
G01X0006586Y0014649D02*
G03X0006668Y0014567I0000082J0000000D01*
Y0014731D02*
G03X0006586Y0014649I0000000J0000082D01*
G01X0006750D02*
G03X0006668Y0014731I0000082J0000000D01*
Y0014567D02*
G03X0006750Y0014649I0000000J0000082D01*
G01X0009409Y0008828D02*
G03X0009459Y0008878I0000000J0000050D01*
G01X0009360D02*
G03X0009409Y0008829I0000049J0000000D01*
Y0008927D02*
G03X0009360Y0008878I0000000J0000049D01*
G01X0009459D02*
G03X0009409Y0008928I0000050J0000000D01*
G54D69*
G01X0019258Y0006213D02*
X0023116D01*
Y0007630D01*
X0019258D01*
Y0006213D01*
X0023116Y0006606D02*
X0022958D01*
Y0007472D01*
X0019415D01*
Y0006606D01*
X0019258D01*
X0022387Y0006406D02*
Y0006213D01*
X0022316Y0006469D02*
Y0006213D01*
X0022245Y0006523D02*
Y0006213D01*
X0022174Y0006460D02*
Y0006213D01*
X0022103Y0006397D02*
Y0006213D01*
X0022033Y0006334D02*
Y0006213D01*
X0021962Y0006271D02*
Y0006213D01*
X0022291Y0006491D02*
X0022209D01*
X0022370Y0006420D02*
X0022129D01*
X0022450Y0006350D02*
X0022050D01*
X0022529Y0006279D02*
X0021970D01*
X0021935Y0006213D02*
X0021896D01*
X0022604D02*
X0021935D01*
X0022250Y0006528D02*
X0022604Y0006213D01*
X0022250Y0006528D02*
X0021896Y0006213D01*
X0022528Y0006280D02*
Y0006213D01*
X0022457Y0006343D02*
Y0006213D01*
X0009746Y0002169D02*
X0007463D01*
Y0000398D01*
X0009825D01*
Y0002169D01*
X0009746D01*
X0009628Y0001972D02*
Y0000594D01*
X0007659D01*
Y0001972D01*
X0009628D01*
X0008486Y0002169D02*
X0008014D01*
X0008434D02*
Y0001972D01*
X0008363Y0002169D02*
Y0001972D01*
X0008292Y0002169D02*
Y0001972D01*
X0008221Y0002169D02*
Y0001972D01*
X0008151Y0002169D02*
Y0001972D01*
X0008080Y0002169D02*
Y0001972D01*
X0008486Y0002109D02*
X0008014D01*
X0008486Y0002039D02*
X0008014D01*
X0008486Y0002169D02*
Y0001972D01*
X0008014D01*
Y0002169D02*
Y0001972D01*
X0019258Y0010713D02*
X0023116D01*
Y0012130D01*
X0019258D01*
Y0010713D01*
X0023116Y0011106D02*
X0022958D01*
Y0011972D01*
X0019415D01*
Y0011106D01*
X0019258D01*
X0022387Y0010906D02*
Y0010713D01*
X0022316Y0010969D02*
Y0010713D01*
X0022245Y0011023D02*
Y0010713D01*
X0022174Y0010960D02*
Y0010713D01*
X0022103Y0010897D02*
Y0010713D01*
X0022033Y0010834D02*
Y0010713D01*
X0021962Y0010771D02*
Y0010713D01*
X0022291Y0010991D02*
X0022209D01*
X0022370Y0010920D02*
X0022129D01*
X0022450Y0010850D02*
X0022050D01*
X0022529Y0010779D02*
X0021970D01*
X0021935Y0010713D02*
X0021896D01*
X0022604D02*
X0021935D01*
X0022250Y0011028D02*
X0022604Y0010713D01*
X0022250Y0011028D02*
X0021896Y0010713D01*
X0022528Y0010780D02*
Y0010713D01*
X0022457Y0010843D02*
Y0010713D01*
X0006496Y0002169D02*
X0004213D01*
Y0000398D01*
X0006575D01*
Y0002169D01*
X0006496D01*
X0006378Y0001972D02*
Y0000594D01*
X0004409D01*
Y0001972D01*
X0006378D01*
X0005236Y0002169D02*
X0004764D01*
X0005184D02*
Y0001972D01*
X0005113Y0002169D02*
Y0001972D01*
X0005042Y0002169D02*
Y0001972D01*
X0004971Y0002169D02*
Y0001972D01*
X0004901Y0002169D02*
Y0001972D01*
X0004830Y0002169D02*
Y0001972D01*
X0005236Y0002109D02*
X0004764D01*
X0005236Y0002039D02*
X0004764D01*
X0005236Y0002169D02*
Y0001972D01*
X0004764D01*
Y0002169D02*
Y0001972D01*
X0007199Y0010166D02*
Y0009896D01*
X0007129Y0010216D02*
Y0009846D01*
X0007058Y0010232D02*
Y0009830D01*
X0006987Y0010222D02*
Y0009841D01*
X0006916Y0010180D02*
Y0009882D01*
X0007186Y0010180D02*
X0006916D01*
X0007236Y0010109D02*
X0006866D01*
X0007252Y0010038D02*
X0006850D01*
X0007241Y0009967D02*
X0006860D01*
X0007200Y0009897D02*
X0006902D01*
X0007287Y0009679D02*
X0007366Y0009677D01*
Y0014321D01*
X0004258D01*
Y0009679D01*
X0007287D01*
X0019258Y0003963D02*
X0023116D01*
Y0005380D01*
X0019258D01*
Y0003963D01*
X0023116Y0004356D02*
X0022958D01*
Y0005222D01*
X0019415D01*
Y0004356D01*
X0019258D01*
X0022387Y0004156D02*
Y0003963D01*
X0022316Y0004219D02*
Y0003963D01*
X0022245Y0004273D02*
Y0003963D01*
X0022174Y0004210D02*
Y0003963D01*
X0022103Y0004147D02*
Y0003963D01*
X0022033Y0004084D02*
Y0003963D01*
X0021962Y0004021D02*
Y0003963D01*
X0022291Y0004241D02*
X0022209D01*
X0022370Y0004170D02*
X0022129D01*
X0022450Y0004100D02*
X0022050D01*
X0022529Y0004029D02*
X0021970D01*
X0021935Y0003963D02*
X0021896D01*
X0022604D02*
X0021935D01*
X0022250Y0004278D02*
X0022604Y0003963D01*
X0022250Y0004278D02*
X0021896Y0003963D01*
X0022528Y0004030D02*
Y0003963D01*
X0022457Y0004093D02*
Y0003963D01*
X0019258Y0008463D02*
X0023116D01*
Y0009880D01*
X0019258D01*
Y0008463D01*
X0023116Y0008856D02*
X0022958D01*
Y0009722D01*
X0019415D01*
Y0008856D01*
X0019258D01*
X0022387Y0008656D02*
Y0008463D01*
X0022316Y0008719D02*
Y0008463D01*
X0022245Y0008773D02*
Y0008463D01*
X0022174Y0008710D02*
Y0008463D01*
X0022103Y0008647D02*
Y0008463D01*
X0022033Y0008584D02*
Y0008463D01*
X0021962Y0008521D02*
Y0008463D01*
X0022291Y0008741D02*
X0022209D01*
X0022370Y0008670D02*
X0022129D01*
X0022450Y0008600D02*
X0022050D01*
X0022529Y0008529D02*
X0021970D01*
X0021935Y0008463D02*
X0021896D01*
X0022604D02*
X0021935D01*
X0022250Y0008778D02*
X0022604Y0008463D01*
X0022250Y0008778D02*
X0021896Y0008463D01*
X0022528Y0008530D02*
Y0008463D01*
X0022457Y0008593D02*
Y0008463D01*
G01X0007051Y0009830D02*
G03X0007252Y0010031I0000000J0000201D01*
G01X0006850D02*
G03X0007051Y0009830I0000201J0000000D01*
Y0010232D02*
G03X0006850Y0010031I0000000J0000201D01*
G01X0007252D02*
G03X0007051Y0010232I0000201J0000000D01*
M02*
