%
T1C0.0079F200S100
X000750Y013000
X001750Y013000
X002750Y013000
X003200Y015750
X003500Y013000
X004750Y007250
X005000Y005700
X005264Y006535
X006400Y015500
X006500Y018450
X007000Y014600
X007750Y006550
X008000Y011750
X008250Y005700
X008470Y014780
X008480Y015470
X009200Y006500
X010000Y005700
X010035Y010535
X011100Y003100
X011100Y006150
X011400Y006500
X011500Y001300
X011500Y008950
X011500Y013000
X011500Y014500
X012250Y001300
X012260Y013680
X012400Y011600
X012500Y006950
X012500Y008450
X013000Y001300
X013250Y006900
X013250Y008450
X013500Y014500
X013500Y015000
X013500Y015600
X013530Y017530
X013750Y001250
X013750Y009350
X013750Y012700
X013830Y018220
X014000Y008450
X014500Y001250
X014750Y006950
X014750Y008450
X015000Y010000
X015000Y011500
X015250Y001250
X016000Y001250
X015250Y017000
X016170Y011030
X016200Y018750
X016250Y008950
X016250Y009550
X016500Y016000
X016750Y001250
X016860Y015990
X017000Y018700
X017750Y018900
X017800Y011550
X017950Y009700
X018400Y009850
X018500Y018750
X018750Y010200
X019250Y017300
X019250Y018750
X019350Y016850
X021350Y013500
X021350Y014000
T6C0.0472F200S100
X001758Y005008
X001758Y005992
X002742Y005008
X002742Y005992
X002742Y009508
X001758Y009508
X001758Y010492
X002742Y010492
T7C0.0630F200S100
X000903Y005878
X003596Y005878
X003596Y010378
X000903Y010378
X017000Y007250
T4C0.0354F200S100
X019888Y004750
X020675Y004750
X020675Y007000
X019888Y007000
X019888Y009250
X020675Y009250
X020675Y011500
X019888Y011500
X021463Y004750
X022250Y004750
X022250Y007000
X021463Y007000
X021463Y009250
X022250Y009250
X022250Y011500
X021463Y011500
T5C0.0433F200S100
X006500Y011000
X006500Y012000
X006500Y013000
X010000Y015250
X010000Y016250
X010000Y017250
X011000Y015250
X011000Y016250
X011000Y017250
T3C0.0315F200S100
X005000Y001500
X005787Y001500
X008250Y001500
X009037Y001500
T2C0.0118F200S100
X016606Y006856
X016606Y007250
X016606Y007644
X017000Y006856
X017000Y007644
X017394Y006856
X017394Y007250
X017394Y007644
M30
